<?xml version="1.0" encoding="UTF-8" ?>
<!DOCTYPE svg PUBLIC "-//W3C//DTD SVG 1.1//EN" "http://www.w3.org/Graphics/SVG/1.1/DTD/svg11.dtd">
<svg width="400pt" height="225pt" viewBox="0 0 400 225" version="1.1" xmlns="http://www.w3.org/2000/svg">
<g id="#ffffffff">
<path fill="#ffffff" opacity="1.00" d=" M 0.00 0.00 L 400.00 0.00 L 400.00 225.00 L 0.00 225.00 L 0.00 0.00 M 127.03 88.02 C 124.06 96.74 127.24 106.23 124.56 114.99 C 123.87 117.44 121.09 117.57 119.01 117.86 C 118.99 120.62 118.99 123.38 119.01 126.14 C 120.80 126.56 122.55 127.09 124.29 127.68 C 127.42 137.12 123.74 147.42 127.32 156.72 C 129.26 162.12 135.45 164.22 140.75 163.78 C 140.83 161.15 140.84 158.52 140.82 155.89 C 138.47 155.46 135.06 155.30 134.70 152.26 C 133.38 144.19 135.31 135.82 133.03 127.86 C 132.43 125.56 130.85 123.73 129.33 121.97 C 130.71 120.46 132.42 119.06 132.93 116.98 C 135.54 108.56 133.15 99.60 134.81 91.06 C 135.73 88.56 138.72 88.77 140.85 88.15 C 140.84 85.49 140.82 82.83 140.71 80.17 C 135.15 79.67 128.97 82.53 127.03 88.02 M 255.43 80.14 C 255.31 82.80 255.27 85.47 255.22 88.13 C 257.02 88.58 258.83 89.04 260.63 89.51 C 263.48 98.79 259.87 108.99 263.58 118.14 C 264.31 119.64 265.57 120.79 266.65 122.04 C 261.54 126.88 261.85 134.48 261.74 140.96 C 261.53 145.43 262.53 150.28 260.52 154.45 C 258.94 155.38 257.07 155.54 255.32 155.93 C 255.53 158.51 254.63 161.51 255.96 163.82 C 260.82 164.19 266.42 162.17 268.42 157.39 C 272.47 148.62 268.95 138.64 271.29 129.55 C 271.81 126.85 274.81 126.56 277.00 126.16 C 277.03 123.41 277.02 120.66 276.97 117.91 C 274.79 117.61 271.94 117.39 271.35 114.76 C 269.01 105.83 272.20 96.16 268.76 87.39 C 266.58 82.28 260.72 79.88 255.43 80.14 M 172.33 87.43 C 167.22 88.24 162.24 90.04 157.95 92.94 C 144.45 101.32 137.54 119.19 142.34 134.41 C 145.64 146.69 155.88 156.73 168.14 160.01 C 182.89 164.34 199.95 158.18 208.55 145.45 C 216.33 134.59 217.44 119.47 211.39 107.56 C 204.48 93.41 187.89 84.69 172.33 87.43 M 226.29 124.49 C 226.89 124.45 228.07 124.39 228.67 124.36 C 228.75 119.52 228.69 114.68 228.79 109.84 C 234.17 113.85 237.69 119.78 242.35 124.55 C 242.57 123.93 243.03 122.69 243.25 122.07 C 242.68 115.29 244.51 108.15 242.07 101.64 C 239.12 106.57 241.23 112.70 240.51 118.15 C 235.72 112.90 230.93 107.64 226.55 102.03 C 225.98 109.50 226.07 117.01 226.29 124.49 M 218.71 123.78 C 219.44 123.76 220.88 123.71 221.61 123.68 C 221.52 117.78 221.67 111.88 221.57 105.99 C 221.71 104.27 221.12 102.84 219.81 101.69 C 217.69 108.85 219.19 116.43 218.71 123.78 M 246.11 102.59 C 246.18 103.29 246.31 104.70 246.38 105.40 C 247.66 105.40 248.94 105.41 250.23 105.43 C 250.20 111.78 250.18 118.13 250.32 124.47 C 251.29 124.41 252.26 124.35 253.23 124.30 C 253.30 117.97 253.15 111.65 253.21 105.33 C 254.70 105.35 256.20 105.38 257.70 105.41 C 257.67 104.44 257.65 103.48 257.63 102.51 C 253.79 102.59 249.95 102.60 246.11 102.59 Z" />
<path fill="#ffffff" opacity="1.00" d=" M 159.50 113.63 C 166.64 101.70 185.36 99.68 194.89 109.85 C 193.42 111.63 191.89 113.36 190.27 115.01 C 185.45 111.16 178.69 108.66 172.88 111.90 C 164.22 115.93 162.97 128.91 169.69 135.22 C 173.36 138.52 178.61 139.04 183.28 138.14 C 186.43 137.42 188.77 134.92 191.83 133.99 C 193.42 135.47 195.43 137.47 194.66 139.86 C 185.89 147.77 171.09 147.86 162.49 139.66 C 155.77 132.99 155.13 121.74 159.50 113.63 Z" />
<path fill="#ffffff" opacity="1.00" d=" M 194.11 123.55 C 199.70 123.49 205.28 123.52 210.86 123.52 C 210.83 124.05 210.78 125.11 210.76 125.64 C 205.27 125.56 199.78 125.56 194.29 125.61 C 194.25 125.09 194.16 124.06 194.11 123.55 Z" />
</g>
<g id="#616161ff">
<path fill="#616161" opacity="1.00" d=" M 127.03 88.02 C 128.97 82.53 135.15 79.67 140.71 80.17 C 140.82 82.83 140.84 85.49 140.85 88.15 C 138.72 88.77 135.73 88.56 134.81 91.06 C 133.15 99.60 135.54 108.56 132.93 116.98 C 132.42 119.06 130.71 120.46 129.33 121.97 C 130.85 123.73 132.43 125.56 133.03 127.86 C 135.31 135.82 133.38 144.19 134.70 152.26 C 135.06 155.30 138.47 155.46 140.82 155.89 C 140.84 158.52 140.83 161.15 140.75 163.78 C 135.45 164.22 129.26 162.12 127.32 156.72 C 123.74 147.42 127.42 137.12 124.29 127.68 C 122.55 127.09 120.80 126.56 119.01 126.14 C 118.99 123.38 118.99 120.62 119.01 117.86 C 121.09 117.57 123.87 117.44 124.56 114.99 C 127.24 106.23 124.06 96.74 127.03 88.02 Z" />
<path fill="#616161" opacity="1.00" d=" M 255.43 80.14 C 260.72 79.88 266.58 82.28 268.76 87.39 C 272.20 96.16 269.01 105.83 271.35 114.76 C 271.94 117.39 274.79 117.61 276.97 117.91 C 277.02 120.66 277.03 123.41 277.00 126.16 C 274.81 126.56 271.81 126.85 271.29 129.55 C 268.95 138.64 272.47 148.62 268.42 157.39 C 266.42 162.17 260.82 164.19 255.96 163.82 C 254.63 161.51 255.53 158.51 255.32 155.93 C 257.07 155.54 258.94 155.38 260.52 154.45 C 262.53 150.28 261.53 145.43 261.74 140.96 C 261.85 134.48 261.54 126.88 266.65 122.04 C 265.57 120.79 264.31 119.64 263.58 118.14 C 259.87 108.99 263.48 98.79 260.63 89.51 C 258.83 89.04 257.02 88.58 255.22 88.13 C 255.27 85.47 255.31 82.80 255.43 80.14 Z" />
</g>
<g id="#029ce7ff">
<path fill="#029ce7" opacity="1.00" d=" M 172.33 87.43 C 187.89 84.69 204.48 93.41 211.39 107.56 C 217.44 119.47 216.33 134.59 208.55 145.45 C 199.95 158.18 182.89 164.34 168.14 160.01 C 155.88 156.73 145.64 146.69 142.34 134.41 C 137.54 119.19 144.45 101.32 157.95 92.94 C 162.24 90.04 167.22 88.24 172.33 87.43 M 159.50 113.63 C 155.13 121.74 155.77 132.99 162.49 139.66 C 171.09 147.86 185.89 147.77 194.66 139.86 C 195.43 137.47 193.42 135.47 191.83 133.99 C 188.77 134.92 186.43 137.42 183.28 138.14 C 178.61 139.04 173.36 138.52 169.69 135.22 C 162.97 128.91 164.22 115.93 172.88 111.90 C 178.69 108.66 185.45 111.16 190.27 115.01 C 191.89 113.36 193.42 111.63 194.89 109.85 C 185.36 99.68 166.64 101.70 159.50 113.63 M 194.11 123.55 C 194.16 124.06 194.25 125.09 194.29 125.61 C 199.78 125.56 205.27 125.56 210.76 125.64 C 210.78 125.11 210.83 124.05 210.86 123.52 C 205.28 123.52 199.70 123.49 194.11 123.55 Z" />
<path fill="#029ce7" opacity="1.00" d=" M 226.29 124.49 C 226.07 117.01 225.98 109.50 226.55 102.03 C 230.93 107.64 235.72 112.90 240.51 118.15 C 241.23 112.70 239.12 106.57 242.07 101.64 C 244.51 108.15 242.68 115.29 243.25 122.07 C 243.03 122.69 242.57 123.93 242.35 124.55 C 237.69 119.78 234.17 113.85 228.79 109.84 C 228.69 114.68 228.75 119.52 228.67 124.36 C 228.07 124.39 226.89 124.45 226.29 124.49 Z" />
<path fill="#029ce7" opacity="1.00" d=" M 218.71 123.78 C 219.19 116.43 217.69 108.85 219.81 101.69 C 221.12 102.84 221.71 104.27 221.57 105.99 C 221.67 111.88 221.52 117.78 221.61 123.68 C 220.88 123.71 219.44 123.76 218.71 123.78 Z" />
<path fill="#029ce7" opacity="1.00" d=" M 246.11 102.59 C 249.95 102.60 253.79 102.59 257.63 102.51 C 257.65 103.48 257.67 104.44 257.70 105.41 C 256.20 105.38 254.70 105.35 253.21 105.33 C 253.15 111.65 253.30 117.97 253.23 124.30 C 252.26 124.35 251.29 124.41 250.32 124.47 C 250.18 118.13 250.20 111.78 250.23 105.43 C 248.94 105.41 247.66 105.40 246.38 105.40 C 246.31 104.70 246.18 103.29 246.11 102.59 Z" />
</g>
</svg>
