<?xml version="1.0" encoding="UTF-8" ?>
<!DOCTYPE svg PUBLIC "-//W3C//DTD SVG 1.1//EN" "http://www.w3.org/Graphics/SVG/1.1/DTD/svg11.dtd">
<svg width="400pt" height="224pt" viewBox="0 0 400 224" version="1.1" xmlns="http://www.w3.org/2000/svg">
<g id="#ffffffff">
<path fill="#ffffff" opacity="1.00" d=" M 0.00 0.00 L 400.00 0.00 L 400.00 224.00 L 0.00 224.00 L 0.00 0.00 M 128.32 42.21 C 150.10 62.59 171.85 83.01 193.54 103.48 C 195.74 105.21 197.39 107.86 200.00 108.93 C 202.46 107.12 204.50 104.80 206.81 102.80 C 228.18 82.54 249.75 62.50 271.12 42.25 C 223.52 42.09 175.92 42.16 128.32 42.21 M 227.87 133.70 C 243.48 133.86 259.08 133.78 274.69 133.77 C 274.70 104.50 274.75 75.24 274.66 45.97 C 258.96 75.16 243.50 104.48 227.87 133.70 M 125.22 46.21 C 125.13 75.40 125.16 104.59 125.20 133.79 C 140.75 133.77 156.29 133.84 171.83 133.72 C 156.17 104.62 140.69 75.41 125.22 46.21 M 129.08 47.14 C 144.52 75.63 159.39 104.43 174.86 132.90 C 182.31 125.69 189.85 118.58 197.54 111.63 C 190.86 104.58 183.36 98.35 176.47 91.50 C 160.61 76.78 145.08 61.70 129.08 47.14 M 202.10 111.21 C 209.42 118.74 217.35 125.64 224.93 132.91 C 239.96 104.26 255.35 75.79 270.39 47.14 C 247.54 68.40 225.01 90.02 202.10 111.21 M 178.23 133.76 C 192.58 133.76 206.93 133.86 221.28 133.72 C 214.15 126.96 206.97 120.26 199.87 113.48 C 192.62 120.20 185.49 127.05 178.23 133.76 M 125.22 136.80 C 125.13 151.06 125.14 165.31 125.21 179.57 C 140.15 165.14 155.55 151.21 170.45 136.75 C 155.38 136.79 140.30 136.72 125.22 136.80 M 176.88 136.77 C 184.43 151.27 192.11 165.71 199.89 180.09 C 207.39 165.57 215.23 151.23 222.81 136.75 C 207.50 136.78 192.19 136.76 176.88 136.77 M 229.05 136.79 C 244.25 151.12 259.54 165.35 274.66 179.76 C 274.70 165.42 274.79 151.07 274.62 136.73 C 259.43 136.84 244.24 136.69 229.05 136.79 M 127.50 181.57 C 150.70 181.63 173.91 181.51 197.11 181.62 C 189.61 166.95 181.69 152.48 173.99 137.91 C 158.36 152.32 142.98 167.00 127.50 181.57 M 225.59 137.96 C 217.79 152.43 210.28 167.06 202.35 181.47 C 225.59 181.69 248.84 181.57 272.08 181.54 C 256.57 167.03 241.30 152.24 225.59 137.96 Z" />
</g>
<g id="#c00001ff">
<path fill="#c00001" opacity="1.00" d=" M 128.32 42.21 C 175.92 42.16 223.52 42.09 271.12 42.25 C 249.75 62.50 228.18 82.54 206.81 102.80 C 204.50 104.80 202.46 107.12 200.00 108.93 C 197.39 107.86 195.74 105.21 193.54 103.48 C 171.85 83.01 150.10 62.59 128.32 42.21 Z" />
<path fill="#c00001" opacity="1.00" d=" M 227.87 133.70 C 243.50 104.48 258.96 75.16 274.66 45.97 C 274.75 75.24 274.70 104.50 274.69 133.77 C 259.08 133.78 243.48 133.86 227.87 133.70 Z" />
<path fill="#c00001" opacity="1.00" d=" M 125.22 46.21 C 140.69 75.41 156.17 104.62 171.83 133.72 C 156.29 133.84 140.75 133.77 125.20 133.79 C 125.16 104.59 125.13 75.40 125.22 46.21 Z" />
<path fill="#c00001" opacity="1.00" d=" M 129.08 47.14 C 145.08 61.70 160.61 76.78 176.47 91.50 C 183.36 98.35 190.86 104.58 197.54 111.63 C 189.85 118.58 182.31 125.69 174.86 132.90 C 159.39 104.43 144.52 75.63 129.08 47.14 Z" />
<path fill="#c00001" opacity="1.00" d=" M 202.10 111.21 C 225.01 90.02 247.54 68.40 270.39 47.14 C 255.35 75.79 239.96 104.26 224.93 132.91 C 217.35 125.64 209.42 118.74 202.10 111.21 Z" />
<path fill="#c00001" opacity="1.00" d=" M 178.23 133.76 C 185.49 127.05 192.62 120.20 199.87 113.48 C 206.97 120.26 214.15 126.96 221.28 133.72 C 206.93 133.86 192.58 133.76 178.23 133.76 Z" />
<path fill="#c00001" opacity="1.00" d=" M 125.22 136.80 C 140.30 136.72 155.38 136.79 170.45 136.75 C 155.55 151.21 140.15 165.14 125.21 179.57 C 125.14 165.31 125.13 151.06 125.22 136.80 Z" />
<path fill="#c00001" opacity="1.00" d=" M 176.88 136.77 C 192.19 136.76 207.50 136.78 222.81 136.75 C 215.23 151.23 207.39 165.57 199.89 180.09 C 192.11 165.71 184.43 151.27 176.88 136.77 Z" />
<path fill="#c00001" opacity="1.00" d=" M 229.05 136.79 C 244.24 136.69 259.43 136.84 274.62 136.73 C 274.79 151.07 274.70 165.42 274.66 179.76 C 259.54 165.35 244.25 151.12 229.05 136.79 Z" />
<path fill="#c00001" opacity="1.00" d=" M 127.50 181.57 C 142.98 167.00 158.36 152.32 173.99 137.91 C 181.69 152.48 189.61 166.95 197.11 181.62 C 173.91 181.51 150.70 181.63 127.50 181.57 Z" />
<path fill="#c00001" opacity="1.00" d=" M 225.59 137.96 C 241.30 152.24 256.57 167.03 272.08 181.54 C 248.84 181.57 225.59 181.69 202.35 181.47 C 210.28 167.06 217.79 152.43 225.59 137.96 Z" />
</g>
</svg>
