<?xml version="1.0" encoding="UTF-8" ?>
<!DOCTYPE svg PUBLIC "-//W3C//DTD SVG 1.1//EN" "http://www.w3.org/Graphics/SVG/1.1/DTD/svg11.dtd">
<svg width="400pt" height="225pt" viewBox="0 0 400 225" version="1.1" xmlns="http://www.w3.org/2000/svg">
<g id="#ffffffff">
<path fill="#ffffff" opacity="1.00" d=" M 0.00 0.00 L 400.00 0.00 L 400.00 225.00 L 0.00 225.00 L 0.00 0.00 M 282.46 78.28 C 282.46 81.35 282.46 84.42 282.46 87.50 C 278.53 87.52 274.60 87.52 270.67 87.58 C 270.68 89.54 270.68 91.49 270.68 93.45 C 272.63 93.46 274.57 93.45 276.52 93.41 C 277.28 94.47 278.59 95.40 278.36 96.89 C 278.48 105.74 278.36 114.58 278.34 123.43 C 276.34 123.55 274.34 123.60 272.35 123.69 C 271.85 125.93 271.45 128.18 271.14 130.46 C 274.92 130.46 278.69 130.51 282.47 130.56 C 282.49 133.61 282.49 136.66 282.44 139.72 C 284.35 139.74 286.25 139.76 288.17 139.77 C 288.20 136.67 288.23 133.57 288.23 130.47 C 289.68 130.51 291.13 130.55 292.59 130.59 C 292.60 133.63 292.58 136.67 292.51 139.71 C 294.49 139.88 296.48 139.96 298.46 139.81 C 298.37 136.75 298.37 133.69 298.44 130.63 C 303.77 129.99 310.44 129.65 313.58 124.57 C 317.66 118.80 316.02 108.35 308.10 107.02 C 310.33 104.51 312.92 101.66 312.44 98.01 C 312.84 91.60 305.99 88.30 300.65 87.37 L 299.43 89.50 C 299.33 88.41 300.00 87.56 300.66 86.75 C 300.11 87.03 299.02 87.58 298.48 87.85 C 298.40 84.64 298.41 81.42 298.48 78.20 C 296.51 78.22 294.56 78.25 292.60 78.29 C 292.66 81.33 292.60 84.36 292.52 87.39 C 291.06 87.39 289.61 87.36 288.16 87.30 C 288.20 84.25 288.21 81.19 288.24 78.14 C 286.31 78.18 284.38 78.23 282.46 78.28 M 239.34 91.10 C 239.31 100.31 239.21 109.54 239.41 118.75 C 239.99 121.38 242.88 120.90 244.73 120.03 C 245.02 110.32 244.82 100.60 244.84 90.90 C 245.18 87.19 238.92 87.42 239.34 91.10 M 129.56 91.90 C 130.67 93.34 131.81 95.55 134.05 94.88 C 137.02 94.71 137.39 90.07 134.75 89.05 C 132.37 87.58 130.83 90.41 129.56 91.90 M 90.34 90.49 C 79.61 94.61 78.14 111.13 86.95 117.93 C 92.50 122.07 100.59 121.93 106.46 118.51 C 108.27 117.71 109.00 114.89 106.89 113.96 C 105.57 112.69 103.92 114.44 102.49 114.66 C 99.03 116.06 94.82 116.19 91.50 114.38 C 84.74 110.40 85.18 98.55 92.57 95.50 C 96.72 93.61 101.18 95.12 105.15 96.67 C 107.29 97.60 109.35 93.89 107.42 92.59 C 102.63 88.97 95.89 88.53 90.34 90.49 M 175.45 93.28 C 172.85 95.75 169.92 97.98 167.90 100.98 C 168.50 102.81 170.60 102.49 172.09 102.89 C 172.12 107.26 171.68 111.64 172.09 116.01 C 172.31 121.94 182.32 122.94 184.54 118.02 C 183.74 114.66 179.92 116.03 177.45 115.69 C 177.45 111.37 177.50 107.05 177.40 102.73 C 179.34 102.35 182.07 103.32 183.39 101.48 C 184.51 100.35 183.70 99.00 182.99 97.94 C 181.15 97.50 179.26 97.53 177.39 97.45 C 177.43 96.26 177.43 95.08 177.39 93.89 C 176.91 93.74 175.94 93.43 175.45 93.28 M 112.95 98.97 C 112.59 105.30 112.82 111.65 112.82 117.99 C 112.34 121.08 117.24 121.86 118.24 119.11 C 118.76 114.57 118.02 109.97 118.56 105.44 C 120.05 102.90 123.17 102.59 125.82 102.43 C 126.36 101.26 127.88 99.63 126.53 98.45 C 124.47 95.76 120.74 97.65 118.54 99.18 C 117.08 97.37 114.26 96.47 112.95 98.97 M 132.49 97.51 C 130.10 98.30 130.70 101.12 130.61 103.06 C 130.76 108.35 130.40 113.66 130.76 118.94 C 131.17 121.87 136.56 121.15 136.10 118.08 C 136.19 112.00 136.19 105.92 136.10 99.85 C 136.15 98.23 133.95 96.77 132.49 97.51 M 144.50 97.45 C 143.14 98.13 142.40 99.52 142.61 101.03 C 142.60 110.07 142.63 119.12 142.60 128.17 C 142.96 128.77 143.67 129.97 144.03 130.57 C 145.47 130.32 147.40 130.68 147.99 128.93 C 148.52 125.83 148.19 122.67 148.06 119.55 C 151.92 121.30 156.71 121.71 160.42 119.34 C 167.52 114.71 167.20 102.27 159.49 98.41 C 156.04 96.41 151.71 96.92 148.46 99.06 C 147.22 98.37 146.09 96.78 144.50 97.45 M 194.50 97.74 C 185.39 100.30 184.14 114.23 191.70 119.25 C 195.30 121.48 200.09 121.56 203.92 119.86 C 211.59 116.06 212.03 103.76 205.08 99.04 C 201.98 97.06 197.99 96.61 194.50 97.74 M 222.48 97.65 C 214.96 99.42 211.70 109.11 215.66 115.46 C 219.19 121.51 228.14 122.75 233.62 118.72 C 235.69 117.50 234.42 113.98 232.07 114.21 C 229.51 115.01 226.91 116.39 224.16 115.51 C 219.06 114.46 217.96 106.82 221.90 103.83 C 224.12 102.00 227.32 102.29 229.84 103.27 C 231.21 103.67 233.32 104.63 234.19 102.88 C 235.55 101.54 234.16 99.62 232.84 98.94 C 229.77 97.11 225.91 96.65 222.48 97.65 M 251.35 99.25 C 251.09 103.50 251.27 107.77 251.24 112.02 C 251.12 115.50 252.97 119.35 256.45 120.49 C 259.78 121.63 263.48 120.81 266.27 118.75 C 267.58 121.09 270.33 121.30 272.11 119.37 C 271.91 112.60 272.33 105.82 271.90 99.07 C 270.91 96.82 267.55 96.71 266.67 99.14 C 266.23 103.54 266.90 107.98 266.42 112.38 C 264.69 115.21 260.19 117.24 257.49 114.60 C 255.75 109.45 257.63 103.78 256.47 98.52 C 255.05 96.70 252.15 97.07 251.35 99.25 Z" />
<path fill="#ffffff" opacity="1.00" d=" M 288.23 93.65 C 292.61 93.79 298.13 93.03 301.11 97.05 C 302.87 99.60 300.89 102.38 299.21 104.33 C 295.62 105.22 291.94 105.58 288.26 105.45 C 288.23 101.51 288.22 97.58 288.23 93.65 Z" />
<path fill="#ffffff" opacity="1.00" d=" M 196.55 102.68 C 200.60 101.21 204.96 104.84 204.40 109.08 C 204.88 113.16 200.90 116.95 196.84 115.70 C 190.94 114.46 190.73 104.19 196.55 102.68 Z" />
<path fill="#ffffff" opacity="1.00" d=" M 148.14 104.85 C 150.41 103.31 153.13 101.78 155.96 102.74 C 161.73 104.43 161.31 114.91 155.14 115.67 C 152.49 116.30 150.16 114.77 148.14 113.29 C 148.24 110.47 148.25 107.66 148.14 104.85 Z" />
<path fill="#ffffff" opacity="1.00" d=" M 288.18 111.24 C 293.80 110.22 300.15 110.82 304.46 114.93 C 304.24 116.98 304.85 119.54 303.03 121.03 C 298.84 124.40 293.20 123.64 288.20 123.73 C 288.24 119.57 288.27 115.40 288.18 111.24 Z" />
</g>
<g id="#f7931bff">
<path fill="#f7931b" opacity="1.00" d=" M 282.46 78.28 C 284.38 78.23 286.31 78.18 288.24 78.14 C 288.21 81.19 288.20 84.25 288.16 87.30 C 289.61 87.36 291.06 87.39 292.52 87.39 C 292.60 84.36 292.66 81.33 292.60 78.29 C 294.56 78.25 296.51 78.22 298.48 78.20 C 298.41 81.42 298.40 84.64 298.48 87.85 C 299.02 87.58 300.11 87.03 300.66 86.75 C 300.00 87.56 299.33 88.41 299.43 89.50 L 300.65 87.37 C 305.99 88.30 312.84 91.60 312.44 98.01 C 312.92 101.66 310.33 104.51 308.10 107.02 C 316.02 108.35 317.66 118.80 313.58 124.57 C 310.44 129.65 303.77 129.99 298.44 130.63 C 298.37 133.69 298.37 136.75 298.46 139.81 C 296.48 139.96 294.49 139.88 292.51 139.71 C 292.58 136.67 292.60 133.63 292.59 130.59 C 291.13 130.55 289.68 130.51 288.23 130.47 C 288.23 133.57 288.20 136.67 288.17 139.77 C 286.25 139.76 284.35 139.74 282.44 139.72 C 282.49 136.66 282.49 133.61 282.47 130.56 C 278.69 130.51 274.92 130.46 271.14 130.46 C 271.45 128.18 271.85 125.93 272.35 123.69 C 274.34 123.60 276.34 123.55 278.34 123.43 C 278.36 114.58 278.48 105.74 278.36 96.89 C 278.59 95.40 277.28 94.47 276.52 93.41 C 274.57 93.45 272.63 93.46 270.68 93.45 C 270.68 91.49 270.68 89.54 270.67 87.58 C 274.60 87.52 278.53 87.52 282.46 87.50 C 282.46 84.42 282.46 81.35 282.46 78.28 M 288.23 93.65 C 288.22 97.58 288.23 101.51 288.26 105.45 C 291.94 105.58 295.62 105.22 299.21 104.33 C 300.89 102.38 302.87 99.60 301.11 97.05 C 298.13 93.03 292.61 93.79 288.23 93.65 M 288.18 111.24 C 288.27 115.40 288.24 119.57 288.20 123.73 C 293.20 123.64 298.84 124.40 303.03 121.03 C 304.85 119.54 304.24 116.98 304.46 114.93 C 300.15 110.82 293.80 110.22 288.18 111.24 Z" />
</g>
<g id="#171717ff">
<path fill="#171717" opacity="1.00" d=" M 239.34 91.10 C 238.92 87.42 245.18 87.19 244.84 90.90 C 244.82 100.60 245.02 110.32 244.73 120.03 C 242.88 120.90 239.99 121.38 239.41 118.75 C 239.21 109.54 239.31 100.31 239.34 91.10 Z" />
<path fill="#171717" opacity="1.00" d=" M 129.56 91.90 C 130.83 90.41 132.37 87.58 134.75 89.05 C 137.39 90.07 137.02 94.71 134.05 94.88 C 131.81 95.55 130.67 93.34 129.56 91.90 Z" />
<path fill="#171717" opacity="1.00" d=" M 90.34 90.49 C 95.89 88.53 102.63 88.97 107.42 92.59 C 109.35 93.89 107.29 97.60 105.15 96.67 C 101.18 95.12 96.72 93.61 92.57 95.50 C 85.18 98.55 84.74 110.40 91.50 114.38 C 94.82 116.19 99.03 116.06 102.49 114.66 C 103.92 114.44 105.57 112.69 106.89 113.96 C 109.00 114.89 108.27 117.71 106.46 118.51 C 100.59 121.93 92.50 122.07 86.95 117.93 C 78.14 111.13 79.61 94.61 90.34 90.49 Z" />
<path fill="#171717" opacity="1.00" d=" M 175.45 93.28 C 175.94 93.43 176.91 93.74 177.39 93.89 C 177.43 95.08 177.43 96.26 177.39 97.45 C 179.26 97.53 181.15 97.50 182.99 97.94 C 183.70 99.00 184.51 100.35 183.39 101.48 C 182.07 103.32 179.34 102.35 177.40 102.73 C 177.50 107.05 177.45 111.37 177.45 115.69 C 179.92 116.03 183.74 114.66 184.54 118.02 C 182.32 122.94 172.31 121.94 172.09 116.01 C 171.68 111.64 172.12 107.26 172.09 102.89 C 170.60 102.49 168.50 102.81 167.90 100.98 C 169.92 97.98 172.85 95.75 175.45 93.28 Z" />
<path fill="#171717" opacity="1.00" d=" M 112.95 98.97 C 114.26 96.47 117.08 97.37 118.54 99.18 C 120.74 97.65 124.47 95.76 126.53 98.45 C 127.88 99.63 126.36 101.26 125.82 102.43 C 123.17 102.59 120.05 102.90 118.56 105.44 C 118.02 109.97 118.76 114.57 118.24 119.11 C 117.24 121.86 112.34 121.08 112.82 117.99 C 112.82 111.65 112.59 105.30 112.95 98.97 Z" />
<path fill="#171717" opacity="1.00" d=" M 132.49 97.51 C 133.95 96.77 136.15 98.23 136.10 99.85 C 136.19 105.92 136.19 112.00 136.10 118.08 C 136.56 121.15 131.17 121.87 130.76 118.94 C 130.40 113.66 130.76 108.35 130.61 103.06 C 130.70 101.12 130.10 98.30 132.49 97.51 Z" />
<path fill="#171717" opacity="1.00" d=" M 144.50 97.45 C 146.09 96.78 147.22 98.37 148.46 99.06 C 151.71 96.92 156.04 96.41 159.49 98.41 C 167.20 102.27 167.52 114.71 160.42 119.34 C 156.71 121.71 151.92 121.30 148.06 119.55 C 148.19 122.67 148.52 125.83 147.99 128.93 C 147.40 130.68 145.47 130.32 144.03 130.57 C 143.67 129.97 142.96 128.77 142.60 128.17 C 142.63 119.12 142.60 110.07 142.61 101.03 C 142.40 99.52 143.14 98.13 144.50 97.45 M 148.14 104.85 C 148.25 107.66 148.24 110.47 148.14 113.29 C 150.16 114.77 152.49 116.30 155.14 115.67 C 161.31 114.91 161.73 104.43 155.96 102.74 C 153.13 101.78 150.41 103.31 148.14 104.85 Z" />
<path fill="#171717" opacity="1.00" d=" M 194.50 97.74 C 197.99 96.61 201.98 97.06 205.08 99.04 C 212.03 103.76 211.59 116.06 203.92 119.86 C 200.09 121.56 195.30 121.48 191.70 119.25 C 184.14 114.23 185.39 100.30 194.50 97.74 M 196.55 102.68 C 190.73 104.19 190.94 114.46 196.84 115.70 C 200.90 116.95 204.88 113.16 204.40 109.08 C 204.96 104.84 200.60 101.21 196.55 102.68 Z" />
<path fill="#171717" opacity="1.00" d=" M 222.48 97.65 C 225.91 96.65 229.77 97.11 232.84 98.94 C 234.16 99.62 235.55 101.54 234.19 102.88 C 233.32 104.63 231.21 103.67 229.84 103.27 C 227.32 102.29 224.12 102.00 221.90 103.83 C 217.96 106.82 219.06 114.46 224.16 115.51 C 226.91 116.39 229.51 115.01 232.07 114.21 C 234.42 113.98 235.69 117.50 233.62 118.72 C 228.14 122.75 219.19 121.51 215.66 115.46 C 211.70 109.11 214.96 99.42 222.48 97.65 Z" />
<path fill="#171717" opacity="1.00" d=" M 251.35 99.25 C 252.15 97.07 255.05 96.70 256.47 98.52 C 257.63 103.78 255.75 109.45 257.49 114.60 C 260.19 117.24 264.69 115.21 266.42 112.38 C 266.90 107.98 266.23 103.54 266.67 99.14 C 267.55 96.71 270.91 96.82 271.90 99.07 C 272.33 105.82 271.91 112.60 272.11 119.37 C 270.33 121.30 267.58 121.09 266.27 118.75 C 263.48 120.81 259.78 121.63 256.45 120.49 C 252.97 119.35 251.12 115.50 251.24 112.02 C 251.27 107.77 251.09 103.50 251.35 99.25 Z" />
</g>
</svg>
