<?xml version="1.0" encoding="UTF-8" ?>
<!DOCTYPE svg PUBLIC "-//W3C//DTD SVG 1.1//EN" "http://www.w3.org/Graphics/SVG/1.1/DTD/svg11.dtd">
<svg width="400pt" height="225pt" viewBox="0 0 400 225" version="1.1" xmlns="http://www.w3.org/2000/svg">
<g id="#ffffffff">
<path fill="#ffffff" opacity="1.00" d=" M 0.00 0.00 L 400.00 0.00 L 400.00 225.00 L 0.00 225.00 L 0.00 0.00 M 191.54 44.80 C 165.07 47.96 141.70 68.22 134.45 93.82 C 129.56 110.37 131.24 128.73 139.05 144.13 C 147.72 161.16 163.65 174.34 182.06 179.53 C 198.39 184.01 216.50 182.43 231.50 174.40 C 243.88 168.15 254.01 157.90 260.81 145.87 C 269.28 130.12 271.38 111.05 266.30 93.88 C 261.17 75.83 248.08 60.34 231.45 51.78 C 219.32 45.32 205.13 43.01 191.54 44.80 Z" />
<path fill="#ffffff" opacity="1.00" d=" M 192.96 46.03 C 206.15 44.59 219.78 47.01 231.45 53.40 C 248.56 62.48 261.77 79.07 265.92 98.09 C 269.94 115.34 266.76 134.13 257.24 149.07 C 250.42 159.32 241.16 168.09 230.06 173.54 C 215.41 181.09 197.85 182.58 182.04 178.05 C 164.41 172.93 149.19 160.36 140.63 144.14 C 132.86 129.13 130.99 111.18 135.59 94.92 C 142.63 69.13 166.31 48.76 192.96 46.03 M 242.96 73.09 C 244.57 73.98 246.15 74.93 247.76 75.83 C 248.40 72.91 244.73 73.59 242.96 73.09 M 237.84 82.96 C 239.60 85.68 238.37 89.18 238.71 92.23 C 238.34 92.47 237.60 92.94 237.23 93.18 C 238.74 93.18 240.26 93.19 241.78 93.20 C 241.37 92.96 240.56 92.50 240.16 92.27 C 240.11 89.28 240.11 86.30 240.11 83.31 C 241.07 83.44 242.98 83.70 243.93 83.83 C 243.88 83.51 243.78 82.87 243.73 82.55 C 242.46 82.59 241.19 82.63 239.92 82.66 C 239.93 79.59 240.65 76.62 241.77 73.77 C 238.81 76.02 239.28 79.92 237.84 82.96 M 147.09 76.16 C 147.47 76.55 148.22 77.33 148.60 77.71 C 148.45 82.56 148.59 87.42 148.51 92.27 C 147.74 92.62 146.96 92.97 146.18 93.31 C 149.38 93.01 152.56 93.58 155.76 93.73 L 155.14 93.17 C 160.46 92.38 164.05 86.65 162.27 81.55 C 161.23 77.93 157.33 76.36 153.86 76.28 C 155.24 76.80 156.63 77.28 158.03 77.74 C 161.10 80.99 162.03 86.40 159.24 90.10 C 157.23 92.91 153.23 93.26 150.23 92.23 C 149.92 87.27 149.83 82.25 150.26 77.31 C 150.69 77.04 151.55 76.49 151.97 76.22 C 150.35 76.23 148.72 76.20 147.09 76.16 M 213.95 76.28 C 214.46 76.46 215.49 76.83 216.01 77.01 C 216.19 82.39 216.93 88.05 215.46 93.28 C 218.80 93.17 222.15 93.33 225.50 93.17 C 227.21 93.30 226.58 91.00 227.03 89.99 C 225.08 93.36 221.13 92.81 217.82 92.46 C 217.85 87.31 217.51 82.13 217.96 76.98 C 218.48 76.79 219.50 76.41 220.02 76.21 C 217.99 76.25 215.97 76.27 213.95 76.28 M 230.39 77.11 C 229.32 78.50 231.66 80.43 232.65 78.82 C 233.69 77.40 231.41 75.52 230.39 77.11 M 193.91 81.06 C 192.84 84.55 193.44 88.31 193.55 91.91 C 194.22 94.43 197.31 93.31 199.07 92.80 C 197.70 92.60 196.34 92.40 194.98 92.18 C 194.79 89.23 194.80 86.28 194.81 83.33 C 196.15 83.48 197.50 83.64 198.84 83.79 C 198.80 83.49 198.71 82.90 198.67 82.60 C 196.83 82.84 194.91 82.98 193.91 81.06 M 169.62 81.94 C 170.62 82.64 171.63 83.34 172.64 84.03 C 172.65 84.71 172.68 86.07 172.70 86.75 C 173.16 86.38 174.10 85.64 174.56 85.26 C 174.50 82.61 171.75 82.08 169.62 81.94 M 176.87 83.39 C 177.37 83.55 178.39 83.85 178.90 84.00 C 178.70 87.08 180.38 91.59 177.31 93.58 C 178.78 93.30 180.28 93.16 181.78 93.02 C 181.45 92.82 180.78 92.41 180.45 92.20 C 180.43 89.52 180.44 86.84 180.44 84.17 C 182.20 83.86 184.30 82.33 185.92 83.79 C 187.12 86.74 186.46 90.05 186.25 93.13 C 186.76 93.17 187.77 93.25 188.28 93.29 C 187.71 90.22 187.98 87.08 187.68 83.99 C 186.86 81.76 183.55 81.48 182.24 83.40 C 181.12 83.14 180.02 82.81 178.94 82.44 C 178.25 82.75 177.56 83.07 176.87 83.39 M 203.21 86.15 C 204.03 84.99 204.52 83.47 205.84 82.74 C 208.89 82.59 208.05 86.34 208.05 88.28 C 205.72 88.03 203.39 89.11 202.18 91.13 C 202.34 93.89 205.44 93.49 207.27 92.80 C 205.55 92.44 203.65 92.15 203.98 89.92 C 205.44 89.51 206.87 89.00 208.33 88.56 C 207.43 90.55 207.74 92.29 209.38 93.52 C 210.17 93.01 210.98 92.52 211.78 92.03 C 206.64 91.97 212.09 83.94 207.90 82.23 C 205.85 82.04 200.98 83.53 203.21 86.15 M 229.12 83.19 C 229.54 83.37 230.39 83.74 230.82 83.92 C 231.35 87.04 231.20 90.27 230.53 93.35 C 231.09 93.31 232.20 93.23 232.75 93.19 C 232.28 89.57 232.41 85.91 232.53 82.28 C 231.39 82.59 230.26 82.90 229.12 83.19 M 249.84 81.99 C 251.54 83.04 253.67 84.04 252.95 86.50 C 253.42 86.23 254.37 85.69 254.85 85.41 C 254.89 82.63 252.02 82.08 249.84 81.99 M 167.41 92.43 C 169.29 94.25 172.05 93.39 174.20 92.64 C 172.14 92.38 169.26 93.04 168.08 90.82 C 166.43 88.32 167.34 85.26 168.60 82.83 C 165.33 84.76 164.41 89.86 167.41 92.43 M 246.47 90.96 C 247.89 94.07 251.76 93.84 254.42 92.68 C 252.33 92.48 249.48 92.88 248.29 90.69 C 246.62 88.22 247.91 85.34 248.54 82.78 C 246.42 84.90 244.79 88.04 246.47 90.96 M 179.99 113.99 C 176.67 117.42 176.05 122.64 177.19 127.13 C 177.98 131.65 181.71 135.17 181.82 139.87 C 181.85 145.27 181.50 150.76 182.98 156.03 C 184.14 160.70 186.35 165.91 191.03 167.97 C 192.45 168.39 195.19 169.00 195.58 166.98 C 196.80 161.03 193.32 155.01 194.94 149.06 C 196.28 143.94 205.18 143.90 206.44 149.11 C 207.63 155.43 204.05 161.57 205.35 167.91 C 207.56 168.69 210.07 168.52 211.82 166.83 C 216.19 162.86 217.88 156.81 218.64 151.13 C 219.58 145.35 217.50 138.99 220.79 133.72 C 223.65 129.06 224.76 123.34 223.47 117.99 C 222.16 113.89 218.00 111.27 213.97 110.41 C 210.15 110.59 208.08 114.28 205.27 116.34 C 202.12 119.27 197.07 119.23 193.63 116.84 C 196.70 116.39 199.57 115.24 202.19 113.62 C 198.92 112.48 195.85 110.83 192.62 109.58 C 187.95 107.92 183.12 110.63 179.99 113.99 Z" />
<path fill="#ffffff" opacity="1.00" d=" M 197.32 123.33 C 197.95 123.27 199.22 123.15 199.85 123.10 C 199.90 124.46 199.95 125.83 200.02 127.20 C 202.01 125.20 203.95 122.50 207.09 122.50 C 210.47 122.04 213.09 124.61 214.73 127.25 C 211.38 129.41 207.83 131.26 204.43 133.34 C 207.10 136.38 211.80 134.43 213.13 131.05 C 215.06 131.36 215.82 132.80 214.28 134.25 C 210.92 139.64 201.82 138.04 200.41 131.83 C 199.29 133.82 198.34 136.31 195.94 137.02 C 192.46 138.64 187.72 136.71 186.73 132.93 C 186.14 129.76 186.53 126.50 186.38 123.29 C 187.08 123.27 188.48 123.21 189.17 123.19 C 189.35 126.26 188.66 129.50 189.57 132.47 C 190.70 135.55 195.45 135.66 196.84 132.73 C 197.82 129.70 197.28 126.45 197.32 123.33 M 203.03 131.11 C 205.60 129.95 208.02 128.52 210.48 127.15 C 210.39 126.81 210.21 126.12 210.12 125.78 C 206.47 124.10 202.55 127.20 203.03 131.11 Z" />
</g>
<g id="#040404ff">
<path fill="#040404" opacity="1.00" d=" M 191.54 44.80 C 205.13 43.01 219.32 45.32 231.45 51.78 C 248.08 60.34 261.17 75.83 266.30 93.88 C 271.38 111.05 269.28 130.12 260.81 145.87 C 254.01 157.90 243.88 168.15 231.50 174.40 C 216.50 182.43 198.39 184.01 182.06 179.53 C 163.65 174.34 147.72 161.16 139.05 144.13 C 131.24 128.73 129.56 110.37 134.45 93.82 C 141.70 68.22 165.07 47.96 191.54 44.80 M 192.96 46.03 C 166.31 48.76 142.63 69.13 135.59 94.92 C 130.99 111.18 132.86 129.13 140.63 144.14 C 149.19 160.36 164.41 172.93 182.04 178.05 C 197.85 182.58 215.41 181.09 230.06 173.54 C 241.16 168.09 250.42 159.32 257.24 149.07 C 266.76 134.13 269.94 115.34 265.92 98.09 C 261.77 79.07 248.56 62.48 231.45 53.40 C 219.78 47.01 206.15 44.59 192.96 46.03 Z" />
<path fill="#040404" opacity="1.00" d=" M 242.96 73.09 C 244.73 73.59 248.40 72.91 247.76 75.83 C 246.15 74.93 244.57 73.98 242.96 73.09 Z" />
<path fill="#040404" opacity="1.00" d=" M 237.84 82.96 C 239.28 79.92 238.81 76.02 241.77 73.77 C 240.65 76.62 239.93 79.59 239.92 82.66 C 241.19 82.63 242.46 82.59 243.73 82.55 C 243.78 82.87 243.88 83.51 243.93 83.83 C 242.98 83.70 241.07 83.44 240.11 83.31 C 240.11 86.30 240.11 89.28 240.16 92.27 C 240.56 92.50 241.37 92.96 241.78 93.20 C 240.26 93.19 238.74 93.18 237.23 93.18 C 237.60 92.94 238.34 92.47 238.71 92.23 C 238.37 89.18 239.60 85.68 237.84 82.96 Z" />
<path fill="#040404" opacity="1.00" d=" M 147.09 76.16 C 148.72 76.20 150.35 76.23 151.97 76.22 C 151.55 76.49 150.69 77.04 150.26 77.31 C 149.83 82.25 149.92 87.27 150.23 92.23 C 153.23 93.26 157.23 92.91 159.24 90.10 C 162.03 86.40 161.10 80.99 158.03 77.74 C 156.63 77.28 155.24 76.80 153.86 76.28 C 157.33 76.36 161.23 77.93 162.27 81.55 C 164.05 86.65 160.46 92.38 155.14 93.17 L 155.76 93.73 C 152.56 93.58 149.38 93.01 146.18 93.31 C 146.96 92.97 147.74 92.62 148.51 92.27 C 148.59 87.42 148.45 82.56 148.60 77.71 C 148.22 77.33 147.47 76.55 147.09 76.16 Z" />
<path fill="#040404" opacity="1.00" d=" M 213.95 76.28 C 215.97 76.27 217.99 76.25 220.02 76.21 C 219.50 76.41 218.48 76.79 217.96 76.98 C 217.51 82.13 217.85 87.31 217.82 92.46 C 221.13 92.81 225.08 93.36 227.03 89.99 C 226.58 91.00 227.21 93.30 225.50 93.17 C 222.15 93.33 218.80 93.17 215.46 93.28 C 216.93 88.05 216.19 82.39 216.01 77.01 C 215.49 76.83 214.46 76.46 213.95 76.28 Z" />
<path fill="#040404" opacity="1.00" d=" M 230.39 77.11 C 231.41 75.52 233.69 77.40 232.65 78.82 C 231.66 80.43 229.32 78.50 230.39 77.11 Z" />
<path fill="#040404" opacity="1.00" d=" M 193.91 81.06 C 194.91 82.98 196.83 82.84 198.67 82.60 C 198.71 82.90 198.80 83.49 198.84 83.79 C 197.50 83.64 196.15 83.48 194.81 83.33 C 194.80 86.28 194.79 89.23 194.98 92.18 C 196.34 92.40 197.70 92.60 199.07 92.80 C 197.31 93.31 194.22 94.43 193.55 91.91 C 193.44 88.31 192.84 84.55 193.91 81.06 Z" />
<path fill="#040404" opacity="1.00" d=" M 169.62 81.94 C 171.75 82.08 174.50 82.61 174.56 85.26 C 174.10 85.64 173.16 86.38 172.70 86.75 C 172.68 86.07 172.65 84.71 172.64 84.03 C 171.63 83.34 170.62 82.64 169.62 81.94 Z" />
<path fill="#040404" opacity="1.00" d=" M 176.87 83.39 C 177.56 83.07 178.25 82.75 178.94 82.44 C 180.02 82.81 181.12 83.14 182.24 83.40 C 183.55 81.48 186.86 81.76 187.68 83.99 C 187.98 87.08 187.71 90.22 188.28 93.29 C 187.77 93.25 186.76 93.17 186.25 93.13 C 186.46 90.05 187.12 86.74 185.92 83.79 C 184.30 82.33 182.20 83.86 180.44 84.17 C 180.44 86.84 180.43 89.52 180.45 92.20 C 180.78 92.41 181.45 92.82 181.78 93.02 C 180.28 93.16 178.78 93.30 177.31 93.58 C 180.38 91.59 178.70 87.08 178.90 84.00 C 178.39 83.85 177.37 83.55 176.87 83.39 Z" />
<path fill="#040404" opacity="1.00" d=" M 203.21 86.15 C 200.98 83.53 205.85 82.04 207.90 82.23 C 212.09 83.94 206.64 91.97 211.78 92.03 C 210.98 92.52 210.17 93.01 209.38 93.52 C 207.74 92.29 207.43 90.55 208.33 88.56 C 206.87 89.00 205.44 89.51 203.98 89.92 C 203.65 92.15 205.55 92.44 207.27 92.80 C 205.44 93.49 202.34 93.89 202.18 91.13 C 203.39 89.11 205.72 88.03 208.05 88.28 C 208.05 86.34 208.89 82.59 205.84 82.74 C 204.52 83.47 204.03 84.99 203.21 86.15 Z" />
<path fill="#040404" opacity="1.00" d=" M 229.12 83.19 C 230.26 82.90 231.39 82.59 232.53 82.28 C 232.41 85.91 232.28 89.57 232.75 93.19 C 232.20 93.23 231.09 93.31 230.53 93.35 C 231.20 90.27 231.35 87.04 230.82 83.92 C 230.39 83.74 229.54 83.37 229.12 83.19 Z" />
<path fill="#040404" opacity="1.00" d=" M 249.84 81.99 C 252.02 82.08 254.89 82.63 254.85 85.41 C 254.37 85.69 253.42 86.23 252.95 86.50 C 253.67 84.04 251.54 83.04 249.84 81.99 Z" />
<path fill="#040404" opacity="1.00" d=" M 167.41 92.43 C 164.41 89.86 165.33 84.76 168.60 82.83 C 167.34 85.26 166.43 88.32 168.08 90.82 C 169.26 93.04 172.14 92.38 174.20 92.64 C 172.05 93.39 169.29 94.25 167.41 92.43 Z" />
<path fill="#040404" opacity="1.00" d=" M 246.47 90.96 C 244.79 88.04 246.42 84.90 248.54 82.78 C 247.91 85.34 246.62 88.22 248.29 90.69 C 249.48 92.88 252.33 92.48 254.42 92.68 C 251.76 93.84 247.89 94.07 246.47 90.96 Z" />
<path fill="#040404" opacity="1.00" d=" M 179.99 113.99 C 183.12 110.63 187.95 107.92 192.62 109.58 C 195.85 110.83 198.92 112.48 202.19 113.62 C 199.57 115.24 196.70 116.39 193.63 116.84 C 197.07 119.23 202.12 119.27 205.27 116.34 C 208.08 114.28 210.15 110.59 213.97 110.41 C 218.00 111.27 222.16 113.89 223.47 117.99 C 224.76 123.34 223.65 129.06 220.79 133.72 C 217.50 138.99 219.58 145.35 218.64 151.13 C 217.88 156.81 216.19 162.86 211.82 166.83 C 210.07 168.52 207.56 168.69 205.35 167.91 C 204.05 161.57 207.63 155.43 206.44 149.11 C 205.18 143.90 196.28 143.94 194.94 149.06 C 193.32 155.01 196.80 161.03 195.58 166.98 C 195.19 169.00 192.45 168.39 191.03 167.97 C 186.35 165.91 184.14 160.70 182.98 156.03 C 181.50 150.76 181.85 145.27 181.82 139.87 C 181.71 135.17 177.98 131.65 177.19 127.13 C 176.05 122.64 176.67 117.42 179.99 113.99 M 197.32 123.33 C 197.28 126.45 197.82 129.70 196.84 132.73 C 195.45 135.66 190.70 135.55 189.57 132.47 C 188.66 129.50 189.35 126.26 189.17 123.19 C 188.48 123.21 187.08 123.27 186.38 123.29 C 186.53 126.50 186.14 129.76 186.73 132.93 C 187.72 136.71 192.46 138.64 195.94 137.02 C 198.34 136.31 199.29 133.82 200.41 131.83 C 201.82 138.04 210.92 139.64 214.28 134.25 C 215.82 132.80 215.06 131.36 213.13 131.05 C 211.80 134.43 207.10 136.38 204.43 133.34 C 207.83 131.26 211.38 129.41 214.73 127.25 C 213.09 124.61 210.47 122.04 207.09 122.50 C 203.95 122.50 202.01 125.20 200.02 127.20 C 199.95 125.83 199.90 124.46 199.85 123.10 C 199.22 123.15 197.95 123.27 197.32 123.33 Z" />
<path fill="#040404" opacity="1.00" d=" M 203.03 131.11 C 202.55 127.20 206.47 124.10 210.12 125.78 C 210.21 126.12 210.39 126.81 210.48 127.15 C 208.02 128.52 205.60 129.95 203.03 131.11 Z" />
</g>
</svg>
