<?xml version="1.0" encoding="UTF-8" ?>
<!DOCTYPE svg PUBLIC "-//W3C//DTD SVG 1.1//EN" "http://www.w3.org/Graphics/SVG/1.1/DTD/svg11.dtd">
<svg width="400pt" height="225pt" viewBox="0 0 400 225" version="1.1" xmlns="http://www.w3.org/2000/svg">
<g id="#ffffffff">
<path fill="#ffffff" opacity="1.00" d=" M 0.00 0.00 L 400.00 0.00 L 400.00 225.00 L 0.00 225.00 L 0.00 0.00 M 171.00 55.10 C 155.61 61.69 143.25 75.03 137.98 90.93 C 133.74 102.01 133.88 114.42 136.69 125.83 C 141.76 145.90 158.07 162.75 178.03 168.32 C 185.05 170.94 192.60 170.74 199.96 170.64 C 219.16 169.04 237.50 157.86 247.01 140.97 C 255.23 126.96 257.83 109.39 253.10 93.79 C 252.81 93.34 252.23 92.46 251.94 92.02 C 257.71 111.47 249.88 133.70 234.00 146.11 C 222.33 155.85 206.43 159.37 191.55 157.14 C 191.42 141.59 191.50 126.04 191.52 110.50 C 183.49 110.57 175.45 110.52 167.42 110.55 C 167.46 107.44 167.46 104.33 167.43 101.23 C 175.45 101.10 183.48 101.21 191.51 101.17 C 191.47 88.58 191.48 76.00 191.51 63.41 C 186.47 64.77 181.46 66.42 177.01 69.22 C 166.41 75.25 158.90 86.01 156.41 97.90 C 154.19 108.83 154.54 120.62 159.23 130.89 C 161.55 136.72 165.64 141.55 168.88 146.85 C 160.63 140.68 154.33 131.96 150.82 122.28 C 147.77 113.22 147.37 103.35 149.05 93.98 C 152.98 73.81 169.84 56.90 190.02 52.99 C 198.00 51.20 206.20 51.85 214.15 53.45 C 200.33 48.11 184.50 49.39 171.00 55.10 M 200.86 62.31 C 200.87 88.88 200.88 115.44 200.85 142.01 C 200.90 143.81 201.05 145.62 201.22 147.42 C 209.30 145.92 217.60 144.17 224.43 139.32 C 237.83 130.77 243.93 113.71 241.97 98.36 C 239.21 78.54 220.73 62.77 200.86 62.31 Z" />
<path fill="#ffffff" opacity="1.00" d=" M 180.43 151.83 C 181.04 148.71 180.46 145.07 182.48 142.41 C 183.23 145.97 183.42 149.61 183.73 153.22 C 185.65 154.40 187.59 155.59 189.12 157.29 C 186.80 157.61 184.80 156.30 182.76 155.48 C 179.50 157.34 176.34 159.39 172.95 160.99 C 173.99 157.92 177.10 156.29 179.14 153.93 C 177.50 152.75 175.71 151.78 173.94 150.82 C 172.43 151.39 171.01 152.14 169.51 152.72 C 171.42 150.36 173.21 147.87 173.47 144.72 C 174.46 145.98 174.58 147.59 174.86 149.10 C 176.72 150.01 178.58 150.91 180.43 151.83 Z" />
</g>
<g id="#08025fff">
<path fill="#08025f" opacity="1.00" d=" M 171.00 55.10 C 184.50 49.39 200.33 48.11 214.15 53.45 C 206.20 51.85 198.00 51.20 190.02 52.99 C 169.84 56.90 152.98 73.81 149.05 93.98 C 147.37 103.35 147.77 113.22 150.82 122.28 C 154.33 131.96 160.63 140.68 168.88 146.85 C 165.64 141.55 161.55 136.72 159.23 130.89 C 154.54 120.62 154.19 108.83 156.41 97.90 C 158.90 86.01 166.41 75.25 177.01 69.22 C 181.46 66.42 186.47 64.77 191.51 63.41 C 191.48 76.00 191.47 88.58 191.51 101.17 C 183.48 101.21 175.45 101.10 167.43 101.23 C 167.46 104.33 167.46 107.44 167.42 110.55 C 175.45 110.52 183.49 110.57 191.52 110.50 C 191.50 126.04 191.42 141.59 191.55 157.14 C 206.43 159.37 222.33 155.85 234.00 146.11 C 249.88 133.70 257.71 111.47 251.94 92.02 C 252.23 92.46 252.81 93.34 253.10 93.79 C 257.83 109.39 255.23 126.96 247.01 140.97 C 237.50 157.86 219.16 169.04 199.96 170.64 C 192.60 170.74 185.05 170.94 178.03 168.32 C 158.07 162.75 141.76 145.90 136.69 125.83 C 133.88 114.42 133.74 102.01 137.98 90.93 C 143.25 75.03 155.61 61.69 171.00 55.10 M 180.43 151.83 C 178.58 150.91 176.72 150.01 174.86 149.10 C 174.58 147.59 174.46 145.98 173.47 144.72 C 173.21 147.87 171.42 150.36 169.51 152.72 C 171.01 152.14 172.43 151.39 173.94 150.82 C 175.71 151.78 177.50 152.75 179.14 153.93 C 177.10 156.29 173.99 157.92 172.95 160.99 C 176.34 159.39 179.50 157.34 182.76 155.48 C 184.80 156.30 186.80 157.61 189.12 157.29 C 187.59 155.59 185.65 154.40 183.73 153.22 C 183.42 149.61 183.23 145.97 182.48 142.41 C 180.46 145.07 181.04 148.71 180.43 151.83 Z" />
<path fill="#08025f" opacity="1.00" d=" M 200.86 62.31 C 220.73 62.77 239.21 78.54 241.97 98.36 C 243.93 113.71 237.83 130.77 224.43 139.32 C 217.60 144.17 209.30 145.92 201.22 147.42 C 201.05 145.62 200.90 143.81 200.85 142.01 C 200.88 115.44 200.87 88.88 200.86 62.31 Z" />
</g>
</svg>
