<?xml version="1.0" encoding="UTF-8" ?>
<!DOCTYPE svg PUBLIC "-//W3C//DTD SVG 1.1//EN" "http://www.w3.org/Graphics/SVG/1.1/DTD/svg11.dtd">
<svg width="400pt" height="225pt" viewBox="0 0 400 225" version="1.1" xmlns="http://www.w3.org/2000/svg">
<g id="#ffffffff">
<path fill="#ffffff" opacity="1.00" d=" M 0.00 0.00 L 400.00 0.00 L 400.00 225.00 L 0.00 225.00 L 0.00 0.00 M 126.02 44.01 C 125.97 90.68 126.01 137.34 126.00 184.00 C 175.00 184.00 224.00 184.00 273.00 184.00 C 273.01 137.33 272.97 90.67 273.02 44.00 C 224.02 44.01 175.02 43.98 126.02 44.01 Z" />
<path fill="#ffffff" opacity="1.00" d=" M 199.44 85.18 C 206.03 79.96 213.46 75.21 221.85 73.69 C 225.76 72.86 230.43 74.80 231.18 79.05 C 232.04 84.62 229.51 90.03 227.02 94.87 C 225.35 97.54 224.09 100.65 221.59 102.66 C 221.84 103.70 222.44 104.67 222.51 105.75 C 222.35 105.88 222.01 106.14 221.85 106.27 C 221.40 104.88 220.94 103.50 220.48 102.13 C 219.73 101.57 219.02 100.96 218.45 100.22 L 218.99 100.24 C 220.93 99.44 221.51 97.21 222.65 95.63 C 225.71 90.27 229.12 84.10 227.27 77.75 C 218.70 75.51 211.11 81.45 204.20 85.60 C 203.15 86.33 202.14 87.12 201.18 87.95 C 196.13 92.38 191.40 97.13 186.94 102.14 C 186.01 103.20 185.17 104.33 184.37 105.49 C 180.86 111.14 176.95 116.84 175.92 123.56 C 175.57 125.19 176.26 126.77 176.60 128.34 C 178.28 128.77 179.99 129.50 181.75 129.07 C 188.38 127.84 194.20 124.18 199.68 120.43 C 200.57 121.19 201.49 121.92 202.43 122.63 C 195.69 127.27 188.36 132.20 179.93 132.59 C 175.70 133.02 172.07 129.15 172.46 124.98 C 172.80 116.46 177.95 109.25 182.46 102.38 C 182.18 102.09 181.62 101.52 181.34 101.23 C 182.14 101.41 183.73 101.78 184.53 101.96 C 184.21 100.62 183.84 99.29 183.42 97.98 C 183.72 98.46 184.33 99.41 184.64 99.88 C 188.76 94.73 193.49 90.06 198.60 85.89 C 198.81 85.71 199.23 85.36 199.44 85.18 Z" />
<path fill="#ffffff" opacity="1.00" d=" M 199.43 97.58 C 203.86 95.50 209.17 100.53 207.06 105.00 C 205.90 109.18 199.75 110.14 197.21 106.74 C 194.37 104.00 195.85 98.87 199.43 97.58 Z" />
<path fill="#ffffff" opacity="1.00" d=" M 217.06 103.80 C 217.74 104.69 218.41 105.58 219.08 106.48 C 214.93 111.46 210.43 116.22 205.28 120.19 C 204.42 119.52 203.54 118.86 202.68 118.20 C 207.80 113.73 212.60 108.92 217.06 103.80 Z" />
<path fill="#ffffff" opacity="1.00" d=" M 180.16 139.16 C 181.27 138.77 182.33 138.87 183.33 139.45 C 183.24 141.50 183.21 143.56 183.15 145.62 C 184.86 144.20 187.08 144.10 189.19 144.41 C 192.26 147.65 191.02 152.35 191.20 156.36 L 190.20 157.21 L 188.28 157.37 C 187.74 154.07 188.78 150.51 187.47 147.37 C 186.23 145.56 183.15 147.03 183.30 149.04 C 183.14 151.79 183.28 154.55 183.13 157.31 C 182.49 157.30 181.19 157.28 180.54 157.26 C 179.67 151.32 180.45 145.18 180.16 139.16 Z" />
<path fill="#ffffff" opacity="1.00" d=" M 164.71 140.55 C 168.10 139.70 171.78 139.42 175.08 140.78 C 178.33 142.33 178.68 147.55 175.62 149.46 C 173.48 151.01 170.70 150.44 168.24 150.55 C 168.25 152.79 168.24 155.04 168.20 157.28 C 166.66 157.55 164.38 157.19 164.83 155.06 C 164.78 150.22 164.95 145.38 164.71 140.55 M 168.31 142.55 C 168.26 144.30 168.21 146.06 168.17 147.82 C 170.14 147.71 172.36 148.23 174.10 147.03 C 174.41 146.08 174.83 144.78 174.07 143.95 C 172.86 141.94 170.23 142.88 168.31 142.55 Z" />
<path fill="#ffffff" opacity="1.00" d=" M 236.14 140.11 C 237.24 140.16 238.34 140.23 239.44 140.29 C 239.08 143.95 239.75 147.79 238.56 151.32 C 238.05 151.31 237.02 151.27 236.51 151.26 C 236.20 147.55 236.21 143.82 236.14 140.11 Z" />
<path fill="#ffffff" opacity="1.00" d=" M 192.96 144.37 C 194.02 144.41 195.09 144.46 196.15 144.51 C 197.08 147.64 198.00 150.78 198.91 153.92 C 200.09 150.86 200.79 147.64 201.72 144.51 C 202.76 144.45 203.80 144.40 204.84 144.35 C 203.04 150.00 201.35 155.72 199.03 161.18 C 197.35 161.92 195.60 162.48 193.75 162.32 C 193.75 161.68 193.76 160.40 193.76 159.75 C 195.27 159.88 197.85 159.06 197.19 157.06 C 195.89 152.80 193.91 148.75 192.96 144.37 Z" />
<path fill="#ffffff" opacity="1.00" d=" M 207.97 144.93 C 211.01 143.32 215.22 144.20 216.67 147.52 C 214.07 148.79 212.32 145.91 209.77 146.53 C 209.64 146.98 209.40 147.88 209.28 148.32 C 212.01 149.54 217.32 149.74 216.57 154.03 C 215.49 158.95 206.15 158.64 205.88 153.28 C 206.54 153.32 207.87 153.39 208.53 153.42 C 209.66 155.07 212.35 156.18 213.61 154.03 C 213.47 151.76 210.44 152.09 208.91 151.15 C 205.84 150.72 205.40 146.33 207.97 144.93 Z" />
<path fill="#ffffff" opacity="1.00" d=" M 236.25 153.21 C 237.26 153.27 238.26 153.33 239.28 153.39 C 239.74 155.60 239.10 158.03 236.32 157.42 C 236.28 156.01 236.26 154.61 236.25 153.21 Z" />
</g>
<g id="#131313ff">
<path fill="#131313" opacity="1.00" d=" M 126.02 44.01 C 175.02 43.98 224.02 44.01 273.02 44.00 C 272.97 90.67 273.01 137.33 273.00 184.00 C 224.00 184.00 175.00 184.00 126.00 184.00 C 126.01 137.34 125.97 90.68 126.02 44.01 M 173.03 77.93 C 171.80 81.23 173.40 84.64 173.82 87.92 C 173.24 90.05 171.71 92.54 173.41 94.57 C 174.23 96.34 176.26 96.63 177.89 97.24 C 179.85 97.53 180.21 99.84 181.18 101.20 L 181.34 101.23 C 181.62 101.52 182.18 102.09 182.46 102.38 C 177.95 109.25 172.80 116.46 172.46 124.98 C 172.07 129.15 175.70 133.02 179.93 132.59 C 188.36 132.20 195.69 127.27 202.43 122.63 C 208.71 126.90 215.37 131.37 223.08 132.37 C 226.04 132.86 229.74 131.68 230.70 128.54 C 232.47 124.74 229.62 120.83 230.44 116.91 C 231.20 114.43 228.95 112.69 226.86 112.02 C 225.45 109.89 224.14 107.69 222.85 105.49 L 222.51 105.75 C 222.44 104.67 221.84 103.70 221.59 102.66 C 224.09 100.65 225.35 97.54 227.02 94.87 C 229.51 90.03 232.04 84.62 231.18 79.05 C 230.43 74.80 225.76 72.86 221.85 73.69 C 213.46 75.21 206.03 79.96 199.44 85.18 C 199.84 84.68 200.63 83.69 201.03 83.19 C 194.54 79.10 187.90 74.39 180.02 73.73 C 177.13 73.41 173.83 74.97 173.03 77.93 M 180.16 139.16 C 180.45 145.18 179.67 151.32 180.54 157.26 C 181.19 157.28 182.49 157.30 183.13 157.31 C 183.28 154.55 183.14 151.79 183.30 149.04 C 183.15 147.03 186.23 145.56 187.47 147.37 C 188.78 150.51 187.74 154.07 188.28 157.37 L 190.20 157.21 L 191.20 156.36 C 191.02 152.35 192.26 147.65 189.19 144.41 C 187.08 144.10 184.86 144.20 183.15 145.62 C 183.21 143.56 183.24 141.50 183.33 139.45 C 182.33 138.87 181.27 138.77 180.16 139.16 M 164.71 140.55 C 164.95 145.38 164.78 150.22 164.83 155.06 C 164.38 157.19 166.66 157.55 168.20 157.28 C 168.24 155.04 168.25 152.79 168.24 150.55 C 170.70 150.44 173.48 151.01 175.62 149.46 C 178.68 147.55 178.33 142.33 175.08 140.78 C 171.78 139.42 168.10 139.70 164.71 140.55 M 218.54 139.66 C 218.82 143.23 222.76 145.43 223.26 148.90 C 221.85 151.84 219.10 154.09 218.39 157.34 C 222.52 158.33 223.19 153.29 225.57 151.08 C 226.91 153.20 228.08 155.48 229.85 157.29 C 231.09 157.58 233.46 157.57 232.32 155.76 C 230.79 153.14 228.95 150.72 227.45 148.08 C 229.23 145.32 231.78 142.89 232.59 139.64 C 228.64 138.94 227.59 143.41 225.67 145.86 C 223.66 143.40 222.63 138.88 218.54 139.66 M 236.14 140.11 C 236.21 143.82 236.20 147.55 236.51 151.26 C 237.02 151.27 238.05 151.31 238.56 151.32 C 239.75 147.79 239.08 143.95 239.44 140.29 C 238.34 140.23 237.24 140.16 236.14 140.11 M 192.96 144.37 C 193.91 148.75 195.89 152.80 197.19 157.06 C 197.85 159.06 195.27 159.88 193.76 159.75 C 193.76 160.40 193.75 161.68 193.75 162.32 C 195.60 162.48 197.35 161.92 199.03 161.18 C 201.35 155.72 203.04 150.00 204.84 144.35 C 203.80 144.40 202.76 144.45 201.72 144.51 C 200.79 147.64 200.09 150.86 198.91 153.92 C 198.00 150.78 197.08 147.64 196.15 144.51 C 195.09 144.46 194.02 144.41 192.96 144.37 M 207.97 144.93 C 205.40 146.33 205.84 150.72 208.91 151.15 C 210.44 152.09 213.47 151.76 213.61 154.03 C 212.35 156.18 209.66 155.07 208.53 153.42 C 207.87 153.39 206.54 153.32 205.88 153.28 C 206.15 158.64 215.49 158.95 216.57 154.03 C 217.32 149.74 212.01 149.54 209.28 148.32 C 209.40 147.88 209.64 146.98 209.77 146.53 C 212.32 145.91 214.07 148.79 216.67 147.52 C 215.22 144.20 211.01 143.32 207.97 144.93 M 236.25 153.21 C 236.26 154.61 236.28 156.01 236.32 157.42 C 239.10 158.03 239.74 155.60 239.28 153.39 C 238.26 153.33 237.26 153.27 236.25 153.21 Z" />
<path fill="#131313" opacity="1.00" d=" M 176.58 77.60 C 184.88 76.16 192.10 81.52 198.60 85.89 C 193.49 90.06 188.76 94.73 184.64 99.88 C 184.33 99.41 183.72 98.46 183.42 97.98 C 183.09 97.46 182.43 96.40 182.09 95.87 C 182.41 93.79 183.34 91.55 182.37 89.52 C 181.39 87.36 178.74 87.15 176.94 86.00 C 175.97 83.30 176.24 80.39 176.58 77.60 Z" />
<path fill="#131313" opacity="1.00" d=" M 204.20 85.60 C 211.11 81.45 218.70 75.51 227.27 77.75 C 229.12 84.10 225.71 90.27 222.65 95.63 C 221.51 97.21 220.93 99.44 218.99 100.24 L 218.45 100.22 C 214.38 94.72 209.09 90.33 204.20 85.60 Z" />
<path fill="#131313" opacity="1.00" d=" M 186.94 102.14 C 191.40 97.13 196.13 92.38 201.18 87.95 C 207.09 92.55 212.40 97.95 217.06 103.80 C 212.60 108.92 207.80 113.73 202.68 118.20 C 196.82 113.53 191.16 108.37 186.94 102.14 M 199.43 97.58 C 195.85 98.87 194.37 104.00 197.21 106.74 C 199.75 110.14 205.90 109.18 207.06 105.00 C 209.17 100.53 203.86 95.50 199.43 97.58 Z" />
<path fill="#131313" opacity="1.00" d=" M 175.92 123.56 C 176.95 116.84 180.86 111.14 184.37 105.49 C 189.47 110.48 194.20 115.84 199.68 120.43 C 194.20 124.18 188.38 127.84 181.75 129.07 C 179.99 129.50 178.28 128.77 176.60 128.34 C 176.26 126.77 175.57 125.19 175.92 123.56 Z" />
<path fill="#131313" opacity="1.00" d=" M 205.28 120.19 C 210.43 116.22 214.93 111.46 219.08 106.48 C 220.61 108.63 222.30 110.71 223.41 113.12 C 223.31 114.55 222.76 115.90 222.41 117.28 C 223.63 118.94 225.34 120.07 227.20 120.91 C 227.44 123.50 229.11 128.72 225.02 128.80 C 217.60 128.89 211.01 124.48 205.28 120.19 Z" />
<path fill="#131313" opacity="1.00" d=" M 168.31 142.55 C 170.23 142.88 172.86 141.94 174.07 143.95 C 174.83 144.78 174.41 146.08 174.10 147.03 C 172.36 148.23 170.14 147.71 168.17 147.82 C 168.21 146.06 168.26 144.30 168.31 142.55 Z" />
</g>
<g id="#f4b909ff">
<path fill="#f4b909" opacity="1.00" d=" M 173.03 77.93 C 173.83 74.97 177.13 73.41 180.02 73.73 C 187.90 74.39 194.54 79.10 201.03 83.19 C 200.63 83.69 199.84 84.68 199.44 85.18 C 199.23 85.36 198.81 85.71 198.60 85.89 C 192.10 81.52 184.88 76.16 176.58 77.60 C 176.24 80.39 175.97 83.30 176.94 86.00 C 178.74 87.15 181.39 87.36 182.37 89.52 C 183.34 91.55 182.41 93.79 182.09 95.87 C 182.43 96.40 183.09 97.46 183.42 97.98 C 183.84 99.29 184.21 100.62 184.53 101.96 C 183.73 101.78 182.14 101.41 181.34 101.23 L 181.18 101.20 C 180.21 99.84 179.85 97.53 177.89 97.24 C 176.26 96.63 174.23 96.34 173.41 94.57 C 171.71 92.54 173.24 90.05 173.82 87.92 C 173.40 84.64 171.80 81.23 173.03 77.93 Z" />
<path fill="#f4b909" opacity="1.00" d=" M 201.18 87.95 C 202.14 87.12 203.15 86.33 204.20 85.60 C 209.09 90.33 214.38 94.72 218.45 100.22 C 219.02 100.96 219.73 101.57 220.48 102.13 C 220.94 103.50 221.40 104.88 221.85 106.27 C 222.01 106.14 222.35 105.88 222.51 105.75 L 222.85 105.49 C 224.14 107.69 225.45 109.89 226.86 112.02 C 228.95 112.69 231.20 114.43 230.44 116.91 C 229.62 120.83 232.47 124.74 230.70 128.54 C 229.74 131.68 226.04 132.86 223.08 132.37 C 215.37 131.37 208.71 126.90 202.43 122.63 C 201.49 121.92 200.57 121.19 199.68 120.43 C 194.20 115.84 189.47 110.48 184.37 105.49 C 185.17 104.33 186.01 103.20 186.94 102.14 C 191.16 108.37 196.82 113.53 202.68 118.20 C 203.54 118.86 204.42 119.52 205.28 120.19 C 211.01 124.48 217.60 128.89 225.02 128.80 C 229.11 128.72 227.44 123.50 227.20 120.91 C 225.34 120.07 223.63 118.94 222.41 117.28 C 222.76 115.90 223.31 114.55 223.41 113.12 C 222.30 110.71 220.61 108.63 219.08 106.48 C 218.41 105.58 217.74 104.69 217.06 103.80 C 212.40 97.95 207.09 92.55 201.18 87.95 Z" />
<path fill="#f4b909" opacity="1.00" d=" M 218.54 139.66 C 222.63 138.88 223.66 143.40 225.67 145.86 C 227.59 143.41 228.64 138.94 232.59 139.64 C 231.78 142.89 229.23 145.32 227.45 148.08 C 228.95 150.72 230.79 153.14 232.32 155.76 C 233.46 157.57 231.09 157.58 229.85 157.29 C 228.08 155.48 226.91 153.20 225.57 151.08 C 223.19 153.29 222.52 158.33 218.39 157.34 C 219.10 154.09 221.85 151.84 223.26 148.90 C 222.76 145.43 218.82 143.23 218.54 139.66 Z" />
</g>
</svg>
