<?xml version="1.0" encoding="UTF-8" ?>
<!DOCTYPE svg PUBLIC "-//W3C//DTD SVG 1.1//EN" "http://www.w3.org/Graphics/SVG/1.1/DTD/svg11.dtd">
<svg width="400pt" height="225pt" viewBox="0 0 400 225" version="1.1" xmlns="http://www.w3.org/2000/svg">
<g id="#ffffffff">
<path fill="#ffffff" opacity="1.00" d=" M 0.00 0.00 L 400.00 0.00 L 400.00 225.00 L 0.00 225.00 L 0.00 0.00 M 130.36 180.63 C 176.85 180.61 223.35 180.61 269.84 180.62 C 269.69 135.00 269.74 89.36 269.82 43.74 C 223.33 43.67 176.85 43.74 130.37 43.70 C 130.40 89.34 130.41 134.99 130.36 180.63 Z" />
<path fill="#ffffff" opacity="1.00" d=" M 167.55 143.18 C 167.47 116.02 167.57 88.85 167.50 61.69 C 178.32 61.75 189.14 61.72 199.96 61.70 C 208.12 61.83 216.78 63.36 223.24 68.71 C 227.19 71.83 229.48 76.55 230.66 81.36 C 227.39 78.46 224.49 75.19 221.86 71.72 C 220.34 71.22 219.43 72.91 218.72 73.92 C 223.06 77.24 227.18 80.86 230.82 84.97 C 230.84 86.46 230.85 87.95 230.87 89.45 C 228.11 86.77 225.41 84.03 222.68 81.32 C 220.53 78.34 215.94 80.82 214.09 77.27 C 214.03 75.29 214.60 73.18 213.90 71.28 C 212.74 69.78 211.32 68.52 209.98 67.20 C 199.32 67.15 188.65 67.31 177.99 67.11 C 175.67 67.16 172.64 64.96 171.41 68.00 C 172.03 71.76 175.53 69.58 177.95 69.52 C 187.64 69.45 197.34 69.51 207.04 69.48 C 209.11 69.12 210.32 71.08 211.78 72.16 C 211.73 74.19 211.70 76.22 211.65 78.25 C 212.83 79.42 214.01 80.59 215.21 81.75 C 217.12 82.05 219.51 81.37 220.97 82.98 C 224.23 86.17 227.48 89.36 230.63 92.65 C 230.25 93.51 229.50 95.22 229.13 96.07 C 225.64 93.16 222.53 89.85 219.30 86.68 C 216.68 86.70 214.07 86.73 211.46 86.80 C 210.67 82.94 208.77 78.67 204.63 77.50 C 198.97 76.06 193.05 77.11 187.27 76.72 C 187.30 78.46 187.33 80.19 187.36 81.93 C 184.90 81.84 182.46 81.50 180.02 81.18 C 177.80 81.16 177.89 84.68 179.96 84.98 C 182.39 84.56 184.83 84.22 187.30 84.16 C 187.32 86.41 187.34 88.66 187.35 90.91 C 185.58 91.00 183.80 91.08 182.04 91.15 C 179.99 93.49 177.51 95.34 175.03 97.16 C 173.45 98.41 176.13 99.90 177.10 100.44 C 179.09 98.16 180.76 95.61 182.90 93.46 C 184.38 93.45 185.86 93.45 187.34 93.45 C 187.33 95.41 187.30 97.37 187.27 99.32 C 193.06 98.98 199.02 100.03 204.69 98.58 C 208.94 97.40 210.82 93.08 211.41 89.08 C 213.75 89.16 216.13 88.92 218.43 89.36 C 222.00 92.16 224.49 96.29 228.66 98.30 C 227.96 99.43 227.27 100.56 226.57 101.70 C 224.99 100.11 223.41 98.52 221.82 96.94 C 218.52 97.13 215.10 97.31 212.02 95.88 C 210.48 97.20 209.66 99.11 211.89 100.27 C 214.79 99.54 217.75 99.25 220.74 99.29 C 222.20 100.73 223.65 102.17 225.10 103.62 C 224.18 104.37 223.26 105.12 222.35 105.86 C 221.33 104.87 220.31 103.88 219.28 102.89 C 210.73 103.40 202.16 102.82 193.61 103.09 C 191.08 104.55 188.42 106.23 186.80 108.75 C 187.42 109.21 188.66 110.13 189.28 110.60 C 189.65 110.41 190.41 110.02 190.78 109.83 C 191.60 108.33 192.49 106.86 193.43 105.43 C 201.79 105.32 210.14 105.45 218.50 105.33 C 219.03 105.82 220.09 106.81 220.62 107.30 C 217.91 109.17 214.74 109.72 211.51 109.37 C 209.82 110.95 208.39 112.91 206.32 114.01 C 199.21 114.35 192.07 114.06 184.94 114.07 C 181.67 117.32 178.42 120.62 174.56 123.18 C 175.55 124.18 176.59 125.13 177.68 126.03 C 180.07 121.94 183.29 118.37 187.22 115.69 C 187.46 124.86 187.29 134.02 187.33 143.19 C 180.74 143.14 174.14 143.16 167.55 143.18 Z" />
<path fill="#ffffff" opacity="1.00" d=" M 212.29 111.75 C 214.10 111.75 215.92 111.75 217.74 111.76 C 218.57 113.30 219.41 114.85 220.24 116.41 C 218.23 116.38 216.22 116.36 214.21 116.33 C 210.67 119.15 208.19 124.74 202.93 123.99 C 201.68 121.45 200.35 118.94 199.01 116.45 C 201.92 116.46 204.83 116.47 207.74 116.51 C 209.26 114.92 210.79 113.35 212.29 111.75 Z" />
<path fill="#ffffff" opacity="1.00" d=" M 207.74 126.20 C 210.20 123.69 212.55 121.04 215.30 118.84 C 217.20 118.47 219.16 118.64 221.09 118.56 C 221.72 119.47 222.35 120.38 222.99 121.29 C 218.52 123.26 215.73 127.53 212.20 130.72 C 210.22 130.70 208.24 130.68 206.27 130.65 C 205.50 129.20 204.72 127.75 203.95 126.30 C 205.21 126.26 206.48 126.23 207.74 126.20 Z" />
<path fill="#ffffff" opacity="1.00" d=" M 212.89 133.19 C 216.59 130.18 219.24 125.79 223.70 123.80 C 224.18 124.43 225.13 125.69 225.61 126.33 C 222.48 129.75 219.08 132.92 215.81 136.21 C 215.79 138.53 215.79 140.85 215.78 143.17 C 214.73 143.18 213.69 143.20 212.65 143.22 C 210.91 139.82 209.16 136.42 207.38 133.04 C 209.22 133.10 211.06 133.15 212.89 133.19 Z" />
<path fill="#ffffff" opacity="1.00" d=" M 218.27 137.01 C 221.11 134.36 223.85 131.61 226.55 128.82 C 227.91 131.36 229.29 133.90 230.80 136.35 C 228.29 137.16 226.46 139.10 224.59 140.86 C 224.58 141.45 224.56 142.62 224.55 143.20 C 222.45 143.17 220.35 143.16 218.25 143.15 C 218.26 141.10 218.27 139.06 218.27 137.01 Z" />
<path fill="#ffffff" opacity="1.00" d=" M 226.31 143.12 C 227.76 141.41 229.09 138.68 231.79 139.22 C 232.76 140.42 233.47 141.80 234.26 143.13 C 231.60 143.17 228.95 143.17 226.31 143.12 Z" />
<path fill="#ffffff" opacity="1.00" d=" M 207.32 149.75 C 207.95 149.74 209.20 149.71 209.83 149.69 C 209.80 150.97 209.77 152.24 209.74 153.52 C 211.29 153.27 213.40 152.88 214.36 154.52 C 216.15 157.22 215.00 160.77 212.23 162.24 C 211.72 162.00 210.70 161.51 210.19 161.26 C 209.25 161.49 208.30 161.71 207.36 161.93 C 207.41 157.87 207.32 153.81 207.32 149.75 M 209.54 155.53 C 209.70 156.95 209.92 158.36 210.20 159.77 C 213.31 161.06 212.23 156.99 212.56 155.22 C 211.55 155.31 210.54 155.41 209.54 155.53 Z" />
<path fill="#ffffff" opacity="1.00" d=" M 155.13 161.87 C 149.62 161.29 149.13 152.15 154.13 150.45 C 157.06 149.32 160.06 151.75 160.49 154.67 C 158.17 154.67 156.17 150.92 154.03 153.04 C 153.08 154.92 153.65 157.11 153.66 159.13 C 154.19 159.32 155.23 159.69 155.75 159.88 C 157.19 158.83 158.76 157.97 160.48 157.47 C 160.06 160.10 157.88 162.16 155.13 161.87 Z" />
<path fill="#ffffff" opacity="1.00" d=" M 161.66 149.74 C 162.35 149.75 163.74 149.75 164.43 149.76 C 164.23 153.94 164.25 158.13 164.30 162.32 C 163.68 162.11 162.43 161.70 161.81 161.49 C 161.47 157.59 161.81 153.66 161.66 149.74 Z" />
<path fill="#ffffff" opacity="1.00" d=" M 174.90 149.43 C 177.75 149.11 177.75 151.37 177.48 153.52 C 182.86 151.23 184.64 159.65 180.43 161.88 C 178.63 161.63 176.82 161.54 175.01 161.54 C 175.12 157.50 174.97 153.47 174.90 149.43 M 177.88 154.88 C 177.25 156.77 177.57 158.76 177.84 160.69 C 180.63 159.88 181.48 155.01 177.88 154.88 Z" />
<path fill="#ffffff" opacity="1.00" d=" M 231.02 150.30 C 232.01 148.88 234.63 150.38 233.47 151.89 C 232.50 153.30 229.85 151.78 231.02 150.30 Z" />
<path fill="#ffffff" opacity="1.00" d=" M 188.06 150.40 C 190.86 150.62 194.70 149.57 196.45 152.44 C 197.69 154.22 195.79 155.96 194.88 157.35 C 195.66 158.81 196.46 160.25 197.23 161.72 C 196.55 161.71 195.20 161.69 194.53 161.68 C 193.48 159.95 192.41 158.20 190.87 156.84 C 190.80 158.43 190.75 160.03 190.72 161.63 C 190.06 161.66 188.75 161.72 188.09 161.75 C 188.11 157.96 188.10 154.18 188.06 150.40 M 190.72 152.14 C 190.72 153.42 190.73 154.70 190.76 155.98 C 191.78 155.37 194.42 155.91 194.12 154.20 C 194.63 152.20 191.86 152.67 190.72 152.14 Z" />
<path fill="#ffffff" opacity="1.00" d=" M 226.20 151.24 C 226.59 151.26 227.36 151.32 227.75 151.35 C 228.23 152.03 229.19 153.39 229.68 154.07 C 228.33 155.41 228.21 157.26 228.02 159.04 C 228.95 159.81 229.88 160.59 230.80 161.38 C 229.40 161.37 227.82 162.14 226.53 161.37 C 225.18 159.80 225.95 157.60 225.80 155.75 C 225.51 155.38 224.91 154.65 224.62 154.28 C 225.01 153.52 225.80 152.00 226.20 151.24 Z" />
<path fill="#ffffff" opacity="1.00" d=" M 170.86 153.38 C 171.69 153.37 172.52 153.36 173.36 153.35 C 173.34 156.23 173.33 159.11 173.26 162.00 C 172.59 161.79 171.26 161.39 170.60 161.19 C 169.66 161.52 168.73 161.86 167.80 162.20 C 165.01 159.92 166.23 156.10 165.98 153.00 C 170.87 152.83 166.25 159.29 170.09 160.46 C 171.22 158.28 170.72 155.74 170.86 153.38 Z" />
<path fill="#ffffff" opacity="1.00" d=" M 199.81 161.20 C 196.00 158.94 198.43 152.13 202.88 153.26 C 206.23 153.65 206.02 157.49 205.94 160.00 C 204.18 161.24 201.90 162.76 199.81 161.20 M 201.35 155.35 C 200.08 156.59 200.54 158.46 201.11 159.91 C 204.85 161.18 203.83 153.35 201.35 155.35 Z" />
<path fill="#ffffff" opacity="1.00" d=" M 219.36 153.25 C 222.04 152.58 224.52 155.33 223.98 157.96 C 224.30 160.73 220.77 162.77 218.43 161.53 C 214.90 160.20 215.37 153.65 219.36 153.25 M 219.11 155.22 C 218.25 156.68 218.35 158.40 219.10 159.88 C 222.47 161.12 222.39 153.75 219.11 155.22 Z" />
<path fill="#ffffff" opacity="1.00" d=" M 238.14 161.77 C 233.80 161.31 233.83 153.68 238.14 153.27 C 239.92 152.70 241.22 154.25 242.58 155.07 C 242.20 155.57 241.43 156.58 241.04 157.08 C 240.20 156.21 239.35 155.36 238.50 154.51 C 237.60 156.14 236.85 158.08 237.93 159.83 C 239.25 159.75 240.65 158.84 241.95 159.19 C 242.27 161.11 239.70 162.19 238.14 161.77 Z" />
<path fill="#ffffff" opacity="1.00" d=" M 243.46 154.90 C 245.35 151.91 249.79 153.02 250.93 156.08 C 248.92 155.65 246.95 155.05 244.91 154.78 C 246.80 156.48 249.14 157.54 251.17 159.06 C 249.61 162.19 244.23 163.17 243.20 159.23 C 245.12 159.21 246.92 160.08 248.82 160.26 C 247.24 158.22 242.87 158.11 243.46 154.90 Z" />
<path fill="#ffffff" opacity="1.00" d=" M 230.88 153.44 C 231.53 153.46 232.82 153.51 233.47 153.53 C 233.37 156.46 233.40 159.40 233.37 162.34 C 229.05 161.77 231.41 156.36 230.88 153.44 Z" />
</g>
<g id="#013068ff">
<path fill="#013068" opacity="1.00" d=" M 130.36 180.63 C 130.41 134.99 130.40 89.34 130.37 43.70 C 176.85 43.74 223.33 43.67 269.82 43.74 C 269.74 89.36 269.69 135.00 269.84 180.62 C 223.35 180.61 176.85 180.61 130.36 180.63 M 167.55 143.18 C 174.14 143.16 180.74 143.14 187.33 143.19 C 187.29 134.02 187.46 124.86 187.22 115.69 C 183.29 118.37 180.07 121.94 177.68 126.03 C 176.59 125.13 175.55 124.18 174.56 123.18 C 178.42 120.62 181.67 117.32 184.94 114.07 C 192.07 114.06 199.21 114.35 206.32 114.01 C 208.39 112.91 209.82 110.95 211.51 109.37 C 214.74 109.72 217.91 109.17 220.62 107.30 C 220.09 106.81 219.03 105.82 218.50 105.33 C 210.14 105.45 201.79 105.32 193.43 105.43 C 192.49 106.86 191.60 108.33 190.78 109.83 C 190.41 110.02 189.65 110.41 189.28 110.60 C 188.66 110.13 187.42 109.21 186.80 108.75 C 188.42 106.23 191.08 104.55 193.61 103.09 C 202.16 102.82 210.73 103.40 219.28 102.89 C 220.31 103.88 221.33 104.87 222.35 105.86 C 223.26 105.12 224.18 104.37 225.10 103.62 C 223.65 102.17 222.20 100.73 220.74 99.29 C 217.75 99.25 214.79 99.54 211.89 100.27 C 209.66 99.11 210.48 97.20 212.02 95.88 C 215.10 97.31 218.52 97.13 221.82 96.94 C 223.41 98.52 224.99 100.11 226.57 101.70 C 227.27 100.56 227.96 99.43 228.66 98.30 C 224.49 96.29 222.00 92.16 218.43 89.36 C 216.13 88.92 213.75 89.16 211.41 89.08 C 210.82 93.08 208.94 97.40 204.69 98.58 C 199.02 100.03 193.06 98.98 187.27 99.32 C 187.30 97.37 187.33 95.41 187.34 93.45 C 185.86 93.45 184.38 93.45 182.90 93.46 C 180.76 95.61 179.09 98.16 177.10 100.44 C 176.13 99.90 173.45 98.41 175.03 97.16 C 177.51 95.34 179.99 93.49 182.04 91.15 C 183.80 91.08 185.58 91.00 187.35 90.91 C 187.34 88.66 187.32 86.41 187.30 84.16 C 184.83 84.22 182.39 84.56 179.96 84.98 C 177.89 84.68 177.80 81.16 180.02 81.18 C 182.46 81.50 184.90 81.84 187.36 81.93 C 187.33 80.19 187.30 78.46 187.27 76.72 C 193.05 77.11 198.97 76.06 204.63 77.50 C 208.77 78.67 210.67 82.94 211.46 86.80 C 214.07 86.73 216.68 86.70 219.30 86.68 C 222.53 89.85 225.64 93.16 229.13 96.07 C 229.50 95.22 230.25 93.51 230.63 92.65 C 227.48 89.36 224.23 86.17 220.97 82.98 C 219.51 81.37 217.12 82.05 215.21 81.75 C 214.01 80.59 212.83 79.42 211.65 78.25 C 211.70 76.22 211.73 74.19 211.78 72.16 C 210.32 71.08 209.11 69.12 207.04 69.48 C 197.34 69.51 187.64 69.45 177.95 69.52 C 175.53 69.58 172.03 71.76 171.41 68.00 C 172.64 64.96 175.67 67.16 177.99 67.11 C 188.65 67.31 199.32 67.15 209.98 67.20 C 211.32 68.52 212.74 69.78 213.90 71.28 C 214.60 73.18 214.03 75.29 214.09 77.27 C 215.94 80.82 220.53 78.34 222.68 81.32 C 225.41 84.03 228.11 86.77 230.87 89.45 C 230.85 87.95 230.84 86.46 230.82 84.97 C 227.18 80.86 223.06 77.24 218.72 73.92 C 219.43 72.91 220.34 71.22 221.86 71.72 C 224.49 75.19 227.39 78.46 230.66 81.36 C 229.48 76.55 227.19 71.83 223.24 68.71 C 216.78 63.36 208.12 61.83 199.96 61.70 C 189.14 61.72 178.32 61.75 167.50 61.69 C 167.57 88.85 167.47 116.02 167.55 143.18 M 212.29 111.75 C 210.79 113.35 209.26 114.92 207.74 116.51 C 204.83 116.47 201.92 116.46 199.01 116.45 C 200.35 118.94 201.68 121.45 202.93 123.99 C 208.19 124.74 210.67 119.15 214.21 116.33 C 216.22 116.36 218.23 116.38 220.24 116.41 C 219.41 114.85 218.57 113.30 217.74 111.76 C 215.92 111.75 214.10 111.75 212.29 111.75 M 207.74 126.20 C 206.48 126.23 205.21 126.26 203.95 126.30 C 204.72 127.75 205.50 129.20 206.27 130.65 C 208.24 130.68 210.22 130.70 212.20 130.72 C 215.73 127.53 218.52 123.26 222.99 121.29 C 222.35 120.38 221.72 119.47 221.09 118.56 C 219.16 118.64 217.20 118.47 215.30 118.84 C 212.55 121.04 210.20 123.69 207.74 126.20 M 212.89 133.19 C 211.06 133.15 209.22 133.10 207.38 133.04 C 209.16 136.42 210.91 139.82 212.65 143.22 C 213.69 143.20 214.73 143.18 215.78 143.17 C 215.79 140.85 215.79 138.53 215.81 136.21 C 219.08 132.92 222.48 129.75 225.61 126.33 C 225.13 125.69 224.18 124.43 223.70 123.80 C 219.24 125.79 216.59 130.18 212.89 133.19 M 218.27 137.01 C 218.27 139.06 218.26 141.10 218.25 143.15 C 220.35 143.16 222.45 143.17 224.55 143.20 C 224.56 142.62 224.58 141.45 224.59 140.86 C 226.46 139.10 228.29 137.16 230.80 136.35 C 229.29 133.90 227.91 131.36 226.55 128.82 C 223.85 131.61 221.11 134.36 218.27 137.01 M 226.31 143.12 C 228.95 143.17 231.60 143.17 234.26 143.13 C 233.47 141.80 232.76 140.42 231.79 139.22 C 229.09 138.68 227.76 141.41 226.31 143.12 M 207.32 149.75 C 207.32 153.81 207.41 157.87 207.36 161.93 C 208.30 161.71 209.25 161.49 210.19 161.26 C 210.70 161.51 211.72 162.00 212.23 162.24 C 215.00 160.77 216.15 157.22 214.36 154.52 C 213.40 152.88 211.29 153.27 209.74 153.52 C 209.77 152.24 209.80 150.97 209.83 149.69 C 209.20 149.71 207.95 149.74 207.32 149.75 M 155.13 161.87 C 157.88 162.16 160.06 160.10 160.48 157.47 C 158.76 157.97 157.19 158.83 155.75 159.88 C 155.23 159.69 154.19 159.32 153.66 159.13 C 153.65 157.11 153.08 154.92 154.03 153.04 C 156.17 150.92 158.17 154.67 160.49 154.67 C 160.06 151.75 157.06 149.32 154.13 150.45 C 149.13 152.15 149.62 161.29 155.13 161.87 M 161.66 149.74 C 161.81 153.66 161.47 157.59 161.81 161.49 C 162.43 161.70 163.68 162.11 164.30 162.32 C 164.25 158.13 164.23 153.94 164.43 149.76 C 163.74 149.75 162.35 149.75 161.66 149.74 M 174.90 149.43 C 174.97 153.47 175.12 157.50 175.01 161.54 C 176.82 161.54 178.63 161.63 180.43 161.88 C 184.64 159.65 182.86 151.23 177.48 153.52 C 177.75 151.37 177.75 149.11 174.90 149.43 M 231.02 150.30 C 229.85 151.78 232.50 153.30 233.47 151.89 C 234.63 150.38 232.01 148.88 231.02 150.30 M 188.06 150.40 C 188.10 154.18 188.11 157.96 188.09 161.75 C 188.75 161.72 190.06 161.66 190.72 161.63 C 190.75 160.03 190.80 158.43 190.87 156.84 C 192.41 158.20 193.48 159.95 194.53 161.68 C 195.20 161.69 196.55 161.71 197.23 161.72 C 196.46 160.25 195.66 158.81 194.88 157.35 C 195.79 155.96 197.69 154.22 196.45 152.44 C 194.70 149.57 190.86 150.62 188.06 150.40 M 226.20 151.24 C 225.80 152.00 225.01 153.52 224.62 154.28 C 224.91 154.65 225.51 155.38 225.80 155.75 C 225.95 157.60 225.18 159.80 226.53 161.37 C 227.82 162.14 229.40 161.37 230.80 161.38 C 229.88 160.59 228.95 159.81 228.02 159.04 C 228.21 157.26 228.33 155.41 229.68 154.07 C 229.19 153.39 228.23 152.03 227.75 151.35 C 227.36 151.32 226.59 151.26 226.20 151.24 M 170.86 153.38 C 170.72 155.74 171.22 158.28 170.09 160.46 C 166.25 159.29 170.87 152.83 165.98 153.00 C 166.23 156.10 165.01 159.92 167.80 162.20 C 168.73 161.86 169.66 161.52 170.60 161.19 C 171.26 161.39 172.59 161.79 173.26 162.00 C 173.33 159.11 173.34 156.23 173.36 153.35 C 172.52 153.36 171.69 153.37 170.86 153.38 M 199.81 161.20 C 201.90 162.76 204.18 161.24 205.94 160.00 C 206.02 157.49 206.23 153.65 202.88 153.26 C 198.43 152.13 196.00 158.94 199.81 161.20 M 219.36 153.25 C 215.37 153.65 214.90 160.20 218.43 161.53 C 220.77 162.77 224.30 160.73 223.98 157.96 C 224.52 155.33 222.04 152.58 219.36 153.25 M 238.14 161.77 C 239.70 162.19 242.27 161.11 241.95 159.19 C 240.65 158.84 239.25 159.75 237.93 159.83 C 236.85 158.08 237.60 156.14 238.50 154.51 C 239.35 155.36 240.20 156.21 241.04 157.08 C 241.43 156.58 242.20 155.57 242.58 155.07 C 241.22 154.25 239.92 152.70 238.14 153.27 C 233.83 153.68 233.80 161.31 238.14 161.77 M 243.46 154.90 C 242.87 158.11 247.24 158.22 248.82 160.26 C 246.92 160.08 245.12 159.21 243.20 159.23 C 244.23 163.17 249.61 162.19 251.17 159.06 C 249.14 157.54 246.80 156.48 244.91 154.78 C 246.95 155.05 248.92 155.65 250.93 156.08 C 249.79 153.02 245.35 151.91 243.46 154.90 M 230.88 153.44 C 231.41 156.36 229.05 161.77 233.37 162.34 C 233.40 159.40 233.37 156.46 233.47 153.53 C 232.82 153.51 231.53 153.46 230.88 153.44 Z" />
<path fill="#013068" opacity="1.00" d=" M 190.72 152.14 C 191.86 152.67 194.63 152.20 194.12 154.20 C 194.42 155.91 191.78 155.37 190.76 155.98 C 190.73 154.70 190.72 153.42 190.72 152.14 Z" />
<path fill="#013068" opacity="1.00" d=" M 177.88 154.88 C 181.48 155.01 180.63 159.88 177.84 160.69 C 177.57 158.76 177.25 156.77 177.88 154.88 Z" />
<path fill="#013068" opacity="1.00" d=" M 201.35 155.35 C 203.83 153.35 204.85 161.18 201.11 159.91 C 200.54 158.46 200.08 156.59 201.35 155.35 Z" />
<path fill="#013068" opacity="1.00" d=" M 209.54 155.53 C 210.54 155.41 211.55 155.31 212.56 155.22 C 212.23 156.99 213.31 161.06 210.20 159.77 C 209.92 158.36 209.70 156.95 209.54 155.53 Z" />
<path fill="#013068" opacity="1.00" d=" M 219.11 155.22 C 222.39 153.75 222.47 161.12 219.10 159.88 C 218.35 158.40 218.25 156.68 219.11 155.22 Z" />
</g>
</svg>
