<?xml version="1.0" encoding="UTF-8" ?>
<!DOCTYPE svg PUBLIC "-//W3C//DTD SVG 1.1//EN" "http://www.w3.org/Graphics/SVG/1.1/DTD/svg11.dtd">
<svg width="400pt" height="225pt" viewBox="0 0 400 225" version="1.1" xmlns="http://www.w3.org/2000/svg">
<g id="#ffffffff">
<path fill="#ffffff" opacity="1.00" d=" M 0.00 0.00 L 400.00 0.00 L 400.00 225.00 L 0.00 225.00 L 0.00 0.00 M 118.50 31.41 C 118.55 85.47 118.57 139.53 118.50 193.59 C 172.83 193.69 227.17 193.69 281.50 193.59 C 281.44 139.53 281.44 85.47 281.50 31.41 C 227.17 31.34 172.84 31.35 118.50 31.41 Z" />
<path fill="#ffffff" opacity="1.00" d=" M 199.41 82.89 C 202.23 68.38 219.17 58.48 233.15 63.64 C 241.26 66.26 247.28 73.11 250.27 80.92 C 238.19 87.65 226.38 94.84 214.29 101.54 C 220.59 107.64 231.24 107.56 237.59 101.61 C 240.19 99.37 241.53 96.14 242.72 93.00 C 246.18 93.56 249.62 94.25 253.09 94.79 C 251.66 102.41 246.75 109.29 240.02 113.11 C 231.32 118.05 219.83 118.17 211.33 112.73 C 204.81 108.75 200.69 101.78 199.02 94.45 C 198.15 102.27 194.04 110.09 186.81 113.74 C 181.33 117.04 174.63 117.19 168.47 116.31 C 161.40 114.70 154.98 109.88 152.01 103.18 C 150.28 99.39 149.47 95.21 149.52 91.05 C 149.57 82.17 149.53 73.28 149.54 64.40 C 153.27 64.39 157.00 64.41 160.74 64.42 C 160.75 74.29 160.53 84.18 160.82 94.05 C 161.37 102.05 170.11 108.27 177.82 105.87 C 183.53 104.46 187.85 98.91 187.91 93.06 C 187.99 83.49 187.61 73.91 188.20 64.35 C 191.73 64.43 195.26 64.43 198.79 64.37 C 199.30 70.54 198.54 76.74 199.41 82.89 M 213.51 78.43 C 209.54 82.16 208.93 87.89 209.69 93.01 C 218.73 88.33 227.40 82.93 236.24 77.88 C 230.41 71.23 219.12 71.77 213.51 78.43 Z" />
<path fill="#ffffff" opacity="1.00" d=" M 238.96 125.61 C 243.56 124.64 248.28 124.51 252.88 123.53 C 252.85 124.50 252.80 126.44 252.78 127.41 C 249.09 127.88 245.41 128.38 241.71 128.76 C 241.73 129.73 241.78 131.65 241.80 132.62 C 244.62 132.42 247.42 132.08 250.23 131.72 C 251.16 132.53 252.14 133.30 253.15 134.02 C 253.20 136.04 253.20 138.06 253.15 140.08 C 252.13 141.08 251.19 142.14 250.30 143.24 C 245.04 143.48 239.83 144.20 234.57 144.42 C 234.78 143.14 235.00 141.86 235.24 140.59 C 238.72 140.58 242.20 140.35 245.63 139.72 C 245.58 138.50 245.53 137.27 245.49 136.05 C 242.70 136.31 239.91 136.51 237.12 136.65 C 236.34 135.82 235.57 135.00 234.80 134.18 C 234.76 132.32 234.70 130.46 234.65 128.61 C 235.02 128.34 235.77 127.81 236.14 127.54 C 236.73 126.35 237.67 125.71 238.96 125.61 Z" />
<path fill="#ffffff" opacity="1.00" d=" M 215.58 129.19 C 220.81 128.05 226.17 127.66 231.42 126.57 C 231.41 127.49 231.40 129.31 231.40 130.22 C 229.75 130.39 228.12 130.56 226.48 130.73 C 226.43 135.56 226.44 140.38 226.47 145.21 C 224.42 145.33 222.36 145.45 220.31 145.55 C 220.31 141.05 220.49 136.55 220.27 132.06 C 218.76 131.72 217.24 132.15 215.76 132.38 C 215.70 131.32 215.64 130.26 215.58 129.19 Z" />
<path fill="#ffffff" opacity="1.00" d=" M 199.22 131.43 C 202.91 130.77 206.66 130.45 210.35 129.73 C 211.16 130.36 211.96 130.99 212.77 131.62 C 212.78 134.15 212.00 136.56 211.13 138.91 C 213.76 140.36 212.30 143.85 212.65 146.28 C 210.85 146.38 209.05 146.48 207.25 146.60 C 207.26 144.46 207.27 142.33 207.31 140.20 C 206.26 140.27 205.22 140.35 204.19 140.43 C 204.24 142.48 204.30 144.54 204.38 146.60 C 202.66 146.88 200.94 147.16 199.23 147.45 C 199.22 142.10 199.21 136.77 199.22 131.43 M 204.18 133.59 C 204.32 134.93 204.46 136.28 204.62 137.62 C 205.29 137.30 206.63 136.67 207.30 136.35 C 207.31 135.46 207.32 134.57 207.34 133.69 C 206.29 133.66 205.23 133.62 204.18 133.59 Z" />
<path fill="#ffffff" opacity="1.00" d=" M 185.92 133.49 C 188.81 132.73 191.80 132.42 194.78 132.19 C 195.19 132.65 196.01 133.56 196.43 134.02 C 196.39 137.79 196.39 141.57 196.45 145.34 C 195.85 146.07 195.26 146.81 194.67 147.55 C 191.98 147.85 189.28 148.18 186.59 148.48 C 185.87 147.79 185.15 147.10 184.43 146.41 C 184.48 142.85 184.47 139.28 184.40 135.72 C 184.78 135.16 185.54 134.05 185.92 133.49 M 188.78 136.54 C 189.13 139.39 189.23 142.26 189.27 145.13 C 189.80 145.00 190.88 144.75 191.41 144.62 C 191.75 141.54 191.56 138.43 191.58 135.34 C 190.88 135.64 189.48 136.24 188.78 136.54 Z" />
<path fill="#ffffff" opacity="1.00" d=" M 171.48 135.58 C 174.71 134.80 178.00 134.38 181.32 134.30 C 181.81 136.28 182.17 138.29 182.46 140.32 C 181.03 142.88 178.37 143.58 175.61 143.49 C 175.55 145.41 175.53 147.33 175.45 149.24 C 174.45 149.32 172.46 149.49 171.47 149.57 C 171.61 144.90 171.60 140.24 171.48 135.58 M 175.66 137.57 C 175.59 138.55 175.53 139.53 175.46 140.52 C 175.99 140.52 177.05 140.54 177.58 140.55 C 177.66 139.47 177.74 138.40 177.81 137.33 C 177.27 137.39 176.20 137.51 175.66 137.57 Z" />
<path fill="#ffffff" opacity="1.00" d=" M 161.61 136.69 C 164.31 136.49 167.00 136.24 169.71 136.07 C 169.99 140.44 162.43 136.94 163.30 142.00 C 164.93 141.85 166.56 141.69 168.20 141.52 C 169.45 143.23 169.49 145.32 169.54 147.35 C 169.02 148.13 168.51 148.91 167.99 149.69 C 165.27 150.03 162.54 150.31 159.81 150.49 C 159.28 146.75 163.15 147.74 165.53 147.35 C 165.55 146.66 165.59 145.27 165.61 144.57 C 163.97 144.23 161.38 145.67 160.47 143.69 C 158.91 141.37 160.15 138.68 161.61 136.69 Z" />
<path fill="#ffffff" opacity="1.00" d=" M 150.49 138.51 C 152.98 138.26 155.44 137.87 157.91 137.45 C 157.87 138.13 157.80 139.50 157.76 140.19 C 156.07 140.33 154.39 140.48 152.71 140.64 C 152.76 141.25 152.85 142.46 152.89 143.07 C 154.43 142.93 155.38 143.56 155.73 144.97 C 153.96 145.44 152.54 146.43 152.49 148.47 C 154.30 148.40 156.12 148.31 157.93 148.20 C 157.91 148.78 157.85 149.93 157.83 150.51 C 155.09 150.75 152.33 150.87 149.60 150.48 C 149.67 146.49 148.88 142.30 150.49 138.51 Z" />
<path fill="#ffffff" opacity="1.00" d=" M 207.35 149.88 C 211.55 149.77 215.73 149.43 219.93 149.23 C 220.39 149.74 221.31 150.76 221.77 151.27 C 221.74 153.29 222.43 155.84 220.05 156.83 C 220.28 158.13 220.53 159.51 221.83 160.19 C 221.82 161.48 221.80 162.77 221.79 164.06 C 221.29 164.66 220.31 165.86 219.81 166.46 C 215.65 166.52 211.49 166.46 207.33 166.48 C 207.35 160.94 207.26 155.41 207.35 149.88 M 212.66 152.81 C 212.65 154.02 212.65 155.22 212.66 156.43 C 213.72 156.39 214.78 156.35 215.84 156.31 C 215.80 155.06 215.76 153.82 215.71 152.58 C 214.69 152.66 213.67 152.73 212.66 152.81 M 212.53 159.68 C 212.18 161.97 213.07 163.77 215.74 163.41 C 215.79 162.47 215.89 160.58 215.94 159.64 C 214.80 159.64 213.66 159.66 212.53 159.68 Z" />
<path fill="#ffffff" opacity="1.00" d=" M 191.65 150.79 C 193.26 150.74 194.87 150.69 196.49 150.65 C 196.43 154.92 196.46 159.18 196.49 163.45 C 197.42 163.41 198.34 163.38 199.27 163.34 C 199.25 159.07 199.27 154.81 199.21 150.54 C 200.91 150.48 202.61 150.42 204.32 150.37 C 204.25 154.68 204.30 158.99 204.38 163.31 C 203.87 164.33 203.37 165.36 202.88 166.40 C 199.66 166.50 196.45 166.50 193.24 166.47 C 192.84 165.88 192.05 164.70 191.65 164.11 C 191.65 159.67 191.62 155.23 191.65 150.79 Z" />
<path fill="#ffffff" opacity="1.00" d=" M 166.98 152.66 C 169.86 152.49 172.74 152.35 175.62 152.22 C 175.66 152.84 175.73 154.09 175.76 154.71 C 173.66 154.95 171.55 155.16 169.44 155.35 C 169.43 158.13 169.44 160.91 169.45 163.69 C 171.55 163.68 173.66 163.66 175.77 163.65 C 175.71 164.60 175.66 165.55 175.60 166.51 C 172.76 166.46 169.92 166.45 167.09 166.49 C 166.69 165.94 165.89 164.85 165.50 164.30 C 165.57 161.16 165.58 158.02 165.52 154.88 C 165.89 154.33 166.62 153.22 166.98 152.66 Z" />
<path fill="#ffffff" opacity="1.00" d=" M 177.68 152.16 C 178.62 152.03 180.49 151.77 181.43 151.64 C 183.08 155.30 181.84 159.64 182.22 163.57 C 184.54 163.54 186.87 163.51 189.20 163.51 C 189.22 164.24 189.27 165.71 189.29 166.45 C 185.45 166.45 181.61 166.48 177.77 166.47 C 177.71 161.70 177.77 156.93 177.68 152.16 Z" />
</g>
<g id="#fe332aff">
<path fill="#fe332a" opacity="1.00" d=" M 118.50 31.41 C 172.84 31.35 227.17 31.34 281.50 31.41 C 281.44 85.47 281.44 139.53 281.50 193.59 C 227.17 193.69 172.83 193.69 118.50 193.59 C 118.57 139.53 118.55 85.47 118.50 31.41 M 199.41 82.89 C 198.54 76.74 199.30 70.54 198.79 64.37 C 195.26 64.43 191.73 64.43 188.20 64.35 C 187.61 73.91 187.99 83.49 187.91 93.06 C 187.85 98.91 183.53 104.46 177.82 105.87 C 170.11 108.27 161.37 102.05 160.82 94.05 C 160.53 84.18 160.75 74.29 160.74 64.42 C 157.00 64.41 153.27 64.39 149.54 64.40 C 149.53 73.28 149.57 82.17 149.52 91.05 C 149.47 95.21 150.28 99.39 152.01 103.18 C 154.98 109.88 161.40 114.70 168.47 116.31 C 174.63 117.19 181.33 117.04 186.81 113.74 C 194.04 110.09 198.15 102.27 199.02 94.45 C 200.69 101.78 204.81 108.75 211.33 112.73 C 219.83 118.17 231.32 118.05 240.02 113.11 C 246.75 109.29 251.66 102.41 253.09 94.79 C 249.62 94.25 246.18 93.56 242.72 93.00 C 241.53 96.14 240.19 99.37 237.59 101.61 C 231.24 107.56 220.59 107.64 214.29 101.54 C 226.38 94.84 238.19 87.65 250.27 80.92 C 247.28 73.11 241.26 66.26 233.15 63.64 C 219.17 58.48 202.23 68.38 199.41 82.89 M 238.96 125.61 C 237.67 125.71 236.73 126.35 236.14 127.54 C 235.77 127.81 235.02 128.34 234.65 128.61 C 234.70 130.46 234.76 132.32 234.80 134.18 C 235.57 135.00 236.34 135.82 237.12 136.65 C 239.91 136.51 242.70 136.31 245.49 136.05 C 245.53 137.27 245.58 138.50 245.63 139.72 C 242.20 140.35 238.72 140.58 235.24 140.59 C 235.00 141.86 234.78 143.14 234.57 144.42 C 239.83 144.20 245.04 143.48 250.30 143.24 C 251.19 142.14 252.13 141.08 253.15 140.08 C 253.20 138.06 253.20 136.04 253.15 134.02 C 252.14 133.30 251.16 132.53 250.23 131.72 C 247.42 132.08 244.62 132.42 241.80 132.62 C 241.78 131.65 241.73 129.73 241.71 128.76 C 245.41 128.38 249.09 127.88 252.78 127.41 C 252.80 126.44 252.85 124.50 252.88 123.53 C 248.28 124.51 243.56 124.64 238.96 125.61 M 215.58 129.19 C 215.64 130.26 215.70 131.32 215.76 132.38 C 217.24 132.15 218.76 131.72 220.27 132.06 C 220.49 136.55 220.31 141.05 220.31 145.55 C 222.36 145.45 224.42 145.33 226.47 145.21 C 226.44 140.38 226.43 135.56 226.48 130.73 C 228.12 130.56 229.75 130.39 231.40 130.22 C 231.40 129.31 231.41 127.49 231.42 126.57 C 226.17 127.66 220.81 128.05 215.58 129.19 M 199.22 131.43 C 199.21 136.77 199.22 142.10 199.23 147.45 C 200.94 147.16 202.66 146.88 204.38 146.60 C 204.30 144.54 204.24 142.48 204.19 140.43 C 205.22 140.35 206.26 140.27 207.31 140.20 C 207.27 142.33 207.26 144.46 207.25 146.60 C 209.05 146.48 210.85 146.38 212.65 146.28 C 212.30 143.85 213.76 140.36 211.13 138.91 C 212.00 136.56 212.78 134.15 212.77 131.62 C 211.96 130.99 211.16 130.36 210.35 129.73 C 206.66 130.45 202.91 130.77 199.22 131.43 M 185.92 133.49 C 185.54 134.05 184.78 135.16 184.40 135.72 C 184.47 139.28 184.48 142.85 184.43 146.41 C 185.15 147.10 185.87 147.79 186.59 148.48 C 189.28 148.18 191.98 147.85 194.67 147.55 C 195.26 146.81 195.85 146.07 196.45 145.34 C 196.39 141.57 196.39 137.79 196.43 134.02 C 196.01 133.56 195.19 132.65 194.78 132.19 C 191.80 132.42 188.81 132.73 185.92 133.49 M 171.48 135.58 C 171.60 140.24 171.61 144.90 171.47 149.57 C 172.46 149.49 174.45 149.32 175.45 149.24 C 175.53 147.33 175.55 145.41 175.61 143.49 C 178.37 143.58 181.03 142.88 182.46 140.32 C 182.17 138.29 181.81 136.28 181.32 134.30 C 178.00 134.38 174.71 134.80 171.48 135.58 M 161.61 136.69 C 160.15 138.68 158.91 141.37 160.47 143.69 C 161.38 145.67 163.97 144.23 165.61 144.57 C 165.59 145.27 165.55 146.66 165.53 147.35 C 163.15 147.74 159.28 146.75 159.81 150.49 C 162.54 150.31 165.27 150.03 167.99 149.69 C 168.51 148.91 169.02 148.13 169.54 147.35 C 169.49 145.32 169.45 143.23 168.20 141.52 C 166.56 141.69 164.93 141.85 163.30 142.00 C 162.43 136.94 169.99 140.44 169.71 136.07 C 167.00 136.24 164.31 136.49 161.61 136.69 M 150.49 138.51 C 148.88 142.30 149.67 146.49 149.60 150.48 C 152.33 150.87 155.09 150.75 157.83 150.51 C 157.85 149.93 157.91 148.78 157.93 148.20 C 156.12 148.31 154.30 148.40 152.49 148.47 C 152.54 146.43 153.96 145.44 155.73 144.97 C 155.38 143.56 154.43 142.93 152.89 143.07 C 152.85 142.46 152.76 141.25 152.71 140.64 C 154.39 140.48 156.07 140.33 157.76 140.19 C 157.80 139.50 157.87 138.13 157.91 137.45 C 155.44 137.87 152.98 138.26 150.49 138.51 M 207.35 149.88 C 207.26 155.41 207.35 160.94 207.33 166.48 C 211.49 166.46 215.65 166.52 219.81 166.46 C 220.31 165.86 221.29 164.66 221.79 164.06 C 221.80 162.77 221.82 161.48 221.83 160.19 C 220.53 159.51 220.28 158.13 220.05 156.83 C 222.43 155.84 221.74 153.29 221.77 151.27 C 221.31 150.76 220.39 149.74 219.93 149.23 C 215.73 149.43 211.55 149.77 207.35 149.88 M 191.65 150.79 C 191.62 155.23 191.65 159.67 191.65 164.11 C 192.05 164.70 192.84 165.88 193.24 166.47 C 196.45 166.50 199.66 166.50 202.88 166.40 C 203.37 165.36 203.87 164.33 204.38 163.31 C 204.30 158.99 204.25 154.68 204.32 150.37 C 202.61 150.42 200.91 150.48 199.21 150.54 C 199.27 154.81 199.25 159.07 199.27 163.34 C 198.34 163.38 197.42 163.41 196.49 163.45 C 196.46 159.18 196.43 154.92 196.49 150.65 C 194.87 150.69 193.26 150.74 191.65 150.79 M 166.98 152.66 C 166.62 153.22 165.89 154.33 165.52 154.88 C 165.58 158.02 165.57 161.16 165.50 164.30 C 165.89 164.85 166.69 165.94 167.09 166.49 C 169.92 166.45 172.76 166.46 175.60 166.51 C 175.66 165.55 175.71 164.60 175.77 163.65 C 173.66 163.66 171.55 163.68 169.45 163.69 C 169.44 160.91 169.43 158.13 169.44 155.35 C 171.55 155.16 173.66 154.95 175.76 154.71 C 175.73 154.09 175.66 152.84 175.62 152.22 C 172.74 152.35 169.86 152.49 166.98 152.66 M 177.68 152.16 C 177.77 156.93 177.71 161.70 177.77 166.47 C 181.61 166.48 185.45 166.45 189.29 166.45 C 189.27 165.71 189.22 164.24 189.20 163.51 C 186.87 163.51 184.54 163.54 182.22 163.57 C 181.84 159.64 183.08 155.30 181.43 151.64 C 180.49 151.77 178.62 152.03 177.68 152.16 Z" />
<path fill="#fe332a" opacity="1.00" d=" M 213.51 78.43 C 219.12 71.77 230.41 71.23 236.24 77.88 C 227.40 82.93 218.73 88.33 209.69 93.01 C 208.93 87.89 209.54 82.16 213.51 78.43 Z" />
<path fill="#fe332a" opacity="1.00" d=" M 204.18 133.59 C 205.23 133.62 206.29 133.66 207.34 133.69 C 207.32 134.57 207.31 135.46 207.30 136.35 C 206.63 136.67 205.29 137.30 204.62 137.62 C 204.46 136.28 204.32 134.93 204.18 133.59 Z" />
<path fill="#fe332a" opacity="1.00" d=" M 188.78 136.54 C 189.48 136.24 190.88 135.64 191.58 135.34 C 191.56 138.43 191.75 141.54 191.41 144.62 C 190.88 144.75 189.80 145.00 189.27 145.13 C 189.23 142.26 189.13 139.39 188.78 136.54 Z" />
<path fill="#fe332a" opacity="1.00" d=" M 175.66 137.57 C 176.20 137.51 177.27 137.39 177.81 137.33 C 177.74 138.40 177.66 139.47 177.58 140.55 C 177.05 140.54 175.99 140.52 175.46 140.52 C 175.53 139.53 175.59 138.55 175.66 137.57 Z" />
<path fill="#fe332a" opacity="1.00" d=" M 212.66 152.81 C 213.67 152.73 214.69 152.66 215.71 152.58 C 215.76 153.82 215.80 155.06 215.84 156.31 C 214.78 156.35 213.72 156.39 212.66 156.43 C 212.65 155.22 212.65 154.02 212.66 152.81 Z" />
<path fill="#fe332a" opacity="1.00" d=" M 212.53 159.68 C 213.66 159.66 214.80 159.64 215.94 159.64 C 215.89 160.58 215.79 162.47 215.74 163.41 C 213.07 163.77 212.18 161.97 212.53 159.68 Z" />
</g>
</svg>
