<?xml version="1.0" encoding="UTF-8" ?>
<!DOCTYPE svg PUBLIC "-//W3C//DTD SVG 1.1//EN" "http://www.w3.org/Graphics/SVG/1.1/DTD/svg11.dtd">
<svg width="400pt" height="225pt" viewBox="0 0 400 225" version="1.1" xmlns="http://www.w3.org/2000/svg">
<g id="#ffffffff">
<path fill="#ffffff" opacity="1.00" d=" M 0.00 0.00 L 400.00 0.00 L 400.00 225.00 L 0.00 225.00 L 0.00 0.00 M 180.25 58.44 C 174.71 56.67 167.92 57.95 164.78 63.23 C 160.75 63.28 156.49 63.02 152.79 64.91 C 149.01 66.91 145.39 69.43 142.87 72.94 C 140.45 76.20 136.70 78.14 134.27 81.40 C 130.86 85.40 130.76 90.99 130.63 95.97 C 130.48 100.96 133.49 105.14 134.52 109.86 C 135.05 111.76 135.88 113.56 136.81 115.29 C 141.97 110.95 142.42 103.92 144.98 98.21 C 145.50 98.25 146.55 98.32 147.07 98.36 C 149.44 100.99 147.23 105.65 150.84 107.75 C 155.96 105.02 157.25 98.98 160.98 94.94 C 161.65 95.29 162.98 95.99 163.64 96.33 C 163.89 99.89 163.00 103.86 165.77 106.71 C 167.52 106.08 169.19 105.24 170.76 104.25 C 170.42 100.51 170.79 96.21 173.94 93.67 C 176.20 91.94 179.56 94.27 179.34 96.94 C 179.33 100.16 177.08 102.71 175.56 105.35 C 177.74 106.08 180.47 105.97 181.66 103.67 C 183.99 99.45 185.96 94.85 190.15 92.07 C 191.90 93.48 192.90 95.41 192.13 97.68 C 194.14 95.94 196.13 93.72 198.94 93.43 C 204.62 92.46 208.87 100.38 205.77 104.71 C 208.05 104.26 209.44 102.09 210.14 100.02 C 210.77 97.35 207.63 93.85 210.83 92.14 C 216.17 93.21 220.37 97.30 223.10 101.84 C 225.89 98.31 228.68 94.34 233.11 92.79 C 235.09 92.03 237.07 93.01 238.89 93.74 C 239.75 95.02 240.65 96.28 241.58 97.52 C 241.77 101.19 243.69 105.59 247.89 105.82 C 253.03 106.87 256.64 102.58 259.79 99.29 C 258.54 92.08 252.86 86.87 246.84 83.33 C 245.52 76.45 240.55 70.67 234.07 68.11 C 231.24 67.12 230.22 63.98 227.98 62.24 C 223.02 58.08 216.13 56.36 209.77 57.14 C 206.81 55.17 203.62 53.31 199.93 53.36 C 198.37 54.47 196.78 55.53 195.20 56.60 C 190.35 53.98 184.20 54.36 180.25 58.44 M 194.71 101.73 C 190.28 107.96 189.38 115.73 187.92 123.02 C 188.14 126.33 182.99 124.44 183.76 122.03 C 184.66 115.93 185.87 109.87 186.72 103.76 C 185.14 106.05 183.79 108.89 180.95 109.83 C 178.11 111.19 175.14 109.78 172.85 108.06 C 170.73 109.22 168.64 111.08 166.05 110.63 C 162.59 110.89 160.64 107.57 159.80 104.71 C 157.74 107.45 155.76 111.18 151.95 111.53 C 149.63 112.19 147.63 110.67 145.82 109.47 C 144.30 113.09 141.95 116.27 139.06 118.91 C 143.88 122.95 149.82 126.17 156.29 125.93 C 159.44 129.75 162.60 133.88 167.32 135.83 C 174.09 139.17 182.00 137.37 188.56 134.42 C 190.19 137.04 191.70 139.93 194.39 141.63 C 196.74 143.38 199.60 144.28 201.99 145.95 C 206.88 152.53 210.71 159.88 215.80 166.32 C 216.40 166.55 217.61 167.01 218.21 167.23 C 218.41 162.45 217.67 157.71 217.38 152.95 C 220.02 152.31 222.38 150.96 224.37 149.12 C 228.46 150.84 233.37 151.83 237.41 149.42 C 241.73 147.55 243.82 143.03 244.80 138.70 C 252.91 137.69 256.31 129.56 259.01 122.94 C 261.20 117.24 259.09 111.15 260.22 105.31 C 257.26 107.79 253.96 110.29 249.94 110.43 C 246.38 110.82 243.11 109.04 240.55 106.75 C 239.12 107.81 237.59 108.73 236.00 109.51 C 232.47 108.36 229.39 105.81 228.92 101.92 C 227.52 103.44 226.07 104.91 224.65 106.41 C 224.84 110.22 220.51 115.91 216.81 112.17 C 213.65 109.60 216.62 106.06 219.06 104.35 C 217.98 102.00 216.29 100.02 214.47 98.21 C 214.18 101.38 213.31 104.67 210.85 106.86 C 207.48 110.29 201.13 111.69 197.42 108.07 C 197.72 107.34 198.32 105.88 198.62 105.15 C 199.85 105.21 201.07 105.27 202.30 105.33 C 202.43 102.40 202.63 99.23 200.19 97.12 C 198.07 98.26 196.02 99.66 194.71 101.73 M 233.59 98.61 C 233.56 100.56 233.77 102.50 234.49 104.33 C 234.96 104.34 235.90 104.36 236.37 104.37 C 236.83 102.44 237.21 100.50 237.54 98.55 C 236.22 98.53 234.90 98.58 233.59 98.61 Z" />
</g>
<g id="#b1110bff">
<path fill="#b1110b" opacity="1.00" d=" M 180.25 58.44 C 184.20 54.36 190.35 53.98 195.20 56.60 C 196.78 55.53 198.37 54.47 199.93 53.36 C 203.62 53.31 206.81 55.17 209.77 57.14 C 216.13 56.36 223.02 58.08 227.98 62.24 C 230.22 63.98 231.24 67.12 234.07 68.11 C 240.55 70.67 245.52 76.45 246.84 83.33 C 252.86 86.87 258.54 92.08 259.79 99.29 C 256.64 102.58 253.03 106.87 247.89 105.82 C 243.69 105.59 241.77 101.19 241.58 97.52 C 240.65 96.28 239.75 95.02 238.89 93.74 C 237.07 93.01 235.09 92.03 233.11 92.79 C 228.68 94.34 225.89 98.31 223.10 101.84 C 220.37 97.30 216.17 93.21 210.83 92.14 C 207.63 93.85 210.77 97.35 210.14 100.02 C 209.44 102.09 208.05 104.26 205.77 104.71 C 208.87 100.38 204.62 92.46 198.94 93.43 C 196.13 93.72 194.14 95.94 192.13 97.68 C 192.90 95.41 191.90 93.48 190.15 92.07 C 185.96 94.85 183.99 99.45 181.66 103.67 C 180.47 105.97 177.74 106.08 175.56 105.35 C 177.08 102.71 179.33 100.16 179.34 96.94 C 179.56 94.27 176.20 91.94 173.94 93.67 C 170.79 96.21 170.42 100.51 170.76 104.25 C 169.19 105.24 167.52 106.08 165.77 106.71 C 163.00 103.86 163.89 99.89 163.64 96.33 C 162.98 95.99 161.65 95.29 160.98 94.94 C 157.25 98.98 155.96 105.02 150.84 107.75 C 147.23 105.65 149.44 100.99 147.07 98.36 C 146.55 98.32 145.50 98.25 144.98 98.21 C 142.42 103.92 141.97 110.95 136.81 115.29 C 135.88 113.56 135.05 111.76 134.52 109.86 C 133.49 105.14 130.48 100.96 130.63 95.97 C 130.76 90.99 130.86 85.40 134.27 81.40 C 136.70 78.14 140.45 76.20 142.87 72.94 C 145.39 69.43 149.01 66.91 152.79 64.91 C 156.49 63.02 160.75 63.28 164.78 63.23 C 167.92 57.95 174.71 56.67 180.25 58.44 Z" />
<path fill="#b1110b" opacity="1.00" d=" M 194.71 101.73 C 196.02 99.66 198.07 98.26 200.19 97.12 C 202.63 99.23 202.43 102.40 202.30 105.33 C 201.07 105.27 199.85 105.21 198.62 105.15 C 198.32 105.88 197.72 107.34 197.42 108.07 C 201.13 111.69 207.48 110.29 210.85 106.86 C 213.31 104.67 214.18 101.38 214.47 98.21 C 216.29 100.02 217.98 102.00 219.06 104.35 C 216.62 106.06 213.65 109.60 216.81 112.17 C 220.51 115.91 224.84 110.22 224.65 106.41 C 226.07 104.91 227.52 103.44 228.92 101.92 C 229.39 105.81 232.47 108.36 236.00 109.51 C 237.59 108.73 239.12 107.81 240.55 106.75 C 243.11 109.04 246.38 110.82 249.94 110.43 C 253.96 110.29 257.26 107.79 260.22 105.31 C 259.09 111.15 261.20 117.24 259.01 122.94 C 256.31 129.56 252.91 137.69 244.80 138.70 C 243.82 143.03 241.73 147.55 237.41 149.42 C 233.37 151.83 228.46 150.84 224.37 149.12 C 222.38 150.96 220.02 152.31 217.38 152.95 C 217.67 157.71 218.41 162.45 218.21 167.23 C 217.61 167.01 216.40 166.55 215.80 166.32 C 210.71 159.88 206.88 152.53 201.99 145.95 C 199.60 144.28 196.74 143.38 194.39 141.63 C 191.70 139.93 190.19 137.04 188.56 134.42 C 182.00 137.37 174.09 139.17 167.32 135.83 C 162.60 133.88 159.44 129.75 156.29 125.93 C 149.82 126.17 143.88 122.95 139.06 118.91 C 141.95 116.27 144.30 113.09 145.82 109.47 C 147.63 110.67 149.63 112.19 151.95 111.53 C 155.76 111.18 157.74 107.45 159.80 104.71 C 160.64 107.57 162.59 110.89 166.05 110.63 C 168.64 111.08 170.73 109.22 172.85 108.06 C 175.14 109.78 178.11 111.19 180.95 109.83 C 183.79 108.89 185.14 106.05 186.72 103.76 C 185.87 109.87 184.66 115.93 183.76 122.03 C 182.99 124.44 188.14 126.33 187.92 123.02 C 189.38 115.73 190.28 107.96 194.71 101.73 Z" />
<path fill="#b1110b" opacity="1.00" d=" M 233.59 98.61 C 234.90 98.58 236.22 98.53 237.54 98.55 C 237.21 100.50 236.83 102.44 236.37 104.37 C 235.90 104.36 234.96 104.34 234.49 104.33 C 233.77 102.50 233.56 100.56 233.59 98.61 Z" />
</g>
</svg>
