<?xml version="1.0" encoding="UTF-8" ?>
<!DOCTYPE svg PUBLIC "-//W3C//DTD SVG 1.1//EN" "http://www.w3.org/Graphics/SVG/1.1/DTD/svg11.dtd">
<svg width="400pt" height="225pt" viewBox="0 0 400 225" version="1.1" xmlns="http://www.w3.org/2000/svg">
<g id="#ffffffff">
<path fill="#ffffff" opacity="1.00" d=" M 0.00 0.00 L 400.00 0.00 L 400.00 225.00 L 0.00 225.00 L 0.00 0.00 M 107.16 38.65 C 107.24 87.88 107.15 137.11 107.20 186.34 C 109.96 186.30 112.73 186.30 115.50 186.34 C 115.49 183.32 115.49 180.31 115.46 177.30 C 121.80 177.32 128.15 177.27 134.49 177.32 C 134.49 180.33 134.50 183.34 134.48 186.36 C 137.41 186.27 140.35 186.28 143.29 186.31 C 143.25 183.31 143.24 180.31 143.27 177.31 C 180.42 177.27 217.57 177.31 254.72 177.29 C 254.78 180.30 254.76 183.31 254.71 186.32 C 257.67 186.27 260.64 186.30 263.60 186.32 C 263.57 183.30 263.55 180.29 263.60 177.28 C 269.94 177.26 276.28 177.32 282.61 177.28 C 282.61 180.29 282.60 183.30 282.58 186.32 C 285.34 186.30 288.10 186.29 290.86 186.34 C 290.85 137.11 290.80 87.89 290.88 38.66 C 288.11 38.71 285.35 38.72 282.59 38.66 C 282.62 41.83 282.63 45.01 282.57 48.18 C 276.24 48.09 269.90 48.22 263.57 48.09 C 263.55 44.96 263.57 41.82 263.58 38.69 C 260.63 38.71 257.67 38.71 254.72 38.71 C 254.75 41.86 254.78 45.01 254.69 48.16 C 217.56 48.11 180.43 48.17 143.30 48.13 C 143.24 44.99 143.26 41.85 143.28 38.70 C 140.34 38.72 137.42 38.72 134.49 38.70 C 134.50 41.85 134.51 44.99 134.47 48.14 C 128.14 48.13 121.82 48.18 115.50 48.13 C 115.47 44.97 115.47 41.82 115.50 38.67 C 112.72 38.71 109.94 38.70 107.16 38.65 Z" />
<path fill="#ffffff" opacity="1.00" d=" M 115.48 66.29 C 121.82 66.26 128.16 66.30 134.50 66.32 C 134.50 72.48 134.44 78.64 134.55 84.80 C 128.23 85.42 121.88 84.96 115.54 85.19 C 115.39 78.89 115.50 72.59 115.48 66.29 Z" />
<path fill="#ffffff" opacity="1.00" d=" M 143.28 66.31 C 180.43 66.25 217.58 66.35 254.73 66.23 C 254.84 75.23 254.66 84.22 254.81 93.21 C 253.49 94.46 252.10 95.65 250.68 96.77 C 249.12 92.82 251.26 88.69 251.58 84.69 C 249.83 84.34 247.86 84.35 246.71 82.74 C 241.86 83.39 237.99 87.27 237.30 92.09 C 237.20 94.30 235.57 95.63 233.83 96.68 C 231.65 92.52 235.22 87.90 234.41 83.43 C 229.17 81.61 226.75 87.03 224.20 90.37 C 224.47 88.42 224.94 86.50 225.44 84.60 C 224.38 82.87 222.22 82.69 220.56 83.65 C 217.86 85.37 216.77 88.53 215.42 91.27 C 215.14 88.70 216.03 86.28 216.64 83.83 C 216.27 81.69 213.91 83.55 212.68 83.64 C 211.36 86.86 211.65 90.46 210.53 93.68 C 207.97 96.16 203.53 98.00 200.71 94.90 C 204.17 93.88 208.69 92.22 208.85 87.91 C 209.24 84.94 206.56 83.26 204.09 82.56 C 198.62 83.56 195.39 88.94 196.28 94.29 C 195.09 95.14 193.88 95.95 192.66 96.74 C 191.93 94.49 192.41 92.16 192.95 89.93 C 193.39 87.87 193.91 85.71 193.39 83.61 C 187.99 81.40 184.87 87.93 183.30 91.99 C 183.18 89.05 184.18 86.28 184.71 83.43 C 183.40 82.38 182.04 83.27 180.74 83.78 C 178.80 88.20 180.66 94.93 174.82 96.67 C 173.34 92.35 175.91 88.09 175.77 83.76 C 175.40 83.43 174.66 82.79 174.28 82.47 C 173.69 82.81 172.49 83.48 171.89 83.81 C 170.92 86.97 170.29 90.20 170.19 93.51 C 165.44 95.39 159.68 96.77 154.93 94.20 C 151.38 92.08 150.92 87.66 151.44 83.94 C 151.63 78.01 156.99 71.69 163.38 73.64 C 163.99 75.47 164.50 77.37 163.84 79.27 C 164.10 79.95 164.36 80.64 164.63 81.33 C 165.48 81.33 166.33 81.34 167.19 81.35 C 169.85 78.02 169.34 72.16 165.29 70.17 C 160.08 67.95 153.61 70.09 150.26 74.55 C 146.19 79.33 145.49 86.10 146.74 92.06 C 145.61 93.38 144.47 94.68 143.31 95.96 C 143.22 86.08 143.25 76.19 143.28 66.31 M 172.88 75.41 C 172.52 76.12 171.81 77.53 171.46 78.23 C 172.82 81.57 176.96 80.81 178.55 78.10 C 178.09 77.13 177.63 76.15 177.19 75.18 C 175.75 75.21 174.31 75.29 172.88 75.41 Z" />
<path fill="#ffffff" opacity="1.00" d=" M 263.56 66.31 C 269.90 66.23 276.25 66.34 282.60 66.24 C 282.59 72.55 282.70 78.87 282.50 85.19 C 276.18 84.92 269.83 85.51 263.54 84.78 C 263.60 78.62 263.55 72.47 263.56 66.31 Z" />
<path fill="#ffffff" opacity="1.00" d=" M 200.27 92.22 C 200.42 89.66 201.23 86.40 204.30 86.17 C 204.62 86.67 205.28 87.68 205.60 88.18 C 204.44 90.24 202.54 91.61 200.27 92.22 Z" />
<path fill="#ffffff" opacity="1.00" d=" M 241.85 91.14 C 242.50 88.45 244.79 86.66 247.30 85.77 C 246.35 89.38 246.41 93.47 244.06 96.54 C 240.67 97.55 241.24 93.17 241.85 91.14 Z" />
<path fill="#ffffff" opacity="1.00" d=" M 183.15 99.67 C 184.24 95.43 185.76 91.25 188.33 87.66 C 189.30 90.45 188.33 93.37 187.69 96.12 C 188.14 101.39 194.57 100.26 197.23 97.40 C 201.22 100.51 206.98 100.64 210.98 97.44 C 211.48 99.11 213.80 101.08 215.10 99.01 C 216.75 95.33 216.89 90.36 220.60 88.04 C 220.64 91.95 219.04 95.91 220.66 99.70 C 221.89 99.66 223.93 100.26 224.25 98.53 C 225.34 94.69 226.61 90.82 229.26 87.73 C 230.36 90.87 228.55 94.05 228.44 97.23 C 230.23 101.07 235.15 100.05 237.79 97.74 C 239.88 100.58 244.48 100.48 246.23 97.33 C 247.42 98.24 248.40 99.71 250.02 99.84 C 251.99 100.05 253.34 98.42 254.81 97.42 C 254.67 111.45 254.82 125.49 254.73 139.52 C 252.81 139.64 250.88 139.75 248.96 139.81 C 248.68 135.03 245.25 130.47 240.26 130.06 C 244.86 124.51 248.32 117.45 247.52 110.06 C 247.22 107.61 245.90 104.48 243.08 104.23 C 240.68 103.86 238.20 104.79 236.60 106.60 C 233.52 110.04 231.84 114.44 230.46 118.78 C 227.81 127.35 227.08 136.41 227.54 145.33 C 225.62 147.51 223.63 150.09 220.47 150.31 C 219.29 143.46 222.90 137.02 222.87 130.21 C 221.11 130.33 218.48 129.55 217.52 131.53 C 214.94 137.41 214.51 144.99 208.77 148.93 C 206.91 142.63 210.33 136.48 210.73 130.24 C 208.70 130.43 205.73 129.35 204.66 131.70 C 202.68 136.31 201.99 141.36 201.56 146.32 C 199.42 148.13 197.11 150.73 193.99 150.10 C 192.07 149.43 190.38 146.74 191.77 144.91 C 197.65 136.54 202.60 127.22 204.34 117.04 C 204.72 112.87 204.98 107.61 201.44 104.67 C 196.78 102.54 192.64 106.71 190.81 110.61 C 185.42 121.50 183.78 133.98 184.51 146.01 C 177.60 148.47 170.07 150.68 162.80 148.29 C 158.31 146.41 155.22 141.96 155.18 137.07 C 154.60 129.15 157.28 119.58 165.19 116.18 C 168.13 115.07 172.57 114.52 174.41 117.74 C 175.28 120.59 174.26 123.55 174.24 126.44 C 176.26 127.88 179.29 128.06 180.61 125.59 C 182.91 121.23 182.22 115.05 178.42 111.68 C 173.43 108.02 166.45 108.71 161.04 111.05 C 149.63 116.77 144.85 131.61 148.41 143.42 C 146.85 145.48 145.20 147.49 143.29 149.24 C 143.26 132.87 143.22 116.50 143.30 100.14 C 144.40 98.03 147.05 96.89 148.18 94.63 C 153.28 101.22 163.34 100.98 170.21 97.59 C 172.56 100.54 176.75 100.38 179.18 97.60 C 179.65 99.62 181.40 99.88 183.15 99.67 Z" />
<path fill="#ffffff" opacity="1.00" d=" M 115.48 103.25 C 121.82 103.23 128.15 103.21 134.49 103.26 C 134.45 109.60 134.60 115.95 134.40 122.30 C 128.11 122.12 121.82 122.22 115.54 122.25 C 115.44 115.92 115.48 109.59 115.48 103.25 Z" />
<path fill="#ffffff" opacity="1.00" d=" M 263.59 103.29 C 269.93 103.18 276.26 103.25 282.60 103.21 C 282.62 109.55 282.63 115.90 282.57 122.25 C 276.26 122.18 269.95 122.22 263.64 122.25 C 263.50 115.93 263.57 109.61 263.59 103.29 Z" />
<path fill="#ffffff" opacity="1.00" d=" M 195.11 113.07 C 195.78 111.55 196.44 109.11 198.50 109.19 C 200.58 113.73 199.04 118.95 197.77 123.52 C 195.90 128.63 194.15 134.01 190.67 138.27 C 191.02 129.74 192.41 121.20 195.11 113.07 Z" />
<path fill="#ffffff" opacity="1.00" d=" M 238.74 111.83 C 239.29 110.68 240.50 108.09 242.04 109.81 C 243.58 114.73 241.36 119.81 239.40 124.28 C 237.80 127.33 236.77 130.77 234.39 133.33 C 235.06 126.06 236.07 118.67 238.74 111.83 Z" />
<path fill="#ffffff" opacity="1.00" d=" M 237.93 150.61 C 231.93 147.59 232.82 136.68 239.38 134.90 C 238.88 138.76 240.19 142.42 242.89 145.17 C 242.45 147.82 240.32 149.66 237.93 150.61 Z" />
<path fill="#ffffff" opacity="1.00" d=" M 115.48 140.24 C 121.81 140.23 128.15 140.14 134.49 140.25 C 134.47 146.57 134.57 152.90 134.43 159.23 C 128.13 159.19 121.83 159.19 115.53 159.25 C 115.41 152.91 115.52 146.58 115.48 140.24 Z" />
<path fill="#ffffff" opacity="1.00" d=" M 263.60 140.25 C 269.94 140.21 276.27 140.19 282.61 140.24 C 282.59 146.56 282.65 152.89 282.56 159.21 C 276.25 159.22 269.94 159.19 263.63 159.21 C 263.52 152.89 263.55 146.57 263.60 140.25 Z" />
<path fill="#ffffff" opacity="1.00" d=" M 248.70 145.69 C 250.74 145.54 252.77 145.32 254.80 145.07 C 254.70 149.79 254.84 154.52 254.67 159.24 C 217.57 159.21 180.46 159.14 143.36 159.27 C 143.30 157.81 143.27 156.35 143.26 154.90 C 146.20 153.16 148.51 150.63 150.65 148.01 C 154.18 152.80 160.06 155.45 165.93 155.65 C 172.86 155.98 180.22 155.05 186.21 151.32 C 189.49 157.33 198.03 156.84 202.17 152.07 C 203.27 153.49 204.53 154.79 205.92 155.93 C 207.14 155.76 208.36 155.60 209.59 155.44 C 211.71 153.55 213.06 151.07 214.10 148.46 C 214.35 150.95 214.45 153.85 216.75 155.41 C 221.50 156.87 226.14 154.01 229.04 150.42 C 230.77 153.22 233.34 155.96 236.94 155.72 C 242.91 156.41 247.32 150.94 248.70 145.69 Z" />
</g>
<g id="#010101ff">
<path fill="#010101" opacity="1.00" d=" M 107.16 38.65 C 109.94 38.70 112.72 38.71 115.50 38.67 C 115.47 41.82 115.47 44.97 115.50 48.13 C 121.82 48.18 128.14 48.13 134.47 48.14 C 134.51 44.99 134.50 41.85 134.49 38.70 C 137.42 38.72 140.34 38.72 143.28 38.70 C 143.26 41.85 143.24 44.99 143.30 48.13 C 180.43 48.17 217.56 48.11 254.69 48.16 C 254.78 45.01 254.75 41.86 254.72 38.71 C 257.67 38.71 260.63 38.71 263.58 38.69 C 263.57 41.82 263.55 44.96 263.57 48.09 C 269.90 48.22 276.24 48.09 282.57 48.18 C 282.63 45.01 282.62 41.83 282.59 38.66 C 285.35 38.72 288.11 38.71 290.88 38.66 C 290.80 87.89 290.85 137.11 290.86 186.34 C 288.10 186.29 285.34 186.30 282.58 186.32 C 282.60 183.30 282.61 180.29 282.61 177.28 C 276.28 177.32 269.94 177.26 263.60 177.28 C 263.55 180.29 263.57 183.30 263.60 186.32 C 260.64 186.30 257.67 186.27 254.71 186.32 C 254.76 183.31 254.78 180.30 254.72 177.29 C 217.57 177.31 180.42 177.27 143.27 177.31 C 143.24 180.31 143.25 183.31 143.29 186.31 C 140.35 186.28 137.41 186.27 134.48 186.36 C 134.50 183.34 134.49 180.33 134.49 177.32 C 128.15 177.27 121.80 177.32 115.46 177.30 C 115.49 180.31 115.49 183.32 115.50 186.34 C 112.73 186.30 109.96 186.30 107.20 186.34 C 107.15 137.11 107.24 87.88 107.16 38.65 M 115.48 66.29 C 115.50 72.59 115.39 78.89 115.54 85.19 C 121.88 84.96 128.23 85.42 134.55 84.80 C 134.44 78.64 134.50 72.48 134.50 66.32 C 128.16 66.30 121.82 66.26 115.48 66.29 M 143.28 66.31 C 143.25 76.19 143.22 86.08 143.31 95.96 C 144.47 94.68 145.61 93.38 146.74 92.06 C 145.49 86.10 146.19 79.33 150.26 74.55 C 153.61 70.09 160.08 67.95 165.29 70.17 C 169.34 72.16 169.85 78.02 167.19 81.35 C 166.33 81.34 165.48 81.33 164.63 81.33 C 164.36 80.64 164.10 79.95 163.84 79.27 C 164.50 77.37 163.99 75.47 163.38 73.64 C 156.99 71.69 151.63 78.01 151.44 83.94 C 150.92 87.66 151.38 92.08 154.93 94.20 C 159.68 96.77 165.44 95.39 170.19 93.51 C 170.29 90.20 170.92 86.97 171.89 83.81 C 172.49 83.48 173.69 82.81 174.28 82.47 C 174.66 82.79 175.40 83.43 175.77 83.76 C 175.91 88.09 173.34 92.35 174.82 96.67 C 180.66 94.93 178.80 88.20 180.74 83.78 C 182.04 83.27 183.40 82.38 184.71 83.43 C 184.18 86.28 183.18 89.05 183.30 91.99 C 184.87 87.93 187.99 81.40 193.39 83.61 C 193.91 85.71 193.39 87.87 192.95 89.93 C 192.41 92.16 191.93 94.49 192.66 96.74 C 193.88 95.95 195.09 95.14 196.28 94.29 C 195.39 88.94 198.62 83.56 204.09 82.56 C 206.56 83.26 209.24 84.94 208.85 87.91 C 208.69 92.22 204.17 93.88 200.71 94.90 C 203.53 98.00 207.97 96.16 210.53 93.68 C 211.65 90.46 211.36 86.86 212.68 83.64 C 213.91 83.55 216.27 81.69 216.64 83.83 C 216.03 86.28 215.14 88.70 215.42 91.27 C 216.77 88.53 217.86 85.37 220.56 83.65 C 222.22 82.69 224.38 82.87 225.44 84.60 C 224.94 86.50 224.47 88.42 224.20 90.37 C 226.75 87.03 229.17 81.61 234.41 83.43 C 235.22 87.90 231.65 92.52 233.83 96.68 C 235.57 95.63 237.20 94.30 237.30 92.09 C 237.99 87.27 241.86 83.39 246.71 82.74 C 247.86 84.35 249.83 84.34 251.58 84.69 C 251.26 88.69 249.12 92.82 250.68 96.77 C 252.10 95.65 253.49 94.46 254.81 93.21 C 254.66 84.22 254.84 75.23 254.73 66.23 C 217.58 66.35 180.43 66.25 143.28 66.31 M 263.56 66.31 C 263.55 72.47 263.60 78.62 263.54 84.78 C 269.83 85.51 276.18 84.92 282.50 85.19 C 282.70 78.87 282.59 72.55 282.60 66.24 C 276.25 66.34 269.90 66.23 263.56 66.31 M 200.27 92.22 C 202.54 91.61 204.44 90.24 205.60 88.18 C 205.28 87.68 204.62 86.67 204.30 86.17 C 201.23 86.40 200.42 89.66 200.27 92.22 M 241.85 91.14 C 241.24 93.17 240.67 97.55 244.06 96.54 C 246.41 93.47 246.35 89.38 247.30 85.77 C 244.79 86.66 242.50 88.45 241.85 91.14 M 183.15 99.67 C 181.40 99.88 179.65 99.62 179.18 97.60 C 176.75 100.38 172.56 100.54 170.21 97.59 C 163.34 100.98 153.28 101.22 148.18 94.63 C 147.05 96.89 144.40 98.03 143.30 100.14 C 143.22 116.50 143.26 132.87 143.29 149.24 C 145.20 147.49 146.85 145.48 148.41 143.42 C 144.85 131.61 149.63 116.77 161.04 111.05 C 166.45 108.71 173.43 108.02 178.42 111.68 C 182.22 115.05 182.91 121.23 180.61 125.59 C 179.29 128.06 176.26 127.88 174.24 126.44 C 174.26 123.55 175.28 120.59 174.41 117.74 C 172.57 114.52 168.13 115.07 165.19 116.18 C 157.28 119.58 154.60 129.15 155.18 137.07 C 155.22 141.96 158.31 146.41 162.80 148.29 C 170.07 150.68 177.60 148.47 184.51 146.01 C 183.78 133.98 185.42 121.50 190.81 110.61 C 192.64 106.71 196.78 102.54 201.44 104.67 C 204.98 107.61 204.72 112.87 204.34 117.04 C 202.60 127.22 197.65 136.54 191.77 144.91 C 190.38 146.74 192.07 149.43 193.99 150.10 C 197.11 150.73 199.42 148.13 201.56 146.32 C 201.99 141.36 202.68 136.31 204.66 131.70 C 205.73 129.35 208.70 130.43 210.73 130.24 C 210.33 136.48 206.91 142.63 208.77 148.93 C 214.51 144.99 214.94 137.41 217.52 131.53 C 218.48 129.55 221.11 130.33 222.87 130.21 C 222.90 137.02 219.29 143.46 220.47 150.31 C 223.63 150.09 225.62 147.51 227.54 145.33 C 227.08 136.41 227.81 127.35 230.46 118.78 C 231.84 114.44 233.52 110.04 236.60 106.60 C 238.20 104.79 240.68 103.86 243.08 104.23 C 245.90 104.48 247.22 107.61 247.52 110.06 C 248.32 117.45 244.86 124.51 240.26 130.06 C 245.25 130.47 248.68 135.03 248.96 139.81 C 250.88 139.75 252.81 139.64 254.73 139.52 C 254.82 125.49 254.67 111.45 254.81 97.42 C 253.34 98.42 251.99 100.05 250.02 99.84 C 248.40 99.71 247.42 98.24 246.23 97.33 C 244.48 100.48 239.88 100.58 237.79 97.74 C 235.15 100.05 230.23 101.07 228.44 97.23 C 228.55 94.05 230.36 90.87 229.26 87.73 C 226.61 90.82 225.34 94.69 224.25 98.53 C 223.93 100.26 221.89 99.66 220.66 99.70 C 219.04 95.91 220.64 91.95 220.60 88.04 C 216.89 90.36 216.75 95.33 215.10 99.01 C 213.80 101.08 211.48 99.11 210.98 97.44 C 206.98 100.64 201.22 100.51 197.23 97.40 C 194.57 100.26 188.14 101.39 187.69 96.12 C 188.33 93.37 189.30 90.45 188.33 87.66 C 185.76 91.25 184.24 95.43 183.15 99.67 M 115.48 103.25 C 115.48 109.59 115.44 115.92 115.54 122.25 C 121.82 122.22 128.11 122.12 134.40 122.30 C 134.60 115.95 134.45 109.60 134.49 103.26 C 128.15 103.21 121.82 103.23 115.48 103.25 M 263.59 103.29 C 263.57 109.61 263.50 115.93 263.64 122.25 C 269.95 122.22 276.26 122.18 282.57 122.25 C 282.63 115.90 282.62 109.55 282.60 103.21 C 276.26 103.25 269.93 103.18 263.59 103.29 M 195.11 113.07 C 192.41 121.20 191.02 129.74 190.67 138.27 C 194.15 134.01 195.90 128.63 197.77 123.52 C 199.04 118.95 200.58 113.73 198.50 109.19 C 196.44 109.11 195.78 111.55 195.11 113.07 M 238.74 111.83 C 236.07 118.67 235.06 126.06 234.39 133.33 C 236.77 130.77 237.80 127.33 239.40 124.28 C 241.36 119.81 243.58 114.73 242.04 109.81 C 240.50 108.09 239.29 110.68 238.74 111.83 M 237.93 150.61 C 240.32 149.66 242.45 147.82 242.89 145.17 C 240.19 142.42 238.88 138.76 239.38 134.90 C 232.82 136.68 231.93 147.59 237.93 150.61 M 115.48 140.24 C 115.52 146.58 115.41 152.91 115.53 159.25 C 121.83 159.19 128.13 159.19 134.43 159.23 C 134.57 152.90 134.47 146.57 134.49 140.25 C 128.15 140.14 121.81 140.23 115.48 140.24 M 263.60 140.25 C 263.55 146.57 263.52 152.89 263.63 159.21 C 269.94 159.19 276.25 159.22 282.56 159.21 C 282.65 152.89 282.59 146.56 282.61 140.24 C 276.27 140.19 269.94 140.21 263.60 140.25 M 248.70 145.69 C 247.32 150.94 242.91 156.41 236.94 155.72 C 233.34 155.96 230.77 153.22 229.04 150.42 C 226.14 154.01 221.50 156.87 216.75 155.41 C 214.45 153.85 214.35 150.95 214.10 148.46 C 213.06 151.07 211.71 153.55 209.59 155.44 C 208.36 155.60 207.14 155.76 205.92 155.93 C 204.53 154.79 203.27 153.49 202.17 152.07 C 198.03 156.84 189.49 157.33 186.21 151.32 C 180.22 155.05 172.86 155.98 165.93 155.65 C 160.06 155.45 154.18 152.80 150.65 148.01 C 148.51 150.63 146.20 153.16 143.26 154.90 C 143.27 156.35 143.30 157.81 143.36 159.27 C 180.46 159.14 217.57 159.21 254.67 159.24 C 254.84 154.52 254.70 149.79 254.80 145.07 C 252.77 145.32 250.74 145.54 248.70 145.69 Z" />
<path fill="#010101" opacity="1.00" d=" M 172.88 75.41 C 174.31 75.29 175.75 75.21 177.19 75.18 C 177.63 76.15 178.09 77.13 178.55 78.10 C 176.96 80.81 172.82 81.57 171.46 78.23 C 171.81 77.53 172.52 76.12 172.88 75.41 Z" />
</g>
</svg>
