<?xml version="1.0" encoding="UTF-8" ?>
<!DOCTYPE svg PUBLIC "-//W3C//DTD SVG 1.1//EN" "http://www.w3.org/Graphics/SVG/1.1/DTD/svg11.dtd">
<svg width="400pt" height="225pt" viewBox="0 0 400 225" version="1.1" xmlns="http://www.w3.org/2000/svg">
<g id="#ffffffff">
<path fill="#ffffff" opacity="1.00" d=" M 0.00 0.00 L 400.00 0.00 L 400.00 225.00 L 0.00 225.00 L 0.00 0.00 M 153.86 35.72 C 145.37 41.03 137.04 46.62 128.59 52.00 C 128.65 61.71 128.82 71.42 129.00 81.13 C 128.53 83.55 131.23 84.20 132.82 85.22 C 140.57 89.15 148.08 93.55 155.91 97.34 C 164.42 91.70 173.19 86.44 181.55 80.60 C 182.19 71.51 181.25 62.23 181.31 53.07 C 181.05 51.68 181.81 49.60 180.20 48.85 C 172.45 44.61 164.63 40.49 156.83 36.33 C 155.91 36.03 154.82 34.90 153.86 35.72 M 87.46 100.96 C 86.55 109.22 96.43 115.01 103.73 112.75 C 103.72 110.70 103.81 108.64 103.49 106.61 C 101.13 106.10 98.36 106.48 96.44 104.73 C 93.16 102.41 94.27 96.43 98.04 95.27 C 101.92 94.26 105.98 94.61 109.92 94.98 C 107.40 101.02 108.80 107.69 108.47 114.04 C 109.49 124.99 107.18 136.37 110.92 146.96 C 112.77 152.83 117.07 157.45 121.44 161.59 C 129.20 168.86 140.51 171.32 150.86 170.30 C 156.31 169.91 161.02 167.03 165.81 164.69 C 170.60 161.16 174.56 156.61 177.83 151.66 C 176.25 149.96 174.25 148.79 172.14 147.89 C 170.88 149.57 169.65 151.27 168.44 152.98 C 169.14 153.88 169.74 154.85 169.93 156.01 C 168.78 155.73 167.84 155.08 166.95 154.35 C 164.40 156.66 161.90 159.22 158.59 160.42 C 154.58 161.91 150.51 163.90 146.10 163.41 C 140.24 163.58 134.63 161.42 129.51 158.76 C 122.28 154.76 118.15 146.98 116.38 139.17 C 115.46 130.15 115.53 121.06 115.79 112.01 C 116.00 107.51 114.15 102.72 116.43 98.50 C 117.51 94.87 122.84 93.84 125.33 96.61 C 127.63 98.22 127.55 101.25 128.26 103.71 C 130.30 103.74 132.36 103.69 134.40 103.44 C 134.11 100.20 133.58 96.91 132.16 93.96 C 129.86 90.14 125.61 87.17 121.00 87.53 C 113.67 87.74 106.33 87.60 99.00 87.83 C 92.38 88.08 87.09 94.49 87.46 100.96 M 165.19 98.43 C 164.27 106.63 165.37 114.85 165.10 123.08 C 165.53 128.42 164.29 133.97 166.03 139.15 C 167.61 143.92 173.20 145.92 177.81 145.67 C 180.80 144.62 183.92 143.34 186.15 141.02 C 188.33 137.81 187.28 133.69 187.80 130.07 C 188.01 119.55 187.80 109.03 187.51 98.52 C 185.29 98.26 183.05 98.27 180.84 98.67 C 180.93 107.13 180.51 115.59 181.09 124.04 C 181.24 127.73 181.15 131.44 180.79 135.12 C 180.57 138.07 176.60 139.86 174.34 137.77 C 171.21 134.67 172.55 129.88 172.19 125.96 C 171.56 116.79 172.03 107.60 171.65 98.44 C 169.50 98.37 167.34 98.38 165.19 98.43 M 192.44 102.01 C 192.73 109.32 192.28 116.63 192.84 123.93 C 193.24 131.01 192.28 138.10 192.64 145.15 C 199.36 145.32 206.57 146.88 212.90 143.92 C 215.94 142.04 215.70 138.08 215.70 134.98 C 215.64 129.32 217.27 122.69 212.84 118.19 C 214.22 112.03 213.98 104.97 210.39 99.62 C 206.42 97.12 201.36 98.52 196.94 97.88 C 194.33 97.22 192.19 99.46 192.44 102.01 M 138.81 98.85 C 137.73 107.55 139.63 116.30 138.80 125.01 C 138.68 131.85 138.75 138.72 139.52 145.52 C 147.05 145.71 154.58 145.93 162.10 145.32 C 161.90 143.18 161.70 141.03 161.38 138.91 C 156.44 138.59 151.53 138.63 146.60 138.72 C 146.04 130.50 146.44 122.26 145.86 114.04 C 145.90 108.91 146.42 103.73 145.36 98.66 C 143.17 98.59 140.99 98.66 138.81 98.85 M 218.19 99.69 C 218.53 106.41 218.05 113.16 218.72 119.87 C 222.08 119.84 228.58 121.25 228.36 116.01 C 228.16 110.56 229.79 104.73 227.41 99.61 C 224.38 98.77 221.15 98.31 218.19 99.69 M 230.71 99.07 C 230.52 106.00 230.46 112.95 230.65 119.89 C 233.69 119.90 236.72 120.06 239.76 119.98 C 239.78 119.26 239.81 117.81 239.82 117.08 C 237.78 117.09 235.74 117.12 233.71 117.11 C 233.63 114.66 233.62 112.21 233.67 109.76 C 235.36 109.70 237.06 109.64 238.75 109.54 C 238.66 108.61 238.57 107.69 238.48 106.77 C 236.84 106.70 235.21 106.64 233.58 106.55 C 233.65 105.12 233.74 103.68 233.83 102.25 C 235.83 102.17 237.84 102.11 239.85 102.03 C 239.80 101.27 239.70 99.75 239.65 98.99 C 236.67 98.86 233.69 98.84 230.71 99.07 M 218.59 123.68 C 218.60 131.46 218.72 139.24 219.14 147.02 C 219.09 150.69 218.56 154.38 219.04 158.05 C 219.70 162.24 217.99 166.57 219.66 170.62 C 221.52 170.52 223.38 170.37 225.24 170.19 C 226.06 164.46 224.75 158.55 225.79 152.88 C 226.32 152.90 227.39 152.94 227.92 152.96 C 229.66 158.21 230.92 163.64 232.84 168.83 C 234.13 171.99 237.95 169.95 240.17 169.04 C 238.83 162.98 236.11 157.41 234.20 151.55 C 236.85 149.43 239.69 146.65 239.38 142.94 C 238.98 137.97 240.24 132.77 238.12 128.06 C 237.39 125.40 234.78 123.61 232.08 123.52 C 227.59 123.45 223.05 122.88 218.59 123.68 M 252.20 123.16 C 248.12 124.16 245.74 128.19 244.73 131.99 C 243.73 139.99 245.19 148.04 244.65 156.06 C 244.37 159.13 244.91 162.22 245.85 165.13 C 247.12 167.90 250.19 169.18 252.89 170.14 C 259.11 172.29 266.25 167.42 267.00 160.97 C 267.83 152.03 267.40 143.02 267.38 134.05 C 267.20 130.22 265.45 125.70 261.53 124.35 C 258.61 123.11 255.34 122.13 252.20 123.16 M 272.36 123.82 C 271.12 131.13 272.72 138.55 272.47 145.91 C 271.93 154.03 272.34 162.17 272.84 170.27 C 280.36 170.60 287.86 170.45 295.38 170.30 C 295.35 168.14 295.24 165.98 295.08 163.83 C 290.10 163.35 285.12 163.26 280.14 163.59 C 279.45 156.05 279.83 148.48 279.41 140.94 C 279.12 135.12 279.94 129.24 278.82 123.48 C 276.67 123.39 274.46 123.20 272.36 123.82 Z" />
<path fill="#ffffff" opacity="1.00" d=" M 145.15 57.96 C 148.41 51.82 151.67 45.69 154.95 39.57 C 159.64 45.60 164.32 51.63 169.05 57.62 C 161.08 57.81 153.12 57.86 145.15 57.96 Z" />
<path fill="#ffffff" opacity="1.00" d=" M 132.95 52.74 C 138.85 48.94 144.68 45.04 150.64 41.34 C 147.77 46.75 144.90 52.15 141.99 57.54 C 138.96 55.98 135.96 54.35 132.95 52.74 Z" />
<path fill="#ffffff" opacity="1.00" d=" M 160.63 41.85 C 166.37 44.62 171.91 47.80 177.56 50.74 C 175.73 52.75 173.92 54.76 172.11 56.78 C 168.32 51.77 164.24 46.98 160.63 41.85 Z" />
<path fill="#ffffff" opacity="1.00" d=" M 173.75 59.35 C 175.30 57.62 176.85 55.89 178.43 54.19 C 178.37 59.89 178.81 65.59 178.68 71.29 C 176.84 67.40 175.41 63.32 173.75 59.35 Z" />
<path fill="#ffffff" opacity="1.00" d=" M 131.48 55.29 C 134.52 56.91 137.55 58.54 140.61 60.15 C 137.71 65.54 134.96 71.02 131.89 76.32 C 131.70 69.31 131.71 62.29 131.48 55.29 Z" />
<path fill="#ffffff" opacity="1.00" d=" M 145.10 61.07 C 153.27 60.73 161.45 60.80 169.62 60.54 C 165.40 68.17 161.37 75.90 157.29 83.61 C 153.11 76.17 149.21 68.56 145.10 61.07 Z" />
<path fill="#ffffff" opacity="1.00" d=" M 142.59 62.81 C 146.68 70.07 150.52 77.47 154.46 84.81 C 147.23 83.61 140.02 82.35 132.79 81.15 C 136.02 75.02 139.32 68.92 142.59 62.81 Z" />
<path fill="#ffffff" opacity="1.00" d=" M 171.81 62.69 C 174.15 68.00 176.25 73.41 178.45 78.77 C 172.38 80.64 166.31 82.52 160.22 84.32 C 164.12 77.13 167.89 69.87 171.81 62.69 Z" />
<path fill="#ffffff" opacity="1.00" d=" M 160.01 87.52 C 163.35 86.41 166.71 85.37 170.12 84.49 C 166.09 87.42 161.78 89.95 157.63 92.71 C 158.35 91.02 157.55 87.89 160.01 87.52 Z" />
<path fill="#ffffff" opacity="1.00" d=" M 139.82 85.41 C 145.08 86.09 150.28 87.19 155.52 87.98 C 155.23 89.79 154.94 91.60 154.65 93.42 C 149.68 90.79 144.65 88.27 139.82 85.41 Z" />
<path fill="#ffffff" opacity="1.00" d=" M 221.52 101.63 C 222.99 102.09 225.40 101.76 225.22 104.00 C 225.32 107.99 225.89 112.10 225.07 116.04 C 224.21 116.29 222.50 116.81 221.64 117.07 C 221.71 111.92 221.29 106.78 221.52 101.63 Z" />
<path fill="#ffffff" opacity="1.00" d=" M 199.72 105.56 C 201.69 105.28 203.77 104.67 205.73 105.41 C 207.06 108.42 206.37 111.86 206.44 115.05 C 204.37 115.21 202.31 115.34 200.24 115.41 C 199.79 112.14 199.60 108.85 199.72 105.56 Z" />
<path fill="#ffffff" opacity="1.00" d=" M 199.97 122.91 C 202.77 122.54 206.57 121.76 208.57 124.31 C 209.22 128.72 208.67 133.23 208.43 137.68 C 205.70 138.32 202.91 138.75 200.11 138.96 C 199.71 133.62 199.46 128.24 199.97 122.91 Z" />
<path fill="#ffffff" opacity="1.00" d=" M 226.14 130.10 C 228.10 130.16 230.07 130.28 232.03 130.45 C 232.85 134.80 232.70 139.29 232.60 143.70 C 231.36 146.08 228.29 145.65 226.06 145.94 C 226.42 140.65 226.00 135.38 226.14 130.10 Z" />
<path fill="#ffffff" opacity="1.00" d=" M 254.39 130.40 C 255.95 130.42 257.53 130.51 259.04 130.91 C 260.82 133.98 260.35 137.61 260.42 141.00 C 260.59 147.71 260.55 154.46 259.94 161.14 C 259.81 164.65 255.42 163.87 253.49 162.35 C 251.19 160.26 251.66 156.81 251.58 154.01 C 251.89 147.37 251.01 140.75 251.45 134.12 C 251.42 132.33 252.96 131.14 254.39 130.40 Z" />
</g>
<g id="#020202ff">
<path fill="#020202" opacity="1.00" d=" M 153.86 35.72 C 154.82 34.90 155.91 36.03 156.83 36.33 C 164.63 40.49 172.45 44.61 180.20 48.85 C 181.81 49.60 181.05 51.68 181.31 53.07 C 181.25 62.23 182.19 71.51 181.55 80.60 C 173.19 86.44 164.42 91.70 155.91 97.34 C 148.08 93.55 140.57 89.15 132.82 85.22 C 131.23 84.20 128.53 83.55 129.00 81.13 C 128.82 71.42 128.65 61.71 128.59 52.00 C 137.04 46.62 145.37 41.03 153.86 35.72 M 145.15 57.96 C 153.12 57.86 161.08 57.81 169.05 57.62 C 164.32 51.63 159.64 45.60 154.95 39.57 C 151.67 45.69 148.41 51.82 145.15 57.96 M 132.95 52.74 C 135.96 54.35 138.96 55.98 141.99 57.54 C 144.90 52.15 147.77 46.75 150.64 41.34 C 144.68 45.04 138.85 48.94 132.95 52.74 M 160.63 41.85 C 164.24 46.98 168.32 51.77 172.11 56.78 C 173.92 54.76 175.73 52.75 177.56 50.74 C 171.91 47.80 166.37 44.62 160.63 41.85 M 173.75 59.35 C 175.41 63.32 176.84 67.40 178.68 71.29 C 178.81 65.59 178.37 59.89 178.43 54.19 C 176.85 55.89 175.30 57.62 173.75 59.35 M 131.48 55.29 C 131.71 62.29 131.70 69.31 131.89 76.32 C 134.96 71.02 137.71 65.54 140.61 60.15 C 137.55 58.54 134.52 56.91 131.48 55.29 M 145.10 61.07 C 149.21 68.56 153.11 76.17 157.29 83.61 C 161.37 75.90 165.40 68.17 169.62 60.54 C 161.45 60.80 153.27 60.73 145.10 61.07 M 142.59 62.81 C 139.32 68.92 136.02 75.02 132.79 81.15 C 140.02 82.35 147.23 83.61 154.46 84.81 C 150.52 77.47 146.68 70.07 142.59 62.81 M 171.81 62.69 C 167.89 69.87 164.12 77.13 160.22 84.32 C 166.31 82.52 172.38 80.64 178.45 78.77 C 176.25 73.41 174.15 68.00 171.81 62.69 M 160.01 87.52 C 157.55 87.89 158.35 91.02 157.63 92.71 C 161.78 89.95 166.09 87.42 170.12 84.49 C 166.71 85.37 163.35 86.41 160.01 87.52 M 139.82 85.41 C 144.65 88.27 149.68 90.79 154.65 93.42 C 154.94 91.60 155.23 89.79 155.52 87.98 C 150.28 87.19 145.08 86.09 139.82 85.41 Z" />
<path fill="#020202" opacity="1.00" d=" M 87.46 100.96 C 87.09 94.49 92.38 88.08 99.00 87.83 C 106.33 87.60 113.67 87.74 121.00 87.53 C 125.61 87.17 129.86 90.14 132.16 93.96 C 133.58 96.91 134.11 100.20 134.40 103.44 C 132.36 103.69 130.30 103.74 128.26 103.71 C 127.55 101.25 127.63 98.22 125.33 96.61 C 122.84 93.84 117.51 94.87 116.43 98.50 C 114.15 102.72 116.00 107.51 115.79 112.01 C 115.53 121.06 115.46 130.15 116.38 139.17 C 118.15 146.98 122.28 154.76 129.51 158.76 C 134.63 161.42 140.24 163.58 146.10 163.41 C 150.51 163.90 154.58 161.91 158.59 160.42 C 161.90 159.22 164.40 156.66 166.95 154.35 C 167.84 155.08 168.78 155.73 169.93 156.01 C 169.74 154.85 169.14 153.88 168.44 152.98 C 169.65 151.27 170.88 149.57 172.14 147.89 C 174.25 148.79 176.25 149.96 177.83 151.66 C 174.56 156.61 170.60 161.16 165.81 164.69 C 161.02 167.03 156.31 169.91 150.86 170.30 C 140.51 171.32 129.20 168.86 121.44 161.59 C 117.07 157.45 112.77 152.83 110.92 146.96 C 107.18 136.37 109.49 124.99 108.47 114.04 C 108.80 107.69 107.40 101.02 109.92 94.98 C 105.98 94.61 101.92 94.26 98.04 95.27 C 94.27 96.43 93.16 102.41 96.44 104.73 C 98.36 106.48 101.13 106.10 103.49 106.61 C 103.81 108.64 103.72 110.70 103.73 112.75 C 96.43 115.01 86.55 109.22 87.46 100.96 Z" />
<path fill="#020202" opacity="1.00" d=" M 165.19 98.43 C 167.34 98.38 169.50 98.37 171.65 98.44 C 172.03 107.60 171.56 116.79 172.19 125.96 C 172.55 129.88 171.21 134.67 174.34 137.77 C 176.60 139.86 180.57 138.07 180.79 135.12 C 181.15 131.44 181.24 127.73 181.09 124.04 C 180.51 115.59 180.93 107.13 180.84 98.67 C 183.05 98.27 185.29 98.26 187.51 98.52 C 187.80 109.03 188.01 119.55 187.80 130.07 C 187.28 133.69 188.33 137.81 186.15 141.02 C 183.92 143.34 180.80 144.62 177.81 145.67 C 173.20 145.92 167.61 143.92 166.03 139.15 C 164.29 133.97 165.53 128.42 165.10 123.08 C 165.37 114.85 164.27 106.63 165.19 98.43 Z" />
<path fill="#020202" opacity="1.00" d=" M 192.44 102.01 C 192.19 99.46 194.33 97.22 196.94 97.88 C 201.36 98.52 206.42 97.12 210.39 99.62 C 213.98 104.97 214.22 112.03 212.84 118.19 C 217.27 122.69 215.64 129.32 215.70 134.98 C 215.70 138.08 215.94 142.04 212.90 143.92 C 206.57 146.88 199.36 145.32 192.64 145.15 C 192.28 138.10 193.24 131.01 192.84 123.93 C 192.28 116.63 192.73 109.32 192.44 102.01 M 199.72 105.56 C 199.60 108.85 199.79 112.14 200.24 115.41 C 202.31 115.34 204.37 115.21 206.44 115.05 C 206.37 111.86 207.06 108.42 205.73 105.41 C 203.77 104.67 201.69 105.28 199.72 105.56 M 199.97 122.91 C 199.46 128.24 199.71 133.62 200.11 138.96 C 202.91 138.75 205.70 138.32 208.43 137.68 C 208.67 133.23 209.22 128.72 208.57 124.31 C 206.57 121.76 202.77 122.54 199.97 122.91 Z" />
<path fill="#020202" opacity="1.00" d=" M 138.81 98.85 C 140.99 98.66 143.17 98.59 145.36 98.66 C 146.42 103.73 145.90 108.91 145.86 114.04 C 146.44 122.26 146.04 130.50 146.60 138.72 C 151.53 138.63 156.44 138.59 161.38 138.91 C 161.70 141.03 161.90 143.18 162.10 145.32 C 154.58 145.93 147.05 145.71 139.52 145.52 C 138.75 138.72 138.68 131.85 138.80 125.01 C 139.63 116.30 137.73 107.55 138.81 98.85 Z" />
<path fill="#020202" opacity="1.00" d=" M 218.19 99.69 C 221.15 98.31 224.38 98.77 227.41 99.61 C 229.79 104.73 228.16 110.56 228.36 116.01 C 228.58 121.25 222.08 119.84 218.72 119.87 C 218.05 113.16 218.53 106.41 218.19 99.69 M 221.52 101.63 C 221.29 106.78 221.71 111.92 221.64 117.07 C 222.50 116.81 224.21 116.29 225.07 116.04 C 225.89 112.10 225.32 107.99 225.22 104.00 C 225.40 101.76 222.99 102.09 221.52 101.63 Z" />
<path fill="#020202" opacity="1.00" d=" M 230.71 99.07 C 233.69 98.84 236.67 98.86 239.65 98.99 C 239.70 99.75 239.80 101.27 239.85 102.03 C 237.84 102.11 235.83 102.17 233.83 102.25 C 233.74 103.68 233.65 105.12 233.58 106.55 C 235.21 106.64 236.84 106.70 238.48 106.77 C 238.57 107.69 238.66 108.61 238.75 109.54 C 237.06 109.64 235.36 109.70 233.67 109.76 C 233.62 112.21 233.63 114.66 233.71 117.11 C 235.74 117.12 237.78 117.09 239.82 117.08 C 239.81 117.81 239.78 119.26 239.76 119.98 C 236.72 120.06 233.69 119.90 230.65 119.89 C 230.46 112.95 230.52 106.00 230.71 99.07 Z" />
<path fill="#020202" opacity="1.00" d=" M 218.59 123.68 C 223.05 122.88 227.59 123.45 232.08 123.52 C 234.78 123.61 237.39 125.40 238.12 128.06 C 240.24 132.77 238.98 137.97 239.38 142.94 C 239.69 146.65 236.85 149.43 234.20 151.55 C 236.11 157.41 238.83 162.98 240.17 169.04 C 237.95 169.95 234.13 171.99 232.84 168.83 C 230.92 163.64 229.66 158.21 227.92 152.96 C 227.39 152.94 226.32 152.90 225.79 152.88 C 224.75 158.55 226.06 164.46 225.24 170.19 C 223.38 170.37 221.52 170.52 219.66 170.62 C 217.99 166.57 219.70 162.24 219.04 158.05 C 218.56 154.38 219.09 150.69 219.14 147.02 C 218.72 139.24 218.60 131.46 218.59 123.68 M 226.14 130.10 C 226.00 135.38 226.42 140.65 226.06 145.94 C 228.29 145.65 231.36 146.08 232.60 143.70 C 232.70 139.29 232.85 134.80 232.03 130.45 C 230.07 130.28 228.10 130.16 226.14 130.10 Z" />
<path fill="#020202" opacity="1.00" d=" M 252.20 123.16 C 255.34 122.13 258.61 123.11 261.53 124.35 C 265.45 125.70 267.20 130.22 267.38 134.05 C 267.40 143.02 267.83 152.03 267.00 160.97 C 266.25 167.42 259.11 172.29 252.89 170.14 C 250.19 169.18 247.12 167.90 245.85 165.13 C 244.91 162.22 244.37 159.13 244.65 156.06 C 245.19 148.04 243.73 139.99 244.73 131.99 C 245.74 128.19 248.12 124.16 252.20 123.16 M 254.39 130.40 C 252.96 131.14 251.42 132.33 251.45 134.12 C 251.01 140.75 251.89 147.37 251.58 154.01 C 251.66 156.81 251.19 160.26 253.49 162.35 C 255.42 163.87 259.81 164.65 259.94 161.14 C 260.55 154.46 260.59 147.71 260.42 141.00 C 260.35 137.61 260.82 133.98 259.04 130.91 C 257.53 130.51 255.95 130.42 254.39 130.40 Z" />
<path fill="#020202" opacity="1.00" d=" M 272.36 123.82 C 274.46 123.20 276.67 123.39 278.82 123.48 C 279.94 129.24 279.12 135.12 279.41 140.94 C 279.83 148.48 279.45 156.05 280.14 163.59 C 285.12 163.26 290.10 163.35 295.08 163.83 C 295.24 165.98 295.35 168.14 295.38 170.30 C 287.86 170.45 280.36 170.60 272.84 170.27 C 272.34 162.17 271.93 154.03 272.47 145.91 C 272.72 138.55 271.12 131.13 272.36 123.82 Z" />
</g>
</svg>
