<?xml version="1.0" encoding="UTF-8" ?>
<!DOCTYPE svg PUBLIC "-//W3C//DTD SVG 1.1//EN" "http://www.w3.org/Graphics/SVG/1.1/DTD/svg11.dtd">
<svg width="400pt" height="225pt" viewBox="0 0 400 225" version="1.1" xmlns="http://www.w3.org/2000/svg">
<g id="#ffffffff">
<path fill="#ffffff" opacity="1.00" d=" M 0.00 0.00 L 400.00 0.00 L 400.00 225.00 L 0.00 225.00 L 0.00 0.00 M 131.34 26.25 C 131.41 38.38 131.30 50.51 131.15 62.64 C 131.62 62.68 132.55 62.77 133.01 62.82 C 140.97 54.29 146.22 43.12 147.66 31.52 C 142.11 30.17 136.37 29.10 131.34 26.25 M 208.79 30.01 C 210.73 30.24 212.67 30.51 214.61 30.82 C 213.07 31.16 211.51 31.34 209.95 31.56 C 210.95 33.05 211.90 34.57 212.91 36.05 C 214.48 37.48 213.83 39.27 213.01 40.96 C 212.35 37.65 210.91 34.57 208.97 31.81 C 207.89 36.71 203.97 40.29 199.86 42.81 C 198.57 43.52 197.24 44.17 195.92 44.81 C 197.92 45.80 199.70 47.43 201.92 47.89 C 206.61 46.49 210.08 42.65 212.22 38.38 C 212.12 43.82 206.76 46.47 202.70 48.84 C 204.17 49.69 205.63 50.55 207.07 51.46 C 209.65 50.19 211.62 47.88 214.38 46.99 C 212.61 49.21 210.21 50.76 207.76 52.15 C 209.14 52.71 210.52 53.26 211.91 53.81 C 212.56 53.37 213.87 52.50 214.53 52.06 C 214.78 50.03 214.81 47.98 214.43 45.96 C 214.99 43.96 214.78 41.93 214.45 39.92 C 214.56 36.87 215.29 33.84 214.68 30.79 C 214.93 29.60 215.17 28.40 215.39 27.20 C 213.19 28.14 210.98 29.06 208.79 30.01 M 197.67 33.67 C 194.83 36.45 191.19 38.14 187.68 39.90 C 190.14 41.32 192.59 42.74 195.04 44.18 C 197.94 42.80 200.70 41.16 203.29 39.28 C 204.68 37.65 206.02 35.97 207.31 34.27 C 207.75 32.86 208.22 31.46 208.65 30.05 C 204.97 31.11 200.42 30.53 197.67 33.67 M 148.46 31.63 C 147.24 43.15 142.09 54.14 134.41 62.77 C 140.25 62.67 146.06 63.51 151.90 63.28 C 153.01 61.94 154.12 60.59 155.21 59.22 C 160.33 51.66 164.39 42.83 163.64 33.47 C 158.55 33.12 153.44 32.81 148.46 31.63 M 177.43 33.82 C 180.53 35.56 183.46 37.73 186.83 38.93 C 188.32 38.49 189.73 37.84 191.17 37.26 C 193.59 35.69 195.96 34.06 198.13 32.17 C 191.25 32.92 184.36 33.68 177.43 33.82 M 164.65 33.49 C 165.21 44.35 160.16 54.65 153.54 62.95 C 157.98 63.43 162.47 63.50 166.93 63.26 C 174.37 55.63 178.36 44.30 175.65 33.75 C 171.98 33.68 168.31 33.66 164.65 33.49 M 176.60 34.44 C 178.00 40.07 177.36 45.95 175.54 51.40 L 175.94 52.01 C 178.30 53.96 180.99 55.43 183.59 57.02 C 186.64 51.91 186.96 45.86 186.17 40.10 C 182.92 38.31 179.72 36.44 176.60 34.44 M 187.24 40.66 C 188.04 46.35 187.48 52.43 184.29 57.35 C 186.20 58.37 188.11 59.47 190.21 60.09 C 192.00 60.41 192.50 58.31 193.36 57.20 C 194.90 53.33 194.83 49.12 194.50 45.04 C 192.04 43.64 189.61 42.20 187.24 40.66 M 195.62 45.73 C 196.14 51.03 195.30 56.35 192.35 60.87 C 194.32 61.14 196.28 61.53 198.27 61.63 C 200.93 58.04 201.95 53.45 201.20 49.05 C 199.34 47.94 197.48 46.83 195.62 45.73 M 202.22 49.39 C 202.70 53.85 201.62 58.31 199.26 62.12 C 200.85 62.29 202.44 62.45 204.04 62.62 C 204.78 61.28 205.53 59.95 206.29 58.63 C 206.44 56.68 206.57 54.73 206.73 52.78 C 205.24 51.62 203.71 50.52 202.22 49.39 M 174.13 54.31 C 172.63 57.52 170.65 60.47 168.63 63.37 C 170.80 63.39 172.98 63.39 175.15 63.41 C 175.19 60.37 176.36 56.97 174.89 54.14 C 174.70 54.18 174.32 54.26 174.13 54.31 M 207.72 52.86 C 208.00 56.57 206.74 60.00 205.10 63.25 C 206.51 63.05 207.92 62.84 209.34 62.62 C 210.18 60.07 210.75 57.45 210.75 54.76 C 209.99 54.29 208.48 53.34 207.72 52.86 M 213.15 53.99 C 213.35 57.46 216.08 52.34 213.15 53.99 M 211.61 55.11 C 211.55 56.72 211.51 58.33 211.44 59.94 C 210.83 61.13 210.24 62.34 209.67 63.56 C 213.43 64.22 214.16 59.68 214.40 56.94 C 213.70 56.48 212.31 55.57 211.61 55.11 M 213.91 61.91 C 212.31 64.95 217.19 62.17 213.91 61.91 M 131.36 63.40 C 131.08 69.60 131.10 75.82 130.74 82.02 C 130.61 92.68 137.26 101.86 145.29 108.23 C 148.48 92.98 144.51 76.41 134.20 64.62 C 133.49 64.32 132.07 63.70 131.36 63.40 M 134.63 63.73 C 136.02 65.55 137.48 67.32 138.92 69.11 C 141.69 73.77 144.30 78.63 145.47 83.98 C 147.82 92.38 147.22 101.17 146.30 109.73 C 147.90 108.89 149.49 108.02 151.08 107.13 C 154.17 105.32 157.44 103.81 160.42 101.81 C 160.18 98.72 161.32 95.83 162.28 92.97 C 163.11 87.11 161.71 81.27 159.96 75.70 C 155.88 76.84 151.44 77.10 147.43 75.55 C 143.24 73.31 140.72 68.44 141.76 63.72 C 139.38 63.74 137.00 63.74 134.63 63.73 M 144.51 64.19 C 147.38 66.42 151.01 67.02 154.52 67.49 C 154.15 66.74 153.43 65.24 153.07 64.49 C 150.23 64.11 147.37 64.00 144.51 64.19 M 154.70 66.40 C 157.30 67.00 161.83 67.08 162.88 64.16 C 159.94 64.31 156.88 64.71 154.09 63.50 C 154.30 64.46 154.50 65.43 154.70 66.40 M 166.24 64.03 C 166.28 68.53 163.84 72.26 160.51 75.06 C 162.59 80.41 163.60 86.15 163.62 91.88 C 166.81 89.17 170.95 88.04 175.09 88.24 C 176.07 79.48 173.68 69.36 166.24 64.03 M 168.75 64.44 C 171.54 67.45 173.15 71.25 175.16 74.77 C 175.22 71.33 175.02 67.88 175.35 64.45 C 173.14 64.45 170.94 64.43 168.75 64.44 M 180.95 64.42 C 182.66 66.75 184.05 69.27 185.29 71.88 C 186.86 76.88 186.68 82.14 186.34 87.30 C 188.76 85.92 191.17 84.52 193.58 83.13 C 193.89 80.82 194.28 78.53 194.45 76.22 C 193.90 74.49 193.53 72.72 193.31 70.93 C 192.04 68.79 191.27 65.75 188.43 65.28 C 186.08 64.20 183.46 64.40 180.95 64.42 M 255.51 80.16 C 257.26 81.05 258.95 82.02 260.65 83.00 C 259.52 76.74 261.85 70.54 265.63 65.62 C 263.42 65.49 261.22 65.40 259.02 65.35 C 255.98 69.49 253.09 75.08 255.51 80.16 M 180.63 67.20 C 180.83 74.88 180.65 82.55 180.75 90.23 C 182.28 89.51 183.79 88.74 185.31 87.99 C 186.29 80.90 185.74 73.52 182.02 67.26 C 181.67 67.24 180.97 67.21 180.63 67.20 M 191.75 66.16 C 194.21 70.20 196.20 75.46 194.66 80.13 C 194.69 80.75 194.75 81.98 194.78 82.59 C 196.71 81.46 198.64 80.34 200.60 79.26 C 201.11 75.38 200.84 71.41 199.26 67.80 C 196.74 67.32 194.24 66.73 191.75 66.16 M 250.98 67.75 C 250.57 68.87 250.14 69.97 249.68 71.07 C 249.64 72.74 249.57 74.41 249.67 76.08 C 250.81 77.36 252.34 78.19 253.69 79.23 C 253.45 74.48 254.63 69.75 257.43 65.86 C 255.27 66.48 253.11 67.05 250.98 67.75 M 245.68 68.69 C 245.54 70.49 245.43 72.29 245.41 74.10 C 246.18 74.59 247.72 75.58 248.49 76.07 C 248.49 73.31 249.02 70.60 249.85 67.97 C 248.45 68.21 247.07 68.46 245.68 68.69 M 200.43 68.18 C 201.73 71.59 201.92 75.26 201.58 78.86 C 203.17 77.90 204.76 76.95 206.37 76.02 C 206.32 73.58 206.21 71.13 205.64 68.75 C 203.90 68.57 202.16 68.38 200.43 68.18 M 211.42 69.21 C 211.46 70.58 211.50 71.95 211.56 73.32 C 212.44 72.56 213.30 71.78 214.16 71.01 C 214.57 71.12 215.40 71.35 215.81 71.46 C 217.34 73.48 219.16 75.24 220.92 77.06 C 221.66 73.94 219.02 71.37 216.17 71.00 C 216.26 70.57 216.44 69.72 216.53 69.29 C 214.83 69.75 213.11 69.50 211.42 69.21 M 233.75 68.98 C 232.98 70.75 233.93 72.48 234.36 74.19 L 236.04 71.47 C 236.50 71.99 236.98 72.52 237.45 73.05 C 235.79 73.28 234.81 74.38 234.51 76.36 C 233.08 76.09 231.61 76.03 230.20 75.68 C 230.77 74.81 232.14 75.00 233.04 74.60 C 232.45 73.58 231.90 72.55 231.36 71.52 L 230.25 71.92 C 230.17 71.20 229.99 69.78 229.90 69.07 C 229.78 69.94 229.55 71.68 229.43 72.55 C 229.76 72.81 230.41 73.33 230.74 73.59 C 228.78 74.06 228.24 75.63 228.28 77.39 L 228.15 78.03 C 228.24 78.24 228.41 78.66 228.50 78.87 C 230.77 78.16 233.57 78.34 235.32 76.49 L 236.54 76.36 C 236.59 76.96 236.68 78.16 236.73 78.77 C 233.93 78.46 231.18 78.91 228.53 79.79 C 228.42 80.82 228.33 81.86 228.23 82.90 C 230.83 81.36 233.82 81.16 236.76 81.25 C 236.56 80.69 236.16 79.57 235.96 79.00 C 236.46 79.22 237.46 79.64 237.95 79.86 C 239.24 77.21 241.70 75.61 244.10 74.09 C 243.33 73.81 241.79 73.25 241.02 72.96 C 239.60 74.11 238.22 75.31 236.95 76.62 C 236.74 76.42 236.31 76.02 236.10 75.83 C 237.19 74.93 238.30 74.04 239.47 73.24 C 239.99 72.09 240.48 70.93 241.06 69.81 C 240.82 69.64 240.33 69.30 240.09 69.13 C 238.87 72.22 235.77 69.71 233.75 68.98 M 241.25 69.70 C 241.77 71.40 242.96 72.69 244.27 73.84 C 244.45 72.21 244.62 70.57 244.77 68.94 C 243.59 69.19 242.42 69.44 241.25 69.70 M 206.46 69.31 C 207.19 71.32 207.44 73.45 207.44 75.58 C 208.40 75.02 209.36 74.46 210.33 73.91 C 210.35 72.30 210.37 70.69 210.37 69.08 C 209.40 69.14 207.44 69.25 206.46 69.31 M 222.10 70.42 C 222.78 71.03 222.78 71.03 222.10 70.42 M 221.08 72.08 C 221.52 72.52 221.52 72.52 221.08 72.08 C 220.60 71.59 220.60 71.59 221.08 72.08 M 261.43 78.99 C 261.56 81.29 260.93 84.64 264.11 84.93 C 264.28 79.74 264.59 74.54 264.39 69.35 C 262.46 72.15 261.29 75.56 261.43 78.99 M 222.69 75.27 C 223.45 75.40 224.96 75.65 225.72 75.78 C 224.38 75.86 223.04 75.88 221.70 75.83 L 221.31 77.23 C 223.28 77.57 225.17 78.22 227.06 78.87 L 226.99 77.96 C 226.92 76.52 226.98 75.09 227.17 73.67 L 224.11 74.09 C 225.37 73.28 226.66 72.55 227.95 71.79 C 227.15 71.72 225.56 71.57 224.76 71.50 C 224.07 72.76 223.43 74.04 222.69 75.27 M 211.87 73.89 C 214.72 75.27 216.80 77.63 218.33 80.34 C 221.55 76.87 215.34 70.55 211.87 73.89 M 207.93 76.24 C 211.27 78.07 213.87 80.85 215.45 84.32 C 216.21 83.23 216.95 82.14 217.70 81.04 C 216.08 78.37 214.02 75.93 211.17 74.55 C 210.36 74.97 208.74 75.82 207.93 76.24 M 238.35 80.85 C 238.70 81.87 239.39 83.92 239.73 84.94 C 241.57 81.30 244.56 78.49 248.34 76.97 C 247.52 76.50 245.87 75.56 245.04 75.09 C 242.13 75.93 239.83 78.27 238.35 80.85 M 202.64 79.72 C 207.58 81.18 210.18 85.71 212.76 89.75 C 213.44 88.18 214.26 86.68 214.80 85.06 C 213.14 81.68 210.56 78.47 206.94 77.12 C 205.28 77.55 203.94 78.67 202.64 79.72 M 240.61 85.53 C 241.41 87.09 242.20 88.66 242.99 90.23 C 245.03 85.58 248.84 81.98 253.51 80.05 C 252.02 79.15 250.52 78.29 249.02 77.43 C 245.50 79.27 242.26 81.82 240.61 85.53 M 218.75 80.21 C 221.90 80.54 224.86 81.63 227.73 82.93 C 227.96 78.59 221.07 76.72 218.75 80.21 M 200.07 80.52 C 198.68 81.54 197.14 82.32 195.61 83.08 C 201.74 85.42 205.82 90.67 208.77 96.29 C 209.56 94.11 211.66 92.25 211.52 89.83 C 209.18 85.54 205.54 80.09 200.07 80.52 M 254.26 81.04 C 249.25 82.34 245.69 86.56 243.61 91.09 C 244.79 93.05 245.92 95.03 247.10 96.99 C 248.92 90.64 254.44 86.39 260.30 83.95 C 258.29 83.03 256.50 81.31 254.26 81.04 M 216.37 84.60 C 220.26 84.83 224.12 85.69 227.33 88.04 C 227.31 87.02 227.25 85.00 227.22 83.99 C 224.70 82.52 221.96 81.38 218.99 81.39 C 218.33 82.19 217.02 83.80 216.37 84.60 M 228.02 87.95 C 231.46 85.91 235.36 84.81 239.39 85.24 C 238.12 81.09 233.87 82.35 230.62 82.46 C 228.66 83.69 228.00 85.72 228.02 87.95 M 192.26 85.00 C 190.57 86.22 187.48 86.71 187.59 89.31 C 184.91 88.21 182.75 90.82 180.50 91.85 C 180.64 93.22 180.78 94.59 180.92 95.97 C 185.47 97.59 188.58 101.43 191.80 104.81 C 193.46 101.89 195.80 99.45 198.48 97.43 C 196.12 94.50 192.87 92.52 190.41 89.72 C 194.14 91.04 196.75 94.12 199.27 97.01 C 202.20 96.48 205.15 96.66 208.04 97.39 C 205.90 93.22 203.60 88.81 199.48 86.26 C 197.37 84.93 194.62 83.07 192.26 85.00 M 259.44 85.36 C 253.94 87.59 249.74 92.21 247.63 97.71 C 249.12 99.36 250.42 101.15 251.63 103.01 L 251.13 103.70 C 251.52 103.62 252.32 103.46 252.71 103.38 C 252.87 105.19 252.82 107.10 253.64 108.77 C 254.74 111.25 256.40 113.48 257.53 115.96 C 259.26 111.82 261.50 107.91 264.24 104.36 C 263.99 100.27 264.82 96.03 263.43 92.09 C 261.46 93.83 259.35 95.43 257.62 97.43 L 255.48 97.96 C 258.19 95.34 260.96 92.74 264.27 90.90 C 264.09 89.14 263.87 87.39 263.67 85.64 C 262.28 85.37 260.83 84.78 259.44 85.36 M 213.19 90.30 C 218.26 89.65 223.12 91.32 227.28 94.13 C 227.26 92.44 227.24 90.75 227.23 89.05 C 224.12 87.08 220.64 85.32 216.83 85.69 C 214.92 86.52 214.35 88.75 213.19 90.30 M 229.32 88.52 C 227.42 89.69 228.56 92.40 228.04 94.19 C 232.17 91.37 237.24 90.14 242.21 90.75 C 241.45 89.32 240.70 87.88 239.98 86.43 C 236.34 86.00 232.26 86.00 229.32 88.52 M 209.36 96.73 C 215.73 95.54 221.94 98.22 227.00 101.90 C 227.17 99.92 227.37 97.94 227.22 95.95 C 226.16 94.57 224.56 93.76 223.21 92.72 C 219.87 91.39 216.27 90.98 212.71 91.43 C 211.63 93.22 210.52 94.99 209.36 96.73 M 228.48 95.44 C 227.74 97.70 228.76 100.43 227.09 102.39 C 227.87 102.07 229.43 101.43 230.21 101.11 C 226.79 103.52 228.51 107.80 228.08 111.23 L 229.23 111.42 C 229.23 108.05 228.94 104.02 231.69 101.53 C 230.93 101.05 230.19 100.57 229.45 100.09 C 232.08 99.58 234.50 98.38 237.07 97.68 C 240.07 97.05 243.14 97.35 246.17 97.35 C 245.06 95.47 243.93 93.60 242.82 91.72 C 237.83 91.26 232.21 91.65 228.48 95.44 M 163.60 101.09 C 167.20 103.29 171.25 104.68 174.69 107.17 C 175.03 104.00 175.11 100.81 175.09 97.63 C 170.82 96.72 167.12 99.06 163.60 101.09 M 180.44 96.69 C 180.97 101.97 180.43 107.25 180.40 112.54 C 184.59 117.10 187.08 122.82 189.74 128.33 C 191.99 124.47 193.96 120.42 196.65 116.83 C 195.85 114.41 194.88 112.06 194.06 109.65 C 193.38 109.67 192.02 109.71 191.34 109.73 C 191.34 108.44 191.30 107.15 191.21 105.86 C 188.42 102.03 184.81 98.62 180.44 96.69 M 208.69 97.72 C 211.89 99.81 213.97 102.93 215.92 106.13 C 220.17 106.87 223.87 109.32 227.29 111.83 C 227.19 108.99 227.45 106.12 227.07 103.30 C 222.06 98.99 215.33 96.45 208.69 97.72 M 147.62 110.12 C 150.69 112.42 154.39 113.60 157.63 115.61 C 162.11 118.34 166.82 120.74 171.84 122.28 C 172.58 122.07 174.04 121.64 174.78 121.43 C 174.43 116.95 175.16 112.46 174.61 108.00 C 170.55 105.79 166.59 103.33 162.12 102.03 C 157.34 104.82 152.57 107.63 147.62 110.12 M 194.37 108.62 C 195.38 110.80 196.34 113.01 197.00 115.32 C 199.06 112.48 200.86 109.46 202.55 106.39 C 199.78 106.97 197.06 107.73 194.37 108.62 M 198.08 115.63 C 203.03 115.22 208.16 114.78 212.97 116.32 C 218.24 117.80 222.84 120.84 227.26 123.95 C 227.27 120.42 227.20 116.88 227.34 113.34 C 224.02 110.19 219.85 108.19 215.62 106.56 C 215.51 107.90 215.39 109.25 215.25 110.59 C 212.58 109.33 209.99 107.92 207.30 106.70 C 206.39 106.68 204.58 106.63 203.68 106.60 C 201.86 109.64 200.10 112.72 198.08 115.63 M 228.18 112.80 C 228.10 116.39 228.15 119.98 228.06 123.57 C 235.95 116.68 246.92 115.05 256.99 116.67 C 255.77 114.68 254.71 112.58 253.35 110.68 C 249.75 108.86 245.94 107.21 241.90 106.75 C 236.73 106.95 232.15 109.68 228.18 112.80 M 258.18 116.95 C 259.77 119.71 261.37 122.47 263.07 125.17 C 264.40 118.99 263.78 112.64 263.69 106.39 C 261.53 109.73 259.65 113.25 258.18 116.95 M 180.78 114.47 C 179.56 119.97 181.95 125.25 183.81 130.30 C 148.74 130.30 113.68 130.15 78.62 130.14 C 78.65 148.32 78.57 166.50 78.55 184.67 C 159.82 184.88 241.10 184.95 322.37 184.94 C 322.37 166.79 322.38 148.64 322.46 130.49 C 301.62 130.45 280.78 130.55 259.94 130.34 C 254.87 129.56 249.79 130.65 244.73 130.21 C 250.12 128.76 255.76 129.36 261.27 129.45 C 261.60 128.80 262.27 127.51 262.60 126.86 C 261.01 123.82 259.25 120.87 257.67 117.83 C 249.65 116.65 241.05 116.67 233.78 120.71 C 231.90 122.01 229.95 123.25 228.43 124.98 C 229.83 124.33 232.64 123.02 234.04 122.37 C 233.82 125.23 232.86 127.92 231.35 130.36 C 225.18 130.37 219.01 130.38 212.83 130.35 C 212.16 129.20 211.50 128.04 210.84 126.89 C 210.59 125.28 210.40 123.66 210.24 122.04 C 215.23 125.21 221.37 127.38 227.23 125.33 C 219.23 118.56 208.44 114.06 197.93 116.88 C 194.94 120.48 193.22 124.95 190.47 128.73 C 197.33 127.70 204.92 127.09 211.25 130.52 C 207.81 130.08 204.45 129.19 201.02 128.78 C 196.98 128.34 193.01 129.40 189.08 130.16 C 187.25 124.51 184.40 119.17 180.78 114.47 Z" />
</g>
<g id="#010101ff">
<path fill="#010101" opacity="1.00" d=" M 131.34 26.25 C 136.37 29.10 142.11 30.17 147.66 31.52 C 146.22 43.12 140.97 54.29 133.01 62.82 C 132.55 62.77 131.62 62.68 131.15 62.64 C 131.30 50.51 131.41 38.38 131.34 26.25 Z" />
<path fill="#010101" opacity="1.00" d=" M 208.79 30.01 C 210.98 29.06 213.19 28.14 215.39 27.20 C 215.17 28.40 214.93 29.60 214.68 30.79 C 215.29 33.84 214.56 36.87 214.45 39.92 C 214.78 41.93 214.99 43.96 214.43 45.96 C 214.81 47.98 214.78 50.03 214.53 52.06 C 213.87 52.50 212.56 53.37 211.91 53.81 C 210.52 53.26 209.14 52.71 207.76 52.15 C 210.21 50.76 212.61 49.21 214.38 46.99 C 211.62 47.88 209.65 50.19 207.07 51.46 C 205.63 50.55 204.17 49.69 202.70 48.84 C 206.76 46.47 212.12 43.82 212.22 38.38 C 210.08 42.65 206.61 46.49 201.92 47.89 C 199.70 47.43 197.92 45.80 195.92 44.81 C 197.24 44.17 198.57 43.52 199.86 42.81 C 203.97 40.29 207.89 36.71 208.97 31.81 C 210.91 34.57 212.35 37.65 213.01 40.96 C 213.83 39.27 214.48 37.48 212.91 36.05 C 211.90 34.57 210.95 33.05 209.95 31.56 C 211.51 31.34 213.07 31.16 214.61 30.82 C 212.67 30.51 210.73 30.24 208.79 30.01 Z" />
<path fill="#010101" opacity="1.00" d=" M 197.67 33.67 C 200.42 30.53 204.97 31.11 208.65 30.05 C 208.22 31.46 207.75 32.86 207.31 34.27 C 206.02 35.97 204.68 37.65 203.29 39.28 C 200.70 41.16 197.94 42.80 195.04 44.18 C 192.59 42.74 190.14 41.32 187.68 39.90 C 191.19 38.14 194.83 36.45 197.67 33.67 Z" />
<path fill="#010101" opacity="1.00" d=" M 148.46 31.63 C 153.44 32.81 158.55 33.12 163.64 33.47 C 164.39 42.83 160.33 51.66 155.21 59.22 C 154.12 60.59 153.01 61.94 151.90 63.28 C 146.06 63.51 140.25 62.67 134.41 62.77 C 142.09 54.14 147.24 43.15 148.46 31.63 Z" />
<path fill="#010101" opacity="1.00" d=" M 177.43 33.82 C 184.36 33.68 191.25 32.92 198.13 32.17 C 195.96 34.06 193.59 35.69 191.17 37.26 C 189.73 37.84 188.32 38.49 186.83 38.93 C 183.46 37.73 180.53 35.56 177.43 33.82 Z" />
<path fill="#010101" opacity="1.00" d=" M 164.65 33.49 C 168.31 33.66 171.98 33.68 175.65 33.75 C 178.36 44.30 174.37 55.63 166.93 63.26 C 162.47 63.50 157.98 63.43 153.54 62.95 C 160.16 54.65 165.21 44.35 164.65 33.49 Z" />
<path fill="#010101" opacity="1.00" d=" M 176.60 34.44 C 179.72 36.44 182.92 38.31 186.17 40.10 C 186.96 45.86 186.64 51.91 183.59 57.02 C 180.99 55.43 178.30 53.96 175.94 52.01 L 175.54 51.40 C 177.36 45.95 178.00 40.07 176.60 34.44 Z" />
<path fill="#010101" opacity="1.00" d=" M 187.24 40.66 C 189.61 42.20 192.04 43.64 194.50 45.04 C 194.83 49.12 194.90 53.33 193.36 57.20 C 192.50 58.31 192.00 60.41 190.21 60.09 C 188.11 59.47 186.20 58.37 184.29 57.35 C 187.48 52.43 188.04 46.35 187.24 40.66 Z" />
<path fill="#010101" opacity="1.00" d=" M 195.62 45.73 C 197.48 46.83 199.34 47.94 201.20 49.05 C 201.95 53.45 200.93 58.04 198.27 61.63 C 196.28 61.53 194.32 61.14 192.35 60.87 C 195.30 56.35 196.14 51.03 195.62 45.73 Z" />
<path fill="#010101" opacity="1.00" d=" M 202.22 49.39 C 203.71 50.52 205.24 51.62 206.73 52.78 C 206.57 54.73 206.44 56.68 206.29 58.63 C 205.53 59.95 204.78 61.28 204.04 62.62 C 202.44 62.45 200.85 62.29 199.26 62.12 C 201.62 58.31 202.70 53.85 202.22 49.39 Z" />
<path fill="#010101" opacity="1.00" d=" M 174.13 54.31 C 174.32 54.26 174.70 54.18 174.89 54.14 C 176.36 56.97 175.19 60.37 175.15 63.41 C 172.98 63.39 170.80 63.39 168.63 63.37 C 170.65 60.47 172.63 57.52 174.13 54.31 Z" />
<path fill="#010101" opacity="1.00" d=" M 207.72 52.86 C 208.48 53.34 209.99 54.29 210.75 54.76 C 210.75 57.45 210.18 60.07 209.34 62.62 C 207.92 62.84 206.51 63.05 205.10 63.25 C 206.74 60.00 208.00 56.57 207.72 52.86 Z" />
<path fill="#010101" opacity="1.00" d=" M 213.15 53.99 C 216.08 52.34 213.35 57.46 213.15 53.99 Z" />
<path fill="#010101" opacity="1.00" d=" M 211.61 55.11 C 212.31 55.57 213.70 56.48 214.40 56.94 C 214.16 59.68 213.43 64.22 209.67 63.56 C 210.24 62.34 210.83 61.13 211.44 59.94 C 211.51 58.33 211.55 56.72 211.61 55.11 Z" />
<path fill="#010101" opacity="1.00" d=" M 131.36 63.40 C 132.07 63.70 133.49 64.32 134.20 64.62 C 144.51 76.41 148.48 92.98 145.29 108.23 C 137.26 101.86 130.61 92.68 130.74 82.02 C 131.10 75.82 131.08 69.60 131.36 63.40 Z" />
<path fill="#010101" opacity="1.00" d=" M 134.63 63.73 C 137.00 63.74 139.38 63.74 141.76 63.72 C 140.72 68.44 143.24 73.31 147.43 75.55 C 151.44 77.10 155.88 76.84 159.96 75.70 C 161.71 81.27 163.11 87.11 162.28 92.97 C 161.32 95.83 160.18 98.72 160.42 101.81 C 157.44 103.81 154.17 105.32 151.08 107.13 C 149.49 108.02 147.90 108.89 146.30 109.73 C 147.22 101.17 147.82 92.38 145.47 83.98 C 144.30 78.63 141.69 73.77 138.92 69.11 C 137.48 67.32 136.02 65.55 134.63 63.73 Z" />
<path fill="#010101" opacity="1.00" d=" M 144.51 64.19 C 147.37 64.00 150.23 64.11 153.07 64.49 C 153.43 65.24 154.15 66.74 154.52 67.49 C 151.01 67.02 147.38 66.42 144.51 64.19 Z" />
<path fill="#010101" opacity="1.00" d=" M 154.70 66.40 C 154.50 65.43 154.30 64.46 154.09 63.50 C 156.88 64.71 159.94 64.31 162.88 64.16 C 161.83 67.08 157.30 67.00 154.70 66.40 Z" />
<path fill="#010101" opacity="1.00" d=" M 166.24 64.03 C 173.68 69.36 176.07 79.48 175.09 88.24 C 170.95 88.04 166.81 89.17 163.62 91.88 C 163.60 86.15 162.59 80.41 160.51 75.06 C 163.84 72.26 166.28 68.53 166.24 64.03 Z" />
<path fill="#010101" opacity="1.00" d=" M 168.75 64.44 C 170.94 64.43 173.14 64.45 175.35 64.45 C 175.02 67.88 175.22 71.33 175.16 74.77 C 173.15 71.25 171.54 67.45 168.75 64.44 Z" />
<path fill="#010101" opacity="1.00" d=" M 180.95 64.42 C 183.46 64.40 186.08 64.20 188.43 65.28 C 191.27 65.75 192.04 68.79 193.31 70.93 C 193.53 72.72 193.90 74.49 194.45 76.22 C 194.28 78.53 193.89 80.82 193.58 83.13 C 191.17 84.52 188.76 85.92 186.34 87.30 C 186.68 82.14 186.86 76.88 185.29 71.88 C 184.05 69.27 182.66 66.75 180.95 64.42 Z" />
<path fill="#010101" opacity="1.00" d=" M 255.51 80.16 C 253.09 75.08 255.98 69.49 259.02 65.35 C 261.22 65.40 263.42 65.49 265.63 65.62 C 261.85 70.54 259.52 76.74 260.65 83.00 C 258.95 82.02 257.26 81.05 255.51 80.16 Z" />
<path fill="#010101" opacity="1.00" d=" M 180.63 67.20 C 180.97 67.21 181.67 67.24 182.02 67.26 C 185.74 73.52 186.29 80.90 185.31 87.99 C 183.79 88.74 182.28 89.51 180.75 90.23 C 180.65 82.55 180.83 74.88 180.63 67.20 Z" />
<path fill="#010101" opacity="1.00" d=" M 191.75 66.16 C 194.24 66.73 196.74 67.32 199.26 67.80 C 200.84 71.41 201.11 75.38 200.60 79.26 C 198.64 80.34 196.71 81.46 194.78 82.59 C 194.75 81.98 194.69 80.75 194.66 80.13 C 196.20 75.46 194.21 70.20 191.75 66.16 Z" />
<path fill="#010101" opacity="1.00" d=" M 250.98 67.75 C 253.11 67.05 255.27 66.48 257.43 65.86 C 254.63 69.75 253.45 74.48 253.69 79.23 C 252.34 78.19 250.81 77.36 249.67 76.08 C 249.57 74.41 249.64 72.74 249.68 71.07 C 250.14 69.97 250.57 68.87 250.98 67.75 Z" />
<path fill="#010101" opacity="1.00" d=" M 245.68 68.69 C 247.07 68.46 248.45 68.21 249.85 67.97 C 249.02 70.60 248.49 73.31 248.49 76.07 C 247.72 75.58 246.18 74.59 245.41 74.10 C 245.43 72.29 245.54 70.49 245.68 68.69 Z" />
<path fill="#010101" opacity="1.00" d=" M 200.43 68.18 C 202.16 68.38 203.90 68.57 205.64 68.75 C 206.21 71.13 206.32 73.58 206.37 76.02 C 204.76 76.95 203.17 77.90 201.58 78.86 C 201.92 75.26 201.73 71.59 200.43 68.18 Z" />
<path fill="#010101" opacity="1.00" d=" M 211.42 69.21 C 213.11 69.50 214.83 69.75 216.53 69.29 C 216.44 69.72 216.26 70.57 216.17 71.00 C 219.02 71.37 221.66 73.94 220.92 77.06 C 219.16 75.24 217.34 73.48 215.81 71.46 C 215.40 71.35 214.57 71.12 214.16 71.01 C 213.30 71.78 212.44 72.56 211.56 73.32 C 211.50 71.95 211.46 70.58 211.42 69.21 Z" />
<path fill="#010101" opacity="1.00" d=" M 233.75 68.98 C 235.77 69.71 238.87 72.22 240.09 69.13 C 240.33 69.30 240.82 69.64 241.06 69.81 C 240.48 70.93 239.99 72.09 239.47 73.24 C 238.30 74.04 237.19 74.93 236.10 75.83 C 236.31 76.02 236.74 76.42 236.95 76.62 C 238.22 75.31 239.60 74.11 241.02 72.96 C 241.79 73.25 243.33 73.81 244.10 74.09 C 241.70 75.61 239.24 77.21 237.95 79.86 C 237.46 79.64 236.46 79.22 235.96 79.00 C 236.16 79.57 236.56 80.69 236.76 81.25 C 233.82 81.16 230.83 81.36 228.23 82.90 C 228.33 81.86 228.42 80.82 228.53 79.79 C 231.18 78.91 233.93 78.46 236.73 78.77 C 236.68 78.16 236.59 76.96 236.54 76.36 L 235.32 76.49 C 233.57 78.34 230.77 78.16 228.50 78.87 C 228.41 78.66 228.24 78.24 228.15 78.03 L 228.28 77.39 C 228.24 75.63 228.78 74.06 230.74 73.59 C 230.41 73.33 229.76 72.81 229.43 72.55 C 229.55 71.68 229.78 69.94 229.90 69.07 C 229.99 69.78 230.17 71.20 230.25 71.92 L 231.36 71.52 C 231.90 72.55 232.45 73.58 233.04 74.60 C 232.14 75.00 230.77 74.81 230.20 75.68 C 231.61 76.03 233.08 76.09 234.51 76.36 C 234.81 74.38 235.79 73.28 237.45 73.05 C 236.98 72.52 236.50 71.99 236.04 71.47 L 234.36 74.19 C 233.93 72.48 232.98 70.75 233.75 68.98 Z" />
<path fill="#010101" opacity="1.00" d=" M 241.25 69.70 C 242.42 69.44 243.59 69.19 244.77 68.94 C 244.62 70.57 244.45 72.21 244.27 73.84 C 242.96 72.69 241.77 71.40 241.25 69.70 Z" />
<path fill="#010101" opacity="1.00" d=" M 206.46 69.31 C 207.44 69.25 209.40 69.14 210.37 69.08 C 210.37 70.69 210.35 72.30 210.33 73.91 C 209.36 74.46 208.40 75.02 207.44 75.58 C 207.44 73.45 207.19 71.32 206.46 69.31 Z" />
<path fill="#010101" opacity="1.00" d=" M 222.10 70.42 C 222.78 71.03 222.78 71.03 222.10 70.42 Z" />
<path fill="#010101" opacity="1.00" d=" M 221.08 72.08 C 220.60 71.59 220.60 71.59 221.08 72.08 Z" />
<path fill="#010101" opacity="1.00" d=" M 261.43 78.99 C 261.29 75.56 262.46 72.15 264.39 69.35 C 264.59 74.54 264.28 79.74 264.11 84.93 C 260.93 84.64 261.56 81.29 261.43 78.99 Z" />
<path fill="#010101" opacity="1.00" d=" M 221.08 72.08 C 221.52 72.52 221.52 72.52 221.08 72.08 Z" />
<path fill="#010101" opacity="1.00" d=" M 222.69 75.27 C 223.43 74.04 224.07 72.76 224.76 71.50 C 225.56 71.57 227.15 71.72 227.95 71.79 C 226.66 72.55 225.37 73.28 224.11 74.09 L 227.17 73.67 C 226.98 75.09 226.92 76.52 226.99 77.96 L 227.06 78.87 C 225.17 78.22 223.28 77.57 221.31 77.23 L 221.70 75.83 C 223.04 75.88 224.38 75.86 225.72 75.78 C 224.96 75.65 223.45 75.40 222.69 75.27 Z" />
<path fill="#010101" opacity="1.00" d=" M 211.87 73.89 C 215.34 70.55 221.55 76.87 218.33 80.34 C 216.80 77.63 214.72 75.27 211.87 73.89 Z" />
<path fill="#010101" opacity="1.00" d=" M 207.93 76.24 C 208.74 75.82 210.36 74.97 211.17 74.55 C 214.02 75.93 216.08 78.37 217.70 81.04 C 216.95 82.14 216.21 83.23 215.45 84.32 C 213.87 80.85 211.27 78.07 207.93 76.24 Z" />
<path fill="#010101" opacity="1.00" d=" M 238.35 80.85 C 239.83 78.27 242.13 75.93 245.04 75.09 C 245.87 75.56 247.52 76.50 248.34 76.97 C 244.56 78.49 241.57 81.30 239.73 84.94 C 239.39 83.92 238.70 81.87 238.35 80.85 Z" />
<path fill="#010101" opacity="1.00" d=" M 202.64 79.72 C 203.94 78.67 205.28 77.55 206.94 77.12 C 210.56 78.47 213.14 81.68 214.80 85.06 C 214.26 86.68 213.44 88.18 212.76 89.75 C 210.18 85.71 207.58 81.18 202.64 79.72 Z" />
<path fill="#010101" opacity="1.00" d=" M 240.61 85.53 C 242.26 81.82 245.50 79.27 249.02 77.43 C 250.52 78.29 252.02 79.15 253.51 80.05 C 248.84 81.98 245.03 85.58 242.99 90.23 C 242.20 88.66 241.41 87.09 240.61 85.53 Z" />
<path fill="#010101" opacity="1.00" d=" M 218.75 80.21 C 221.07 76.72 227.96 78.59 227.73 82.93 C 224.86 81.63 221.90 80.54 218.75 80.21 Z" />
<path fill="#010101" opacity="1.00" d=" M 200.07 80.52 C 205.54 80.09 209.18 85.54 211.52 89.83 C 211.66 92.25 209.56 94.11 208.77 96.29 C 205.82 90.67 201.74 85.42 195.61 83.08 C 197.14 82.32 198.68 81.54 200.07 80.52 Z" />
<path fill="#010101" opacity="1.00" d=" M 254.26 81.04 C 256.50 81.31 258.29 83.03 260.30 83.95 C 254.44 86.39 248.92 90.64 247.10 96.99 C 245.92 95.03 244.79 93.05 243.61 91.09 C 245.69 86.56 249.25 82.34 254.26 81.04 Z" />
<path fill="#010101" opacity="1.00" d=" M 216.37 84.60 C 217.02 83.80 218.33 82.19 218.99 81.39 C 221.96 81.38 224.70 82.52 227.22 83.99 C 227.25 85.00 227.31 87.02 227.33 88.04 C 224.12 85.69 220.26 84.83 216.37 84.60 Z" />
<path fill="#010101" opacity="1.00" d=" M 228.02 87.95 C 228.00 85.72 228.66 83.69 230.62 82.46 C 233.87 82.35 238.12 81.09 239.39 85.24 C 235.36 84.81 231.46 85.91 228.02 87.95 Z" />
<path fill="#010101" opacity="1.00" d=" M 192.26 85.00 C 194.62 83.07 197.37 84.93 199.48 86.26 C 203.60 88.81 205.90 93.22 208.04 97.39 C 205.15 96.66 202.20 96.48 199.27 97.01 C 196.75 94.12 194.14 91.04 190.41 89.72 C 192.87 92.52 196.12 94.50 198.48 97.43 C 195.80 99.45 193.46 101.89 191.80 104.81 C 188.58 101.43 185.47 97.59 180.92 95.97 C 180.78 94.59 180.64 93.22 180.50 91.85 C 182.75 90.82 184.91 88.21 187.59 89.31 C 187.48 86.71 190.57 86.22 192.26 85.00 Z" />
<path fill="#010101" opacity="1.00" d=" M 259.44 85.36 C 260.83 84.78 262.28 85.37 263.67 85.64 C 263.87 87.39 264.09 89.14 264.27 90.90 C 260.96 92.74 258.19 95.34 255.48 97.96 L 255.84 97.10 C 254.45 99.08 253.07 101.07 251.63 103.01 C 250.42 101.15 249.12 99.36 247.63 97.71 C 249.74 92.21 253.94 87.59 259.44 85.36 Z" />
<path fill="#010101" opacity="1.00" d=" M 213.19 90.30 C 214.35 88.75 214.92 86.52 216.83 85.69 C 220.64 85.32 224.12 87.08 227.23 89.05 C 227.24 90.75 227.26 92.44 227.28 94.13 C 223.12 91.32 218.26 89.65 213.19 90.30 Z" />
<path fill="#010101" opacity="1.00" d=" M 229.32 88.52 C 232.26 86.00 236.34 86.00 239.98 86.43 C 240.70 87.88 241.45 89.32 242.21 90.75 C 237.24 90.14 232.17 91.37 228.04 94.19 C 228.56 92.40 227.42 89.69 229.32 88.52 Z" />
<path fill="#010101" opacity="1.00" d=" M 209.36 96.73 C 210.52 94.99 211.63 93.22 212.71 91.43 C 216.27 90.98 219.87 91.39 223.21 92.72 C 224.56 93.76 226.16 94.57 227.22 95.95 C 227.37 97.94 227.17 99.92 227.00 101.90 C 221.94 98.22 215.73 95.54 209.36 96.73 Z" />
<path fill="#010101" opacity="1.00" d=" M 228.48 95.44 C 232.21 91.65 237.83 91.26 242.82 91.72 C 243.93 93.60 245.06 95.47 246.17 97.35 C 243.14 97.35 240.07 97.05 237.07 97.68 C 234.50 98.38 232.08 99.58 229.45 100.09 C 230.19 100.57 230.93 101.05 231.69 101.53 C 228.94 104.02 229.23 108.05 229.23 111.42 L 228.08 111.23 C 228.51 107.80 226.79 103.52 230.21 101.11 C 229.43 101.43 227.87 102.07 227.09 102.39 C 228.76 100.43 227.74 97.70 228.48 95.44 Z" />
<path fill="#010101" opacity="1.00" d=" M 257.62 97.43 C 259.35 95.43 261.46 93.83 263.43 92.09 C 264.82 96.03 263.99 100.27 264.24 104.36 C 261.50 107.91 259.26 111.82 257.53 115.96 C 256.40 113.48 254.74 111.25 253.64 108.77 C 253.22 104.54 255.02 100.65 257.62 97.43 Z" />
<path fill="#010101" opacity="1.00" d=" M 163.60 101.09 C 167.12 99.06 170.82 96.72 175.09 97.63 C 175.11 100.81 175.03 104.00 174.69 107.17 C 171.25 104.68 167.20 103.29 163.60 101.09 Z" />
<path fill="#010101" opacity="1.00" d=" M 180.44 96.69 C 184.81 98.62 188.42 102.03 191.21 105.86 C 191.30 107.15 191.34 108.44 191.34 109.73 C 192.02 109.71 193.38 109.67 194.06 109.65 C 194.88 112.06 195.85 114.41 196.65 116.83 C 193.96 120.42 191.99 124.47 189.74 128.33 C 187.08 122.82 184.59 117.10 180.40 112.54 C 180.43 107.25 180.97 101.97 180.44 96.69 Z" />
<path fill="#010101" opacity="1.00" d=" M 208.69 97.72 C 215.33 96.45 222.06 98.99 227.07 103.30 C 227.45 106.12 227.19 108.99 227.29 111.83 C 223.87 109.32 220.17 106.87 215.92 106.13 C 213.97 102.93 211.89 99.81 208.69 97.72 Z" />
<path fill="#010101" opacity="1.00" d=" M 147.62 110.12 C 152.57 107.63 157.34 104.82 162.12 102.03 C 166.59 103.33 170.55 105.79 174.61 108.00 C 175.16 112.46 174.43 116.95 174.78 121.43 C 174.04 121.64 172.58 122.07 171.84 122.28 C 166.82 120.74 162.11 118.34 157.63 115.61 C 154.39 113.60 150.69 112.42 147.62 110.12 Z" />
<path fill="#010101" opacity="1.00" d=" M 194.37 108.62 C 197.06 107.73 199.78 106.97 202.55 106.39 C 200.86 109.46 199.06 112.48 197.00 115.32 C 196.34 113.01 195.38 110.80 194.37 108.62 Z" />
<path fill="#010101" opacity="1.00" d=" M 198.08 115.63 C 200.10 112.72 201.86 109.64 203.68 106.60 C 204.58 106.63 206.39 106.68 207.30 106.70 C 209.99 107.92 212.58 109.33 215.25 110.59 C 215.39 109.25 215.51 107.90 215.62 106.56 C 219.85 108.19 224.02 110.19 227.34 113.34 C 227.20 116.88 227.27 120.42 227.26 123.95 C 222.84 120.84 218.24 117.80 212.97 116.32 C 208.16 114.78 203.03 115.22 198.08 115.63 Z" />
<path fill="#010101" opacity="1.00" d=" M 228.18 112.80 C 232.15 109.68 236.73 106.95 241.90 106.75 C 245.94 107.21 249.75 108.86 253.35 110.68 C 254.71 112.58 255.77 114.68 256.99 116.67 C 246.92 115.05 235.95 116.68 228.06 123.57 C 228.15 119.98 228.10 116.39 228.18 112.80 Z" />
<path fill="#010101" opacity="1.00" d=" M 258.18 116.95 C 259.65 113.25 261.53 109.73 263.69 106.39 C 263.78 112.64 264.40 118.99 263.07 125.17 C 261.37 122.47 259.77 119.71 258.18 116.95 Z" />
<path fill="#010101" opacity="1.00" d=" M 180.78 114.47 C 184.40 119.17 187.25 124.51 189.08 130.16 C 193.01 129.40 196.98 128.34 201.02 128.78 C 204.45 129.19 207.81 130.08 211.25 130.52 C 204.92 127.09 197.33 127.70 190.47 128.73 C 193.22 124.95 194.94 120.48 197.93 116.88 C 208.44 114.06 219.23 118.56 227.23 125.33 C 221.37 127.38 215.23 125.21 210.24 122.04 C 210.40 123.66 210.59 125.28 210.84 126.89 C 211.50 128.04 212.16 129.20 212.83 130.35 C 219.01 130.38 225.18 130.37 231.35 130.36 C 232.86 127.92 233.82 125.23 234.04 122.37 C 232.64 123.02 229.83 124.33 228.43 124.98 C 229.95 123.25 231.90 122.01 233.78 120.71 C 241.05 116.67 249.65 116.65 257.67 117.83 C 259.25 120.87 261.01 123.82 262.60 126.86 C 262.27 127.51 261.60 128.80 261.27 129.45 C 255.76 129.36 250.12 128.76 244.73 130.21 C 249.79 130.65 254.87 129.56 259.94 130.34 C 280.78 130.55 301.62 130.45 322.46 130.49 C 322.38 148.64 322.37 166.79 322.37 184.94 C 241.10 184.95 159.82 184.88 78.55 184.67 C 78.57 166.50 78.65 148.32 78.62 130.14 C 113.68 130.15 148.74 130.30 183.81 130.30 C 181.95 125.25 179.56 119.97 180.78 114.47 M 80.31 131.97 C 80.37 148.90 80.36 165.84 80.24 182.77 C 82.50 182.97 84.76 183.17 87.03 183.22 C 164.82 183.27 242.60 183.21 320.39 183.34 C 320.79 166.35 320.54 149.34 320.58 132.35 C 277.38 131.96 234.18 132.57 190.98 131.86 C 154.10 131.99 117.20 131.57 80.31 131.97 Z" />
<path fill="#010101" opacity="1.00" d=" M 97.71 149.73 C 99.91 149.73 102.11 149.73 104.32 149.74 C 104.41 154.69 104.38 159.65 104.42 164.60 C 107.07 164.65 109.72 164.71 112.38 164.78 C 116.00 160.11 117.67 154.01 121.91 149.87 C 125.09 154.79 128.04 159.95 130.25 165.39 C 128.16 165.42 126.08 165.44 123.99 165.41 C 120.84 163.45 115.42 161.83 112.84 165.28 C 107.72 165.36 102.59 165.47 97.47 165.53 C 97.58 160.26 97.60 155.00 97.71 149.73 M 114.78 162.68 C 116.88 162.68 118.98 162.66 121.08 162.61 C 120.40 161.05 119.91 159.37 118.85 158.02 C 116.30 157.93 115.73 160.93 114.78 162.68 Z" />
<path fill="#010101" opacity="1.00" d=" M 135.96 150.02 C 141.37 149.74 146.85 149.32 152.24 150.15 C 151.22 150.17 149.17 150.22 148.15 150.25 C 147.27 155.29 147.76 160.42 147.54 165.51 C 145.33 165.13 141.92 166.71 140.71 164.26 C 140.17 159.78 141.22 155.18 140.16 150.76 C 138.76 150.47 137.36 150.23 135.96 150.02 Z" />
<path fill="#010101" opacity="1.00" d=" M 150.92 165.94 C 152.92 159.85 156.81 154.62 160.05 149.15 C 162.98 154.40 166.37 159.47 168.22 165.24 C 166.10 165.36 164.00 165.47 161.89 165.58 C 160.99 164.88 160.09 164.18 159.19 163.49 C 157.06 163.48 154.93 163.49 152.80 163.51 C 152.18 164.32 151.55 165.13 150.92 165.94 M 156.19 156.66 C 155.05 158.63 153.94 160.62 152.86 162.63 C 155.14 162.61 157.42 162.58 159.69 162.51 C 158.62 160.50 157.45 158.55 156.19 156.66 Z" />
<path fill="#010101" opacity="1.00" d=" M 205.72 149.13 C 210.51 151.75 214.86 155.35 220.21 156.79 C 219.98 154.68 219.74 152.57 219.49 150.46 C 225.09 149.25 230.84 149.92 236.52 149.69 C 236.52 150.10 236.51 150.93 236.51 151.35 C 235.71 151.32 234.13 151.25 233.33 151.22 C 233.26 155.95 233.27 160.67 233.38 165.39 C 231.02 165.45 228.66 165.52 226.31 165.59 C 226.08 160.49 226.67 155.34 225.58 150.31 C 223.91 150.35 222.24 150.39 220.57 150.44 C 220.54 155.58 220.64 160.73 220.58 165.88 C 215.82 163.41 211.50 160.16 206.58 158.01 C 206.49 160.36 206.43 162.71 206.38 165.07 C 203.52 164.48 200.66 165.32 197.85 165.78 C 196.92 164.99 196.00 164.20 195.09 163.42 C 192.79 163.46 190.50 163.51 188.21 163.59 C 187.47 164.36 186.73 165.14 185.99 165.91 C 189.07 160.48 192.24 155.10 195.31 149.65 C 199.94 153.73 200.46 160.82 205.61 164.45 C 205.84 159.34 205.72 154.23 205.72 149.13 M 188.83 162.70 C 191.00 162.61 193.18 162.51 195.35 162.38 C 194.28 160.42 193.16 158.49 192.00 156.58 C 190.86 158.57 189.81 160.62 188.83 162.70 Z" />
<path fill="#010101" opacity="1.00" d=" M 239.48 150.18 C 243.88 149.19 248.46 149.76 252.82 150.69 C 252.37 150.76 251.48 150.91 251.04 150.99 C 249.51 150.67 247.97 150.36 246.45 150.06 C 246.31 151.49 245.00 153.31 246.63 154.36 C 248.51 154.56 250.41 154.61 252.30 154.73 C 250.25 155.07 248.17 155.26 246.10 155.41 C 246.08 158.51 246.09 161.61 246.15 164.71 C 248.31 164.66 250.47 164.62 252.63 164.58 C 252.61 164.78 252.57 165.19 252.54 165.39 C 248.14 165.37 243.74 165.48 239.34 165.57 C 239.30 160.44 238.97 155.29 239.48 150.18 Z" />
<path fill="#010101" opacity="1.00" d=" M 254.44 150.37 C 256.74 150.11 259.06 149.86 261.37 149.61 C 261.51 154.64 261.45 159.66 261.43 164.69 C 263.52 164.65 265.61 164.61 267.70 164.57 C 267.72 164.78 267.76 165.19 267.78 165.39 C 263.33 165.38 258.88 165.49 254.43 165.55 C 254.42 160.49 254.50 155.43 254.44 150.37 Z" />
<path fill="#010101" opacity="1.00" d=" M 170.15 150.19 C 174.38 149.82 178.74 150.08 182.82 151.29 C 186.04 152.69 185.46 156.57 185.45 159.43 C 183.71 160.75 182.12 162.25 180.70 163.91 C 182.22 164.40 183.77 164.91 185.30 165.42 C 182.21 166.12 179.90 163.98 177.72 162.18 C 177.24 163.35 176.75 164.52 176.27 165.70 C 174.23 165.46 172.20 165.23 170.17 165.01 C 170.23 160.07 170.24 155.13 170.15 150.19 M 177.60 150.54 C 176.88 154.32 176.69 158.18 177.35 161.99 C 179.82 161.79 182.22 161.14 184.50 160.17 C 184.53 157.81 184.80 155.43 184.33 153.10 C 182.71 151.08 179.87 151.21 177.60 150.54 Z" />
<path fill="#010101" opacity="1.00" d=" M 270.24 150.33 C 272.48 150.24 275.53 148.61 277.09 150.98 C 277.40 155.69 277.54 160.46 277.09 165.16 C 274.89 165.67 272.63 165.60 270.40 165.69 C 270.08 160.58 270.25 155.45 270.24 150.33 Z" />
<path fill="#010101" opacity="1.00" d=" M 290.20 156.07 C 290.91 153.55 292.68 151.53 294.07 149.37 C 297.28 154.51 300.22 159.83 302.82 165.31 C 300.38 165.43 297.93 165.56 295.50 165.73 C 293.46 162.66 291.76 159.39 290.20 156.07 Z" />
</g>
<g id="#822111ff">
<path fill="#822111" opacity="1.00" d=" M 213.91 61.91 C 217.19 62.17 212.31 64.95 213.91 61.91 Z" />
<path fill="#822111" opacity="1.00" d=" M 255.84 97.10 L 255.48 97.96 L 257.62 97.43 C 255.02 100.65 253.22 104.54 253.64 108.77 C 252.82 107.10 252.87 105.19 252.71 103.38 C 252.32 103.46 251.52 103.62 251.13 103.70 L 251.63 103.01 C 253.07 101.07 254.45 99.08 255.84 97.10 Z" />
<path fill="#822111" opacity="1.00" d=" M 80.31 131.97 C 117.20 131.57 154.10 131.99 190.98 131.86 C 234.18 132.57 277.38 131.96 320.58 132.35 C 320.54 149.34 320.79 166.35 320.39 183.34 C 242.60 183.21 164.82 183.27 87.03 183.22 C 84.76 183.17 82.50 182.97 80.24 182.77 C 80.36 165.84 80.37 148.90 80.31 131.97 M 97.71 149.73 C 97.60 155.00 97.58 160.26 97.47 165.53 C 102.59 165.47 107.72 165.36 112.84 165.28 C 115.42 161.83 120.84 163.45 123.99 165.41 C 126.08 165.44 128.16 165.42 130.25 165.39 C 128.04 159.95 125.09 154.79 121.91 149.87 C 117.67 154.01 116.00 160.11 112.38 164.78 C 109.72 164.71 107.07 164.65 104.42 164.60 C 104.38 159.65 104.41 154.69 104.32 149.74 C 102.11 149.73 99.91 149.73 97.71 149.73 M 135.96 150.02 C 137.36 150.23 138.76 150.47 140.16 150.76 C 141.22 155.18 140.17 159.78 140.71 164.26 C 141.92 166.71 145.33 165.13 147.54 165.51 C 147.76 160.42 147.27 155.29 148.15 150.25 C 149.17 150.22 151.22 150.17 152.24 150.15 C 146.85 149.32 141.37 149.74 135.96 150.02 M 150.92 165.94 C 151.55 165.13 152.18 164.32 152.80 163.51 C 154.93 163.49 157.06 163.48 159.19 163.49 C 160.09 164.18 160.99 164.88 161.89 165.58 C 164.00 165.47 166.10 165.36 168.22 165.24 C 166.37 159.47 162.98 154.40 160.05 149.15 C 156.81 154.62 152.92 159.85 150.92 165.94 M 205.72 149.13 C 205.72 154.23 205.84 159.34 205.61 164.45 C 200.46 160.82 199.94 153.73 195.31 149.65 C 192.24 155.10 189.07 160.48 185.99 165.91 C 186.73 165.14 187.47 164.36 188.21 163.59 C 190.50 163.51 192.79 163.46 195.09 163.42 C 196.00 164.20 196.92 164.99 197.85 165.78 C 200.66 165.32 203.52 164.48 206.38 165.07 C 206.43 162.71 206.49 160.36 206.58 158.01 C 211.50 160.16 215.82 163.41 220.58 165.88 C 220.64 160.73 220.54 155.58 220.57 150.44 C 222.24 150.39 223.91 150.35 225.58 150.31 C 226.67 155.34 226.08 160.49 226.31 165.59 C 228.66 165.52 231.02 165.45 233.38 165.39 C 233.27 160.67 233.26 155.95 233.33 151.22 C 234.13 151.25 235.71 151.32 236.51 151.35 C 236.51 150.93 236.52 150.10 236.52 149.69 C 230.84 149.92 225.09 149.25 219.49 150.46 C 219.74 152.57 219.98 154.68 220.21 156.79 C 214.86 155.35 210.51 151.75 205.72 149.13 M 239.48 150.18 C 238.97 155.29 239.30 160.44 239.34 165.57 C 243.74 165.48 248.14 165.37 252.54 165.39 C 252.57 165.19 252.61 164.78 252.63 164.58 C 250.47 164.62 248.31 164.66 246.15 164.71 C 246.09 161.61 246.08 158.51 246.10 155.41 C 248.17 155.26 250.25 155.07 252.30 154.73 C 250.41 154.61 248.51 154.56 246.63 154.36 C 245.00 153.31 246.31 151.49 246.45 150.06 C 247.97 150.36 249.51 150.67 251.04 150.99 C 251.48 150.91 252.37 150.76 252.82 150.69 C 248.46 149.76 243.88 149.19 239.48 150.18 M 254.44 150.37 C 254.50 155.43 254.42 160.49 254.43 165.55 C 258.88 165.49 263.33 165.38 267.78 165.39 C 267.76 165.19 267.72 164.78 267.70 164.57 C 265.61 164.61 263.52 164.65 261.43 164.69 C 261.45 159.66 261.51 154.64 261.37 149.61 C 259.06 149.86 256.74 150.11 254.44 150.37 M 170.15 150.19 C 170.24 155.13 170.23 160.07 170.17 165.01 C 172.20 165.23 174.23 165.46 176.27 165.70 C 176.75 164.52 177.24 163.35 177.72 162.18 C 179.90 163.98 182.21 166.12 185.30 165.42 C 183.77 164.91 182.22 164.40 180.70 163.91 C 182.12 162.25 183.71 160.75 185.45 159.43 C 185.46 156.57 186.04 152.69 182.82 151.29 C 178.74 150.08 174.38 149.82 170.15 150.19 M 270.24 150.33 C 270.25 155.45 270.08 160.58 270.40 165.69 C 272.63 165.60 274.89 165.67 277.09 165.16 C 277.54 160.46 277.40 155.69 277.09 150.98 C 275.53 148.61 272.48 150.24 270.24 150.33 M 290.20 156.07 C 291.76 159.39 293.46 162.66 295.50 165.73 C 297.93 165.56 300.38 165.43 302.82 165.31 C 300.22 159.83 297.28 154.51 294.07 149.37 C 292.68 151.53 290.91 153.55 290.20 156.07 Z" />
<path fill="#822111" opacity="1.00" d=" M 177.60 150.54 C 179.87 151.21 182.71 151.08 184.33 153.10 C 184.80 155.43 184.53 157.81 184.50 160.17 C 182.22 161.14 179.82 161.79 177.35 161.99 C 176.69 158.18 176.88 154.32 177.60 150.54 Z" />
<path fill="#822111" opacity="1.00" d=" M 156.19 156.66 C 157.45 158.55 158.62 160.50 159.69 162.51 C 157.42 162.58 155.14 162.61 152.86 162.63 C 153.94 160.62 155.05 158.63 156.19 156.66 Z" />
<path fill="#822111" opacity="1.00" d=" M 114.78 162.68 C 115.73 160.93 116.30 157.93 118.85 158.02 C 119.91 159.37 120.40 161.05 121.08 162.61 C 118.98 162.66 116.88 162.68 114.78 162.68 Z" />
<path fill="#822111" opacity="1.00" d=" M 188.83 162.70 C 189.81 160.62 190.86 158.57 192.00 156.58 C 193.16 158.49 194.28 160.42 195.35 162.38 C 193.18 162.51 191.00 162.61 188.83 162.70 Z" />
</g>
</svg>
