<?xml version="1.0" encoding="UTF-8" ?>
<!DOCTYPE svg PUBLIC "-//W3C//DTD SVG 1.1//EN" "http://www.w3.org/Graphics/SVG/1.1/DTD/svg11.dtd">
<svg width="400pt" height="225pt" viewBox="0 0 400 225" version="1.1" xmlns="http://www.w3.org/2000/svg">
<g id="#ffffffff">
<path fill="#ffffff" opacity="1.00" d=" M 0.00 0.00 L 400.00 0.00 L 400.00 225.00 L 0.00 225.00 L 0.00 0.00 M 118.14 38.39 C 118.26 88.04 118.20 137.68 118.17 187.33 C 172.26 187.29 226.35 187.23 280.44 187.36 C 280.63 187.07 281.03 186.51 281.22 186.23 C 280.77 182.82 280.80 179.39 280.84 175.97 C 280.84 130.10 280.81 84.24 280.86 38.37 C 226.62 38.32 172.38 38.27 118.14 38.39 Z" />
<path fill="#ffffff" opacity="1.00" d=" M 226.60 101.46 C 235.94 101.29 245.28 101.52 254.61 101.46 C 254.49 104.14 254.61 106.81 254.70 109.49 C 251.66 109.46 248.62 109.46 245.58 109.30 C 245.60 110.38 245.65 112.52 245.67 113.60 C 247.54 113.54 249.41 113.56 251.28 113.64 C 252.67 114.48 254.08 115.30 255.47 116.13 C 255.58 116.84 255.80 118.26 255.91 118.97 C 256.52 122.19 256.42 125.49 256.28 128.74 L 254.53 128.92 C 254.27 126.75 254.40 124.57 254.39 122.40 C 252.48 124.31 250.62 126.29 248.88 128.37 C 248.44 128.50 247.54 128.76 247.10 128.90 C 245.11 126.58 243.09 124.28 240.87 122.19 C 241.04 124.36 241.19 126.53 241.31 128.71 C 240.75 128.68 239.63 128.63 239.07 128.60 C 238.69 125.06 238.64 121.46 239.66 118.01 C 242.61 120.64 245.11 123.70 247.71 126.67 C 249.80 123.63 253.46 121.56 254.88 118.21 C 254.07 117.32 253.22 116.47 252.37 115.62 C 250.06 115.37 247.79 114.87 245.51 114.46 L 245.53 115.39 C 242.50 115.53 239.48 115.57 236.45 115.47 L 236.46 114.63 C 234.76 114.69 233.06 114.73 231.37 114.74 L 231.33 115.04 C 229.09 115.91 227.11 117.59 224.61 117.63 C 227.32 114.54 231.37 113.20 235.40 113.51 C 235.42 112.48 235.47 110.42 235.49 109.39 C 232.51 109.45 229.54 109.45 226.57 109.49 C 226.68 108.34 226.81 107.19 226.98 106.04 C 227.46 104.50 227.34 102.97 226.60 101.46 M 237.62 108.54 C 237.14 109.88 236.69 111.24 236.25 112.60 C 239.10 112.88 241.98 112.91 244.84 112.52 C 244.55 110.29 242.97 108.75 241.42 107.32 C 240.14 107.69 238.87 108.11 237.62 108.54 Z" />
<path fill="#ffffff" opacity="1.00" d=" M 127.57 108.34 C 131.46 108.27 135.35 108.19 139.25 108.27 C 139.46 108.76 139.88 109.76 140.09 110.26 C 136.28 110.35 132.38 109.69 128.65 110.77 C 131.42 111.98 134.52 111.44 137.46 111.56 L 137.51 113.47 C 134.88 113.40 132.26 113.36 129.64 113.35 C 129.63 115.01 129.63 116.67 129.62 118.33 C 129.12 118.34 128.13 118.38 127.63 118.39 C 127.52 115.04 127.55 111.69 127.57 108.34 Z" />
<path fill="#ffffff" opacity="1.00" d=" M 140.61 117.14 C 140.52 113.96 140.56 110.79 140.55 107.62 L 140.75 108.75 C 144.60 108.10 148.53 108.19 152.41 108.51 C 153.00 111.50 152.91 114.56 152.63 117.58 C 149.47 118.56 146.14 118.29 142.88 118.29 C 142.31 118.00 141.18 117.43 140.61 117.14 M 142.71 110.33 C 142.67 112.18 142.65 114.04 142.65 115.89 C 145.31 116.29 148.01 116.28 150.70 116.27 C 150.75 114.28 150.75 112.30 150.72 110.32 C 148.05 110.27 145.38 110.26 142.71 110.33 Z" />
<path fill="#ffffff" opacity="1.00" d=" M 154.57 108.37 C 158.55 108.27 162.54 108.15 166.51 108.57 C 166.78 110.45 166.80 112.36 166.49 114.23 C 165.47 114.37 163.43 114.63 162.40 114.76 C 163.56 115.58 164.74 116.36 165.93 117.12 C 165.78 117.56 165.47 118.43 165.32 118.87 C 162.44 117.32 159.94 115.04 156.71 114.21 C 156.62 115.57 156.54 116.94 156.48 118.31 C 156.00 118.35 155.03 118.42 154.55 118.45 C 154.69 115.09 154.65 111.73 154.57 108.37 M 156.45 110.28 C 156.47 110.89 156.49 112.10 156.50 112.70 C 159.23 112.76 161.97 112.77 164.70 112.78 C 164.71 112.16 164.74 110.94 164.75 110.33 C 161.98 110.21 159.22 110.22 156.45 110.28 Z" />
<path fill="#ffffff" opacity="1.00" d=" M 168.42 107.63 C 169.53 108.48 170.65 109.34 171.77 110.19 C 173.41 112.18 175.13 114.12 176.87 116.04 C 179.55 113.09 181.90 109.72 185.33 107.57 C 185.59 111.19 185.55 114.82 185.63 118.44 C 185.09 118.44 184.03 118.44 183.50 118.43 C 183.52 116.06 183.56 113.68 183.58 111.30 C 181.78 113.33 180.00 115.37 178.28 117.46 C 177.93 117.76 177.22 118.37 176.87 118.67 C 174.54 116.47 172.43 114.06 170.31 111.67 C 170.27 113.89 170.29 116.11 170.31 118.33 C 169.80 118.34 168.79 118.34 168.28 118.35 C 168.11 114.77 168.29 111.20 168.42 107.63 Z" />
<path fill="#ffffff" opacity="1.00" d=" M 187.34 108.39 C 187.86 108.37 188.88 108.35 189.39 108.34 C 189.53 110.91 188.88 113.65 189.86 116.11 C 192.36 116.30 194.88 116.19 197.39 116.16 C 197.41 113.57 197.41 110.98 197.39 108.38 C 197.95 108.38 199.08 108.37 199.64 108.37 C 199.60 111.08 199.59 113.79 199.45 116.51 C 199.11 116.94 198.43 117.81 198.10 118.25 C 194.55 118.31 190.95 118.56 187.51 117.51 C 187.35 114.47 187.35 111.43 187.34 108.39 Z" />
<path fill="#ffffff" opacity="1.00" d=" M 212.79 108.62 C 216.21 107.85 219.79 108.18 223.22 108.75 C 224.00 115.24 223.41 121.82 223.32 128.34 C 219.44 129.06 215.46 128.89 211.56 128.43 C 211.24 125.13 211.24 121.82 211.45 118.52 C 214.95 119.67 212.88 123.97 213.44 126.69 C 216.10 126.74 218.77 126.75 221.44 126.70 C 221.43 122.88 221.65 119.07 221.64 115.26 C 218.90 115.26 216.15 115.26 213.41 115.22 C 213.41 116.06 213.41 117.73 213.42 118.56 C 212.98 118.57 212.11 118.60 211.68 118.61 L 211.62 116.99 C 208.48 118.84 204.79 118.19 201.34 118.37 C 201.27 115.01 201.27 111.66 201.22 108.30 L 203.41 108.30 C 203.41 110.95 203.40 113.60 203.39 116.26 C 206.06 116.22 208.75 116.22 211.38 116.73 C 211.80 114.14 210.16 110.35 212.79 108.62 M 213.47 110.36 C 213.44 111.30 213.42 112.24 213.40 113.19 C 216.13 113.12 218.86 113.12 221.59 113.22 C 221.55 112.29 221.51 111.36 221.48 110.44 C 218.81 110.30 216.14 110.27 213.47 110.36 Z" />
<path fill="#ffffff" opacity="1.00" d=" M 258.50 108.56 C 262.06 108.20 265.65 108.25 269.22 108.43 C 269.50 108.99 270.07 110.13 270.35 110.69 C 270.28 113.40 270.31 116.12 269.90 118.81 C 270.39 122.04 270.64 125.42 269.54 128.56 C 265.83 128.88 262.09 128.88 258.39 128.38 C 257.38 124.61 258.62 120.70 257.76 116.95 C 257.74 114.13 257.93 111.32 258.50 108.56 M 260.25 110.24 C 260.25 113.12 260.07 116.00 259.72 118.86 C 260.25 121.43 260.23 124.05 260.29 126.66 C 262.78 126.65 265.27 126.75 267.75 126.54 C 268.81 121.30 268.04 115.78 268.16 110.43 C 265.52 110.28 262.88 110.24 260.25 110.24 Z" />
<path fill="#ffffff" opacity="1.00" d=" M 225.40 128.79 C 225.30 125.44 225.34 122.08 225.44 118.73 C 229.42 118.79 233.40 118.82 237.38 118.74 L 237.51 120.82 C 234.15 120.74 230.78 120.75 227.42 120.68 C 227.45 121.08 227.51 121.88 227.54 122.27 C 230.31 122.87 235.18 120.40 236.10 124.17 C 233.19 124.21 230.29 124.16 227.39 124.16 C 227.37 124.80 227.34 126.07 227.33 126.71 C 230.67 126.76 234.02 126.79 237.37 126.67 C 237.42 127.21 237.51 128.27 237.56 128.81 C 233.50 128.79 229.45 128.81 225.40 128.79 Z" />
</g>
<g id="#010101ff">
<path fill="#010101" opacity="1.00" d=" M 118.14 38.39 C 172.38 38.27 226.62 38.32 280.86 38.37 C 280.81 84.24 280.84 130.10 280.84 175.97 C 280.80 179.39 280.77 182.82 281.22 186.23 C 281.03 186.51 280.63 187.07 280.44 187.36 C 226.35 187.23 172.26 187.29 118.17 187.33 C 118.20 137.68 118.26 88.04 118.14 38.39 M 226.60 101.46 C 227.34 102.97 227.46 104.50 226.98 106.04 C 226.81 107.19 226.68 108.34 226.57 109.49 C 229.54 109.45 232.51 109.45 235.49 109.39 C 235.47 110.42 235.42 112.48 235.40 113.51 C 231.37 113.20 227.32 114.54 224.61 117.63 C 227.11 117.59 229.09 115.91 231.33 115.04 L 231.37 114.74 C 233.06 114.73 234.76 114.69 236.46 114.63 L 236.45 115.47 C 239.48 115.57 242.50 115.53 245.53 115.39 L 245.51 114.46 C 247.79 114.87 250.06 115.37 252.37 115.62 C 253.22 116.47 254.07 117.32 254.88 118.21 C 253.46 121.56 249.80 123.63 247.71 126.67 C 245.11 123.70 242.61 120.64 239.66 118.01 C 238.64 121.46 238.69 125.06 239.07 128.60 C 239.63 128.63 240.75 128.68 241.31 128.71 C 241.19 126.53 241.04 124.36 240.87 122.19 C 243.09 124.28 245.11 126.58 247.10 128.90 C 247.54 128.76 248.44 128.50 248.88 128.37 C 250.62 126.29 252.48 124.31 254.39 122.40 C 254.40 124.57 254.27 126.75 254.53 128.92 L 256.28 128.74 C 256.42 125.49 256.52 122.19 255.91 118.97 C 255.80 118.26 255.58 116.84 255.47 116.13 C 254.08 115.30 252.67 114.48 251.28 113.64 C 249.41 113.56 247.54 113.54 245.67 113.60 C 245.65 112.52 245.60 110.38 245.58 109.30 C 248.62 109.46 251.66 109.46 254.70 109.49 C 254.61 106.81 254.49 104.14 254.61 101.46 C 245.28 101.52 235.94 101.29 226.60 101.46 M 127.57 108.34 C 127.55 111.69 127.52 115.04 127.63 118.39 C 128.13 118.38 129.12 118.34 129.62 118.33 C 129.63 116.67 129.63 115.01 129.64 113.35 C 132.26 113.36 134.88 113.40 137.51 113.47 L 137.46 111.56 C 134.52 111.44 131.42 111.98 128.65 110.77 C 132.38 109.69 136.28 110.35 140.09 110.26 C 139.88 109.76 139.46 108.76 139.25 108.27 C 135.35 108.19 131.46 108.27 127.57 108.34 M 140.61 117.14 C 141.18 117.43 142.31 118.00 142.88 118.29 C 146.14 118.29 149.47 118.56 152.63 117.58 C 152.91 114.56 153.00 111.50 152.41 108.51 C 148.53 108.19 144.60 108.10 140.75 108.75 L 140.55 107.62 C 140.56 110.79 140.52 113.96 140.61 117.14 M 154.57 108.37 C 154.65 111.73 154.69 115.09 154.55 118.45 C 155.03 118.42 156.00 118.35 156.48 118.31 C 156.54 116.94 156.62 115.57 156.71 114.21 C 159.94 115.04 162.44 117.32 165.32 118.87 C 165.47 118.43 165.78 117.56 165.93 117.12 C 164.74 116.36 163.56 115.58 162.40 114.76 C 163.43 114.63 165.47 114.37 166.49 114.23 C 166.80 112.36 166.78 110.45 166.51 108.57 C 162.54 108.15 158.55 108.27 154.57 108.37 M 168.42 107.63 C 168.29 111.20 168.11 114.77 168.28 118.35 C 168.79 118.34 169.80 118.34 170.31 118.33 C 170.29 116.11 170.27 113.89 170.31 111.67 C 172.43 114.06 174.54 116.47 176.87 118.67 C 177.22 118.37 177.93 117.76 178.28 117.46 C 180.00 115.37 181.78 113.33 183.58 111.30 C 183.56 113.68 183.52 116.06 183.50 118.43 C 184.03 118.44 185.09 118.44 185.63 118.44 C 185.55 114.82 185.59 111.19 185.33 107.57 C 181.90 109.72 179.55 113.09 176.87 116.04 C 175.13 114.12 173.41 112.18 171.77 110.19 C 170.65 109.34 169.53 108.48 168.42 107.63 M 187.34 108.39 C 187.35 111.43 187.35 114.47 187.51 117.51 C 190.95 118.56 194.55 118.31 198.10 118.25 C 198.43 117.81 199.11 116.94 199.45 116.51 C 199.59 113.79 199.60 111.08 199.64 108.37 C 199.08 108.37 197.95 108.38 197.39 108.38 C 197.41 110.98 197.41 113.57 197.39 116.16 C 194.88 116.19 192.36 116.30 189.86 116.11 C 188.88 113.65 189.53 110.91 189.39 108.34 C 188.88 108.35 187.86 108.37 187.34 108.39 M 212.79 108.62 C 210.16 110.35 211.80 114.14 211.38 116.73 C 208.75 116.22 206.06 116.22 203.39 116.26 C 203.40 113.60 203.41 110.95 203.41 108.30 L 201.22 108.30 C 201.27 111.66 201.27 115.01 201.34 118.37 C 204.79 118.19 208.48 118.84 211.62 116.99 L 211.68 118.61 C 212.11 118.60 212.98 118.57 213.42 118.56 C 213.41 117.73 213.41 116.06 213.41 115.22 C 216.15 115.26 218.90 115.26 221.64 115.26 C 221.65 119.07 221.43 122.88 221.44 126.70 C 218.77 126.75 216.10 126.74 213.44 126.69 C 212.88 123.97 214.95 119.67 211.45 118.52 C 211.24 121.82 211.24 125.13 211.56 128.43 C 215.46 128.89 219.44 129.06 223.32 128.34 C 223.41 121.82 224.00 115.24 223.22 108.75 C 219.79 108.18 216.21 107.85 212.79 108.62 M 258.50 108.56 C 257.93 111.32 257.74 114.13 257.76 116.95 C 258.62 120.70 257.38 124.61 258.39 128.38 C 262.09 128.88 265.83 128.88 269.54 128.56 C 270.64 125.42 270.39 122.04 269.90 118.81 C 270.31 116.12 270.28 113.40 270.35 110.69 C 270.07 110.13 269.50 108.99 269.22 108.43 C 265.65 108.25 262.06 108.20 258.50 108.56 M 225.40 128.79 C 229.45 128.81 233.50 128.79 237.56 128.81 C 237.51 128.27 237.42 127.21 237.37 126.67 C 234.02 126.79 230.67 126.76 227.33 126.71 C 227.34 126.07 227.37 124.80 227.39 124.16 C 230.29 124.16 233.19 124.21 236.10 124.17 C 235.18 120.40 230.31 122.87 227.54 122.27 C 227.51 121.88 227.45 121.08 227.42 120.68 C 230.78 120.75 234.15 120.74 237.51 120.82 L 237.38 118.74 C 233.40 118.82 229.42 118.79 225.44 118.73 C 225.34 122.08 225.30 125.44 225.40 128.79 Z" />
<path fill="#010101" opacity="1.00" d=" M 237.62 108.54 C 238.87 108.11 240.14 107.69 241.42 107.32 C 242.97 108.75 244.55 110.29 244.84 112.52 C 241.98 112.91 239.10 112.88 236.25 112.60 C 236.69 111.24 237.14 109.88 237.62 108.54 Z" />
<path fill="#010101" opacity="1.00" d=" M 156.45 110.28 C 159.22 110.22 161.98 110.21 164.75 110.33 C 164.74 110.94 164.71 112.16 164.70 112.78 C 161.97 112.77 159.23 112.76 156.50 112.70 C 156.49 112.10 156.47 110.89 156.45 110.28 Z" />
<path fill="#010101" opacity="1.00" d=" M 213.47 110.36 C 216.14 110.27 218.81 110.30 221.48 110.44 C 221.51 111.36 221.55 112.29 221.59 113.22 C 218.86 113.12 216.13 113.12 213.40 113.19 C 213.42 112.24 213.44 111.30 213.47 110.36 Z" />
<path fill="#010101" opacity="1.00" d=" M 260.25 110.24 C 262.88 110.24 265.52 110.28 268.16 110.43 C 268.04 115.78 268.81 121.30 267.75 126.54 C 265.27 126.75 262.78 126.65 260.29 126.66 C 260.23 124.05 260.25 121.43 259.72 118.86 C 260.07 116.00 260.25 113.12 260.25 110.24 Z" />
<path fill="#010101" opacity="1.00" d=" M 142.71 110.33 C 145.38 110.26 148.05 110.27 150.72 110.32 C 150.75 112.30 150.75 114.28 150.70 116.27 C 148.01 116.28 145.31 116.29 142.65 115.89 C 142.65 114.04 142.67 112.18 142.71 110.33 Z" />
</g>
</svg>
