<?xml version="1.0" encoding="UTF-8" ?>
<!DOCTYPE svg PUBLIC "-//W3C//DTD SVG 1.1//EN" "http://www.w3.org/Graphics/SVG/1.1/DTD/svg11.dtd">
<svg width="400pt" height="225pt" viewBox="0 0 400 225" version="1.1" xmlns="http://www.w3.org/2000/svg">
<g id="#ffffffff">
<path fill="#ffffff" opacity="1.00" d=" M 0.00 0.00 L 400.00 0.00 L 400.00 225.00 L 0.00 225.00 L 0.00 0.00 M 259.69 71.43 C 259.75 74.42 259.77 77.41 259.85 80.40 C 259.68 80.53 259.34 80.80 259.17 80.94 L 259.22 81.13 C 258.39 81.48 256.75 82.18 255.93 82.52 C 256.72 81.19 257.56 79.89 258.40 78.59 C 257.56 78.56 255.89 78.51 255.05 78.49 C 254.56 79.61 254.03 80.71 253.46 81.79 C 251.97 82.71 251.86 80.24 251.09 79.49 C 250.12 80.49 249.22 81.54 248.36 82.63 C 248.17 80.96 247.93 79.30 247.66 77.65 C 244.57 78.99 246.78 82.02 247.61 84.13 C 251.44 82.20 255.80 84.84 259.54 82.68 C 259.67 83.33 259.94 84.64 260.07 85.30 C 255.39 85.41 250.72 85.38 246.05 85.40 C 246.11 88.36 246.12 91.32 246.18 94.28 C 250.85 94.23 255.53 94.24 260.20 94.28 C 259.46 98.91 259.79 103.60 259.79 108.26 C 261.75 108.20 263.70 108.12 265.66 108.04 L 266.17 108.40 C 266.71 108.34 267.77 108.20 268.31 108.14 C 268.34 103.50 268.32 98.87 268.29 94.23 C 272.92 94.25 277.55 94.23 282.18 94.24 C 282.13 91.30 282.13 88.35 282.15 85.41 C 277.54 85.38 272.94 85.38 268.34 85.42 C 268.33 80.77 268.28 76.12 268.40 71.48 C 265.49 71.45 262.59 71.44 259.69 71.43 M 124.43 99.06 C 124.35 110.26 124.40 121.47 124.44 132.67 C 127.42 132.70 130.41 132.70 133.39 132.67 C 133.32 129.36 133.32 126.04 133.41 122.73 C 137.38 122.80 141.90 123.06 145.00 120.08 C 150.12 116.28 151.30 108.00 146.65 103.38 C 141.11 97.11 131.83 99.05 124.43 99.06 M 153.37 99.24 C 153.38 110.39 153.42 121.53 153.44 132.68 C 156.46 132.66 159.47 132.61 162.48 132.53 C 162.28 127.88 162.22 123.22 162.52 118.57 C 165.51 123.17 167.79 128.27 171.34 132.47 C 174.61 132.98 177.93 132.66 181.21 132.59 C 178.90 127.87 175.35 123.91 173.12 119.15 C 180.61 115.64 180.05 103.41 172.42 100.47 C 166.38 98.16 159.69 99.59 153.37 99.24 M 199.65 98.79 C 199.50 110.05 199.75 121.32 199.53 132.59 C 206.33 132.33 213.57 133.86 219.98 130.92 C 231.90 125.98 231.70 106.01 219.95 100.94 C 213.60 98.06 206.42 98.92 199.65 98.79 M 233.17 132.84 C 240.38 132.78 247.60 132.82 254.82 132.79 C 254.80 129.92 254.76 127.05 254.72 124.18 C 250.57 124.23 246.42 124.26 242.27 124.24 C 242.25 122.73 242.23 121.22 242.21 119.72 C 245.66 119.70 249.11 119.70 252.56 119.62 C 252.52 117.02 252.48 114.42 252.40 111.82 C 248.94 111.81 245.47 111.83 242.01 111.78 C 242.12 110.37 242.21 108.97 242.42 107.57 C 246.46 107.62 250.51 107.62 254.56 107.69 C 254.76 105.01 255.28 102.35 255.18 99.66 C 254.91 99.49 254.37 99.14 254.09 98.97 C 247.18 98.44 240.22 99.09 233.29 98.65 C 232.61 110.02 233.23 121.44 233.17 132.84 M 185.39 99.31 C 185.36 110.39 185.18 121.47 185.40 132.54 C 188.09 132.57 190.78 132.59 193.47 132.59 C 193.67 121.53 193.63 110.47 193.50 99.41 C 190.80 99.36 188.09 99.32 185.39 99.31 Z" />
</g>
<g id="#8c2a76ff">
<path fill="#8c2a76" opacity="1.00" d=" M 259.69 71.43 C 262.59 71.44 265.49 71.45 268.40 71.48 C 268.28 76.12 268.33 80.77 268.34 85.42 C 272.94 85.38 277.54 85.38 282.15 85.41 C 282.13 88.35 282.13 91.30 282.18 94.24 C 277.55 94.23 272.92 94.25 268.29 94.23 C 268.32 98.87 268.34 103.50 268.31 108.14 C 267.77 108.20 266.71 108.34 266.17 108.40 C 266.91 103.15 267.31 97.86 267.45 92.56 C 271.51 92.33 275.63 92.40 279.63 91.54 C 280.00 90.07 280.14 88.56 280.33 87.06 C 276.19 87.13 272.01 87.61 267.89 87.04 C 266.41 82.48 267.19 77.57 266.96 72.86 C 265.31 73.17 263.60 73.27 262.05 73.93 C 261.57 75.75 261.38 77.62 261.00 79.46 C 260.72 79.70 260.14 80.17 259.85 80.40 C 259.77 77.41 259.75 74.42 259.69 71.43 Z" />
</g>
<g id="#a5268cff">
<path fill="#a5268c" opacity="1.00" d=" M 262.05 73.93 C 263.60 73.27 265.31 73.17 266.96 72.86 C 267.19 77.57 266.41 82.48 267.89 87.04 C 272.01 87.61 276.19 87.13 280.33 87.06 C 280.14 88.56 280.00 90.07 279.63 91.54 C 275.63 92.40 271.51 92.33 267.45 92.56 C 267.31 97.86 266.91 103.15 266.17 108.40 L 265.66 108.04 C 264.25 107.05 262.85 106.04 261.46 105.02 C 261.42 101.41 260.99 97.81 260.20 94.28 C 255.53 94.24 250.85 94.23 246.18 94.28 C 246.12 91.32 246.11 88.36 246.05 85.40 C 250.72 85.38 255.39 85.41 260.07 85.30 C 259.94 84.64 259.67 83.33 259.54 82.68 C 259.46 82.29 259.30 81.52 259.22 81.13 L 259.17 80.94 C 259.34 80.80 259.68 80.53 259.85 80.40 C 260.14 80.17 260.72 79.70 261.00 79.46 C 261.38 77.62 261.57 75.75 262.05 73.93 Z" />
</g>
<g id="#916a86ff">
<path fill="#916a86" opacity="1.00" d=" M 247.61 84.13 C 246.78 82.02 244.57 78.99 247.66 77.65 C 247.93 79.30 248.17 80.96 248.36 82.63 C 249.22 81.54 250.12 80.49 251.09 79.49 C 251.86 80.24 251.97 82.71 253.46 81.79 C 254.03 80.71 254.56 79.61 255.05 78.49 C 255.89 78.51 257.56 78.56 258.40 78.59 C 257.56 79.89 256.72 81.19 255.93 82.52 C 256.75 82.18 258.39 81.48 259.22 81.13 C 259.30 81.52 259.46 82.29 259.54 82.68 C 255.80 84.84 251.44 82.20 247.61 84.13 Z" />
</g>
<g id="#942e7aff">
<path fill="#942e7a" opacity="1.00" d=" M 260.20 94.28 C 260.99 97.81 261.42 101.41 261.46 105.02 C 262.85 106.04 264.25 107.05 265.66 108.04 C 263.70 108.12 261.75 108.20 259.79 108.26 C 259.79 103.60 259.46 98.91 260.20 94.28 Z" />
</g>
<g id="#f94651ff">
<path fill="#f94651" opacity="1.00" d=" M 124.43 99.06 C 131.83 99.05 141.11 97.11 146.65 103.38 C 151.30 108.00 150.12 116.28 145.00 120.08 C 141.90 123.06 137.38 122.80 133.41 122.73 C 133.32 126.04 133.32 129.36 133.39 132.67 C 130.41 132.70 127.42 132.70 124.44 132.67 C 124.40 121.47 124.35 110.26 124.43 99.06 M 133.28 107.47 C 133.28 109.82 133.29 112.18 133.30 114.54 C 135.23 114.50 137.16 114.46 139.09 114.42 C 139.67 113.62 140.27 112.82 140.86 112.03 C 140.81 111.42 140.70 110.21 140.64 109.61 C 140.24 109.10 139.44 108.08 139.03 107.57 C 137.11 107.54 135.19 107.49 133.28 107.47 Z" />
</g>
<g id="#fa9323ff">
<path fill="#fa9323" opacity="1.00" d=" M 153.37 99.24 C 159.69 99.59 166.38 98.16 172.42 100.47 C 180.05 103.41 180.61 115.64 173.12 119.15 C 175.35 123.91 178.90 127.87 181.21 132.59 C 177.93 132.66 174.61 132.98 171.34 132.47 C 167.79 128.27 165.51 123.17 162.52 118.57 C 162.22 123.22 162.28 127.88 162.48 132.53 C 159.47 132.61 156.46 132.66 153.44 132.68 C 153.42 121.53 153.38 110.39 153.37 99.24 M 162.35 107.25 C 162.32 109.29 162.30 111.35 162.27 113.40 C 162.96 113.64 164.33 114.12 165.01 114.36 C 166.10 114.00 167.20 113.63 168.29 113.28 C 168.72 112.13 169.14 110.98 169.57 109.83 C 169.19 109.28 168.43 108.17 168.05 107.62 C 166.14 107.49 164.25 107.37 162.35 107.25 Z" />
</g>
<g id="#6bc969ff">
<path fill="#6bc969" opacity="1.00" d=" M 199.65 98.79 C 206.42 98.92 213.60 98.06 219.95 100.94 C 231.70 106.01 231.90 125.98 219.98 130.92 C 213.57 133.86 206.33 132.33 199.53 132.59 C 199.75 121.32 199.50 110.05 199.65 98.79 M 208.21 107.36 C 208.23 113.12 208.21 118.88 208.31 124.65 C 212.40 124.65 217.00 123.71 219.12 119.78 C 220.05 116.48 220.19 112.19 217.20 109.87 C 214.90 107.33 211.34 107.45 208.21 107.36 Z" />
</g>
<g id="#329dc0ff">
<path fill="#329dc0" opacity="1.00" d=" M 233.17 132.84 C 233.23 121.44 232.61 110.02 233.29 98.65 C 240.22 99.09 247.18 98.44 254.09 98.97 C 254.37 99.14 254.91 99.49 255.18 99.66 C 255.28 102.35 254.76 105.01 254.56 107.69 C 250.51 107.62 246.46 107.62 242.42 107.57 L 242.56 106.71 C 246.22 106.34 249.89 106.15 253.55 105.80 C 253.66 103.91 253.78 102.01 253.90 100.11 C 247.47 100.03 241.05 100.24 234.63 100.62 C 234.34 110.85 234.16 121.09 234.68 131.32 C 240.93 131.67 247.19 131.77 253.45 131.53 C 253.45 129.49 253.45 127.44 253.45 125.40 C 249.72 125.53 246.00 125.79 242.30 126.23 C 242.29 125.73 242.28 124.74 242.27 124.24 C 246.42 124.26 250.57 124.23 254.72 124.18 C 254.76 127.05 254.80 129.92 254.82 132.79 C 247.60 132.82 240.38 132.78 233.17 132.84 Z" />
</g>
<g id="#fdf010ff">
<path fill="#fdf010" opacity="1.00" d=" M 185.39 99.31 C 188.09 99.32 190.80 99.36 193.50 99.41 C 193.63 110.47 193.67 121.53 193.47 132.59 C 190.78 132.59 188.09 132.57 185.40 132.54 C 185.18 121.47 185.36 110.39 185.39 99.31 Z" />
</g>
<g id="#049ed5ff">
<path fill="#049ed5" opacity="1.00" d=" M 234.63 100.62 C 241.05 100.24 247.47 100.03 253.90 100.11 C 253.78 102.01 253.66 103.91 253.55 105.80 C 249.89 106.15 246.22 106.34 242.56 106.71 L 242.42 107.57 C 242.21 108.97 242.12 110.37 242.01 111.78 C 245.47 111.83 248.94 111.81 252.40 111.82 C 252.48 114.42 252.52 117.02 252.56 119.62 C 249.11 119.70 245.66 119.70 242.21 119.72 C 242.23 121.22 242.25 122.73 242.27 124.24 C 242.28 124.74 242.29 125.73 242.30 126.23 C 246.00 125.79 249.72 125.53 253.45 125.40 C 253.45 127.44 253.45 129.49 253.45 131.53 C 247.19 131.77 240.93 131.67 234.68 131.32 C 234.16 121.09 234.34 110.85 234.63 100.62 Z" />
</g>
<g id="#fcfcf6ff">
<path fill="#fcfcf6" opacity="1.00" d=" M 162.35 107.25 C 164.25 107.37 166.14 107.49 168.05 107.62 C 168.43 108.17 169.19 109.28 169.57 109.83 C 169.14 110.98 168.72 112.13 168.29 113.28 C 167.20 113.63 166.10 114.00 165.01 114.36 C 164.33 114.12 162.96 113.64 162.27 113.40 C 162.30 111.35 162.32 109.29 162.35 107.25 Z" />
</g>
<g id="#effffcff">
<path fill="#effffc" opacity="1.00" d=" M 133.28 107.47 C 135.19 107.49 137.11 107.54 139.03 107.57 C 139.44 108.08 140.24 109.10 140.64 109.61 C 140.70 110.21 140.81 111.42 140.86 112.03 C 140.27 112.82 139.67 113.62 139.09 114.42 C 137.16 114.46 135.23 114.50 133.30 114.54 C 133.29 112.18 133.28 109.82 133.28 107.47 Z" />
</g>
<g id="#fcfdfcff">
<path fill="#fcfdfc" opacity="1.00" d=" M 208.21 107.36 C 211.34 107.45 214.90 107.33 217.20 109.87 C 220.19 112.19 220.05 116.48 219.12 119.78 C 217.00 123.71 212.40 124.65 208.31 124.65 C 208.21 118.88 208.23 113.12 208.21 107.36 Z" />
</g>
</svg>
