<?xml version="1.0" encoding="UTF-8" ?>
<!DOCTYPE svg PUBLIC "-//W3C//DTD SVG 1.1//EN" "http://www.w3.org/Graphics/SVG/1.1/DTD/svg11.dtd">
<svg width="400pt" height="225pt" viewBox="0 0 400 225" version="1.1" xmlns="http://www.w3.org/2000/svg">
<g id="#ffffffff">
<path fill="#ffffff" opacity="1.00" d=" M 232.19 131.97 C 232.59 131.84 233.37 131.58 233.76 131.45 C 233.92 131.75 234.25 132.34 234.41 132.63 C 233.98 132.76 233.12 133.01 232.69 133.14 C 232.57 132.84 232.32 132.26 232.19 131.97 Z" />
</g>
<g id="#0c425aff">
<path fill="#0c425a" opacity="1.00" d=" M 185.03 49.87 C 188.62 48.97 192.71 48.01 196.22 49.62 C 192.62 49.98 188.89 50.12 185.53 51.58 C 185.53 52.45 185.55 54.20 185.55 55.08 C 185.37 56.01 185.17 56.94 184.96 57.86 C 185.91 57.84 187.80 57.80 188.75 57.78 C 182.62 60.91 178.82 67.17 177.91 73.89 C 178.76 73.70 180.48 73.32 181.33 73.14 C 179.65 74.64 177.14 75.70 176.64 78.13 C 175.62 82.73 175.08 87.44 174.45 92.11 C 173.99 92.33 173.08 92.76 172.62 92.97 C 172.94 90.07 172.77 87.15 172.61 84.25 C 167.43 83.42 161.89 87.53 161.66 92.87 C 161.54 94.24 161.50 95.61 161.44 96.98 L 160.23 97.17 C 157.70 97.33 155.16 97.32 152.64 97.49 C 152.30 98.04 151.64 99.14 151.31 99.69 C 151.01 99.78 150.42 99.94 150.13 100.03 C 150.36 98.17 150.57 96.32 150.72 94.45 C 153.10 95.01 155.56 95.82 158.01 95.20 C 160.40 93.08 159.76 89.22 161.98 86.95 C 163.71 85.12 165.92 83.87 168.03 82.55 C 167.53 80.39 166.36 78.52 165.07 76.76 C 163.74 76.69 162.41 76.62 161.08 76.56 C 162.72 75.32 164.25 73.90 165.20 72.04 C 166.63 76.28 168.88 81.21 173.19 83.09 C 174.96 76.14 176.84 69.20 179.75 62.62 C 177.78 62.22 175.74 62.10 173.83 62.82 C 170.60 63.94 167.08 63.70 163.86 64.81 C 160.28 66.00 158.23 69.55 154.66 70.79 C 151.37 72.09 148.83 74.76 147.80 78.16 C 150.16 77.74 151.52 75.64 153.31 74.27 C 156.70 71.62 160.19 68.74 164.50 67.82 C 167.93 67.11 171.42 66.73 174.86 66.09 C 173.93 67.22 173.00 68.34 172.07 69.47 C 169.07 69.07 165.92 68.93 163.05 70.05 C 158.88 71.64 155.62 74.80 152.13 77.45 C 151.88 79.92 153.28 82.24 155.94 82.36 C 158.73 83.01 159.12 79.51 160.49 77.86 C 160.71 81.67 158.93 85.08 157.10 88.27 C 156.95 86.93 156.80 85.59 156.66 84.25 C 154.02 83.05 151.67 81.26 148.97 80.21 C 144.29 79.39 139.04 84.29 141.20 89.06 C 142.25 88.86 144.35 88.48 145.40 88.28 C 145.36 86.54 145.33 84.81 145.27 83.07 C 146.63 85.67 148.49 87.97 150.85 89.72 C 148.80 89.62 146.00 88.33 144.52 90.37 C 144.07 92.19 144.04 94.07 143.87 95.92 C 142.85 95.23 141.82 94.54 140.80 93.86 C 140.09 96.75 140.51 99.68 142.99 101.61 C 140.44 102.38 137.99 103.43 135.50 104.37 C 136.75 102.84 137.99 101.29 139.12 99.67 C 135.83 100.14 133.17 102.18 132.87 105.63 C 132.48 105.76 131.71 106.01 131.33 106.13 C 130.48 101.01 129.07 95.10 132.85 90.74 C 135.56 88.07 134.76 83.91 136.71 80.83 C 138.11 78.72 139.13 76.43 140.04 74.07 C 142.43 69.91 145.87 66.41 149.94 63.91 C 155.74 56.45 165.72 55.46 173.76 51.69 C 177.28 49.97 181.34 50.91 185.03 49.87 M 172.12 55.87 C 176.07 53.78 180.28 52.16 184.85 52.85 L 184.90 52.00 C 180.63 52.01 173.81 50.60 172.12 55.87 M 171.91 58.18 C 167.03 59.29 162.64 61.79 157.99 63.58 C 153.65 65.55 149.23 68.29 146.88 72.59 C 146.43 74.21 144.51 74.12 143.26 74.65 C 141.54 76.25 141.20 78.54 140.97 80.76 C 141.90 80.34 142.84 79.92 143.78 79.50 C 143.76 79.15 143.72 78.44 143.69 78.08 C 141.33 75.45 147.88 75.01 145.90 77.85 C 147.04 74.70 148.93 71.72 151.95 70.09 C 156.47 67.66 160.61 64.60 164.62 61.41 C 167.31 62.70 170.23 61.71 172.94 61.06 C 175.77 60.31 178.71 60.76 181.59 60.66 C 181.67 60.00 181.82 58.66 181.90 58.00 C 180.94 57.49 179.99 56.99 179.04 56.49 C 180.73 56.50 182.46 56.51 184.03 55.77 C 183.15 55.08 182.27 54.13 181.01 54.36 C 177.42 54.08 175.35 57.86 171.91 58.18 M 161.91 58.33 C 158.07 59.13 154.45 61.60 152.01 64.63 C 154.47 62.27 158.27 61.85 160.12 58.80 C 160.58 58.99 161.51 59.35 161.98 59.54 C 164.54 57.94 167.50 57.04 169.92 55.19 C 167.12 55.85 164.26 56.61 161.91 58.33 M 136.18 89.83 C 137.09 89.59 138.00 89.35 138.92 89.11 C 139.19 86.34 139.37 83.53 138.84 80.77 C 136.74 83.28 136.11 86.64 136.18 89.83 M 136.47 92.63 C 135.11 94.19 134.74 96.32 134.58 98.32 C 138.57 98.94 138.52 94.53 141.09 92.78 C 141.84 92.09 141.97 91.21 141.47 90.14 C 139.78 90.90 137.98 91.52 136.47 92.63 Z" />
<path fill="#0c425a" opacity="1.00" d=" M 169.34 89.17 C 169.38 90.76 169.43 92.36 169.48 93.97 C 168.40 94.25 167.33 94.58 166.28 94.96 C 167.34 93.06 168.32 91.10 169.34 89.17 Z" />
<path fill="#0c425a" opacity="1.00" d=" M 213.09 107.31 L 214.34 107.87 C 215.85 108.37 217.47 108.31 219.05 108.37 C 217.63 108.50 216.19 108.52 214.76 108.56 C 213.91 109.23 213.08 109.93 212.27 110.63 C 211.95 110.22 211.31 109.40 210.99 108.99 C 211.68 108.43 212.38 107.87 213.09 107.31 Z" />
</g>
<g id="#14000eff">
<path fill="#14000e" opacity="1.00" d=" M 196.41 49.45 C 199.24 49.79 202.10 49.72 204.95 49.88 C 208.62 50.15 211.59 52.54 215.08 53.41 C 217.67 54.02 220.01 55.36 222.58 56.06 C 222.03 56.55 221.48 57.05 220.93 57.54 C 219.48 56.28 217.74 55.42 215.86 55.05 C 217.16 57.40 220.28 57.62 222.45 58.88 C 222.96 58.37 223.47 57.86 223.99 57.35 C 227.94 59.07 232.54 60.23 235.16 63.95 C 237.16 66.81 240.54 68.20 242.78 70.85 C 242.44 70.78 241.76 70.65 241.42 70.59 C 239.59 69.39 237.79 68.12 235.94 66.95 C 236.65 68.21 237.27 69.52 237.83 70.86 C 235.95 70.05 234.30 68.80 232.40 68.04 C 232.12 70.41 232.75 73.42 230.19 74.73 C 230.06 72.90 230.48 70.99 229.90 69.21 C 226.70 68.03 223.25 68.62 220.04 69.39 C 220.51 72.05 221.23 74.65 221.89 77.26 C 220.68 74.66 219.53 72.02 218.36 69.40 C 214.27 68.03 209.35 69.13 206.59 72.53 C 205.35 76.87 203.55 81.12 199.93 84.03 C 198.75 84.39 197.57 84.74 196.38 85.08 C 198.47 81.83 203.45 80.42 203.38 76.00 C 203.18 71.16 198.74 67.84 198.23 63.03 C 198.87 64.14 199.47 65.26 200.08 66.39 C 203.51 64.29 207.23 62.74 210.66 60.66 C 211.62 58.57 209.11 57.33 208.12 55.84 C 210.63 57.42 213.25 59.82 216.34 58.08 C 212.87 53.08 206.13 55.11 201.01 53.94 C 201.19 55.31 201.38 56.67 201.59 58.03 C 195.09 60.16 189.83 66.82 191.86 73.84 C 193.13 75.02 194.67 75.87 196.12 76.82 C 194.43 76.40 192.76 75.89 191.03 75.67 C 186.70 78.54 184.24 83.76 183.58 88.80 C 183.38 88.82 182.97 88.86 182.77 88.87 C 181.97 85.91 181.20 82.95 180.15 80.07 C 180.83 81.32 181.50 82.56 182.18 83.81 C 184.16 81.26 185.74 78.42 187.84 75.96 C 190.20 73.55 189.24 69.92 190.18 66.95 C 191.18 62.57 195.11 59.84 198.72 57.65 C 198.81 56.35 198.89 55.05 198.97 53.76 C 194.51 53.00 189.51 52.33 185.55 55.08 C 185.55 54.20 185.53 52.45 185.53 51.58 C 189.31 52.05 192.82 50.11 196.61 50.58 L 196.41 49.45 M 198.77 51.40 C 202.08 52.71 205.72 52.54 209.21 52.66 C 206.17 50.69 202.22 51.52 198.77 51.40 M 213.14 60.11 L 213.73 61.34 C 217.56 62.35 221.85 63.37 224.44 66.61 C 226.50 67.00 228.58 67.22 230.66 67.38 C 230.59 65.48 229.13 64.14 227.68 63.13 C 223.44 60.32 218.20 57.83 213.14 60.11 M 225.61 60.00 C 228.84 61.65 231.55 63.97 233.62 66.93 C 234.64 62.56 229.15 60.26 225.61 60.00 M 203.31 66.42 C 200.83 68.11 203.32 70.80 204.95 72.01 C 208.35 68.19 214.20 65.75 219.04 68.26 C 220.41 67.79 221.78 67.30 223.15 66.79 C 221.26 65.27 219.14 64.03 216.82 63.30 C 212.16 61.44 207.21 63.93 203.31 66.42 Z" />
<path fill="#14000e" opacity="1.00" d=" M 212.35 75.22 C 214.12 75.72 215.02 78.07 214.05 79.63 L 213.38 79.80 C 212.07 78.66 212.23 76.77 212.35 75.22 Z" />
<path fill="#14000e" opacity="1.00" d=" M 241.90 116.39 C 245.25 116.99 248.25 115.38 250.15 112.68 L 251.58 112.51 C 250.24 114.41 249.01 116.81 246.62 117.54 C 243.68 118.20 240.66 117.56 237.70 117.38 C 238.08 117.12 238.84 116.60 239.22 116.34 C 239.89 116.35 241.23 116.37 241.90 116.39 Z" />
<path fill="#14000e" opacity="1.00" d=" M 176.43 114.31 C 176.91 114.74 177.39 115.18 177.88 115.61 L 176.58 115.15 C 176.21 115.65 175.47 116.65 175.10 117.15 C 174.77 118.46 174.56 119.81 174.25 121.12 C 174.37 119.51 174.41 117.90 174.40 116.28 L 175.06 116.03 C 175.40 115.60 176.09 114.74 176.43 114.31 Z" />
</g>
<g id="#fff8ffff">
<path fill="#fff8ff" opacity="1.00" d=" M 198.77 51.40 C 202.22 51.52 206.17 50.69 209.21 52.66 C 205.72 52.54 202.08 52.71 198.77 51.40 Z" />
<path fill="#fff8ff" opacity="1.00" d=" M 225.61 60.00 C 229.15 60.26 234.64 62.56 233.62 66.93 C 231.55 63.97 228.84 61.65 225.61 60.00 Z" />
<path fill="#fff8ff" opacity="1.00" d=" M 235.91 81.13 C 236.41 78.28 238.18 76.29 240.99 75.56 C 241.63 77.67 242.20 79.79 242.72 81.94 L 241.97 82.02 C 239.59 82.63 237.26 83.39 234.92 84.11 C 235.17 83.37 235.66 81.88 235.91 81.13 Z" />
</g>
<g id="#2d8498ff">
<path fill="#2d8498" opacity="1.00" d=" M 172.12 55.87 C 173.81 50.60 180.63 52.01 184.90 52.00 L 184.85 52.85 C 180.28 52.16 176.07 53.78 172.12 55.87 Z" />
</g>
<g id="#da9acdff">
<path fill="#da9acd" opacity="1.00" d=" M 185.55 55.08 C 189.51 52.33 194.51 53.00 198.97 53.76 C 198.89 55.05 198.81 56.35 198.72 57.65 C 195.11 59.84 191.18 62.57 190.18 66.95 C 189.24 69.92 190.20 73.55 187.84 75.96 C 185.74 78.42 184.16 81.26 182.18 83.81 C 181.50 82.56 180.83 81.32 180.15 80.07 C 181.20 82.95 181.97 85.91 182.77 88.87 C 182.97 88.86 183.38 88.82 183.58 88.80 C 184.24 83.76 186.70 78.54 191.03 75.67 C 192.76 75.89 194.43 76.40 196.12 76.82 C 194.67 75.87 193.13 75.02 191.86 73.84 C 189.83 66.82 195.09 60.16 201.59 58.03 C 201.38 56.67 201.19 55.31 201.01 53.94 C 206.13 55.11 212.87 53.08 216.34 58.08 C 213.25 59.82 210.63 57.42 208.12 55.84 C 209.11 57.33 211.62 58.57 210.66 60.66 C 207.23 62.74 203.51 64.29 200.08 66.39 C 199.47 65.26 198.87 64.14 198.23 63.03 C 198.74 67.84 203.18 71.16 203.38 76.00 C 203.45 80.42 198.47 81.83 196.38 85.08 C 189.28 88.03 181.83 89.99 174.45 92.11 C 175.08 87.44 175.62 82.73 176.64 78.13 C 177.14 75.70 179.65 74.64 181.33 73.14 C 180.48 73.32 178.76 73.70 177.91 73.89 C 178.82 67.17 182.62 60.91 188.75 57.78 C 187.80 57.80 185.91 57.84 184.96 57.86 C 185.17 56.94 185.37 56.01 185.55 55.08 Z" />
<path fill="#da9acd" opacity="1.00" d=" M 209.04 91.63 C 209.53 92.84 210.03 94.04 210.53 95.24 C 210.87 95.51 211.55 96.03 211.89 96.29 C 211.51 96.66 210.75 97.39 210.37 97.76 C 210.95 100.70 209.36 104.94 212.23 106.87 C 212.45 106.98 212.87 107.20 213.09 107.31 C 212.38 107.87 211.68 108.43 210.99 108.99 C 210.69 108.60 210.08 107.83 209.78 107.44 C 209.67 102.17 209.68 96.88 209.04 91.63 Z" />
</g>
<g id="#05b9daff">
<path fill="#05b9da" opacity="1.00" d=" M 171.91 58.18 C 175.35 57.86 177.42 54.08 181.01 54.36 C 182.27 54.13 183.15 55.08 184.03 55.77 C 182.46 56.51 180.73 56.50 179.04 56.49 C 179.99 56.99 180.94 57.49 181.90 58.00 C 181.82 58.66 181.67 60.00 181.59 60.66 C 178.71 60.76 175.77 60.31 172.94 61.06 C 170.23 61.71 167.31 62.70 164.62 61.41 C 160.61 64.60 156.47 67.66 151.95 70.09 C 148.93 71.72 147.04 74.70 145.90 77.85 C 147.88 75.01 141.33 75.45 143.69 78.08 C 143.72 78.44 143.76 79.15 143.78 79.50 C 142.84 79.92 141.90 80.34 140.97 80.76 C 141.20 78.54 141.54 76.25 143.26 74.65 C 144.51 74.12 146.43 74.21 146.88 72.59 C 149.23 68.29 153.65 65.55 157.99 63.58 C 162.64 61.79 167.03 59.29 171.91 58.18 Z" />
</g>
<g id="#46f1f1ff">
<path fill="#46f1f1" opacity="1.00" d=" M 161.91 58.33 C 164.26 56.61 167.12 55.85 169.92 55.19 C 167.50 57.04 164.54 57.94 161.98 59.54 C 161.51 59.35 160.58 58.99 160.12 58.80 C 158.27 61.85 154.47 62.27 152.01 64.63 C 154.45 61.60 158.07 59.13 161.91 58.33 Z" />
<path fill="#46f1f1" opacity="1.00" d=" M 155.32 109.28 C 157.31 108.24 159.40 107.30 161.72 107.44 C 161.65 107.97 161.52 109.02 161.46 109.54 C 159.38 111.71 157.50 114.24 154.84 115.74 C 155.07 113.62 155.33 111.49 155.32 109.36 L 155.32 109.28 Z" />
</g>
<g id="#d9a1ceff">
<path fill="#d9a1ce" opacity="1.00" d=" M 213.14 60.11 C 218.20 57.83 223.44 60.32 227.68 63.13 C 229.13 64.14 230.59 65.48 230.66 67.38 C 228.58 67.22 226.50 67.00 224.44 66.61 C 221.85 63.37 217.56 62.35 213.73 61.34 L 213.14 60.11 Z" />
</g>
<g id="#03b7e3ff">
<path fill="#03b7e3" opacity="1.00" d=" M 173.83 62.82 C 175.74 62.10 177.78 62.22 179.75 62.62 C 176.84 69.20 174.96 76.14 173.19 83.09 C 168.88 81.21 166.63 76.28 165.20 72.04 C 164.25 73.90 162.72 75.32 161.08 76.56 C 162.41 76.62 163.74 76.69 165.07 76.76 C 166.36 78.52 167.53 80.39 168.03 82.55 C 165.92 83.87 163.71 85.12 161.98 86.95 C 159.76 89.22 160.40 93.08 158.01 95.20 C 155.56 95.82 153.10 95.01 150.72 94.45 C 150.57 96.32 150.36 98.17 150.13 100.03 C 146.05 101.38 141.88 102.57 138.10 104.67 C 136.37 105.06 134.62 105.35 132.87 105.63 C 133.17 102.18 135.83 100.14 139.12 99.67 C 137.99 101.29 136.75 102.84 135.50 104.37 C 137.99 103.43 140.44 102.38 142.99 101.61 C 140.51 99.68 140.09 96.75 140.80 93.86 C 141.82 94.54 142.85 95.23 143.87 95.92 C 144.04 94.07 144.07 92.19 144.52 90.37 C 146.00 88.33 148.80 89.62 150.85 89.72 C 148.49 87.97 146.63 85.67 145.27 83.07 C 145.33 84.81 145.36 86.54 145.40 88.28 C 144.35 88.48 142.25 88.86 141.20 89.06 C 139.04 84.29 144.29 79.39 148.97 80.21 C 151.67 81.26 154.02 83.05 156.66 84.25 C 156.80 85.59 156.95 86.93 157.10 88.27 C 158.93 85.08 160.71 81.67 160.49 77.86 C 159.12 79.51 158.73 83.01 155.94 82.36 C 153.28 82.24 151.88 79.92 152.13 77.45 C 155.62 74.80 158.88 71.64 163.05 70.05 C 165.92 68.93 169.07 69.07 172.07 69.47 C 173.00 68.34 173.93 67.22 174.86 66.09 C 171.42 66.73 167.93 67.11 164.50 67.82 C 160.19 68.74 156.70 71.62 153.31 74.27 C 151.52 75.64 150.16 77.74 147.80 78.16 C 148.83 74.76 151.37 72.09 154.66 70.79 C 158.23 69.55 160.28 66.00 163.86 64.81 C 167.08 63.70 170.60 63.94 173.83 62.82 Z" />
</g>
<g id="#d8a0ceff">
<path fill="#d8a0ce" opacity="1.00" d=" M 203.31 66.42 C 207.21 63.93 212.16 61.44 216.82 63.30 C 219.14 64.03 221.26 65.27 223.15 66.79 C 221.78 67.30 220.41 67.79 219.04 68.26 C 214.20 65.75 208.35 68.19 204.95 72.01 C 203.32 70.80 200.83 68.11 203.31 66.42 Z" />
</g>
<g id="#000000ff">
<path fill="#000000" opacity="1.00" d=" M 245.20 73.29 C 252.75 71.00 260.37 68.96 267.97 66.84 C 269.45 66.35 270.86 67.25 272.25 67.63 C 272.40 69.25 272.41 71.17 274.22 71.87 C 275.64 72.58 273.53 74.17 273.41 75.10 C 275.31 75.72 274.55 77.33 274.18 78.71 C 274.72 78.66 275.80 78.55 276.34 78.50 C 275.27 81.57 278.14 83.79 277.82 86.73 C 278.24 86.66 279.07 86.52 279.48 86.45 C 279.55 87.01 279.69 88.14 279.76 88.70 C 279.37 88.38 278.60 87.76 278.22 87.44 C 275.49 87.96 272.41 87.81 270.12 89.58 C 272.13 89.60 274.15 89.59 276.17 89.43 C 276.51 89.83 277.20 90.62 277.55 91.02 C 279.30 91.80 281.00 92.71 282.64 93.73 C 280.44 94.67 281.65 95.78 282.82 96.81 C 275.09 100.71 266.37 102.03 258.55 105.63 C 256.69 102.88 258.25 99.55 258.26 96.53 C 257.78 92.94 255.62 89.94 253.84 86.89 C 252.77 84.76 251.76 82.56 250.22 80.73 C 248.32 78.40 246.03 76.27 245.20 73.29 Z" />
<path fill="#000000" opacity="1.00" d=" M 110.15 118.00 C 116.74 115.43 123.37 112.95 130.05 110.62 C 130.86 110.56 132.47 110.44 133.27 110.38 C 132.45 116.53 133.82 123.28 138.99 127.22 C 141.74 127.95 144.59 128.22 147.39 128.71 C 147.40 129.84 147.45 130.97 147.53 132.10 C 149.15 131.36 150.80 130.63 152.29 129.64 C 152.56 129.45 153.10 129.09 153.37 128.90 C 155.92 128.36 158.42 127.63 160.86 126.72 C 161.40 129.69 163.14 132.22 165.84 133.63 C 165.33 134.00 164.31 134.73 163.81 135.10 C 150.51 139.13 137.34 143.60 124.03 147.60 C 122.04 148.31 119.71 148.21 118.01 149.61 C 118.65 148.73 119.28 147.83 119.90 146.92 C 117.50 143.27 113.32 142.30 109.42 141.08 C 110.00 139.38 111.43 138.24 112.69 137.05 C 112.49 135.10 111.23 133.60 110.26 132.00 C 111.03 129.51 117.16 130.11 115.48 126.50 C 114.74 126.48 113.27 126.44 112.53 126.43 C 111.96 123.30 114.37 120.94 115.81 118.47 C 113.95 118.14 111.93 118.74 110.15 118.00 Z" />
<path fill="#000000" opacity="1.00" d=" M 215.35 134.52 C 215.39 134.46 215.47 134.34 215.51 134.28 L 215.35 134.52 Z" />
</g>
<g id="#d99ccbff">
<path fill="#d99ccb" opacity="1.00" d=" M 232.40 68.04 C 234.30 68.80 235.95 70.05 237.83 70.86 C 237.27 69.52 236.65 68.21 235.94 66.95 C 237.79 68.12 239.59 69.39 241.42 70.59 C 234.98 73.92 227.66 75.01 221.01 77.85 C 218.69 78.44 216.37 79.02 214.05 79.63 C 215.02 78.07 214.12 75.72 212.35 75.22 C 212.23 76.77 212.07 78.66 213.38 79.80 C 208.79 80.89 204.51 82.93 199.93 84.03 C 203.55 81.12 205.35 76.87 206.59 72.53 C 209.35 69.13 214.27 68.03 218.36 69.40 C 219.53 72.02 220.68 74.66 221.89 77.26 C 221.23 74.65 220.51 72.05 220.04 69.39 C 223.25 68.62 226.70 68.03 229.90 69.21 C 230.48 70.99 230.06 72.90 230.19 74.73 C 232.75 73.42 232.12 70.41 232.40 68.04 Z" />
</g>
<g id="#a49d96ff">
<path fill="#a49d96" opacity="1.00" d=" M 243.71 73.80 C 244.08 73.67 244.83 73.42 245.20 73.29 C 246.03 76.27 248.32 78.40 250.22 80.73 C 248.42 79.63 246.40 79.02 244.36 78.59 C 246.88 81.73 248.86 85.45 252.05 87.96 C 252.50 87.69 253.39 87.16 253.84 86.89 C 255.62 89.94 257.78 92.94 258.26 96.53 C 258.25 99.55 256.69 102.88 258.55 105.63 C 257.74 105.70 256.93 105.75 256.12 105.78 C 256.04 105.30 255.90 104.35 255.82 103.87 C 255.28 104.54 254.75 105.22 254.22 105.90 C 254.20 104.27 254.17 102.65 254.14 101.03 C 254.84 101.79 255.56 102.55 256.28 103.31 C 256.05 101.79 256.06 100.16 255.13 98.85 C 253.29 96.03 252.45 92.73 251.46 89.55 C 251.00 89.44 250.08 89.22 249.62 89.12 C 248.79 91.38 247.60 93.47 246.27 95.46 C 246.20 95.09 246.08 94.35 246.01 93.99 C 246.25 93.53 246.73 92.62 246.97 92.17 C 248.58 89.73 248.69 86.62 247.05 84.16 C 246.27 83.13 245.30 82.23 243.95 82.13 C 243.64 82.08 243.03 81.98 242.72 81.94 C 242.20 79.79 241.63 77.67 240.99 75.56 L 240.62 74.27 C 242.27 75.34 243.22 77.22 245.02 78.11 C 245.02 76.56 244.39 75.15 243.71 73.80 M 253.52 89.38 C 253.91 91.99 254.50 94.56 255.12 97.12 C 255.64 97.30 256.69 97.67 257.21 97.86 C 256.71 94.90 256.36 90.97 253.52 89.38 Z" />
</g>
<g id="#f9f7faff">
<path fill="#f9f7fa" opacity="1.00" d=" M 231.08 78.47 C 231.79 77.22 233.09 76.51 234.15 75.60 C 235.00 76.76 235.68 78.08 235.77 79.55 C 235.31 81.24 234.80 82.92 234.29 84.60 L 233.01 85.10 C 232.41 85.32 231.19 85.77 230.58 86.00 C 230.63 87.60 230.62 89.27 231.39 90.73 C 230.74 91.02 229.42 91.61 228.77 91.90 C 228.63 90.10 228.50 88.31 228.39 86.51 C 227.60 86.78 226.02 87.30 225.22 87.57 C 224.67 85.97 224.82 83.78 223.10 82.87 C 220.28 80.72 216.40 82.01 213.62 83.57 C 212.66 87.47 213.21 91.92 210.53 95.24 C 210.03 94.04 209.53 92.84 209.04 91.63 C 207.71 91.32 206.62 91.74 205.76 92.88 C 205.34 93.26 204.50 94.02 204.08 94.41 C 201.53 92.65 201.02 89.50 199.09 87.28 C 199.08 89.28 199.14 91.28 199.18 93.29 C 196.27 92.54 194.15 94.57 192.48 96.63 C 192.70 100.51 189.74 103.91 190.76 107.81 C 191.37 110.39 191.56 113.35 193.42 115.40 C 195.56 116.87 198.10 115.83 200.34 115.24 C 200.66 114.87 201.31 114.14 201.63 113.78 C 201.60 114.35 201.55 115.49 201.52 116.07 C 198.30 117.58 194.57 117.87 191.30 116.34 C 190.65 117.53 190.01 118.73 189.28 119.88 C 189.35 118.17 189.42 116.47 189.49 114.76 C 189.69 114.31 190.10 113.41 190.31 112.96 C 190.02 112.44 189.45 111.40 189.17 110.88 C 189.84 108.38 189.59 105.86 188.17 103.67 C 187.75 101.61 188.12 99.55 188.53 97.53 C 187.59 97.54 186.65 97.58 185.71 97.64 C 185.06 98.43 184.42 99.24 183.80 100.06 C 182.71 99.74 181.63 99.42 180.54 99.10 C 180.30 101.14 181.74 103.03 183.81 103.19 C 183.80 103.98 183.77 105.56 183.75 106.35 C 182.80 108.91 184.06 111.41 184.29 113.97 C 184.35 115.94 183.88 117.87 183.61 119.81 L 184.72 119.88 C 183.34 121.42 182.10 123.77 179.60 123.16 C 180.56 121.74 181.96 120.76 183.47 120.01 C 182.98 119.51 182.49 119.01 182.01 118.52 C 180.23 120.26 178.28 121.79 176.22 123.18 C 177.07 123.92 177.92 124.67 178.78 125.41 C 180.29 125.03 181.80 124.67 183.31 124.29 C 181.62 125.86 179.39 126.21 177.17 126.23 C 176.10 124.87 175.01 123.53 173.93 122.18 C 174.01 121.91 174.17 121.39 174.25 121.12 C 174.56 119.81 174.77 118.46 175.10 117.15 C 175.47 116.65 176.21 115.65 176.58 115.15 L 177.88 115.61 C 180.55 117.10 184.98 114.06 183.17 110.94 C 182.79 110.72 182.02 110.28 181.64 110.06 C 181.50 107.75 182.47 104.99 180.64 103.13 L 180.02 102.91 C 176.41 102.78 174.75 99.44 174.23 96.30 C 173.97 96.36 173.47 96.48 173.21 96.54 C 172.86 95.74 172.17 94.15 171.82 93.35 C 172.02 93.25 172.42 93.06 172.62 92.97 C 173.08 92.76 173.99 92.33 174.45 92.11 C 181.83 89.99 189.28 88.03 196.38 85.08 C 197.57 84.74 198.75 84.39 199.93 84.03 C 204.51 82.93 208.79 80.89 213.38 79.80 L 214.05 79.63 C 216.37 79.02 218.69 78.44 221.01 77.85 C 220.81 78.93 220.61 80.01 220.41 81.09 C 222.28 80.01 224.17 78.93 226.06 77.86 C 226.38 78.23 227.02 78.98 227.34 79.35 C 228.45 81.71 231.05 81.05 231.08 78.47 M 205.34 85.54 C 206.01 86.96 206.71 88.37 207.40 89.78 C 208.24 89.40 209.08 89.03 209.92 88.66 C 208.56 87.46 207.54 84.89 205.34 85.54 M 183.51 93.13 C 183.43 93.84 183.26 95.25 183.17 95.95 C 183.70 94.42 185.32 93.74 185.59 95.83 C 184.93 94.07 185.58 92.16 187.74 92.43 C 186.28 92.23 184.89 92.76 183.51 93.13 Z" />
</g>
<g id="#d4dfd4ff">
<path fill="#d4dfd4" opacity="1.00" d=" M 227.34 79.35 C 228.14 78.33 229.92 77.68 231.08 78.47 C 231.05 81.05 228.45 81.71 227.34 79.35 Z" />
</g>
<g id="#f0e8caff">
<path fill="#f0e8ca" opacity="1.00" d=" M 244.36 78.59 C 246.40 79.02 248.42 79.63 250.22 80.73 C 251.76 82.56 252.77 84.76 253.84 86.89 C 253.39 87.16 252.50 87.69 252.05 87.96 C 248.86 85.45 246.88 81.73 244.36 78.59 Z" />
</g>
<g id="#0346a8ff">
<path fill="#0346a8" opacity="1.00" d=" M 235.77 79.55 C 235.80 79.94 235.87 80.74 235.91 81.13 C 235.66 81.88 235.17 83.37 234.92 84.11 C 237.26 83.39 239.59 82.63 241.97 82.02 C 243.04 83.86 243.75 85.87 244.26 87.93 C 243.11 89.15 241.92 90.33 240.77 91.55 C 241.60 91.59 243.27 91.67 244.10 91.71 C 244.58 92.28 245.53 93.42 246.01 93.99 C 246.08 94.35 246.20 95.09 246.27 95.46 C 245.96 96.35 245.64 97.23 245.32 98.11 C 242.94 101.31 239.21 102.82 235.91 104.82 C 235.44 105.32 234.98 105.84 234.55 106.38 C 233.61 106.57 231.72 106.97 230.78 107.16 L 230.19 106.85 C 229.30 105.66 228.99 104.32 229.27 102.83 C 230.66 102.26 232.05 101.69 233.45 101.12 C 233.50 99.29 233.13 97.51 232.43 95.83 C 233.46 94.03 234.23 92.10 234.57 90.04 C 233.73 89.82 232.05 89.38 231.20 89.16 C 231.49 87.67 231.56 85.97 233.01 85.10 L 234.29 84.60 C 234.80 82.92 235.31 81.24 235.77 79.55 M 236.88 87.81 C 235.58 89.22 235.89 91.36 235.83 93.13 C 236.40 92.79 237.54 92.11 238.10 91.77 L 237.66 91.66 C 239.22 90.63 240.71 89.48 242.03 88.15 C 243.44 87.27 243.00 84.61 241.08 86.17 C 239.66 86.68 238.19 87.07 236.88 87.81 M 240.20 94.48 C 238.72 95.18 237.20 95.85 235.89 96.86 C 235.35 98.05 235.69 99.43 235.57 100.70 C 237.82 99.78 240.09 98.82 242.17 97.53 C 242.62 97.31 243.53 96.87 243.98 96.65 C 244.06 94.28 242.11 93.89 240.20 94.48 Z" />
</g>
<g id="#259cb4ff">
<path fill="#259cb4" opacity="1.00" d=" M 136.18 89.83 C 136.11 86.64 136.74 83.28 138.84 80.77 C 139.37 83.53 139.19 86.34 138.92 89.11 C 138.00 89.35 137.09 89.59 136.18 89.83 Z" />
</g>
<g id="#bebfc2ff">
<path fill="#bebfc2" opacity="1.00" d=" M 213.62 83.57 C 216.40 82.01 220.28 80.72 223.10 82.87 C 224.82 83.78 224.67 85.97 225.22 87.57 C 224.15 87.25 223.10 86.96 222.02 86.68 C 221.59 86.56 220.73 86.32 220.31 86.20 C 219.95 86.06 219.25 85.79 218.90 85.65 C 219.88 85.52 221.84 85.24 222.83 85.11 C 220.86 82.76 217.93 83.07 215.36 84.05 C 214.88 86.64 214.31 89.21 213.82 91.79 C 213.60 93.18 213.47 94.58 213.39 95.98 L 211.89 96.29 C 211.55 96.03 210.87 95.51 210.53 95.24 C 213.21 91.92 212.66 87.47 213.62 83.57 Z" />
</g>
<g id="#5d52a4ff">
<path fill="#5d52a4" opacity="1.00" d=" M 242.72 81.94 C 243.03 81.98 243.64 82.08 243.95 82.13 C 245.05 83.93 245.31 86.04 244.26 87.93 C 243.75 85.87 243.04 83.86 241.97 82.02 L 242.72 81.94 Z" />
</g>
<g id="#f5e3f3ff">
<path fill="#f5e3f3" opacity="1.00" d=" M 243.95 82.13 C 245.30 82.23 246.27 83.13 247.05 84.16 C 246.33 86.29 245.74 88.47 245.27 90.68 C 245.70 91.05 246.54 91.80 246.97 92.17 C 246.73 92.62 246.25 93.53 246.01 93.99 C 245.53 93.42 244.58 92.28 244.10 91.71 C 243.27 91.67 241.60 91.59 240.77 91.55 C 241.92 90.33 243.11 89.15 244.26 87.93 C 245.31 86.04 245.05 83.93 243.95 82.13 Z" />
</g>
<g id="#fdf7fbff">
<path fill="#fdf7fb" opacity="1.00" d=" M 215.36 84.05 C 217.93 83.07 220.86 82.76 222.83 85.11 C 221.84 85.24 219.88 85.52 218.90 85.65 C 219.25 85.79 219.95 86.06 220.31 86.20 C 220.73 86.32 221.59 86.56 222.02 86.68 C 222.71 86.95 224.09 87.50 224.78 87.77 C 224.63 93.83 224.22 100.22 220.31 105.19 C 220.00 101.09 219.97 96.97 220.14 92.86 C 219.39 90.45 216.46 91.99 214.69 91.73 L 213.82 91.79 C 214.31 89.21 214.88 86.64 215.36 84.05 Z" />
<path fill="#fdf7fb" opacity="1.00" d=" M 224.92 129.92 C 228.93 129.08 233.13 127.94 237.22 129.00 C 234.25 129.69 231.21 129.39 228.20 129.51 C 228.20 129.83 228.20 130.47 228.20 130.78 C 229.47 131.40 230.81 131.52 232.23 131.14 C 232.61 131.22 233.38 131.37 233.76 131.45 C 233.37 131.58 232.59 131.84 232.19 131.97 C 229.67 131.66 226.67 132.18 224.92 129.92 Z" />
<path fill="#fdf7fb" opacity="1.00" d=" M 212.25 134.41 C 214.69 132.85 217.11 131.23 219.73 129.99 L 221.23 130.05 C 219.21 131.30 216.33 131.74 215.51 134.28 C 215.47 134.34 215.39 134.46 215.35 134.52 L 215.51 134.28 L 216.28 134.25 C 217.31 134.07 218.33 133.85 219.35 133.60 C 216.37 135.48 213.51 137.82 209.83 138.06 C 211.27 138.73 212.73 139.36 214.22 139.95 C 214.68 139.57 215.59 138.81 216.05 138.43 L 215.67 139.34 L 215.49 139.84 C 216.09 139.97 217.28 140.22 217.88 140.35 C 216.65 140.35 215.43 140.31 214.21 140.24 C 214.01 140.93 213.61 142.32 213.41 143.01 C 212.33 142.47 210.64 142.49 210.19 141.16 C 211.41 140.79 212.66 140.56 213.89 140.25 C 211.59 139.48 209.28 138.59 206.82 138.63 C 207.33 139.22 208.35 140.40 208.86 140.99 C 207.11 140.60 205.93 139.21 204.51 138.24 C 206.25 138.10 208.86 138.87 209.93 137.00 C 209.04 136.80 207.28 136.40 206.40 136.20 C 207.42 135.94 208.45 135.74 209.49 135.60 C 209.64 133.08 212.48 132.22 214.22 130.96 C 213.02 132.46 211.51 133.65 209.96 134.76 L 212.68 134.81 C 212.19 135.35 211.19 136.43 210.69 136.97 C 211.77 136.73 213.93 136.25 215.01 136.01 C 214.10 135.46 213.17 134.93 212.25 134.41 Z" />
</g>
<g id="#05b7e3ff">
<path fill="#05b7e3" opacity="1.00" d=" M 161.66 92.87 C 161.89 87.53 167.43 83.42 172.61 84.25 C 172.77 87.15 172.94 90.07 172.62 92.97 C 172.42 93.06 172.02 93.25 171.82 93.35 C 171.23 93.50 170.07 93.81 169.48 93.97 C 169.43 92.36 169.38 90.76 169.34 89.17 C 168.32 91.10 167.34 93.06 166.28 94.96 C 164.78 95.60 163.25 96.17 161.71 96.69 C 161.70 95.74 161.68 93.83 161.66 92.87 Z" />
</g>
<g id="#cbbec3ff">
<path fill="#cbbec3" opacity="1.00" d=" M 205.34 85.54 C 207.54 84.89 208.56 87.46 209.92 88.66 C 209.08 89.03 208.24 89.40 207.40 89.78 C 206.71 88.37 206.01 86.96 205.34 85.54 Z" />
</g>
<g id="#61e7e8ff">
<path fill="#61e7e8" opacity="1.00" d=" M 230.58 86.00 C 231.19 85.77 232.41 85.32 233.01 85.10 C 231.56 85.97 231.49 87.67 231.20 89.16 C 232.05 89.38 233.73 89.82 234.57 90.04 C 234.23 92.10 233.46 94.03 232.43 95.83 C 233.13 97.51 233.50 99.29 233.45 101.12 C 232.05 101.69 230.66 102.26 229.27 102.83 C 228.99 104.32 229.30 105.66 230.19 106.85 L 230.78 107.16 C 228.55 108.12 226.15 106.97 223.84 107.10 C 223.41 106.70 222.55 105.90 222.12 105.50 C 222.41 105.04 222.99 104.14 223.28 103.69 C 223.96 105.06 225.06 106.07 226.46 106.70 C 227.03 106.10 228.16 104.91 228.73 104.31 C 228.56 103.89 228.22 103.05 228.04 102.63 C 229.60 101.97 231.13 101.24 232.62 100.42 C 231.71 97.96 231.12 95.30 232.53 92.89 C 232.25 92.35 231.68 91.27 231.39 90.73 C 230.62 89.27 230.63 87.60 230.58 86.00 Z" />
<path fill="#61e7e8" opacity="1.00" d=" M 213.39 95.98 C 213.47 94.58 213.60 93.18 213.82 91.79 L 214.69 91.73 C 213.92 97.09 214.64 102.49 214.34 107.87 L 213.09 107.31 C 212.87 107.20 212.45 106.98 212.23 106.87 L 213.41 106.15 C 213.92 102.78 213.37 99.37 213.39 95.98 Z" />
<path fill="#61e7e8" opacity="1.00" d=" M 204.08 94.41 C 204.50 94.02 205.34 93.26 205.76 92.88 C 205.79 100.47 205.38 108.12 205.83 115.69 C 205.49 115.70 204.81 115.71 204.47 115.72 C 204.53 112.96 204.45 110.21 204.30 107.46 L 204.31 107.33 C 204.72 103.18 204.80 98.99 204.33 94.84 L 204.08 94.41 Z" />
<path fill="#61e7e8" opacity="1.00" d=" M 240.20 94.48 C 242.11 93.89 244.06 94.28 243.98 96.65 C 243.53 96.87 242.62 97.31 242.17 97.53 C 242.79 95.86 242.05 94.52 240.20 94.48 Z" />
<path fill="#61e7e8" opacity="1.00" d=" M 165.16 115.20 C 165.90 115.31 167.38 115.54 168.12 115.66 C 169.60 116.16 171.11 116.65 172.45 117.50 C 173.11 119.33 171.17 120.16 169.92 120.88 C 170.26 119.70 170.55 118.51 170.84 117.32 C 169.12 116.81 167.36 116.46 165.57 116.28 C 165.44 116.91 165.16 118.15 165.03 118.77 L 166.03 118.44 C 165.37 120.61 165.17 122.87 165.27 125.13 C 166.62 125.12 167.98 125.11 169.33 125.10 C 170.51 126.52 171.68 127.95 172.94 129.31 C 171.50 128.25 170.19 127.04 168.88 125.84 C 167.00 125.54 165.13 125.23 163.26 124.89 C 164.05 123.77 164.34 122.51 164.12 121.11 C 164.14 120.27 164.19 118.60 164.21 117.76 C 162.57 119.07 160.93 120.36 159.27 121.64 C 159.87 121.99 161.06 122.70 161.66 123.06 C 160.45 124.52 159.03 125.81 157.19 126.42 C 156.42 126.33 154.86 126.16 154.09 126.08 C 154.01 124.83 153.93 123.58 153.86 122.33 C 158.42 121.44 161.59 117.85 165.16 115.20 Z" />
</g>
<g id="#f3f4cdff">
<path fill="#f3f4cd" opacity="1.00" d=" M 245.27 90.68 C 245.74 88.47 246.33 86.29 247.05 84.16 C 248.69 86.62 248.58 89.73 246.97 92.17 C 246.54 91.80 245.70 91.05 245.27 90.68 Z" />
</g>
<g id="#0947aeff">
<path fill="#0947ae" opacity="1.00" d=" M 222.02 86.68 C 223.10 86.96 224.15 87.25 225.22 87.57 C 226.02 87.30 227.60 86.78 228.39 86.51 C 228.08 91.87 226.72 97.31 228.04 102.63 C 228.22 103.05 228.56 103.89 228.73 104.31 C 228.16 104.91 227.03 106.10 226.46 106.70 C 225.06 106.07 223.96 105.06 223.28 103.69 C 222.99 104.14 222.41 105.04 222.12 105.50 C 221.18 106.53 220.20 107.56 219.05 108.37 C 217.47 108.31 215.85 108.37 214.34 107.87 C 214.64 102.49 213.92 97.09 214.69 91.73 C 216.46 91.99 219.39 90.45 220.14 92.86 C 219.97 96.97 220.00 101.09 220.31 105.19 C 224.22 100.22 224.63 93.83 224.78 87.77 C 224.09 87.50 222.71 86.95 222.02 86.68 Z" />
</g>
<g id="#969fccff">
<path fill="#969fcc" opacity="1.00" d=" M 236.88 87.81 C 238.19 87.07 239.66 86.68 241.08 86.17 C 239.20 87.65 237.60 89.43 236.08 91.27 L 237.66 91.66 L 238.10 91.77 C 237.54 92.11 236.40 92.79 235.83 93.13 C 235.89 91.36 235.58 89.22 236.88 87.81 Z" />
</g>
<g id="#c8effaff">
<path fill="#c8effa" opacity="1.00" d=" M 241.08 86.17 C 243.00 84.61 243.44 87.27 242.03 88.15 C 240.71 89.48 239.22 90.63 237.66 91.66 L 236.08 91.27 C 237.60 89.43 239.20 87.65 241.08 86.17 Z" />
</g>
<g id="#fff6c3ff">
<path fill="#fff6c3" opacity="1.00" d=" M 228.39 86.51 C 228.50 88.31 228.63 90.10 228.77 91.90 C 229.42 91.61 230.74 91.02 231.39 90.73 C 231.68 91.27 232.25 92.35 232.53 92.89 C 231.12 95.30 231.71 97.96 232.62 100.42 C 231.13 101.24 229.60 101.97 228.04 102.63 C 226.72 97.31 228.08 91.87 228.39 86.51 Z" />
</g>
<g id="#b3a5b9ff">
<path fill="#b3a5b9" opacity="1.00" d=" M 199.09 87.28 C 201.02 89.50 201.53 92.65 204.08 94.41 L 204.33 94.84 C 202.97 95.09 202.10 95.86 201.72 97.15 C 200.89 95.85 200.01 94.58 199.18 93.29 C 199.14 91.28 199.08 89.28 199.09 87.28 Z" />
</g>
<g id="#f9f5d2ff">
<path fill="#f9f5d2" opacity="1.00" d=" M 249.62 89.12 C 250.08 89.22 251.00 89.44 251.46 89.55 C 252.45 92.73 253.29 96.03 255.13 98.85 C 256.06 100.16 256.05 101.79 256.28 103.31 C 255.56 102.55 254.84 101.79 254.14 101.03 C 254.17 102.65 254.20 104.27 254.22 105.90 C 254.75 105.22 255.28 104.54 255.82 103.87 C 255.90 104.35 256.04 105.30 256.12 105.78 C 256.08 106.23 256.00 107.13 255.95 107.57 C 254.28 107.38 252.57 107.30 250.97 107.90 C 251.30 104.43 251.75 100.96 251.70 97.47 C 250.12 99.36 250.13 101.90 249.74 104.21 C 246.04 104.05 248.82 98.93 246.02 97.70 L 245.32 98.11 C 245.64 97.23 245.96 96.35 246.27 95.46 C 247.60 93.47 248.79 91.38 249.62 89.12 Z" />
</g>
<g id="#5e5654ff">
<path fill="#5e5654" opacity="1.00" d=" M 277.55 91.02 C 279.58 90.37 281.61 89.74 283.65 89.13 C 283.22 90.31 284.36 94.16 282.64 93.73 C 281.00 92.71 279.30 91.80 277.55 91.02 Z" />
<path fill="#5e5654" opacity="1.00" d=" M 228.20 130.78 C 228.20 130.47 228.20 129.83 228.20 129.51 C 231.21 129.39 234.25 129.69 237.22 129.00 C 237.44 129.05 237.88 129.15 238.11 129.21 C 238.83 129.51 240.27 130.13 240.99 130.43 C 240.45 133.09 238.15 134.49 236.09 135.92 C 235.57 135.75 234.54 135.41 234.02 135.24 C 233.69 134.71 233.03 133.66 232.69 133.14 C 233.12 133.01 233.98 132.76 234.41 132.63 C 234.25 132.34 233.92 131.75 233.76 131.45 C 233.38 131.37 232.61 131.22 232.23 131.14 C 230.81 131.52 229.47 131.40 228.20 130.78 Z" />
</g>
<g id="#f0e5ddff">
<path fill="#f0e5dd" opacity="1.00" d=" M 253.52 89.38 C 256.36 90.97 256.71 94.90 257.21 97.86 C 256.69 97.67 255.64 97.30 255.12 97.12 C 254.50 94.56 253.91 91.99 253.52 89.38 Z" />
</g>
<g id="#00b7e3ff">
<path fill="#00b7e3" opacity="1.00" d=" M 136.47 92.63 C 137.98 91.52 139.78 90.90 141.47 90.14 C 141.97 91.21 141.84 92.09 141.09 92.78 C 138.52 94.53 138.57 98.94 134.58 98.32 C 134.74 96.32 135.11 94.19 136.47 92.63 Z" />
</g>
<g id="#6c6a63ff">
<path fill="#6c6a63" opacity="1.00" d=" M 183.51 93.13 C 184.89 92.76 186.28 92.23 187.74 92.43 C 185.58 92.16 184.93 94.07 185.59 95.83 C 185.32 93.74 183.70 94.42 183.17 95.95 C 183.26 95.25 183.43 93.84 183.51 93.13 Z" />
<path fill="#6c6a63" opacity="1.00" d=" M 219.73 129.99 C 221.14 129.30 222.59 128.72 224.08 128.23 C 223.63 128.92 222.72 130.30 222.27 130.99 C 223.14 130.62 224.02 130.26 224.92 129.92 C 226.67 132.18 229.67 131.66 232.19 131.97 C 232.32 132.26 232.57 132.84 232.69 133.14 C 233.03 133.66 233.69 134.71 234.02 135.24 C 233.67 135.53 232.98 136.12 232.63 136.42 C 232.18 136.49 231.28 136.64 230.83 136.72 C 231.60 137.81 235.95 140.14 232.75 140.60 C 227.51 140.95 221.77 139.40 217.22 142.95 C 221.86 144.29 226.26 141.63 230.89 141.55 C 228.83 143.28 226.19 144.13 224.10 145.77 C 224.32 146.00 224.76 146.46 224.98 146.69 C 224.54 146.69 223.65 146.68 223.21 146.67 L 222.97 146.10 C 222.27 145.94 220.89 145.61 220.19 145.45 C 218.02 144.40 215.70 143.73 213.41 143.01 C 213.61 142.32 214.01 140.93 214.21 140.24 C 215.43 140.31 216.65 140.35 217.88 140.35 C 218.36 140.10 219.31 139.61 219.79 139.36 C 218.41 138.87 217.03 138.87 215.67 139.34 L 216.05 138.43 C 218.75 136.45 222.34 135.38 224.01 132.26 C 222.44 132.64 220.88 133.09 219.35 133.60 C 218.33 133.85 217.31 134.07 216.28 134.25 L 215.51 134.28 C 216.33 131.74 219.21 131.30 221.23 130.05 L 219.73 129.99 Z" />
</g>
<g id="#0046b1ff">
<path fill="#0046b1" opacity="1.00" d=" M 205.76 92.88 C 206.62 91.74 207.71 91.32 209.04 91.63 C 209.68 96.88 209.67 102.17 209.78 107.44 C 210.08 107.83 210.69 108.60 210.99 108.99 C 211.31 109.40 211.95 110.22 212.27 110.63 C 210.12 112.27 208.92 115.88 205.83 115.69 C 205.38 108.12 205.79 100.47 205.76 92.88 Z" />
</g>
<g id="#f0fffdff">
<path fill="#f0fffd" opacity="1.00" d=" M 161.44 96.98 C 161.50 95.61 161.54 94.24 161.66 92.87 C 161.68 93.83 161.70 95.74 161.71 96.69 C 163.25 96.17 164.78 95.60 166.28 94.96 C 167.33 94.58 168.40 94.25 169.48 93.97 C 170.07 93.81 171.23 93.50 171.82 93.35 C 172.17 94.15 172.86 95.74 173.21 96.54 C 170.44 97.31 167.78 98.43 165.09 99.42 C 160.36 101.05 155.56 102.40 150.75 103.75 C 145.89 105.20 140.97 106.50 136.22 108.28 C 136.90 107.11 137.53 105.90 138.10 104.67 C 141.88 102.57 146.05 101.38 150.13 100.03 C 150.42 99.94 151.01 99.78 151.31 99.69 C 154.41 99.36 157.32 98.22 160.23 97.17 L 161.44 96.98 Z" />
<path fill="#f0fffd" opacity="1.00" d=" M 197.79 107.88 C 198.97 108.75 198.82 110.49 198.45 111.74 C 198.06 111.72 197.29 111.69 196.91 111.67 C 196.06 110.44 196.33 108.51 197.79 107.88 Z" />
</g>
<g id="#004aaaff">
<path fill="#004aaa" opacity="1.00" d=" M 192.48 96.63 C 194.15 94.57 196.27 92.54 199.18 93.29 C 200.01 94.58 200.89 95.85 201.72 97.15 C 202.33 98.85 203.36 101.03 201.66 102.48 C 200.64 102.67 199.62 102.82 198.59 102.94 C 198.05 100.54 197.53 98.14 197.09 95.73 C 196.78 96.21 196.15 97.17 195.84 97.64 C 195.56 97.95 195.00 98.57 194.72 98.88 C 194.57 103.16 193.40 108.35 196.91 111.67 C 197.29 111.69 198.06 111.72 198.45 111.74 C 198.82 110.49 198.97 108.75 197.79 107.88 L 197.35 107.46 C 198.09 106.97 199.59 106.01 200.33 105.52 C 200.75 108.75 200.71 112.01 200.34 115.24 C 198.10 115.83 195.56 116.87 193.42 115.40 C 191.56 113.35 191.37 110.39 190.76 107.81 C 189.74 103.91 192.70 100.51 192.48 96.63 Z" />
</g>
<g id="#f4ffd8ff">
<path fill="#f4ffd8" opacity="1.00" d=" M 201.72 97.15 C 202.10 95.86 202.97 95.09 204.33 94.84 C 204.80 98.99 204.72 103.18 204.31 107.33 C 203.16 106.68 202.03 106.01 200.87 105.39 C 200.74 105.42 200.47 105.49 200.33 105.52 C 199.59 106.01 198.09 106.97 197.35 107.46 C 194.16 105.22 195.80 100.87 195.84 97.64 C 196.15 97.17 196.78 96.21 197.09 95.73 C 197.53 98.14 198.05 100.54 198.59 102.94 C 199.62 102.82 200.64 102.67 201.66 102.48 C 203.36 101.03 202.33 98.85 201.72 97.15 Z" />
<path fill="#f4ffd8" opacity="1.00" d=" M 211.89 96.29 L 213.39 95.98 C 213.37 99.37 213.92 102.78 213.41 106.15 L 212.23 106.87 C 209.36 104.94 210.95 100.70 210.37 97.76 C 210.75 97.39 211.51 96.66 211.89 96.29 Z" />
</g>
<g id="#f2ffe5ff">
<path fill="#f2ffe5" opacity="1.00" d=" M 235.89 96.86 C 237.20 95.85 238.72 95.18 240.20 94.48 C 242.05 94.52 242.79 95.86 242.17 97.53 C 240.09 98.82 237.82 99.78 235.57 100.70 C 235.69 99.43 235.35 98.05 235.89 96.86 Z" />
</g>
<g id="#56ede9ff">
<path fill="#56ede9" opacity="1.00" d=" M 173.21 96.54 C 173.47 96.48 173.97 96.36 174.23 96.30 C 174.75 99.44 176.41 102.78 180.02 102.91 C 179.51 102.86 178.48 102.77 177.97 102.72 C 177.02 103.52 176.11 104.36 175.20 105.19 C 175.06 104.41 174.78 102.85 174.64 102.07 C 172.80 102.28 170.95 102.47 169.15 102.94 C 168.72 102.02 168.30 101.10 167.88 100.18 C 167.18 99.99 165.79 99.61 165.09 99.42 C 167.78 98.43 170.44 97.31 173.21 96.54 Z" />
</g>
<g id="#58b2beff">
<path fill="#58b2be" opacity="1.00" d=" M 152.64 97.49 C 155.16 97.32 157.70 97.33 160.23 97.17 C 157.32 98.22 154.41 99.36 151.31 99.69 C 151.64 99.14 152.30 98.04 152.64 97.49 Z" />
</g>
<g id="#283da6ff">
<path fill="#283da6" opacity="1.00" d=" M 185.71 97.64 C 186.65 97.58 187.59 97.54 188.53 97.53 C 188.12 99.55 187.75 101.61 188.17 103.67 C 188.25 107.40 188.12 111.22 189.49 114.76 C 189.42 116.47 189.35 118.17 189.28 119.88 C 188.06 120.85 186.80 121.76 185.56 122.69 C 187.95 115.52 187.65 107.85 185.76 100.60 C 185.75 99.86 185.72 98.38 185.71 97.64 Z" />
</g>
<g id="#43a6c2ff">
<path fill="#43a6c2" opacity="1.00" d=" M 183.80 100.06 C 184.42 99.24 185.06 98.43 185.71 97.64 C 185.72 98.38 185.75 99.86 185.76 100.60 C 185.31 102.59 184.57 104.49 183.75 106.35 C 183.77 105.56 183.80 103.98 183.81 103.19 C 183.81 102.41 183.80 100.84 183.80 100.06 Z" />
</g>
<g id="#6562baff">
<path fill="#6562ba" opacity="1.00" d=" M 194.72 98.88 C 195.00 98.57 195.56 97.95 195.84 97.64 C 195.80 100.87 194.16 105.22 197.35 107.46 L 197.79 107.88 C 196.33 108.51 196.06 110.44 196.91 111.67 C 193.40 108.35 194.57 103.16 194.72 98.88 Z" />
</g>
<g id="#fdf4d1ff">
<path fill="#fdf4d1" opacity="1.00" d=" M 245.32 98.11 L 246.02 97.70 C 245.98 99.12 245.94 100.54 245.92 101.95 C 245.37 102.47 244.81 102.99 244.26 103.51 C 246.13 104.24 247.82 105.33 249.19 106.80 C 248.05 107.83 246.84 108.75 245.51 109.50 C 243.81 108.06 241.57 107.75 239.46 107.31 C 238.64 108.95 237.82 110.59 237.01 112.23 C 235.18 112.69 233.18 114.28 231.35 113.05 C 234.04 111.10 236.14 108.31 235.91 104.82 C 239.21 102.82 242.94 101.31 245.32 98.11 Z" />
</g>
<g id="#bfb8a0ff">
<path fill="#bfb8a0" opacity="1.00" d=" M 246.02 97.70 C 248.82 98.93 246.04 104.05 249.74 104.21 C 250.13 101.90 250.12 99.36 251.70 97.47 C 251.75 100.96 251.30 104.43 250.97 107.90 C 250.52 107.62 249.63 107.07 249.19 106.80 C 247.82 105.33 246.13 104.24 244.26 103.51 C 244.81 102.99 245.37 102.47 245.92 101.95 C 245.94 100.54 245.98 99.12 246.02 97.70 Z" />
</g>
<g id="#8faca8ff">
<path fill="#8faca8" opacity="1.00" d=" M 180.54 99.10 C 181.63 99.42 182.71 99.74 183.80 100.06 C 183.80 100.84 183.81 102.41 183.81 103.19 C 181.74 103.03 180.30 101.14 180.54 99.10 Z" />
</g>
<g id="#3dfbf8ff">
<path fill="#3dfbf8" opacity="1.00" d=" M 150.75 103.75 C 155.56 102.40 160.36 101.05 165.09 99.42 C 163.89 100.62 162.57 101.67 161.17 102.62 C 163.35 102.62 165.54 102.88 167.57 103.75 C 167.22 104.01 166.51 104.51 166.16 104.77 C 163.42 104.35 160.59 103.53 157.89 104.62 C 155.87 105.35 153.94 106.29 152.01 107.21 C 151.58 106.06 151.17 104.90 150.75 103.75 Z" />
</g>
<g id="#2df2f1ff">
<path fill="#2df2f1" opacity="1.00" d=" M 165.09 99.42 C 165.79 99.61 167.18 99.99 167.88 100.18 C 168.30 101.10 168.72 102.02 169.15 102.94 C 168.75 103.15 167.96 103.55 167.57 103.75 C 165.54 102.88 163.35 102.62 161.17 102.62 C 162.57 101.67 163.89 100.62 165.09 99.42 Z" />
</g>
<g id="#0055b5ff">
<path fill="#0055b5" opacity="1.00" d=" M 183.75 106.35 C 184.57 104.49 185.31 102.59 185.76 100.60 C 187.65 107.85 187.95 115.52 185.56 122.69 C 184.81 123.23 184.07 123.77 183.31 124.29 C 181.80 124.67 180.29 125.03 178.78 125.41 C 177.92 124.67 177.07 123.92 176.22 123.18 C 178.28 121.79 180.23 120.26 182.01 118.52 C 182.49 119.01 182.98 119.51 183.47 120.01 C 181.96 120.76 180.56 121.74 179.60 123.16 C 182.10 123.77 183.34 121.42 184.72 119.88 L 183.61 119.81 C 183.88 117.87 184.35 115.94 184.29 113.97 C 184.06 111.41 182.80 108.91 183.75 106.35 Z" />
</g>
<g id="#0049afff">
<path fill="#0049af" opacity="1.00" d=" M 169.15 102.94 C 170.95 102.47 172.80 102.28 174.64 102.07 C 174.78 102.85 175.06 104.41 175.20 105.19 C 176.11 104.36 177.02 103.52 177.97 102.72 C 179.29 104.84 180.00 107.24 180.69 109.63 L 181.64 110.06 C 182.02 110.28 182.79 110.72 183.17 110.94 C 184.98 114.06 180.55 117.10 177.88 115.61 C 177.39 115.18 176.91 114.74 176.43 114.31 C 176.36 113.47 176.21 111.79 176.14 110.95 C 175.16 110.05 174.20 109.14 173.25 108.22 C 171.46 109.43 169.75 110.76 168.10 112.15 C 168.99 111.07 169.88 109.98 170.76 108.88 C 168.96 109.31 167.18 109.84 165.54 110.69 C 165.59 111.04 165.69 111.74 165.74 112.08 C 166.31 113.42 167.10 114.61 168.12 115.66 C 167.38 115.54 165.90 115.31 165.16 115.20 C 164.65 114.81 163.61 114.02 163.09 113.63 C 162.82 113.43 162.27 113.04 162.00 112.85 C 159.83 114.49 157.81 116.32 155.68 118.02 C 155.17 118.23 154.13 118.64 153.61 118.84 C 153.32 118.98 152.72 119.25 152.43 119.39 C 151.71 122.77 151.93 126.23 152.29 129.64 C 150.80 130.63 149.15 131.36 147.53 132.10 C 147.45 130.97 147.40 129.84 147.39 128.71 C 147.69 123.78 148.56 118.91 148.81 113.98 C 146.72 113.64 146.14 111.69 145.49 110.00 C 147.71 109.19 149.89 108.27 152.01 107.21 C 153.94 106.29 155.87 105.35 157.89 104.62 C 160.24 104.53 162.50 105.26 164.76 105.81 C 165.11 105.55 165.81 105.03 166.16 104.77 C 166.51 104.51 167.22 104.01 167.57 103.75 C 167.96 103.55 168.75 103.15 169.15 102.94 M 155.32 109.28 C 154.53 109.17 152.93 108.93 152.14 108.81 C 151.88 111.76 151.60 114.71 151.31 117.65 C 151.62 117.68 152.25 117.74 152.57 117.77 L 152.62 117.38 C 153.91 117.32 154.65 116.77 154.84 115.74 C 157.50 114.24 159.38 111.71 161.46 109.54 C 161.52 109.02 161.65 107.97 161.72 107.44 C 159.40 107.30 157.31 108.24 155.32 109.28 Z" />
</g>
<g id="#243298ff">
<path fill="#243298" opacity="1.00" d=" M 177.97 102.72 C 178.48 102.77 179.51 102.86 180.02 102.91 L 180.64 103.13 C 182.47 104.99 181.50 107.75 181.64 110.06 L 180.69 109.63 C 180.00 107.24 179.29 104.84 177.97 102.72 Z" />
</g>
<g id="#74dbdbff">
<path fill="#74dbdb" opacity="1.00" d=" M 136.22 108.28 C 140.97 106.50 145.89 105.20 150.75 103.75 C 151.17 104.90 151.58 106.06 152.01 107.21 C 149.89 108.27 147.71 109.19 145.49 110.00 C 144.01 109.26 142.53 108.50 140.93 108.07 C 138.69 108.59 139.82 111.17 139.55 112.80 C 137.92 112.48 135.68 110.61 134.81 112.97 C 135.73 117.53 136.84 123.58 141.86 125.30 C 143.19 125.55 145.14 126.42 146.11 125.02 C 144.65 123.09 142.05 122.47 140.47 120.65 C 139.54 119.20 140.31 117.43 140.37 115.87 C 144.71 118.01 148.32 122.40 146.52 127.49 C 144.03 127.09 141.50 126.99 138.99 127.22 C 133.82 123.28 132.45 116.53 133.27 110.38 C 132.47 110.44 130.86 110.56 130.05 110.62 C 132.08 109.78 134.14 109.00 136.22 108.28 Z" />
</g>
<g id="#4ba0dfff">
<path fill="#4ba0df" opacity="1.00" d=" M 157.89 104.62 C 160.59 103.53 163.42 104.35 166.16 104.77 C 165.81 105.03 165.11 105.55 164.76 105.81 C 162.50 105.26 160.24 104.53 157.89 104.62 Z" />
</g>
<g id="#7b5ba9ff">
<path fill="#7b5ba9" opacity="1.00" d=" M 188.17 103.67 C 189.59 105.86 189.84 108.38 189.17 110.88 C 189.45 111.40 190.02 112.44 190.31 112.96 C 190.10 113.41 189.69 114.31 189.49 114.76 C 188.12 111.22 188.25 107.40 188.17 103.67 Z" />
</g>
<g id="#6a63abff">
<path fill="#6a63ab" opacity="1.00" d=" M 200.33 105.52 C 200.47 105.49 200.74 105.42 200.87 105.39 C 202.03 106.01 203.16 106.68 204.31 107.33 L 204.30 107.46 C 201.24 107.99 202.10 111.53 201.63 113.78 C 201.31 114.14 200.66 114.87 200.34 115.24 C 200.71 112.01 200.75 108.75 200.33 105.52 Z" />
</g>
<g id="#c6c1a6ff">
<path fill="#c6c1a6" opacity="1.00" d=" M 234.55 106.38 C 234.98 105.84 235.44 105.32 235.91 104.82 C 236.14 108.31 234.04 111.10 231.35 113.05 C 230.55 113.67 229.74 114.28 228.93 114.88 L 228.10 113.92 C 227.77 113.16 227.45 112.40 227.15 111.63 C 230.66 111.65 233.56 109.84 234.55 106.38 Z" />
</g>
<g id="#fcfac5ff">
<path fill="#fcfac5" opacity="1.00" d=" M 219.05 108.37 C 220.20 107.56 221.18 106.53 222.12 105.50 C 222.55 105.90 223.41 106.70 223.84 107.10 C 226.15 106.97 228.55 108.12 230.78 107.16 C 231.72 106.97 233.61 106.57 234.55 106.38 C 233.56 109.84 230.66 111.65 227.15 111.63 C 227.45 112.40 227.77 113.16 228.10 113.92 C 225.47 117.50 220.48 116.80 216.62 117.91 C 213.43 117.71 210.25 117.35 207.07 117.10 C 207.43 117.97 207.80 118.85 208.17 119.73 C 201.87 122.23 194.89 124.51 188.16 122.29 C 188.04 124.01 187.93 125.73 187.84 127.45 L 187.80 128.05 C 186.06 128.26 184.32 128.44 182.57 128.60 C 181.65 130.25 180.06 130.72 178.27 130.43 C 176.48 130.13 174.65 129.92 172.94 129.31 C 171.68 127.95 170.51 126.52 169.33 125.10 C 170.86 124.12 172.41 123.16 173.93 122.18 C 175.01 123.53 176.10 124.87 177.17 126.23 C 179.39 126.21 181.62 125.86 183.31 124.29 C 184.07 123.77 184.81 123.23 185.56 122.69 C 186.80 121.76 188.06 120.85 189.28 119.88 C 190.01 118.73 190.65 117.53 191.30 116.34 C 194.57 117.87 198.30 117.58 201.52 116.07 C 201.55 115.49 201.60 114.35 201.63 113.78 C 202.10 111.53 201.24 107.99 204.30 107.46 C 204.45 110.21 204.53 112.96 204.47 115.72 C 204.81 115.71 205.49 115.70 205.83 115.69 C 208.92 115.88 210.12 112.27 212.27 110.63 C 213.08 109.93 213.91 109.23 214.76 108.56 C 216.19 108.52 217.63 108.50 219.05 108.37 Z" />
</g>
<g id="#cec4b6ff">
<path fill="#cec4b6" opacity="1.00" d=" M 239.46 107.31 C 241.57 107.75 243.81 108.06 245.51 109.50 C 242.59 110.12 239.64 110.75 237.01 112.23 C 237.82 110.59 238.64 108.95 239.46 107.31 Z" />
</g>
<g id="#27fbfeff">
<path fill="#27fbfe" opacity="1.00" d=" M 139.55 112.80 C 139.82 111.17 138.69 108.59 140.93 108.07 C 142.53 108.50 144.01 109.26 145.49 110.00 C 146.14 111.69 146.72 113.64 148.81 113.98 C 148.56 118.91 147.69 123.78 147.39 128.71 C 144.59 128.22 141.74 127.95 138.99 127.22 C 141.50 126.99 144.03 127.09 146.52 127.49 C 148.32 122.40 144.71 118.01 140.37 115.87 C 140.31 117.43 139.54 119.20 140.47 120.65 C 142.05 122.47 144.65 123.09 146.11 125.02 C 145.14 126.42 143.19 125.55 141.86 125.30 C 136.84 123.58 135.73 117.53 134.81 112.97 C 135.68 110.61 137.92 112.48 139.55 112.80 Z" />
</g>
<g id="#d4fff2ff">
<path fill="#d4fff2" opacity="1.00" d=" M 168.10 112.15 C 169.75 110.76 171.46 109.43 173.25 108.22 C 174.20 109.14 175.16 110.05 176.14 110.95 C 176.21 111.79 176.36 113.47 176.43 114.31 C 176.09 114.74 175.40 115.60 175.06 116.03 L 174.40 116.28 C 171.97 114.06 168.77 113.15 165.74 112.08 C 165.69 111.74 165.59 111.04 165.54 110.69 C 167.18 109.84 168.96 109.31 170.76 108.88 C 169.88 109.98 168.99 111.07 168.10 112.15 Z" />
</g>
<g id="#243aa6ff">
<path fill="#243aa6" opacity="1.00" d=" M 152.14 108.81 C 152.93 108.93 154.53 109.17 155.32 109.28 L 155.32 109.36 C 152.92 111.33 153.13 114.61 152.62 117.38 L 152.57 117.77 C 152.25 117.74 151.62 117.68 151.31 117.65 C 151.60 114.71 151.88 111.76 152.14 108.81 Z" />
</g>
<g id="#75b9f3ff">
<path fill="#75b9f3" opacity="1.00" d=" M 152.62 117.38 C 153.13 114.61 152.92 111.33 155.32 109.36 C 155.33 111.49 155.07 113.62 154.84 115.74 C 154.65 116.77 153.91 117.32 152.62 117.38 Z" />
</g>
<g id="#0a0409ff">
<path fill="#0a0409" opacity="1.00" d=" M 255.32 111.44 C 255.69 111.13 256.44 110.51 256.81 110.20 C 256.27 113.08 254.74 115.67 252.94 117.94 C 250.92 120.59 247.06 121.30 245.64 124.47 C 243.74 129.45 242.48 135.03 238.78 139.05 C 234.64 142.28 230.03 145.15 224.98 146.69 C 224.76 146.46 224.32 146.00 224.10 145.77 C 226.19 144.13 228.83 143.28 230.89 141.55 C 226.26 141.63 221.86 144.29 217.22 142.95 C 221.77 139.40 227.51 140.95 232.75 140.60 C 235.95 140.14 231.60 137.81 230.83 136.72 C 231.28 136.64 232.18 136.49 232.63 136.42 C 233.62 137.78 235.18 136.82 236.09 135.92 C 238.15 134.49 240.45 133.09 240.99 130.43 C 240.27 130.13 238.83 129.51 238.11 129.21 C 237.88 129.15 237.44 129.05 237.22 129.00 C 233.13 127.94 228.93 129.08 224.92 129.92 C 224.02 130.26 223.14 130.62 222.27 130.99 C 222.72 130.30 223.63 128.92 224.08 128.23 C 222.59 128.72 221.14 129.30 219.73 129.99 C 217.11 131.23 214.69 132.85 212.25 134.41 C 213.17 134.93 214.10 135.46 215.01 136.01 C 213.93 136.25 211.77 136.73 210.69 136.97 C 211.19 136.43 212.19 135.35 212.68 134.81 L 209.96 134.76 C 211.51 133.65 213.02 132.46 214.22 130.96 C 212.48 132.22 209.64 133.08 209.49 135.60 C 208.45 135.74 207.42 135.94 206.40 136.20 C 207.28 136.40 209.04 136.80 209.93 137.00 C 208.86 138.87 206.25 138.10 204.51 138.24 C 205.93 139.21 207.11 140.60 208.86 140.99 C 208.35 140.40 207.33 139.22 206.82 138.63 C 209.28 138.59 211.59 139.48 213.89 140.25 C 212.66 140.56 211.41 140.79 210.19 141.16 C 210.64 142.49 212.33 142.47 213.41 143.01 C 215.70 143.73 218.02 144.40 220.19 145.45 C 220.89 145.61 222.27 145.94 222.97 146.10 L 223.21 146.67 C 219.45 148.17 215.01 147.04 211.15 146.01 C 213.19 148.57 214.79 151.46 215.80 154.59 C 215.11 154.50 213.75 154.33 213.07 154.25 C 211.81 149.36 207.82 146.03 204.70 142.32 C 203.45 140.77 201.69 139.78 199.99 138.82 C 200.95 138.29 201.91 137.75 202.88 137.23 C 202.24 136.96 200.95 136.43 200.30 136.16 C 199.92 136.69 199.54 137.23 199.17 137.77 L 198.09 136.36 C 197.67 136.31 196.84 136.22 196.42 136.18 C 199.39 142.76 206.74 147.21 206.86 155.02 C 205.76 154.80 205.13 154.14 204.96 153.04 C 203.29 146.75 198.08 142.47 194.80 137.07 C 188.77 138.62 182.19 140.49 176.19 137.74 C 176.36 137.42 176.71 136.77 176.89 136.44 C 179.89 136.86 182.97 137.98 186.00 137.09 C 190.11 135.99 194.35 135.40 198.38 133.99 C 199.34 133.21 200.17 132.30 201.00 131.39 C 204.11 131.28 207.30 131.39 210.30 130.36 C 213.80 129.07 217.20 127.49 220.49 125.72 C 223.36 123.91 226.88 124.49 230.08 123.92 C 233.76 123.54 237.23 122.12 240.41 120.27 C 240.97 120.83 241.54 121.39 242.11 121.95 C 247.57 121.06 252.38 117.40 254.57 112.30 C 254.76 112.08 255.13 111.66 255.32 111.44 Z" />
<path fill="#0a0409" opacity="1.00" d=" M 219.35 133.60 C 220.88 133.09 222.44 132.64 224.01 132.26 C 222.34 135.38 218.75 136.45 216.05 138.43 C 215.59 138.81 214.68 139.57 214.22 139.95 C 212.73 139.36 211.27 138.73 209.83 138.06 C 213.51 137.82 216.37 135.48 219.35 133.60 Z" />
</g>
<g id="#eeaa76ff">
<path fill="#eeaa76" opacity="1.00" d=" M 246.01 112.43 C 249.22 112.87 252.09 110.71 255.32 111.44 C 255.13 111.66 254.76 112.08 254.57 112.30 C 253.57 112.36 252.57 112.43 251.58 112.51 L 250.15 112.68 C 248.25 115.38 245.25 116.99 241.90 116.39 C 241.77 114.56 239.35 114.46 239.22 116.34 C 238.84 116.60 238.08 117.12 237.70 117.38 C 237.26 117.47 236.38 117.66 235.94 117.75 L 235.59 116.80 C 235.18 116.54 234.36 116.01 233.95 115.74 C 238.04 114.89 241.71 112.10 246.01 112.43 Z" />
</g>
<g id="#f78121ff">
<path fill="#f78121" opacity="1.00" d=" M 251.58 112.51 C 252.57 112.43 253.57 112.36 254.57 112.30 C 252.38 117.40 247.57 121.06 242.11 121.95 C 241.54 121.39 240.97 120.83 240.41 120.27 C 237.23 122.12 233.76 123.54 230.08 123.92 C 226.88 124.49 223.36 123.91 220.49 125.72 C 220.51 122.36 216.24 123.66 214.07 123.79 C 214.52 123.46 215.40 122.80 215.84 122.47 C 222.94 123.09 229.07 118.72 235.94 117.75 C 236.38 117.66 237.26 117.47 237.70 117.38 C 240.66 117.56 243.68 118.20 246.62 117.54 C 249.01 116.81 250.24 114.41 251.58 112.51 Z" />
</g>
<g id="#5dd2f5ff">
<path fill="#5dd2f5" opacity="1.00" d=" M 155.68 118.02 C 157.81 116.32 159.83 114.49 162.00 112.85 C 162.27 113.04 162.82 113.43 163.09 113.63 C 160.96 115.60 158.61 117.43 155.68 118.02 Z" />
</g>
<g id="#093fa9ff">
<path fill="#093fa9" opacity="1.00" d=" M 165.74 112.08 C 168.77 113.15 171.97 114.06 174.40 116.28 C 174.41 117.90 174.37 119.51 174.25 121.12 C 174.17 121.39 174.01 121.91 173.93 122.18 C 172.41 123.16 170.86 124.12 169.33 125.10 C 167.98 125.11 166.62 125.12 165.27 125.13 C 165.17 122.87 165.37 120.61 166.03 118.44 L 167.95 117.79 C 167.79 118.86 167.48 121.00 167.33 122.07 C 168.20 121.70 169.07 121.31 169.92 120.88 C 171.17 120.16 173.11 119.33 172.45 117.50 C 171.11 116.65 169.60 116.16 168.12 115.66 C 167.10 114.61 166.31 113.42 165.74 112.08 Z" />
</g>
<g id="#3bf1f8ff">
<path fill="#3bf1f8" opacity="1.00" d=" M 155.68 118.02 C 158.61 117.43 160.96 115.60 163.09 113.63 C 163.61 114.02 164.65 114.81 165.16 115.20 C 161.59 117.85 158.42 121.44 153.86 122.33 C 153.80 121.46 153.67 119.72 153.61 118.84 C 154.13 118.64 155.17 118.23 155.68 118.02 Z" />
</g>
<g id="#f8c9afff">
<path fill="#f8c9af" opacity="1.00" d=" M 239.22 116.34 C 239.35 114.46 241.77 114.56 241.90 116.39 C 241.23 116.37 239.89 116.35 239.22 116.34 Z" />
</g>
<g id="#f6f4fdff">
<path fill="#f6f4fd" opacity="1.00" d=" M 165.57 116.28 C 167.36 116.46 169.12 116.81 170.84 117.32 C 170.55 118.51 170.26 119.70 169.92 120.88 C 169.07 121.31 168.20 121.70 167.33 122.07 C 167.48 121.00 167.79 118.86 167.95 117.79 L 166.03 118.44 L 165.03 118.77 C 165.16 118.15 165.44 116.91 165.57 116.28 Z" />
</g>
<g id="#998575ff">
<path fill="#998575" opacity="1.00" d=" M 233.18 116.94 C 233.37 116.64 233.76 116.04 233.95 115.74 C 234.36 116.01 235.18 116.54 235.59 116.80 C 234.99 116.83 233.78 116.90 233.18 116.94 Z" />
</g>
<g id="#c5c5a8ff">
<path fill="#c5c5a8" opacity="1.00" d=" M 207.07 117.10 C 210.25 117.35 213.43 117.71 216.62 117.91 C 208.38 121.46 199.63 124.84 190.52 125.40 C 189.63 126.09 188.74 126.77 187.84 127.45 C 187.93 125.73 188.04 124.01 188.16 122.29 C 194.89 124.51 201.87 122.23 208.17 119.73 C 207.80 118.85 207.43 117.97 207.07 117.10 Z" />
</g>
<g id="#8c9d96ff">
<path fill="#8c9d96" opacity="1.00" d=" M 159.27 121.64 C 160.93 120.36 162.57 119.07 164.21 117.76 C 164.19 118.60 164.14 120.27 164.12 121.11 C 162.74 121.74 162.40 123.39 162.59 124.76 C 162.65 126.60 162.39 128.67 163.73 130.15 C 165.11 132.50 168.03 132.51 170.43 132.69 C 168.42 133.94 166.24 135.08 163.81 135.10 C 164.31 134.73 165.33 134.00 165.84 133.63 C 163.14 132.22 161.40 129.69 160.86 126.72 C 158.42 127.63 155.92 128.36 153.37 128.90 C 154.57 127.97 155.82 127.08 157.19 126.42 C 159.03 125.81 160.45 124.52 161.66 123.06 C 161.06 122.70 159.87 121.99 159.27 121.64 Z" />
</g>
<g id="#8bb4eaff">
<path fill="#8bb4ea" opacity="1.00" d=" M 152.43 119.39 C 152.72 119.25 153.32 118.98 153.61 118.84 C 153.67 119.72 153.80 121.46 153.86 122.33 C 153.93 123.58 154.01 124.83 154.09 126.08 C 154.86 126.16 156.42 126.33 157.19 126.42 C 155.82 127.08 154.57 127.97 153.37 128.90 C 153.10 129.09 152.56 129.45 152.29 129.64 C 151.93 126.23 151.71 122.77 152.43 119.39 Z" />
</g>
<g id="#d3f3efff">
<path fill="#d3f3ef" opacity="1.00" d=" M 162.59 124.76 C 162.40 123.39 162.74 121.74 164.12 121.11 C 164.34 122.51 164.05 123.77 163.26 124.89 L 162.59 124.76 Z" />
</g>
<g id="#f3b813ff">
<path fill="#f3b813" opacity="1.00" d=" M 202.89 128.24 C 206.64 126.81 210.42 125.46 214.07 123.79 C 216.24 123.66 220.51 122.36 220.49 125.72 C 217.20 127.49 213.80 129.07 210.30 130.36 C 207.33 130.56 204.36 130.45 201.40 130.25 C 201.77 129.75 202.51 128.74 202.89 128.24 Z" />
</g>
<g id="#fafec2ff">
<path fill="#fafec2" opacity="1.00" d=" M 162.59 124.76 L 163.26 124.89 C 165.13 125.23 167.00 125.54 168.88 125.84 C 170.19 127.04 171.50 128.25 172.94 129.31 C 174.65 129.92 176.48 130.13 178.27 130.43 C 175.78 131.57 172.95 131.59 170.43 132.69 C 168.03 132.51 165.11 132.50 163.73 130.15 C 162.39 128.67 162.65 126.60 162.59 124.76 Z" />
</g>
<g id="#ae8331ff">
<path fill="#ae8331" opacity="1.00" d=" M 197.78 129.69 C 199.53 129.42 201.20 128.80 202.89 128.24 C 202.51 128.74 201.77 129.75 201.40 130.25 C 204.36 130.45 207.33 130.56 210.30 130.36 C 207.30 131.39 204.11 131.28 201.00 131.39 C 200.17 132.30 199.34 133.21 198.38 133.99 C 198.35 133.39 198.29 132.17 198.25 131.57 C 198.32 131.19 198.44 130.44 198.51 130.07 L 197.78 129.69 Z" />
</g>
<g id="#fcb514ff">
<path fill="#fcb514" opacity="1.00" d=" M 193.00 130.74 C 194.37 130.54 195.76 130.37 197.15 130.20 C 197.42 130.55 197.98 131.23 198.25 131.57 C 198.29 132.17 198.35 133.39 198.38 133.99 C 194.35 135.40 190.11 135.99 186.00 137.09 C 182.97 137.98 179.89 136.86 176.89 136.44 C 177.45 136.42 178.58 136.37 179.15 136.35 C 182.38 134.39 186.05 133.45 189.66 132.48 C 189.58 132.21 189.43 131.69 189.35 131.43 C 190.64 131.54 191.86 131.31 193.00 130.74 Z" />
</g>
<g id="#8f6003ff">
<path fill="#8f6003" opacity="1.00" d=" M 197.15 130.20 L 197.78 129.69 L 198.51 130.07 C 198.44 130.44 198.32 131.19 198.25 131.57 C 197.98 131.23 197.42 130.55 197.15 130.20 Z" />
</g>
<g id="#6f6866ff">
<path fill="#6f6866" opacity="1.00" d=" M 234.02 135.24 C 234.54 135.41 235.57 135.75 236.09 135.92 C 235.18 136.82 233.62 137.78 232.63 136.42 C 232.98 136.12 233.67 135.53 234.02 135.24 Z" />
</g>
<g id="#302223ff">
<path fill="#302223" opacity="1.00" d=" M 215.67 139.34 C 217.03 138.87 218.41 138.87 219.79 139.36 C 219.31 139.61 218.36 140.10 217.88 140.35 C 217.28 140.22 216.09 139.97 215.49 139.84 L 215.67 139.34 Z" />
</g>
<g id="#f02d1fff">
<path fill="#f02d1f" opacity="1.00" d=" M 245.64 144.34 C 251.41 143.26 257.39 143.86 263.23 143.98 L 262.57 145.51 C 257.45 145.00 252.31 145.28 247.18 145.39 C 247.25 147.28 247.32 149.18 247.62 151.06 C 248.20 152.95 248.24 155.68 250.56 156.35 C 252.17 156.86 253.41 155.59 254.47 154.60 C 256.10 156.36 258.22 156.67 260.45 155.78 C 262.70 156.35 262.17 159.13 262.68 160.90 C 262.63 155.77 262.67 150.64 262.57 145.51 L 263.41 144.92 C 263.43 150.43 263.35 155.94 263.43 161.45 C 257.49 161.49 251.55 161.58 245.61 161.44 C 245.79 155.75 245.78 150.04 245.64 144.34 Z" />
</g>
<g id="#f92a1fff">
<path fill="#f92a1f" opacity="1.00" d=" M 247.18 145.39 C 252.31 145.28 257.45 145.00 262.57 145.51 C 262.67 150.64 262.63 155.77 262.68 160.90 C 262.17 159.13 262.70 156.35 260.45 155.78 C 260.54 154.01 260.48 152.25 260.45 150.48 C 258.10 148.95 255.37 149.76 252.83 150.20 L 252.34 150.28 C 251.69 151.54 251.60 152.84 252.07 154.18 L 250.66 154.88 C 250.15 152.96 249.77 151.02 249.42 149.08 C 248.82 149.74 248.22 150.40 247.62 151.06 C 247.32 149.18 247.25 147.28 247.18 145.39 Z" />
</g>
<g id="#ffd4bbff">
<path fill="#ffd4bb" opacity="1.00" d=" M 247.62 151.06 C 248.22 150.40 248.82 149.74 249.42 149.08 C 249.77 151.02 250.15 152.96 250.66 154.88 L 252.07 154.18 C 253.54 153.52 253.24 151.44 252.83 150.20 C 255.37 149.76 258.10 148.95 260.45 150.48 C 260.48 152.25 260.54 154.01 260.45 155.78 C 258.22 156.67 256.10 156.36 254.47 154.60 C 253.41 155.59 252.17 156.86 250.56 156.35 C 248.24 155.68 248.20 152.95 247.62 151.06 M 256.36 151.32 C 255.75 152.74 256.18 153.13 257.65 152.51 C 258.28 151.10 257.85 150.70 256.36 151.32 Z" />
</g>
<g id="#cc493bff">
<path fill="#cc493b" opacity="1.00" d=" M 252.34 150.28 L 252.83 150.20 C 253.24 151.44 253.54 153.52 252.07 154.18 C 251.60 152.84 251.69 151.54 252.34 150.28 Z" />
</g>
<g id="#c06b69ff">
<path fill="#c06b69" opacity="1.00" d=" M 256.36 151.32 C 257.85 150.70 258.28 151.10 257.65 152.51 C 256.18 153.13 255.75 152.74 256.36 151.32 Z" />
</g>
</svg>
