<?xml version="1.0" encoding="UTF-8" ?>
<!DOCTYPE svg PUBLIC "-//W3C//DTD SVG 1.1//EN" "http://www.w3.org/Graphics/SVG/1.1/DTD/svg11.dtd">
<svg width="128pt" height="128pt" viewBox="0 0 128 128" version="1.1" xmlns="http://www.w3.org/2000/svg">
<g id="#000000ff">
<path fill="#000000" opacity="1.00" d=" M 19.37 4.41 C 21.14 0.61 27.98 0.91 29.05 5.12 C 29.58 7.52 29.51 10.00 29.64 12.45 C 36.28 12.43 42.92 12.43 49.56 12.45 C 49.76 9.77 49.55 6.98 50.43 4.40 C 52.20 0.60 59.05 0.93 60.10 5.13 C 60.64 7.53 60.58 10.00 60.71 12.44 C 67.35 12.43 73.98 12.42 80.62 12.45 C 80.82 9.78 80.64 7.01 81.46 4.42 C 83.17 0.73 89.66 0.87 91.04 4.78 C 91.74 7.27 91.57 9.90 91.75 12.45 C 97.01 12.62 102.47 11.73 107.57 13.36 C 111.55 14.78 113.45 18.97 113.96 22.89 C 118.38 51.95 122.80 81.01 127.25 110.06 C 127.60 112.45 127.89 114.86 128.00 117.28 L 128.00 117.90 C 127.01 121.12 125.02 124.38 121.64 125.46 C 117.54 126.66 113.21 126.15 109.00 126.24 C 77.65 126.22 46.29 126.18 14.94 126.26 C 11.23 126.18 7.05 126.44 3.97 123.98 C 1.54 122.24 0.53 119.26 0.00 116.44 L 0.00 22.07 C 0.61 18.63 2.31 15.09 5.68 13.61 C 9.73 11.88 14.26 12.54 18.54 12.41 C 18.72 9.74 18.54 6.99 19.37 4.41 M 22.77 24.02 C 23.46 24.19 24.85 24.54 25.55 24.72 C 25.82 18.26 25.81 11.78 25.55 5.32 C 24.86 5.49 23.47 5.83 22.77 6.01 C 22.24 11.96 22.25 18.06 22.77 24.02 M 53.75 5.58 C 53.32 11.81 53.33 18.09 53.73 24.31 C 54.34 24.37 55.56 24.49 56.17 24.55 C 57.43 18.55 56.73 12.20 56.57 6.09 C 55.87 5.96 54.45 5.71 53.75 5.58 M 84.66 5.59 C 84.62 11.84 84.29 18.11 84.79 24.34 C 85.37 24.38 86.54 24.47 87.13 24.51 C 88.69 18.51 87.44 11.97 87.75 5.76 C 86.98 5.72 85.43 5.63 84.66 5.59 M 8.28 16.57 C 5.47 17.29 3.71 20.16 3.81 22.98 C 3.61 29.22 3.83 35.47 3.75 41.72 C 39.18 41.72 74.60 41.72 110.03 41.72 C 109.91 35.13 110.28 28.54 109.87 21.96 C 109.75 18.94 107.05 16.42 104.07 16.32 C 99.89 15.99 95.70 16.24 91.52 16.21 C 91.56 17.64 91.60 19.08 91.66 20.51 C 93.77 23.50 95.20 27.68 92.84 30.96 C 89.98 35.88 81.91 35.69 79.32 30.61 C 77.19 27.33 78.78 23.42 80.73 20.49 C 80.78 19.06 80.82 17.63 80.86 16.20 C 74.07 16.18 67.28 16.19 60.49 16.19 C 60.53 17.63 60.58 19.07 60.63 20.51 C 62.76 23.52 64.17 27.73 61.78 31.01 C 58.88 35.87 50.87 35.66 48.27 30.63 C 46.13 27.33 47.72 23.42 49.67 20.47 C 49.72 19.05 49.75 17.62 49.79 16.20 C 43.00 16.18 36.21 16.19 29.42 16.19 C 29.47 17.63 29.51 19.07 29.57 20.51 C 31.48 23.32 32.98 27.05 31.14 30.30 C 28.76 35.41 20.74 36.16 17.64 31.36 C 15.02 28.01 16.28 23.51 18.64 20.41 C 18.68 19.00 18.72 17.60 18.76 16.19 C 15.27 16.24 11.73 15.88 8.28 16.57 M 19.27 27.24 C 20.66 28.61 21.70 30.97 23.97 30.88 C 26.27 31.08 27.46 28.70 28.96 27.39 C 25.75 28.22 22.44 28.24 19.27 27.24 M 50.30 27.31 C 51.67 28.66 52.78 30.88 54.96 30.88 C 57.30 31.10 58.51 28.70 60.04 27.40 C 56.82 28.18 53.50 28.24 50.30 27.31 M 81.32 27.32 C 82.69 28.67 83.80 30.82 85.96 30.88 C 88.31 31.14 89.54 28.71 91.09 27.41 C 87.85 28.18 84.54 28.23 81.32 27.32 M 3.74 45.48 C 3.75 46.29 3.76 47.91 3.76 48.72 C 18.18 48.70 32.59 48.75 47.00 48.69 C 48.65 48.71 50.32 48.72 51.94 49.10 C 53.45 50.63 52.05 52.92 50.01 52.39 C 34.59 52.61 19.17 52.40 3.75 52.47 C 3.74 72.67 3.79 92.87 3.72 113.06 C 3.81 115.57 3.60 118.51 5.54 120.44 C 7.14 122.27 9.71 122.44 11.97 122.48 C 41.99 122.46 72.01 122.47 102.03 122.47 C 105.44 122.80 109.46 120.90 109.79 117.15 C 110.41 108.75 109.66 100.29 110.10 91.88 C 110.04 89.88 111.24 88.86 113.18 89.68 C 114.37 93.99 113.59 98.54 113.78 102.95 C 113.52 109.50 114.83 116.41 111.89 122.55 C 114.25 122.50 116.62 122.57 118.97 122.27 C 121.96 122.00 124.57 119.14 124.15 116.07 C 123.80 110.65 122.60 105.33 121.88 99.95 C 119.19 82.91 116.82 65.81 113.90 48.80 C 113.50 60.11 114.13 71.45 113.60 82.75 C 113.40 85.17 109.70 84.56 110.14 82.19 C 109.80 72.30 110.15 62.38 110.03 52.47 C 94.00 52.46 77.97 52.48 61.94 52.47 C 60.66 52.06 57.67 53.10 57.82 50.95 C 57.01 49.00 59.75 48.73 61.00 48.74 C 77.34 48.67 93.68 48.74 110.03 48.72 C 110.02 47.63 110.02 46.55 110.03 45.47 C 74.60 45.48 39.17 45.46 3.74 45.48 Z" />
<path fill="#000000" opacity="1.00" d=" M 35.82 62.33 C 38.69 61.90 41.74 61.74 44.50 62.77 C 44.49 63.39 44.46 64.63 44.44 65.25 C 41.70 66.14 38.72 66.04 35.89 65.63 C 34.36 64.57 34.33 63.47 35.82 62.33 Z" />
<path fill="#000000" opacity="1.00" d=" M 53.05 62.45 C 55.87 61.81 58.93 61.78 61.68 62.76 C 61.67 63.38 61.65 64.62 61.64 65.24 C 58.59 66.18 55.21 66.18 52.16 65.24 C 52.38 64.54 52.82 63.15 53.05 62.45 Z" />
<path fill="#000000" opacity="1.00" d=" M 70.19 62.47 C 73.01 61.78 76.08 61.80 78.85 62.74 C 78.84 63.36 78.83 64.62 78.83 65.24 C 75.78 66.17 72.41 66.18 69.36 65.26 C 69.56 64.56 69.98 63.17 70.19 62.47 Z" />
<path fill="#000000" opacity="1.00" d=" M 87.27 62.51 C 90.25 62.08 94.70 60.87 96.52 64.01 C 94.39 67.14 89.71 65.86 86.54 65.25 C 86.72 64.56 87.09 63.19 87.27 62.51 Z" />
<path fill="#000000" opacity="1.00" d=" M 18.54 77.55 C 21.47 77.25 25.78 76.02 27.69 78.96 C 26.56 82.14 22.46 80.82 19.88 80.94 C 17.95 81.20 16.54 78.60 18.54 77.55 Z" />
<path fill="#000000" opacity="1.00" d=" M 35.95 77.47 C 38.70 76.97 41.64 76.95 44.34 77.79 C 46.00 81.84 40.35 80.96 37.94 81.03 C 35.70 81.73 33.25 78.69 35.95 77.47 Z" />
<path fill="#000000" opacity="1.00" d=" M 53.12 77.53 C 55.88 76.98 58.84 76.92 61.55 77.80 C 61.60 78.41 61.72 79.62 61.78 80.23 C 58.75 81.31 55.00 81.64 52.09 80.10 C 52.35 79.46 52.86 78.17 53.12 77.53 Z" />
<path fill="#000000" opacity="1.00" d=" M 70.25 77.54 C 73.03 76.95 76.01 76.95 78.74 77.79 C 80.29 81.11 76.19 81.08 73.99 81.08 C 71.80 81.08 67.88 81.05 69.44 77.78 L 70.25 77.54 Z" />
<path fill="#000000" opacity="1.00" d=" M 87.40 77.55 C 89.89 76.99 92.52 77.02 95.04 77.46 C 96.64 78.46 96.69 79.56 95.19 80.75 C 92.29 81.15 89.15 81.44 86.40 80.22 C 86.65 79.55 87.15 78.22 87.40 77.55 Z" />
<path fill="#000000" opacity="1.00" d=" M 19.40 92.50 C 21.69 92.23 24.07 92.13 26.33 92.67 C 28.66 93.52 27.09 96.42 25.06 96.05 C 22.54 95.94 18.25 97.27 17.40 93.97 C 17.90 93.60 18.90 92.86 19.40 92.50 Z" />
<path fill="#000000" opacity="1.00" d=" M 36.12 92.61 C 38.78 92.20 41.60 92.07 44.20 92.89 C 46.18 95.88 42.13 96.25 40.05 96.20 C 37.83 96.23 33.22 96.22 35.19 92.84 L 36.12 92.61 Z" />
<path fill="#000000" opacity="1.00" d=" M 53.23 92.63 C 55.91 92.17 58.75 92.12 61.39 92.85 C 63.38 95.95 59.19 96.26 57.05 96.20 C 54.84 96.20 50.33 96.15 52.40 92.84 L 53.23 92.63 Z" />
<path fill="#000000" opacity="1.00" d=" M 70.33 92.65 C 73.04 92.15 75.91 92.12 78.58 92.85 C 80.66 96.15 76.13 96.19 73.94 96.21 C 71.78 96.21 67.64 96.03 69.57 92.84 L 70.33 92.65 Z" />
<path fill="#000000" opacity="1.00" d=" M 87.44 92.69 C 90.03 92.16 92.79 92.10 95.36 92.74 C 96.42 93.61 96.49 94.59 95.59 95.67 C 92.56 96.39 89.13 96.62 86.25 95.21 C 86.55 94.58 87.15 93.32 87.44 92.69 Z" />
<path fill="#000000" opacity="1.00" d=" M 20.38 107.52 C 22.81 107.68 27.47 106.35 27.56 109.99 C 25.57 111.99 22.48 111.20 19.96 111.18 C 17.70 111.62 17.65 109.64 17.83 107.97 C 18.47 107.85 19.74 107.63 20.38 107.52 Z" />
<path fill="#000000" opacity="1.00" d=" M 37.30 107.55 C 39.86 107.67 44.58 106.29 44.80 110.07 C 42.25 111.95 38.66 111.42 35.74 110.88 C 33.56 110.04 35.31 106.86 37.30 107.55 Z" />
<path fill="#000000" opacity="1.00" d=" M 53.44 107.80 C 56.26 107.23 59.58 106.95 62.07 108.70 C 61.72 112.29 57.49 111.10 54.99 111.25 C 52.64 112.12 50.14 108.05 53.44 107.80 Z" />
<path fill="#000000" opacity="1.00" d=" M 70.55 107.83 C 73.41 107.16 76.73 107.05 79.33 108.65 C 78.65 112.61 73.85 111.07 70.99 111.12 C 69.06 111.41 68.09 107.78 70.55 107.83 Z" />
</g>
</svg>
