<?xml version="1.0" encoding="UTF-8" ?>
<!DOCTYPE svg PUBLIC "-//W3C//DTD SVG 1.1//EN" "http://www.w3.org/Graphics/SVG/1.1/DTD/svg11.dtd">
<svg width="128pt" height="128pt" viewBox="0 0 128 128" version="1.1" xmlns="http://www.w3.org/2000/svg">
<g id="#000000ff">
<path fill="#000000" opacity="1.00" d=" M 63.54 0.00 L 64.84 0.00 C 76.21 0.48 87.38 5.48 94.82 14.17 C 106.10 26.71 108.50 46.45 100.13 61.17 C 95.44 69.11 90.25 76.74 85.39 84.57 C 93.08 86.10 100.89 87.57 107.96 91.11 C 112.66 93.40 117.37 96.60 119.48 101.59 C 121.27 105.95 119.62 111.11 116.26 114.24 C 111.71 118.51 105.89 121.12 100.00 123.00 C 89.42 126.31 78.32 127.51 67.29 128.00 L 60.88 128.00 C 46.76 127.39 32.28 125.75 19.37 119.61 C 14.30 117.01 8.79 113.10 7.98 107.02 C 6.98 101.89 10.57 97.27 14.47 94.41 C 22.72 88.52 32.85 86.46 42.61 84.57 C 37.85 76.95 32.89 69.47 28.22 61.80 C 19.84 47.65 21.54 28.60 31.78 15.84 C 39.29 6.11 51.31 0.38 63.54 0.00 M 37.58 20.51 C 29.06 31.19 27.86 47.20 35.16 58.83 C 44.71 73.97 54.38 89.04 64.00 104.14 C 72.73 90.49 81.43 76.83 90.15 63.17 C 92.84 59.05 95.49 54.77 96.62 49.92 C 99.21 39.86 96.87 28.64 90.39 20.51 C 84.55 12.99 75.40 8.13 65.88 7.66 C 55.08 6.95 44.18 11.97 37.58 20.51 M 19.18 100.24 C 16.77 101.81 13.96 104.96 16.17 107.85 C 19.46 112.01 24.71 113.91 29.55 115.65 C 43.84 120.19 59.07 120.98 73.96 120.12 C 84.78 119.22 95.82 117.53 105.65 112.67 C 108.62 111.05 112.24 108.99 112.70 105.28 C 112.12 102.33 109.37 100.54 107.00 99.05 C 99.04 94.54 89.90 92.77 80.94 91.54 C 76.26 98.71 71.84 106.05 67.05 113.14 C 65.75 115.34 62.26 115.34 60.96 113.14 C 56.16 106.05 51.74 98.71 47.06 91.54 C 37.43 92.92 27.41 94.74 19.18 100.24 Z" />
<path fill="#000000" opacity="1.00" d=" M 60.14 23.20 C 70.69 20.64 82.03 29.11 82.62 39.92 C 83.79 50.09 75.13 59.94 64.92 60.17 C 55.20 60.90 45.95 52.78 45.38 43.07 C 44.38 33.95 51.19 24.95 60.14 23.20 M 59.46 31.33 C 55.09 33.29 52.20 38.24 53.00 43.03 C 53.66 49.04 59.95 53.70 65.90 52.44 C 72.02 51.57 76.45 44.89 74.81 38.92 C 73.45 32.35 65.53 28.41 59.46 31.33 Z" />
</g>
</svg>
