<?xml version="1.0" encoding="UTF-8" ?>
<!DOCTYPE svg PUBLIC "-//W3C//DTD SVG 1.1//EN" "http://www.w3.org/Graphics/SVG/1.1/DTD/svg11.dtd">
<svg width="128pt" height="128pt" viewBox="0 0 128 128" version="1.1" xmlns="http://www.w3.org/2000/svg">
<g id="#000000ff">
<path fill="#000000" opacity="1.00" d=" M 63.55 0.00 L 64.36 0.00 C 74.05 2.53 83.79 4.96 93.37 7.89 C 97.06 9.19 96.08 13.67 93.92 15.93 C 93.09 19.75 94.88 23.17 95.64 26.74 C 93.84 29.06 91.04 26.69 90.24 24.68 C 89.34 22.15 89.65 19.39 89.51 16.75 C 88.12 17.13 86.73 17.51 85.34 17.89 C 85.33 22.57 85.30 27.26 85.38 31.94 C 90.89 35.98 95.31 41.25 100.17 46.01 C 100.21 46.77 100.29 48.30 100.33 49.06 C 105.52 49.19 110.73 48.75 115.91 49.28 C 119.11 49.58 120.50 52.83 121.82 55.30 C 123.55 59.02 126.21 62.64 125.90 66.96 C 125.85 82.38 125.84 97.80 125.90 113.23 C 126.61 114.23 127.33 115.23 128.00 116.26 L 128.00 122.65 C 127.09 124.16 125.94 125.89 123.93 125.77 C 114.57 126.07 105.19 125.72 95.82 125.90 C 94.82 126.61 93.82 127.33 92.79 128.00 L 35.24 128.00 C 34.20 127.33 33.18 126.61 32.17 125.91 C 22.80 125.72 13.42 126.08 4.06 125.77 C 2.18 125.87 1.05 124.25 0.00 122.97 L 0.00 116.29 C 0.67 115.24 1.39 114.23 2.10 113.21 C 2.17 97.79 2.14 82.36 2.10 66.94 C 1.79 62.61 4.48 58.98 6.21 55.24 C 7.50 52.79 8.90 49.64 12.03 49.29 C 17.10 48.75 22.22 49.21 27.31 49.05 C 28.25 43.88 32.75 40.67 35.65 36.61 C 37.36 34.14 39.85 32.45 42.68 31.53 C 42.67 26.99 42.66 22.44 42.67 17.89 C 39.68 17.07 36.56 16.55 33.79 15.12 C 30.80 13.30 31.87 8.20 35.32 7.63 C 44.70 4.98 54.14 2.54 63.55 0.00 M 36.29 11.72 C 45.55 14.07 54.69 17.00 64.03 18.96 C 73.35 17.02 82.47 14.06 91.72 11.73 C 83.73 9.56 75.73 7.45 67.76 5.23 C 65.90 4.77 63.95 4.05 62.06 4.80 C 53.48 7.15 44.87 9.36 36.29 11.72 M 46.94 19.05 C 46.93 23.37 46.93 27.68 46.94 32.00 C 58.31 32.00 69.69 32.00 81.06 32.00 C 81.07 27.68 81.07 23.36 81.06 19.04 C 75.35 20.37 69.81 22.46 64.02 23.39 C 58.22 22.42 52.68 20.32 46.94 19.05 M 41.45 36.65 C 38.82 39.10 36.81 42.12 34.43 44.80 C 53.95 44.80 73.46 44.81 92.98 44.79 C 90.66 42.52 88.44 40.16 86.11 37.90 C 85.26 37.13 84.35 36.17 83.08 36.31 C 70.73 36.17 58.37 36.35 46.01 36.23 C 44.50 36.33 42.88 36.05 41.45 36.65 M 32.00 49.07 C 32.00 50.49 32.00 51.91 32.00 53.33 C 53.33 53.33 74.67 53.33 96.00 53.33 C 95.99 51.91 95.99 50.49 96.00 49.06 C 74.67 49.07 53.33 49.07 32.00 49.07 M 12.34 53.55 C 10.18 55.89 9.27 59.11 7.74 61.86 C 15.83 61.87 23.91 61.86 32.00 61.87 C 31.99 60.55 31.98 59.24 31.98 57.92 C 29.72 57.19 28.07 55.62 27.38 53.33 C 22.37 53.47 17.33 53.02 12.34 53.55 M 100.61 53.33 C 99.92 55.61 98.26 57.19 96.02 57.92 C 96.01 59.24 96.00 60.55 96.00 61.87 C 104.08 61.86 112.17 61.87 120.26 61.86 C 118.74 59.10 117.81 55.93 115.69 53.56 C 110.69 53.01 105.63 53.47 100.61 53.33 M 36.26 61.86 C 54.75 61.87 73.25 61.87 91.74 61.86 C 91.73 60.44 91.72 59.02 91.72 57.60 C 73.24 57.60 54.76 57.60 36.28 57.60 C 36.27 59.02 36.27 60.44 36.26 61.86 M 6.40 66.14 C 6.40 81.78 6.40 97.42 6.40 113.06 C 16.36 113.07 26.31 113.07 36.26 113.06 C 36.27 97.42 36.27 81.78 36.26 66.14 C 26.31 66.13 16.35 66.13 6.40 66.14 M 40.54 66.14 C 40.53 81.78 40.53 97.42 40.54 113.06 C 44.80 113.07 49.07 113.07 53.33 113.06 C 53.36 105.01 53.31 96.96 53.33 88.90 C 53.34 87.63 53.31 85.51 55.08 85.47 C 60.40 85.13 65.75 85.40 71.09 85.33 C 72.37 85.34 74.49 85.32 74.53 87.09 C 74.88 95.74 74.55 104.41 74.67 113.06 C 78.93 113.07 83.20 113.07 87.46 113.06 C 87.47 97.42 87.47 81.78 87.46 66.14 C 71.82 66.13 56.18 66.13 40.54 66.14 M 91.74 66.14 C 91.73 81.78 91.73 97.42 91.74 113.06 C 101.69 113.07 111.64 113.07 121.60 113.06 C 121.60 97.42 121.59 81.78 121.60 66.14 C 111.65 66.13 101.69 66.13 91.74 66.14 M 57.60 89.60 C 57.60 97.42 57.60 105.24 57.60 113.06 C 61.87 113.07 66.13 113.07 70.40 113.06 C 70.40 105.24 70.40 97.42 70.40 89.60 C 66.13 89.60 61.87 89.60 57.60 89.60 M 4.26 117.33 C 4.27 118.75 4.27 120.18 4.27 121.60 C 13.51 121.60 22.75 121.60 32.00 121.60 C 31.99 120.18 31.99 118.75 32.00 117.33 C 22.75 117.34 13.51 117.33 4.26 117.33 M 36.27 117.33 C 36.27 119.47 36.27 121.60 36.27 123.73 C 54.76 123.73 73.24 123.73 91.73 123.73 C 91.73 121.60 91.73 119.47 91.73 117.33 C 73.24 117.33 54.76 117.33 36.27 117.33 M 96.00 117.33 C 96.01 118.75 96.01 120.18 96.00 121.60 C 105.25 121.60 114.49 121.60 123.73 121.60 C 123.73 120.18 123.73 118.75 123.74 117.33 C 114.49 117.33 105.25 117.34 96.00 117.33 Z" />
<path fill="#000000" opacity="1.00" d=" M 56.00 70.90 C 57.67 69.63 59.94 70.87 59.73 72.94 C 59.70 74.99 60.45 78.06 57.98 79.01 C 54.16 78.65 55.36 73.43 56.00 70.90 Z" />
<path fill="#000000" opacity="1.00" d=" M 68.52 71.46 C 69.49 70.24 70.66 70.07 72.05 70.96 C 72.80 73.18 72.75 75.62 72.24 77.89 C 71.41 79.35 69.10 79.26 68.48 77.66 C 68.08 75.63 68.08 73.48 68.52 71.46 Z" />
<path fill="#000000" opacity="1.00" d=" M 13.33 73.19 C 14.72 71.68 17.21 72.89 17.04 74.89 C 17.01 76.93 17.93 80.73 14.96 81.06 C 11.55 80.48 12.68 75.57 13.33 73.19 Z" />
<path fill="#000000" opacity="1.00" d=" M 26.22 73.14 C 27.54 71.66 30.11 73.02 29.85 74.90 C 29.79 76.95 30.71 80.39 27.99 81.09 C 24.38 80.74 25.35 75.47 26.22 73.14 Z" />
<path fill="#000000" opacity="1.00" d=" M 98.51 73.36 C 99.51 72.14 101.83 72.26 102.24 73.98 C 102.57 75.95 102.54 78.00 102.17 79.97 C 101.35 81.48 98.75 81.42 98.31 79.64 C 97.96 77.58 97.89 75.38 98.51 73.36 Z" />
<path fill="#000000" opacity="1.00" d=" M 111.34 73.31 C 112.69 71.64 115.41 72.83 115.18 74.94 C 115.16 77.01 116.04 80.88 112.99 81.06 C 109.71 80.32 110.93 75.71 111.34 73.31 Z" />
<path fill="#000000" opacity="1.00" d=" M 14.45 85.38 C 17.95 85.06 17.15 89.76 16.97 91.98 C 17.01 94.39 12.92 94.47 12.91 92.03 C 12.87 89.89 11.89 86.36 14.45 85.38 Z" />
<path fill="#000000" opacity="1.00" d=" M 27.40 85.35 C 30.45 85.15 29.96 89.04 29.88 91.04 C 30.13 92.50 28.76 94.42 27.19 93.74 C 25.39 93.45 25.66 91.36 25.53 90.01 C 25.64 88.37 25.18 85.70 27.40 85.35 Z" />
<path fill="#000000" opacity="1.00" d=" M 99.37 85.52 C 103.19 84.47 102.61 89.86 102.28 92.17 C 102.04 94.52 98.23 94.29 98.22 91.98 C 98.22 89.91 97.32 86.87 99.37 85.52 Z" />
<path fill="#000000" opacity="1.00" d=" M 112.38 85.48 C 113.89 84.80 115.42 86.41 115.20 87.94 C 115.15 89.88 115.87 92.71 113.76 93.80 C 109.76 94.29 109.95 86.99 112.38 85.48 Z" />
<path fill="#000000" opacity="1.00" d=" M 14.37 98.25 C 17.90 97.64 17.22 102.70 16.93 104.94 C 16.84 107.12 13.16 107.24 12.95 105.04 C 12.88 102.88 11.84 99.30 14.37 98.25 Z" />
<path fill="#000000" opacity="1.00" d=" M 26.50 98.49 C 27.74 97.62 29.77 98.44 29.78 100.03 C 29.82 102.24 30.77 105.76 28.05 106.71 C 24.43 106.37 25.09 100.67 26.50 98.49 Z" />
<path fill="#000000" opacity="1.00" d=" M 99.34 98.40 C 100.35 97.58 102.30 98.57 102.27 99.89 C 102.36 102.07 103.23 105.28 100.95 106.63 C 96.99 106.99 97.26 100.19 99.34 98.40 Z" />
<path fill="#000000" opacity="1.00" d=" M 112.30 98.23 C 114.01 97.64 115.43 99.25 115.21 100.91 C 115.24 102.94 115.83 106.41 113.00 106.74 C 109.84 105.79 110.15 100.00 112.30 98.23 Z" />
</g>
</svg>
