<?xml version="1.0" encoding="UTF-8" ?>
<!DOCTYPE svg PUBLIC "-//W3C//DTD SVG 1.1//EN" "http://www.w3.org/Graphics/SVG/1.1/DTD/svg11.dtd">
<svg width="128pt" height="128pt" viewBox="0 0 128 128" version="1.1" xmlns="http://www.w3.org/2000/svg">
<g id="#000000ff">
<path fill="#000000" opacity="1.00" d=" M 62.24 0.00 L 65.00 0.00 C 67.31 4.26 66.22 9.40 66.13 14.02 C 66.17 16.53 62.17 17.13 61.56 14.66 C 60.97 9.82 60.75 4.72 62.24 0.00 Z" />
<path fill="#000000" opacity="1.00" d=" M 21.31 1.35 C 22.33 0.09 24.23 0.83 25.11 1.86 C 28.21 4.90 31.49 7.81 34.23 11.19 C 35.91 13.25 32.53 16.12 30.71 14.30 C 27.53 11.57 24.66 8.50 21.74 5.49 C 20.53 4.49 19.77 2.46 21.31 1.35 Z" />
<path fill="#000000" opacity="1.00" d=" M 103.30 1.20 C 105.26 -0.67 108.45 2.72 106.56 4.61 C 103.44 8.09 100.16 11.49 96.57 14.48 C 94.42 16.13 91.47 12.46 93.68 10.71 C 96.73 7.41 99.86 4.11 103.30 1.20 Z" />
<path fill="#000000" opacity="1.00" d=" M 51.08 21.72 C 53.99 20.87 57.04 20.25 60.05 21.01 C 66.55 22.30 73.08 23.43 79.61 24.55 C 84.29 25.56 85.95 30.63 85.85 34.88 C 87.81 36.26 90.16 37.42 91.29 39.64 C 92.17 41.61 92.13 43.83 92.43 45.93 C 94.13 47.08 96.04 48.05 97.32 49.71 C 98.81 51.77 98.68 54.44 99.04 56.84 C 101.43 58.46 104.31 60.06 105.05 63.10 C 106.33 66.46 104.40 69.72 102.82 72.57 C 105.41 75.17 108.00 77.77 110.65 80.32 C 113.48 79.96 116.73 78.98 119.25 80.90 C 122.31 83.14 125.20 85.84 127.07 89.16 C 128.81 92.72 127.14 96.82 124.39 99.33 C 116.05 107.65 107.70 115.96 99.38 124.31 C 96.87 127.07 92.80 128.81 89.21 127.10 C 85.83 125.23 83.10 122.32 80.83 119.24 C 78.94 116.72 79.91 113.48 80.27 110.65 C 77.00 107.27 73.65 103.97 70.29 100.69 C 66.07 100.81 61.79 100.00 57.62 100.79 C 53.77 103.41 50.91 107.23 47.53 110.40 C 48.06 113.33 49.17 116.69 47.22 119.37 C 44.57 123.04 41.24 126.65 36.77 128.00 L 34.48 128.00 C 29.93 126.64 26.58 122.91 23.79 119.26 C 22.37 117.53 24.95 114.71 26.84 116.02 C 29.89 117.97 31.77 121.46 35.14 122.94 C 38.57 122.58 40.84 119.26 42.86 116.75 C 44.38 114.68 42.15 112.63 40.84 111.18 C 32.99 103.34 25.10 95.54 17.30 87.66 C 15.75 86.28 13.69 83.83 11.46 85.41 C 8.99 87.40 5.77 89.62 5.29 92.94 C 6.65 96.66 10.69 98.57 12.60 102.00 C 12.79 104.47 9.66 105.86 8.08 103.87 C 4.46 100.51 -0.72 96.67 0.39 91.05 C 1.56 86.88 5.18 83.98 8.40 81.34 C 10.82 79.33 14.08 80.11 16.93 80.30 C 19.57 77.75 22.16 75.15 24.76 72.56 C 23.35 69.99 21.49 67.23 22.23 64.14 C 22.57 61.02 25.25 59.10 27.50 57.31 C 26.91 54.65 25.87 51.78 27.14 49.14 C 28.10 46.49 30.76 45.17 32.91 43.62 C 33.17 41.68 33.17 39.67 33.88 37.82 C 34.90 35.34 37.44 34.11 39.52 32.69 C 39.82 29.76 39.84 26.37 42.27 24.28 C 44.49 21.79 48.04 21.95 51.08 21.72 M 54.92 25.51 C 56.36 29.40 59.39 32.29 62.76 34.56 C 64.90 32.47 67.11 30.44 69.07 28.16 C 64.55 26.53 59.65 26.16 54.92 25.51 M 45.02 29.06 C 43.68 32.14 47.07 34.25 48.81 36.24 C 52.26 39.24 54.93 43.23 58.96 45.49 C 62.19 46.12 63.73 42.85 63.32 40.13 C 57.19 37.86 52.24 32.95 49.97 26.82 C 48.17 27.08 45.69 26.90 45.02 29.06 M 75.37 29.48 C 72.36 31.65 70.02 34.58 67.37 37.14 C 68.35 40.12 69.08 43.56 67.17 46.35 C 65.73 49.09 62.67 50.06 59.90 50.82 C 59.27 55.45 55.75 59.02 51.10 59.62 C 50.46 64.21 46.96 67.83 42.31 68.34 C 41.60 71.21 40.49 74.35 37.66 75.76 C 34.89 77.57 31.51 76.80 28.58 75.90 C 25.88 78.51 23.23 81.19 20.57 83.85 C 28.30 91.57 36.03 99.28 43.76 107.00 C 47.37 103.62 50.53 99.75 54.43 96.69 C 59.85 93.74 66.30 96.97 71.94 95.01 C 74.44 94.02 76.42 89.55 79.35 91.61 C 81.94 94.52 77.41 96.96 75.69 98.91 C 78.43 101.65 81.17 104.39 83.91 107.12 C 91.64 99.40 99.37 91.68 107.09 83.96 C 104.44 81.30 101.78 78.64 99.11 76.00 C 98.09 76.74 97.09 77.53 95.99 78.15 C 94.18 78.67 92.52 76.75 93.04 75.02 C 95.03 71.99 98.31 70.05 100.20 66.94 C 101.62 63.83 97.35 60.47 94.78 62.77 C 92.86 64.10 90.18 67.77 88.00 64.79 C 86.71 61.82 90.54 60.11 92.01 58.03 C 94.31 56.42 94.49 52.54 91.67 51.37 C 88.72 50.01 86.77 53.28 84.64 54.69 C 83.02 56.52 79.90 54.14 80.85 52.05 C 82.57 49.41 85.40 47.70 86.98 44.97 C 88.26 42.19 84.95 38.95 82.20 40.34 C 80.38 41.52 78.98 43.25 77.09 44.32 C 75.29 44.73 73.66 42.75 74.25 41.04 C 75.95 38.51 78.62 36.80 80.30 34.26 C 81.91 31.35 78.24 27.66 75.37 29.48 M 40.16 38.20 C 38.06 39.19 37.37 42.25 39.10 43.91 C 42.10 47.20 45.25 50.39 48.57 53.36 C 51.21 56.09 56.09 52.49 54.25 49.15 C 51.97 45.99 48.88 43.51 46.22 40.68 C 44.66 39.12 42.57 36.94 40.16 38.20 M 33.33 49.33 C 31.53 50.32 30.85 53.04 32.31 54.62 C 34.76 57.49 37.40 60.27 40.40 62.57 C 43.27 64.60 47.26 60.62 45.29 57.74 C 43.18 54.89 40.49 52.50 37.90 50.08 C 36.74 48.84 34.83 48.42 33.33 49.33 M 29.32 62.35 C 25.12 64.31 27.99 69.32 30.95 70.94 C 33.50 73.47 38.15 70.40 36.80 67.06 C 35.33 64.55 32.61 61.12 29.32 62.35 M 113.24 85.23 C 104.55 93.17 96.56 101.88 88.07 110.04 C 86.60 111.73 83.98 113.39 84.77 115.98 C 86.48 118.59 88.75 120.95 91.44 122.56 C 93.46 123.30 95.02 121.43 96.35 120.23 C 104.30 112.23 112.29 104.26 120.29 96.32 C 121.48 95.00 123.29 93.47 122.56 91.48 C 121.68 89.78 120.26 88.46 118.92 87.13 C 117.48 85.74 115.29 83.63 113.24 85.23 Z" />
<path fill="#000000" opacity="1.00" d=" M 84.36 83.44 C 87.10 81.44 89.91 86.48 86.74 87.79 C 84.03 89.37 81.61 84.83 84.36 83.44 Z" />
<path fill="#000000" opacity="1.00" d=" M 16.10 108.05 C 18.61 105.87 21.72 110.53 18.90 112.18 C 16.30 114.08 13.29 109.65 16.10 108.05 Z" />
</g>
</svg>
