<?xml version="1.0" encoding="UTF-8" ?>
<!DOCTYPE svg PUBLIC "-//W3C//DTD SVG 1.1//EN" "http://www.w3.org/Graphics/SVG/1.1/DTD/svg11.dtd">
<svg width="128pt" height="128pt" viewBox="0 0 128 128" version="1.1" xmlns="http://www.w3.org/2000/svg">
<g id="#000000ff">
<path fill="#000000" opacity="1.00" d=" M 40.88 29.91 C 42.91 22.48 50.25 17.00 57.94 17.08 C 67.86 17.08 77.80 16.75 87.70 17.31 C 87.83 27.53 89.00 38.02 86.25 48.00 C 85.61 52.19 86.12 56.59 84.49 60.59 C 83.22 64.29 80.62 67.27 77.97 70.05 C 77.95 72.03 77.95 74.00 77.96 75.98 C 79.50 77.73 81.01 79.52 82.46 81.36 C 85.48 82.45 88.45 83.72 91.53 84.62 C 94.48 85.39 98.92 84.35 98.33 80.49 C 95.87 78.25 93.42 75.64 92.78 72.25 C 92.19 68.89 92.02 65.44 90.86 62.21 C 88.52 55.67 93.66 48.01 100.51 47.37 C 107.53 46.78 114.62 47.07 121.66 47.30 C 122.11 52.76 122.60 58.43 120.81 63.72 C 119.72 67.03 120.14 70.63 119.07 73.94 C 117.91 77.56 113.59 79.51 113.81 83.64 C 117.26 84.62 120.86 85.27 124.09 86.90 C 126.51 88.08 127.55 90.75 128.00 93.25 L 128.00 110.50 C 126.88 110.50 125.72 110.78 124.64 110.37 C 123.32 104.12 125.40 97.49 123.47 91.37 C 120.60 88.56 116.21 88.41 112.56 87.18 C 111.02 88.75 109.48 90.32 107.93 91.89 C 107.69 98.09 108.52 104.38 107.48 110.53 C 106.53 110.89 105.58 110.87 104.64 110.48 C 103.62 104.35 104.42 98.08 104.21 91.88 C 102.23 89.93 100.45 87.18 97.34 87.16 C 101.24 93.77 99.91 101.71 99.82 109.00 C 99.97 110.97 98.01 111.14 96.65 110.48 C 95.06 104.11 97.82 97.03 94.98 91.01 C 90.89 87.29 84.93 86.72 80.02 84.47 C 77.90 87.43 76.33 90.91 73.52 93.29 C 70.38 95.03 68.01 91.44 65.88 89.71 C 65.71 96.38 66.36 103.11 65.60 109.75 C 65.61 111.35 62.30 111.16 62.41 109.67 C 61.78 103.05 62.31 96.36 62.18 89.71 C 60.07 91.41 57.82 94.88 54.69 93.40 C 51.77 91.04 50.20 87.47 48.04 84.47 C 44.19 85.92 40.26 87.17 36.44 88.72 C 34.49 89.49 32.50 90.88 32.12 93.09 C 31.18 98.80 32.51 104.66 31.42 110.36 C 30.20 111.35 27.93 110.87 28.23 108.99 C 27.90 102.16 27.54 95.15 29.37 88.47 C 25.90 89.12 23.61 92.62 19.97 92.59 C 16.80 92.70 14.43 90.33 12.14 88.50 C 9.47 89.94 6.27 90.87 4.32 93.33 C 2.86 98.91 4.55 104.81 3.34 110.44 C 2.24 110.62 1.11 110.56 0.00 110.55 L 0.00 93.94 C 0.98 89.37 5.47 87.52 9.25 85.75 C 6.74 84.10 3.75 82.68 2.33 79.88 C 2.30 76.91 3.43 74.06 3.56 71.09 C 4.04 65.32 3.48 58.95 7.09 54.00 C 11.21 47.59 20.33 45.19 27.02 48.88 C 32.88 51.87 35.96 58.50 35.92 64.89 C 35.90 69.86 36.79 74.74 37.57 79.62 C 36.24 82.74 32.84 84.11 30.39 86.18 C 34.74 86.12 38.56 83.70 42.65 82.49 C 46.08 81.64 47.91 78.43 50.10 75.97 C 50.11 73.96 50.12 71.95 50.13 69.93 C 47.65 67.24 45.19 64.41 43.87 60.95 C 41.68 56.12 42.66 50.65 41.27 45.64 C 39.88 40.54 39.56 35.06 40.88 29.91 M 44.24 31.87 C 43.50 36.21 43.63 40.77 45.02 44.97 C 46.53 49.22 45.30 53.89 46.79 58.15 C 48.94 65.20 55.56 70.80 63.03 71.06 C 70.90 71.66 78.68 66.39 81.15 58.92 C 82.58 55.13 81.83 51.00 82.45 47.09 C 85.42 38.63 83.77 29.55 84.18 20.79 C 75.47 20.82 66.76 20.71 58.05 20.82 C 51.58 20.67 45.53 25.55 44.24 31.87 M 13.16 53.18 C 8.85 56.12 7.62 61.67 7.60 66.59 C 10.68 68.42 9.72 72.56 11.91 75.05 C 15.04 79.42 21.85 80.39 26.04 77.00 C 28.29 75.46 29.21 72.83 30.07 70.37 C 27.28 65.89 22.20 63.11 16.94 62.97 C 15.04 63.95 13.58 67.38 11.15 65.81 C 9.90 63.01 13.43 60.89 15.29 59.33 C 21.75 58.78 28.28 61.92 32.41 66.85 C 31.99 63.05 31.77 58.93 29.31 55.80 C 25.82 50.71 18.07 49.42 13.16 53.18 M 94.60 61.52 C 95.83 64.17 96.01 67.06 96.21 69.93 C 96.56 74.47 100.41 78.43 104.93 78.95 C 109.59 79.66 114.37 76.46 115.65 71.96 C 116.40 68.74 115.89 65.29 117.26 62.20 C 118.67 58.58 118.21 54.64 118.24 50.85 C 112.48 50.98 106.69 50.56 100.94 51.05 C 96.16 51.47 92.58 57.06 94.60 61.52 M 53.86 72.42 C 53.87 73.28 53.88 75.00 53.89 75.86 C 57.27 78.16 60.65 80.47 64.03 82.78 C 67.41 80.48 70.79 78.16 74.17 75.86 C 74.18 75.01 74.19 73.31 74.20 72.46 C 67.78 75.46 60.23 75.62 53.86 72.42 M 7.00 74.72 C 6.65 76.13 6.30 77.54 5.93 78.96 C 7.89 80.48 10.01 81.77 12.29 82.77 C 11.92 79.35 8.71 77.45 7.00 74.72 M 27.55 82.78 C 29.82 81.80 31.94 80.52 33.86 78.95 C 33.50 77.46 33.15 75.95 32.82 74.45 C 31.35 77.44 28.00 79.30 27.55 82.78 M 50.57 81.30 C 52.22 84.38 54.43 87.11 56.20 90.12 C 57.86 88.54 59.49 86.94 61.09 85.31 C 58.09 83.26 55.09 81.22 52.08 79.18 C 51.71 79.71 50.95 80.77 50.57 81.30 M 66.95 85.37 C 68.56 86.95 70.16 88.53 71.76 90.11 C 73.64 87.16 75.82 84.40 77.45 81.30 C 77.08 80.77 76.32 79.71 75.94 79.18 C 72.93 81.22 69.91 83.25 66.95 85.37 M 15.91 82.41 C 15.77 83.38 15.48 85.32 15.33 86.29 C 16.79 87.28 18.08 89.01 20.03 88.87 C 21.86 88.85 23.09 87.30 24.47 86.34 C 24.34 85.35 24.06 83.38 23.92 82.39 C 21.26 82.79 18.57 82.80 15.91 82.41 M 101.59 82.39 C 102.07 85.03 104.30 86.64 106.07 88.41 C 107.83 86.63 110.02 85.01 110.58 82.41 C 107.59 82.79 104.58 82.82 101.59 82.39 Z" />
<path fill="#000000" opacity="1.00" d=" M 52.04 34.74 C 60.19 33.79 69.11 33.37 76.52 37.49 C 77.91 38.54 80.43 39.62 79.68 41.76 C 79.02 43.30 77.19 42.60 76.24 41.81 C 69.28 36.72 60.16 37.81 52.09 38.38 C 51.92 40.44 51.75 42.51 51.47 44.56 C 50.47 44.57 49.47 44.56 48.48 44.54 C 47.93 41.13 47.19 35.11 52.04 34.74 Z" />
<path fill="#000000" opacity="1.00" d=" M 99.27 57.46 C 103.73 56.83 108.51 57.61 112.69 59.32 C 114.75 59.79 113.93 63.40 111.90 62.66 C 108.02 61.59 104.04 61.07 100.03 60.74 C 98.17 61.02 97.63 57.83 99.27 57.46 Z" />
<path fill="#000000" opacity="1.00" d=" M 117.36 95.50 C 118.52 94.99 119.81 95.54 119.83 96.92 C 120.07 101.21 120.24 105.57 119.70 109.83 C 119.21 111.67 115.98 110.91 116.33 108.99 C 116.28 104.60 115.67 100.02 116.75 95.73 L 117.36 95.50 Z" />
<path fill="#000000" opacity="1.00" d=" M 8.37 98.44 C 9.46 97.48 10.50 97.54 11.51 98.61 C 12.00 102.26 11.97 106.00 11.55 109.65 C 11.50 111.15 8.49 111.36 8.33 109.83 C 7.78 106.08 7.78 102.18 8.37 98.44 Z" />
<path fill="#000000" opacity="1.00" d=" M 41.36 99.43 C 42.52 99.08 43.80 99.72 43.71 101.06 C 43.99 103.93 44.07 106.87 43.59 109.72 C 43.36 111.24 40.62 111.30 40.36 109.76 C 39.97 106.43 39.58 102.83 40.72 99.62 L 41.36 99.43 Z" />
<path fill="#000000" opacity="1.00" d=" M 84.34 100.99 C 84.26 99.20 86.27 99.57 87.45 99.20 C 88.01 102.70 88.33 106.32 87.66 109.83 C 87.31 111.37 84.57 111.20 84.41 109.62 C 83.98 106.77 84.03 103.85 84.34 100.99 Z" />
</g>
</svg>
