<?xml version="1.0" encoding="UTF-8" ?>
<!DOCTYPE svg PUBLIC "-//W3C//DTD SVG 1.1//EN" "http://www.w3.org/Graphics/SVG/1.1/DTD/svg11.dtd">
<svg width="128pt" height="128pt" viewBox="0 0 128 128" version="1.1" xmlns="http://www.w3.org/2000/svg">
<g id="#000000ff">
<path fill="#000000" opacity="1.00" d=" M 38.66 0.00 L 44.29 0.00 C 57.52 1.17 70.07 8.75 76.75 20.31 C 81.27 27.68 82.85 36.45 82.47 45.00 C 94.36 45.10 106.25 44.81 118.13 45.11 C 123.07 45.17 126.87 49.25 128.00 53.82 L 128.00 104.72 C 127.48 107.50 126.42 110.37 124.09 112.14 C 120.94 114.80 116.58 114.44 112.73 114.68 C 112.86 119.13 113.01 123.64 111.92 128.00 L 109.63 128.00 C 103.84 123.79 98.53 118.96 92.91 114.53 C 82.28 114.54 71.64 114.51 61.01 114.57 C 57.98 114.51 54.71 114.60 52.04 112.93 C 48.96 111.12 47.08 107.64 47.07 104.08 C 46.82 96.81 47.09 89.53 47.00 82.25 C 36.18 83.49 25.09 80.64 16.29 74.21 C 12.25 75.18 8.29 76.74 4.11 76.90 C 3.73 76.43 2.97 75.50 2.59 75.04 C 3.51 71.28 5.44 67.88 6.98 64.36 C 3.12 58.27 0.63 51.35 0.00 44.15 L 0.00 38.78 C 0.67 32.42 2.14 25.91 5.71 20.52 C 6.82 18.46 10.55 19.35 10.01 21.86 C 9.15 25.07 7.36 27.94 6.46 31.14 C 4.22 38.72 4.58 47.07 7.49 54.42 C 8.77 57.77 11.00 60.64 12.30 63.98 C 11.76 66.33 10.66 68.50 9.70 70.70 C 12.11 70.12 14.49 69.29 16.98 69.14 C 19.57 69.85 21.59 71.81 23.95 73.03 C 37.50 80.88 55.99 78.05 66.86 66.86 C 78.67 55.46 80.93 35.80 71.96 22.04 C 63.19 7.44 43.33 0.83 27.68 7.73 C 25.27 8.45 22.86 10.68 20.27 9.65 C 18.60 8.31 19.50 6.00 21.22 5.23 C 26.48 2.07 32.61 0.64 38.66 0.00 M 81.64 50.01 C 78.39 64.84 66.61 77.14 52.00 81.18 C 52.02 88.12 51.98 95.06 51.98 102.00 C 52.01 104.11 52.00 106.60 53.81 108.06 C 56.34 110.21 59.93 109.36 62.97 109.56 C 73.56 109.72 84.21 109.12 94.76 109.83 C 99.33 112.96 103.38 116.80 107.75 120.21 C 108.20 116.82 106.54 112.48 109.05 109.76 C 112.64 109.14 116.44 110.12 119.93 108.91 C 122.60 107.77 123.16 104.64 123.02 102.05 C 122.95 86.66 123.07 71.26 122.96 55.87 C 123.23 52.64 120.37 49.76 117.13 50.04 C 105.30 49.93 93.47 50.03 81.64 50.01 Z" />
<path fill="#000000" opacity="1.00" d=" M 13.36 11.41 C 15.21 10.94 17.16 13.23 16.05 14.88 C 15.43 16.73 12.55 16.84 11.75 15.10 C 10.78 13.76 11.74 11.65 13.36 11.41 Z" />
<path fill="#000000" opacity="1.00" d=" M 38.83 23.01 C 39.35 20.68 43.29 20.94 43.44 23.33 C 43.83 26.96 43.56 30.63 43.60 34.28 C 47.59 34.34 51.61 34.00 55.59 34.45 C 57.89 34.68 58.11 38.35 55.94 39.03 C 51.90 39.55 47.80 39.18 43.74 39.28 C 44.78 43.44 46.25 47.62 49.14 50.89 C 51.23 53.56 54.30 55.12 56.72 57.43 C 58.21 58.96 55.95 62.01 54.03 60.98 C 48.20 58.42 44.03 53.16 41.10 47.66 C 38.16 53.29 33.85 58.57 27.89 61.13 C 26.05 61.45 24.86 59.68 24.97 58.02 C 27.16 55.51 30.32 54.09 32.50 51.57 C 35.71 48.19 37.36 43.73 38.50 39.29 C 35.34 39.24 32.16 39.48 29.02 39.07 C 26.77 38.92 26.45 35.46 28.38 34.58 C 31.75 33.96 35.21 34.33 38.61 34.27 C 38.66 30.52 38.34 26.74 38.83 23.01 Z" />
<path fill="#000000" opacity="1.00" d=" M 85.25 64.13 C 85.83 62.01 89.12 61.99 89.74 64.13 C 92.65 69.92 94.83 76.06 97.74 81.86 C 99.28 82.53 100.67 83.48 101.86 84.68 C 101.25 85.62 100.65 86.56 100.05 87.50 C 101.16 89.95 102.49 92.35 103.09 94.99 C 103.19 97.02 100.74 98.22 99.14 97.05 C 97.19 94.06 96.08 90.63 94.61 87.40 C 89.87 87.40 85.13 87.40 80.39 87.40 C 78.92 90.64 77.82 94.08 75.84 97.05 C 74.22 98.18 71.95 97.06 71.87 95.09 C 72.50 92.42 73.83 89.98 74.96 87.49 C 74.35 86.56 73.75 85.64 73.14 84.71 C 74.30 83.47 75.70 82.53 77.26 81.86 C 80.17 76.06 82.36 69.93 85.25 64.13 M 87.50 71.26 C 85.86 74.96 84.23 78.68 82.62 82.40 C 85.87 82.40 89.13 82.40 92.39 82.40 C 90.77 78.68 89.14 74.96 87.50 71.26 Z" />
</g>
</svg>
