<?xml version="1.0" encoding="UTF-8" ?>
<!DOCTYPE svg PUBLIC "-//W3C//DTD SVG 1.1//EN" "http://www.w3.org/Graphics/SVG/1.1/DTD/svg11.dtd">
<svg width="400pt" height="225pt" viewBox="0 0 400 225" version="1.1" xmlns="http://www.w3.org/2000/svg">
<g id="#ffffffff">
<path fill="#ffffff" opacity="1.00" d=" M 214.16 92.12 C 217.03 86.70 223.95 84.08 229.80 85.34 C 229.90 85.97 230.10 87.22 230.20 87.84 C 230.54 88.37 231.22 89.42 231.56 89.94 C 230.08 92.02 228.49 96.88 225.27 94.98 C 222.31 93.17 218.81 94.89 216.65 97.11 C 214.48 96.57 212.88 94.27 214.16 92.12 Z" />
<path fill="#ffffff" opacity="1.00" d=" M 170.36 88.29 C 175.65 86.22 182.02 88.33 185.73 92.45 C 187.52 94.19 187.37 97.86 184.73 98.64 C 181.51 96.33 177.12 95.29 174.01 98.41 C 171.88 96.90 169.82 95.11 169.08 92.50 C 169.88 91.22 170.18 89.76 170.36 88.29 Z" />
<path fill="#ffffff" opacity="1.00" d=" M 220.62 99.45 C 223.45 98.78 220.85 103.75 218.91 102.69 C 218.06 101.44 219.86 100.26 220.62 99.45 Z" />
<path fill="#ffffff" opacity="1.00" d=" M 236.65 104.05 C 237.67 100.93 241.04 99.65 243.97 99.01 C 251.21 97.67 258.58 99.73 264.97 103.09 C 264.51 103.44 263.59 104.14 263.13 104.49 C 264.20 106.44 265.63 108.15 266.82 110.02 C 265.66 112.39 264.37 114.74 262.41 116.56 C 257.69 114.96 252.66 114.44 247.71 114.66 C 247.69 115.57 247.67 116.48 247.64 117.40 C 250.87 115.52 254.87 116.57 258.36 117.12 C 254.57 117.52 250.68 117.07 247.02 118.31 C 246.75 117.97 246.22 117.29 245.95 116.95 C 246.12 116.44 246.47 115.41 246.64 114.90 C 243.73 115.77 240.74 116.37 237.73 116.82 C 237.47 116.21 236.93 115.00 236.67 114.39 L 236.67 114.39 C 236.03 112.33 236.11 110.05 238.84 110.27 C 237.77 108.38 235.97 106.36 236.65 104.05 Z" />
<path fill="#ffffff" opacity="1.00" d=" M 179.13 101.27 C 180.89 101.76 182.48 103.03 182.72 104.94 C 181.19 104.09 179.91 102.85 179.13 101.27 Z" />
<path fill="#ffffff" opacity="1.00" d=" M 136.99 109.64 C 142.64 105.22 149.92 102.92 157.08 103.29 C 160.29 103.49 164.07 104.63 165.40 107.88 C 165.67 110.10 164.50 112.08 163.72 114.06 C 164.35 114.28 165.60 114.70 166.23 114.91 C 166.24 120.90 163.02 126.59 158.56 130.45 C 156.46 131.32 154.31 132.11 152.09 132.63 C 144.95 129.85 138.59 124.42 136.06 117.03 C 136.11 114.63 137.90 112.84 139.05 110.89 C 138.53 110.58 137.50 109.95 136.99 109.64 Z" />
<path fill="#ffffff" opacity="1.00" d=" M 195.16 104.23 C 202.12 100.46 211.19 104.14 214.66 110.98 C 214.10 111.60 212.99 112.85 212.43 113.48 C 214.26 113.04 216.53 112.00 217.13 114.50 C 215.53 114.37 213.96 114.79 213.23 116.32 C 216.97 116.36 221.24 114.25 224.56 116.66 C 225.78 117.18 225.79 118.53 225.14 119.54 C 224.30 119.13 223.46 118.72 222.62 118.31 C 219.24 122.61 212.93 122.89 207.96 121.92 C 204.98 121.53 201.73 119.55 202.16 116.11 C 203.06 115.02 203.65 113.76 203.94 112.38 C 205.22 111.49 207.99 111.09 207.42 108.93 C 207.58 107.67 206.46 106.28 205.20 106.21 C 202.13 106.04 199.00 106.12 196.00 106.82 C 193.07 108.98 195.15 112.93 198.51 112.71 C 198.72 113.26 199.15 114.36 199.36 114.91 C 199.70 115.15 200.38 115.63 200.72 115.87 C 200.98 118.19 201.59 120.86 199.80 122.76 C 195.17 128.03 186.82 128.80 180.80 125.57 C 180.15 126.58 179.22 127.13 178.00 127.24 C 177.95 124.73 179.63 122.95 181.20 121.23 C 183.83 120.75 186.50 120.69 189.17 120.70 C 188.94 118.44 186.38 119.71 184.97 119.40 C 185.57 116.65 187.96 117.50 189.91 117.82 C 189.06 116.66 187.86 115.87 186.66 115.13 C 188.13 110.66 190.60 106.14 195.16 104.23 Z" />
<path fill="#ffffff" opacity="1.00" d=" M 214.29 125.06 C 215.25 123.07 217.63 123.24 219.44 122.70 C 218.76 124.05 217.88 125.29 216.90 126.43 C 216.25 126.09 214.94 125.40 214.29 125.06 Z" />
<path fill="#ffffff" opacity="1.00" d=" M 200.52 124.81 C 204.88 124.08 209.46 122.83 213.80 124.34 L 213.00 124.91 C 208.05 125.57 203.00 127.22 198.04 126.95 C 197.66 125.47 199.52 125.23 200.52 124.81 Z" />
<path fill="#ffffff" opacity="1.00" d=" M 248.28 128.99 C 250.51 126.21 254.81 126.28 257.15 128.86 C 259.65 131.33 259.32 136.41 255.88 137.91 C 257.18 135.49 258.32 132.25 255.93 130.07 C 254.05 127.65 250.82 128.56 248.28 128.99 Z" />
<path fill="#ffffff" opacity="1.00" d=" M 187.97 129.72 C 188.71 128.82 189.72 128.57 191.00 128.97 C 192.18 129.79 192.24 130.61 191.21 131.42 C 189.90 131.26 188.82 130.70 187.97 129.72 Z" />
<path fill="#ffffff" opacity="1.00" d=" M 234.29 142.78 C 238.86 138.90 242.59 134.07 247.31 130.41 C 245.70 133.03 245.95 136.56 248.64 138.33 C 250.78 140.26 253.70 139.07 255.88 137.91 C 252.66 141.94 248.75 145.56 244.63 148.71 C 245.88 143.06 238.81 138.62 234.29 142.78 Z" />
<path fill="#ffffff" opacity="1.00" d=" M 205.90 134.39 C 206.71 132.18 211.17 131.78 210.76 134.77 C 209.68 135.90 208.44 136.92 207.77 138.38 C 209.54 138.28 210.75 136.90 212.18 136.05 C 211.63 137.22 211.17 138.50 210.06 139.27 C 208.53 140.03 207.04 138.80 205.82 138.04 C 204.60 139.06 203.40 141.20 201.50 140.31 C 199.08 139.14 199.15 136.19 199.37 133.91 C 200.92 135.71 200.35 138.90 203.03 139.72 C 204.20 138.04 204.19 136.10 203.87 134.17 C 204.38 134.22 205.39 134.33 205.90 134.39 M 206.99 136.03 C 208.38 136.23 208.96 135.63 208.72 134.25 C 207.32 134.06 206.74 134.66 206.99 136.03 Z" />
<path fill="#ffffff" opacity="1.00" d=" M 260.99 141.05 C 262.93 138.94 265.51 136.60 268.64 137.44 C 272.51 137.98 275.33 143.83 271.87 146.45 C 271.94 143.81 271.92 140.51 269.03 139.33 C 266.26 137.42 263.46 139.87 260.99 141.05 Z" />
<path fill="#ffffff" opacity="1.00" d=" M 258.15 144.22 C 258.61 142.95 260.02 141.13 261.53 141.47 C 261.29 142.17 260.81 143.57 260.57 144.27 C 259.67 144.92 258.86 144.90 258.15 144.22 Z" />
<path fill="#ffffff" opacity="1.00" d=" M 232.85 153.10 C 229.50 150.19 231.12 144.38 234.70 142.35 C 231.28 146.20 233.94 152.78 239.12 152.61 C 238.44 155.74 234.58 154.79 232.85 153.10 Z" />
<path fill="#ffffff" opacity="1.00" d=" M 247.39 148.44 C 251.04 148.04 254.76 148.51 258.11 150.05 C 259.99 150.97 262.31 151.78 263.09 153.92 C 260.53 153.28 258.47 151.49 255.94 150.78 C 252.85 149.68 249.53 149.69 246.29 149.75 C 246.57 149.42 247.12 148.77 247.39 148.44 Z" />
<path fill="#ffffff" opacity="1.00" d=" M 237.21 164.26 C 242.89 162.32 249.33 163.85 254.09 167.33 C 254.30 167.69 254.73 168.40 254.95 168.76 C 252.09 168.11 249.81 165.97 246.89 165.48 C 243.57 164.49 240.09 164.87 236.83 165.84 C 236.93 165.44 237.12 164.65 237.21 164.26 Z" />
<path fill="#ffffff" opacity="1.00" d=" M 167.07 166.54 C 168.29 163.90 171.88 164.84 174.20 164.68 C 177.66 165.09 182.47 165.36 184.11 169.00 C 178.81 166.34 172.91 165.58 167.07 166.54 Z" />
<path fill="#ffffff" opacity="1.00" d=" M 169.06 183.51 C 169.29 181.19 172.33 181.63 174.00 181.49 C 178.71 181.71 184.40 182.96 187.14 187.11 C 185.67 187.42 184.67 186.23 183.53 185.60 C 179.30 182.73 173.92 182.62 169.06 183.51 Z" />
</g>
<g id="#010101ff">
<path fill="#010101" opacity="1.00" d=" M 154.75 24.84 C 174.15 14.91 196.79 11.83 218.21 15.58 C 244.12 20.11 267.89 35.32 283.00 56.83 C 291.05 68.20 296.65 81.25 299.47 94.89 C 301.76 105.12 301.64 115.66 301.18 126.07 L 300.62 126.32 L 300.02 126.05 C 299.09 124.58 300.00 122.62 299.90 120.98 C 301.30 98.56 294.75 75.72 281.69 57.44 C 267.46 37.09 245.22 22.54 220.91 17.53 C 199.13 12.92 175.83 15.81 155.90 25.77 C 135.15 35.99 118.22 53.72 108.99 74.93 C 99.44 96.46 97.86 121.43 104.77 143.95 C 111.01 165.05 124.56 183.84 142.49 196.56 C 154.98 205.66 170.47 210.98 185.99 210.43 C 194.88 210.20 204.14 206.78 209.67 199.55 C 213.73 194.50 215.30 187.80 214.49 181.42 C 213.86 181.62 212.59 182.02 211.96 182.22 C 212.25 190.94 207.96 199.94 199.94 203.92 C 189.14 209.17 176.38 207.97 165.19 204.62 C 150.00 199.62 136.71 189.65 126.40 177.55 C 109.45 157.43 101.77 130.04 104.98 104.00 C 107.16 84.39 115.75 65.58 129.07 51.04 C 144.27 34.26 165.52 23.23 187.95 20.24 C 210.65 17.16 234.40 22.73 253.43 35.47 C 271.35 47.31 285.08 65.37 291.68 85.81 C 299.66 108.82 297.93 135.04 286.67 156.67 C 287.49 157.96 288.32 159.26 289.14 160.57 C 294.29 150.58 297.67 139.69 299.17 128.56 C 299.35 128.37 299.73 128.00 299.92 127.81 L 300.50 127.64 L 300.82 128.00 C 299.08 139.91 295.53 151.59 289.91 162.26 C 291.94 168.53 290.40 175.92 285.33 180.32 C 275.58 189.18 260.20 189.14 248.99 183.13 C 245.06 180.55 240.34 179.78 236.15 177.76 C 229.40 179.40 222.49 180.22 215.66 181.49 C 217.53 191.24 212.12 201.40 203.91 206.60 C 196.90 211.19 188.19 212.06 180.01 211.65 C 169.81 210.84 159.67 208.25 150.65 203.35 C 132.06 192.89 116.91 176.40 108.16 156.94 C 98.65 136.11 96.48 111.99 102.37 89.85 C 109.38 61.98 129.04 37.66 154.75 24.84 M 163.32 28.32 C 139.82 38.19 120.53 57.91 111.69 81.89 C 104.96 99.54 103.79 119.20 108.07 137.58 C 112.80 158.82 125.30 178.16 142.60 191.34 C 143.62 192.04 144.71 192.61 145.89 193.04 C 140.69 189.06 135.43 184.03 134.65 177.16 C 134.40 172.38 132.29 167.87 132.63 163.04 C 132.79 151.49 139.29 140.58 148.97 134.41 C 142.79 130.62 137.77 124.75 135.04 118.03 C 133.69 115.68 136.03 113.56 136.93 111.55 C 135.56 110.86 134.05 110.66 132.56 110.46 C 134.76 103.86 138.06 97.34 143.86 93.19 C 140.00 84.72 139.84 75.12 139.86 65.98 C 140.48 57.56 141.06 48.55 145.87 41.31 C 160.43 42.15 174.55 49.09 184.43 59.77 C 193.42 57.18 203.26 56.14 212.38 58.59 C 221.52 47.17 234.62 38.49 249.22 36.20 C 250.47 37.56 251.64 39.02 252.40 40.72 C 256.12 48.64 257.64 57.38 258.39 66.03 C 258.84 73.32 258.71 80.74 256.65 87.80 C 262.12 90.96 266.16 96.24 268.49 102.05 C 269.76 104.46 266.45 104.43 265.04 104.86 C 266.20 106.63 267.51 108.37 268.20 110.40 C 267.55 112.92 266.33 115.24 265.11 117.52 C 270.85 120.25 276.11 124.23 279.61 129.60 C 284.80 137.06 286.47 146.54 284.95 155.44 C 285.30 155.15 286.01 154.57 286.36 154.29 C 292.21 141.71 295.48 127.88 295.24 113.97 C 294.75 93.74 287.69 73.69 275.30 57.67 C 261.17 39.11 239.87 26.09 216.83 22.26 C 198.92 18.95 180.07 21.23 163.32 28.32 M 237.91 40.81 C 228.80 44.94 219.05 50.74 215.51 60.66 C 204.81 57.64 192.50 57.34 182.48 62.60 C 180.08 59.61 178.09 56.25 175.07 53.80 C 167.35 47.49 157.68 43.92 147.86 42.67 C 145.94 42.80 145.32 45.15 144.54 46.59 C 142.63 52.54 141.49 58.77 141.40 65.03 C 141.08 74.26 141.40 84.26 146.74 92.18 C 145.37 93.68 143.86 95.02 142.35 96.36 C 138.51 99.73 136.23 104.47 134.52 109.20 C 137.52 107.99 139.87 105.62 142.89 104.47 C 147.99 102.47 153.60 100.97 159.08 102.12 C 162.19 102.55 165.39 104.32 166.58 107.35 C 166.87 109.10 166.47 110.87 166.33 112.62 C 167.12 113.58 168.04 114.61 167.75 115.99 C 167.40 121.20 164.62 125.97 161.20 129.79 C 164.62 129.69 167.99 129.08 171.32 128.31 L 171.88 129.62 C 164.16 131.24 155.82 131.56 149.04 136.05 C 140.02 141.84 133.93 152.32 134.15 163.13 C 134.23 164.60 135.42 165.47 136.57 166.15 C 139.32 162.59 142.78 159.60 146.97 157.87 C 148.68 157.46 148.62 155.58 149.12 154.24 C 152.19 153.80 155.29 153.76 158.37 153.42 C 158.19 151.25 158.08 149.08 158.02 146.91 C 161.67 145.41 165.73 144.78 169.49 146.30 C 169.54 148.48 169.62 150.66 169.69 152.85 C 172.55 152.85 175.52 151.95 178.33 152.56 C 180.01 155.43 180.10 158.90 179.63 162.12 C 186.08 166.75 190.99 174.48 189.62 182.68 C 204.77 179.94 219.95 177.32 235.11 174.66 C 236.67 174.17 238.12 174.95 239.55 175.48 C 235.14 170.08 233.76 162.34 236.99 156.00 C 232.86 156.14 229.10 152.27 229.48 148.16 C 229.95 144.48 233.18 142.21 235.57 139.73 C 240.08 135.51 244.17 130.84 248.92 126.90 C 253.68 123.00 261.34 128.32 260.13 134.06 C 258.81 139.15 253.24 141.36 250.88 145.80 C 252.48 145.42 254.07 144.99 255.67 144.59 C 258.76 141.79 261.33 138.26 265.06 136.28 C 271.15 133.97 277.29 141.55 273.72 147.01 C 276.44 147.85 278.66 150.37 281.45 150.62 C 282.81 148.67 284.26 146.38 283.79 143.88 C 282.00 130.90 271.50 119.06 258.36 117.12 C 254.87 116.57 250.87 115.52 247.64 117.40 C 247.67 116.48 247.69 115.57 247.71 114.66 C 252.66 114.44 257.69 114.96 262.41 116.56 C 264.37 114.74 265.66 112.39 266.82 110.02 C 265.63 108.15 264.20 106.44 263.13 104.49 C 263.59 104.14 264.51 103.44 264.97 103.09 C 258.58 99.73 251.21 97.67 243.97 99.01 C 241.04 99.65 237.67 100.93 236.65 104.05 C 235.97 106.36 237.77 108.38 238.84 110.27 C 236.11 110.05 236.03 112.33 236.67 114.39 L 235.33 114.80 C 235.24 112.80 234.94 110.67 236.20 108.95 C 235.25 106.88 235.26 104.61 235.51 102.39 C 240.16 96.50 248.38 96.81 255.09 97.78 C 259.49 98.26 263.18 100.88 266.98 102.91 C 265.27 97.10 261.20 91.82 255.80 89.02 C 255.27 88.37 254.74 87.72 254.23 87.06 C 257.32 80.53 257.78 73.03 257.10 65.93 C 255.84 56.32 254.69 46.05 249.00 37.89 C 245.17 37.68 241.49 39.56 237.91 40.81 M 136.99 109.64 C 137.50 109.95 138.53 110.58 139.05 110.89 C 137.90 112.84 136.11 114.63 136.06 117.03 C 138.59 124.42 144.95 129.85 152.09 132.63 C 154.31 132.11 156.46 131.32 158.56 130.45 C 163.02 126.59 166.24 120.90 166.23 114.91 C 165.60 114.70 164.35 114.28 163.72 114.06 C 164.50 112.08 165.67 110.10 165.40 107.88 C 164.07 104.63 160.29 103.49 157.08 103.29 C 149.92 102.92 142.64 105.22 136.99 109.64 M 248.28 128.99 C 248.17 129.18 247.96 129.57 247.85 129.76 C 247.72 129.92 247.44 130.25 247.31 130.41 C 242.59 134.07 238.86 138.90 234.29 142.78 C 238.81 138.62 245.88 143.06 244.63 148.71 C 248.75 145.56 252.66 141.94 255.88 137.91 C 259.32 136.41 259.65 131.33 257.15 128.86 C 254.81 126.28 250.51 126.21 248.28 128.99 M 260.99 141.05 C 263.46 139.87 266.26 137.42 269.03 139.33 C 271.92 140.51 271.94 143.81 271.87 146.45 C 275.33 143.83 272.51 137.98 268.64 137.44 C 265.51 136.60 262.93 138.94 260.99 141.05 M 262.26 144.28 C 265.06 144.80 267.87 145.32 270.71 145.63 C 270.69 143.35 269.93 140.09 267.03 140.25 C 264.44 139.67 262.26 141.71 262.26 144.28 M 258.15 144.22 C 258.86 144.90 259.67 144.92 260.57 144.27 C 260.81 143.57 261.29 142.17 261.53 141.47 C 260.02 141.13 258.61 142.95 258.15 144.22 M 236.35 143.40 C 234.81 144.72 233.90 147.06 235.08 148.91 C 235.90 151.28 238.82 150.86 240.78 150.64 C 243.20 150.05 243.02 147.09 242.65 145.17 C 241.73 142.82 238.31 141.51 236.35 143.40 M 232.85 153.10 C 234.58 154.79 238.44 155.74 239.12 152.61 C 233.94 152.78 231.28 146.20 234.70 142.35 C 231.12 144.38 229.50 150.19 232.85 153.10 M 159.55 147.67 C 159.58 149.98 159.62 152.29 159.64 154.60 C 156.62 155.40 153.50 155.21 150.42 155.40 C 150.29 155.75 150.03 156.46 149.90 156.82 C 153.28 156.62 156.58 155.73 159.96 155.59 C 164.13 155.75 168.22 156.73 172.19 157.95 C 172.26 157.20 172.39 155.70 172.46 154.95 C 173.79 155.72 175.56 156.10 176.43 157.47 C 176.50 158.48 176.40 159.50 176.38 160.52 C 176.94 160.55 178.08 160.62 178.65 160.65 C 178.58 158.24 178.08 155.87 177.32 153.59 C 174.44 154.19 171.51 154.40 168.58 154.42 C 168.22 152.09 168.78 149.42 167.59 147.35 C 165.13 145.72 162.16 147.40 159.55 147.67 M 247.39 148.44 C 247.12 148.77 246.57 149.42 246.29 149.75 C 249.53 149.69 252.85 149.68 255.94 150.78 C 258.47 151.49 260.53 153.28 263.09 153.92 C 262.31 151.78 259.99 150.97 258.11 150.05 C 254.76 148.51 251.04 148.04 247.39 148.44 M 174.03 157.33 C 172.37 160.15 177.51 157.55 174.03 157.33 M 237.21 164.26 C 237.12 164.65 236.93 165.44 236.83 165.84 C 240.09 164.87 243.57 164.49 246.89 165.48 C 249.81 165.97 252.09 168.11 254.95 168.76 C 254.73 168.40 254.30 167.69 254.09 167.33 C 249.33 163.85 242.89 162.32 237.21 164.26 M 167.07 166.54 C 172.91 165.58 178.81 166.34 184.11 169.00 C 182.47 165.36 177.66 165.09 174.20 164.68 C 171.88 164.84 168.29 163.90 167.07 166.54 M 169.06 183.51 C 173.92 182.62 179.30 182.73 183.53 185.60 C 184.67 186.23 185.67 187.42 187.14 187.11 C 184.40 182.96 178.71 181.71 174.00 181.49 C 172.33 181.63 169.29 181.19 169.06 183.51 M 190.84 185.92 C 186.92 188.56 184.44 192.95 180.17 195.14 C 173.16 199.10 164.60 199.65 156.88 197.73 C 153.32 196.98 150.28 194.81 146.75 194.00 C 157.04 201.18 169.31 206.08 181.97 206.36 C 189.17 206.38 196.92 205.28 202.66 200.58 C 208.10 196.30 210.92 189.28 210.54 182.43 C 203.97 183.61 197.37 184.59 190.84 185.92 Z" />
<path fill="#010101" opacity="1.00" d=" M 239.18 48.05 C 241.73 45.34 243.74 42.04 246.83 39.89 C 245.57 42.14 243.90 44.10 242.20 46.02 C 246.42 51.05 248.76 57.55 248.59 64.13 C 255.52 68.81 255.49 78.77 252.36 85.72 C 251.96 85.58 251.16 85.31 250.75 85.18 C 245.13 79.79 238.72 75.02 231.49 72.02 C 230.75 63.36 234.67 55.18 239.18 48.05 Z" />
<path fill="#010101" opacity="1.00" d=" M 149.20 44.49 C 158.14 52.39 167.50 62.70 166.75 75.48 C 160.14 78.97 155.03 84.67 149.78 89.86 C 146.70 90.92 145.95 87.16 145.54 84.98 C 144.94 79.59 144.44 73.06 149.36 69.43 C 148.91 62.97 149.39 55.96 153.70 50.76 C 152.15 48.78 150.61 46.73 148.47 45.33 C 148.65 45.12 149.02 44.70 149.20 44.49 Z" />
<path fill="#010101" opacity="1.00" d=" M 212.77 91.59 C 216.23 85.38 224.51 81.77 231.28 84.54 C 231.71 86.52 232.66 88.47 232.54 90.53 C 231.85 93.22 229.68 95.12 227.73 96.94 C 227.98 101.45 225.89 105.55 222.45 108.39 C 225.66 108.23 229.03 107.88 232.03 109.33 C 226.83 109.67 221.28 109.03 216.64 111.93 C 220.17 113.40 223.88 114.34 227.63 115.09 C 227.58 115.81 227.49 117.23 227.45 117.95 C 230.03 117.81 232.61 117.63 235.19 117.48 C 235.65 116.44 236.15 115.41 236.67 114.39 C 236.93 115.00 237.47 116.21 237.73 116.82 C 240.74 116.37 243.73 115.77 246.64 114.90 C 246.47 115.41 246.12 116.44 245.95 116.95 C 237.99 118.20 230.01 119.38 222.13 121.04 C 220.26 123.78 218.58 129.12 214.19 127.26 C 214.10 132.80 215.84 138.27 216.33 143.81 C 210.14 145.00 203.90 145.87 197.67 146.84 C 196.53 140.55 195.00 134.27 194.97 127.84 C 195.75 129.39 196.18 131.07 196.66 132.73 C 197.33 136.77 198.00 140.81 198.57 144.87 C 204.03 144.57 209.44 143.65 214.80 142.57 C 213.82 137.44 213.18 132.26 212.35 127.11 C 207.83 127.50 203.28 127.92 198.90 129.11 L 196.88 129.67 C 196.77 129.15 196.55 128.11 196.45 127.59 C 195.31 127.18 194.16 128.22 193.07 128.45 C 193.31 129.93 193.56 131.42 193.79 132.91 C 189.10 134.09 186.64 129.65 183.09 127.82 C 179.32 128.15 175.63 129.09 171.88 129.62 C 172.21 127.70 174.36 127.95 175.71 127.36 C 176.54 125.62 177.33 123.87 178.13 122.12 C 176.06 122.71 174.01 123.33 171.93 123.84 C 175.82 120.55 181.68 120.76 185.10 116.87 C 184.82 116.64 184.25 116.18 183.97 115.95 C 179.29 115.02 174.54 115.90 169.91 116.64 C 174.42 113.34 180.22 114.51 185.39 114.89 C 187.21 106.68 195.33 100.03 203.90 101.52 C 209.26 102.12 213.02 106.16 216.00 110.26 C 216.58 110.27 217.74 110.30 218.33 110.31 C 216.73 108.60 214.82 107.13 213.64 105.08 C 213.32 102.83 214.54 100.81 215.29 98.78 C 213.61 96.80 211.34 94.37 212.77 91.59 M 214.16 92.12 C 212.88 94.27 214.48 96.57 216.65 97.11 C 218.81 94.89 222.31 93.17 225.27 94.98 C 228.49 96.88 230.08 92.02 231.56 89.94 C 231.22 89.42 230.54 88.37 230.20 87.84 C 230.10 87.22 229.90 85.97 229.80 85.34 C 223.95 84.08 217.03 86.70 214.16 92.12 M 220.62 99.45 C 219.86 100.26 218.06 101.44 218.91 102.69 C 220.85 103.75 223.45 98.78 220.62 99.45 M 195.16 104.23 C 190.60 106.14 188.13 110.66 186.66 115.13 C 187.86 115.87 189.06 116.66 189.91 117.82 C 187.96 117.50 185.57 116.65 184.97 119.40 C 186.38 119.71 188.94 118.44 189.17 120.70 C 186.50 120.69 183.83 120.75 181.20 121.23 C 179.63 122.95 177.95 124.73 178.00 127.24 C 179.22 127.13 180.15 126.58 180.80 125.57 C 186.82 128.80 195.17 128.03 199.80 122.76 C 201.59 120.86 200.98 118.19 200.72 115.87 C 200.38 115.63 199.70 115.15 199.36 114.91 C 199.15 114.36 198.72 113.26 198.51 112.71 C 195.15 112.93 193.07 108.98 196.00 106.82 C 199.00 106.12 202.13 106.04 205.20 106.21 C 206.46 106.28 207.58 107.67 207.42 108.93 C 207.99 111.09 205.22 111.49 203.94 112.38 C 203.65 113.76 203.06 115.02 202.16 116.11 C 201.73 119.55 204.98 121.53 207.96 121.92 C 212.93 122.89 219.24 122.61 222.62 118.31 C 223.46 118.72 224.30 119.13 225.14 119.54 C 225.79 118.53 225.78 117.18 224.56 116.66 C 221.24 114.25 216.97 116.36 213.23 116.32 C 213.96 114.79 215.53 114.37 217.13 114.50 C 216.53 112.00 214.26 113.04 212.43 113.48 C 212.99 112.85 214.10 111.60 214.66 110.98 C 211.19 104.14 202.12 100.46 195.16 104.23 M 214.29 125.06 C 214.94 125.40 216.25 126.09 216.90 126.43 C 217.88 125.29 218.76 124.05 219.44 122.70 C 217.63 123.24 215.25 123.07 214.29 125.06 M 200.52 124.81 C 199.52 125.23 197.66 125.47 198.04 126.95 C 203.00 127.22 208.05 125.57 213.00 124.91 L 213.80 124.34 C 209.46 122.83 204.88 124.08 200.52 124.81 M 187.97 129.72 C 188.82 130.70 189.90 131.26 191.21 131.42 C 192.24 130.61 192.18 129.79 191.00 128.97 C 189.72 128.57 188.71 128.82 187.97 129.72 Z" />
<path fill="#010101" opacity="1.00" d=" M 168.74 87.70 C 175.28 84.06 184.96 87.12 188.14 93.91 C 190.19 96.82 184.75 98.68 186.75 101.44 C 188.40 104.31 188.44 108.76 185.03 110.37 C 178.73 112.02 172.98 105.59 173.56 99.51 C 171.43 98.30 169.35 96.81 168.28 94.53 C 166.96 92.40 168.53 89.94 168.74 87.70 M 170.36 88.29 C 170.18 89.76 169.88 91.22 169.08 92.50 C 169.82 95.11 171.88 96.90 174.01 98.41 C 177.12 95.29 181.51 96.33 184.73 98.64 C 187.37 97.86 187.52 94.19 185.73 92.45 C 182.02 88.33 175.65 86.22 170.36 88.29 M 179.13 101.27 C 179.91 102.85 181.19 104.09 182.72 104.94 C 182.48 103.03 180.89 101.76 179.13 101.27 Z" />
<path fill="#010101" opacity="1.00" d=" M 248.28 128.99 C 250.82 128.56 254.05 127.65 255.93 130.07 C 258.32 132.25 257.18 135.49 255.88 137.91 C 253.70 139.07 250.78 140.26 248.64 138.33 C 245.95 136.56 245.70 133.03 247.31 130.41 L 247.86 130.26 L 247.85 129.76 L 248.43 129.59 L 248.28 128.99 M 250.36 137.63 C 253.23 138.61 255.45 136.53 256.50 134.07 C 255.55 131.86 253.91 128.77 250.96 129.74 C 247.17 130.54 246.46 136.53 250.36 137.63 Z" />
<path fill="#010101" opacity="1.00" d=" M 161.05 152.80 C 161.38 151.24 162.01 148.98 164.04 149.21 C 165.91 149.11 166.42 151.15 167.06 152.49 C 165.09 152.94 163.02 153.64 161.05 152.80 Z" />
<path fill="#010101" opacity="1.00" d=" M 215.43 150.46 C 217.85 148.71 221.21 152.10 219.63 154.60 C 217.10 157.40 214.39 160.07 211.57 162.58 C 209.15 164.67 204.98 160.54 207.28 158.11 C 209.83 155.40 212.62 152.90 215.43 150.46 M 208.27 159.14 C 208.36 159.79 208.53 161.10 208.62 161.76 C 212.40 161.76 214.17 157.88 216.77 155.73 C 218.15 154.75 219.86 151.94 217.16 151.33 C 213.58 153.06 210.92 156.25 208.27 159.14 Z" />
<path fill="#010101" opacity="1.00" d=" M 199.53 153.30 C 201.91 150.73 206.20 155.29 203.64 157.56 C 201.23 160.23 198.64 162.75 195.97 165.15 C 193.49 167.41 189.31 163.14 191.66 160.71 C 194.11 158.07 196.86 155.73 199.53 153.30 M 195.62 158.55 C 194.45 160.04 191.24 161.71 192.93 163.85 C 194.87 165.30 196.36 162.87 197.69 161.80 C 199.63 159.49 203.26 157.81 202.82 154.30 C 199.57 153.60 197.81 156.80 195.62 158.55 Z" />
</g>
<g id="#bebebeff">
<path fill="#bebebe" opacity="1.00" d=" M 155.90 25.77 C 175.83 15.81 199.13 12.92 220.91 17.53 C 245.22 22.54 267.46 37.09 281.69 57.44 C 294.75 75.72 301.30 98.56 299.90 120.98 C 300.00 122.62 299.09 124.58 300.02 126.05 L 300.62 126.32 L 301.24 127.05 L 300.50 127.64 L 299.92 127.81 C 299.73 128.00 299.35 128.37 299.17 128.56 C 297.67 139.69 294.29 150.58 289.14 160.57 C 288.32 159.26 287.49 157.96 286.67 156.67 C 297.93 135.04 299.66 108.82 291.68 85.81 C 285.08 65.37 271.35 47.31 253.43 35.47 C 234.40 22.73 210.65 17.16 187.95 20.24 C 165.52 23.23 144.27 34.26 129.07 51.04 C 115.75 65.58 107.16 84.39 104.98 104.00 C 101.77 130.04 109.45 157.43 126.40 177.55 C 136.71 189.65 150.00 199.62 165.19 204.62 C 176.38 207.97 189.14 209.17 199.94 203.92 C 207.96 199.94 212.25 190.94 211.96 182.22 C 212.59 182.02 213.86 181.62 214.49 181.42 C 215.30 187.80 213.73 194.50 209.67 199.55 C 204.14 206.78 194.88 210.20 185.99 210.43 C 170.47 210.98 154.98 205.66 142.49 196.56 C 124.56 183.84 111.01 165.05 104.77 143.95 C 97.86 121.43 99.44 96.46 108.99 74.93 C 118.22 53.72 135.15 35.99 155.90 25.77 Z" />
<path fill="#bebebe" opacity="1.00" d=" M 222.13 121.04 C 230.01 119.38 237.99 118.20 245.95 116.95 C 246.22 117.29 246.75 117.97 247.02 118.31 C 250.68 117.07 254.57 117.52 258.36 117.12 C 271.50 119.06 282.00 130.90 283.79 143.88 C 284.26 146.38 282.81 148.67 281.45 150.62 C 278.66 150.37 276.44 147.85 273.72 147.01 C 277.29 141.55 271.15 133.97 265.06 136.28 C 261.33 138.26 258.76 141.79 255.67 144.59 C 254.07 144.99 252.48 145.42 250.88 145.80 C 253.24 141.36 258.81 139.15 260.13 134.06 C 261.34 128.32 253.68 123.00 248.92 126.90 C 244.17 130.84 240.08 135.51 235.57 139.73 C 233.18 142.21 229.95 144.48 229.48 148.16 C 229.10 152.27 232.86 156.14 236.99 156.00 C 233.76 162.34 235.14 170.08 239.55 175.48 C 238.12 174.95 236.67 174.17 235.11 174.66 C 219.95 177.32 204.77 179.94 189.62 182.68 C 190.99 174.48 186.08 166.75 179.63 162.12 C 180.10 158.90 180.01 155.43 178.33 152.56 C 175.52 151.95 172.55 152.85 169.69 152.85 C 169.62 150.66 169.54 148.48 169.49 146.30 C 165.73 144.78 161.67 145.41 158.02 146.91 C 158.08 149.08 158.19 151.25 158.37 153.42 C 155.29 153.76 152.19 153.80 149.12 154.24 C 148.62 155.58 148.68 157.46 146.97 157.87 C 142.78 159.60 139.32 162.59 136.57 166.15 C 135.42 165.47 134.23 164.60 134.15 163.13 C 133.93 152.32 140.02 141.84 149.04 136.05 C 155.82 131.56 164.16 131.24 171.88 129.62 C 175.63 129.09 179.32 128.15 183.09 127.82 C 186.64 129.65 189.10 134.09 193.79 132.91 C 193.56 131.42 193.31 129.93 193.07 128.45 C 194.16 128.22 195.31 127.18 196.45 127.59 C 196.55 128.11 196.77 129.15 196.88 129.67 L 198.90 129.11 C 198.37 129.45 197.30 130.12 196.76 130.46 C 196.74 131.02 196.68 132.16 196.66 132.73 C 196.18 131.07 195.75 129.39 194.97 127.84 C 195.00 134.27 196.53 140.55 197.67 146.84 C 203.90 145.87 210.14 145.00 216.33 143.81 C 215.84 138.27 214.10 132.80 214.19 127.26 C 218.58 129.12 220.26 123.78 222.13 121.04 M 215.43 150.46 C 212.62 152.90 209.83 155.40 207.28 158.11 C 204.98 160.54 209.15 164.67 211.57 162.58 C 214.39 160.07 217.10 157.40 219.63 154.60 C 221.21 152.10 217.85 148.71 215.43 150.46 M 199.53 153.30 C 196.86 155.73 194.11 158.07 191.66 160.71 C 189.31 163.14 193.49 167.41 195.97 165.15 C 198.64 162.75 201.23 160.23 203.64 157.56 C 206.20 155.29 201.91 150.73 199.53 153.30 Z" />
<path fill="#bebebe" opacity="1.00" d=" M 247.85 129.76 C 247.96 129.57 248.17 129.18 248.28 128.99 L 248.43 129.59 L 247.85 129.76 Z" />
<path fill="#bebebe" opacity="1.00" d=" M 247.31 130.41 C 247.44 130.25 247.72 129.92 247.85 129.76 L 247.86 130.26 L 247.31 130.41 Z" />
</g>
<g id="#fd3229ff">
<path fill="#fd3229" opacity="1.00" d=" M 237.91 40.81 C 241.49 39.56 245.17 37.68 249.00 37.89 C 254.69 46.05 255.84 56.32 257.10 65.93 C 257.78 73.03 257.32 80.53 254.23 87.06 C 254.74 87.72 255.27 88.37 255.80 89.02 C 261.20 91.82 265.27 97.10 266.98 102.91 C 263.18 100.88 259.49 98.26 255.09 97.78 C 248.38 96.81 240.16 96.50 235.51 102.39 C 235.26 104.61 235.25 106.88 236.20 108.95 C 234.94 110.67 235.24 112.80 235.33 114.80 L 236.67 114.39 L 236.67 114.39 C 236.15 115.41 235.65 116.44 235.19 117.48 C 232.61 117.63 230.03 117.81 227.45 117.95 C 227.49 117.23 227.58 115.81 227.63 115.09 C 223.88 114.34 220.17 113.40 216.64 111.93 C 221.28 109.03 226.83 109.67 232.03 109.33 C 229.03 107.88 225.66 108.23 222.45 108.39 C 225.89 105.55 227.98 101.45 227.73 96.94 C 229.68 95.12 231.85 93.22 232.54 90.53 C 232.66 88.47 231.71 86.52 231.28 84.54 C 224.51 81.77 216.23 85.38 212.77 91.59 C 211.34 94.37 213.61 96.80 215.29 98.78 C 214.54 100.81 213.32 102.83 213.64 105.08 C 214.82 107.13 216.73 108.60 218.33 110.31 C 217.74 110.30 216.58 110.27 216.00 110.26 C 213.02 106.16 209.26 102.12 203.90 101.52 C 195.33 100.03 187.21 106.68 185.39 114.89 C 180.22 114.51 174.42 113.34 169.91 116.64 C 174.54 115.90 179.29 115.02 183.97 115.95 C 184.25 116.18 184.82 116.64 185.10 116.87 C 181.68 120.76 175.82 120.55 171.93 123.84 C 174.01 123.33 176.06 122.71 178.13 122.12 C 177.33 123.87 176.54 125.62 175.71 127.36 C 174.36 127.95 172.21 127.70 171.88 129.62 L 171.32 128.31 C 167.99 129.08 164.62 129.69 161.20 129.79 C 164.62 125.97 167.40 121.20 167.75 115.99 C 168.04 114.61 167.12 113.58 166.33 112.62 C 166.47 110.87 166.87 109.10 166.58 107.35 C 165.39 104.32 162.19 102.55 159.08 102.12 C 153.60 100.97 147.99 102.47 142.89 104.47 C 139.87 105.62 137.52 107.99 134.52 109.20 C 136.23 104.47 138.51 99.73 142.35 96.36 C 143.86 95.02 145.37 93.68 146.74 92.18 C 141.40 84.26 141.08 74.26 141.40 65.03 C 141.49 58.77 142.63 52.54 144.54 46.59 C 145.32 45.15 145.94 42.80 147.86 42.67 C 157.68 43.92 167.35 47.49 175.07 53.80 C 178.09 56.25 180.08 59.61 182.48 62.60 C 192.50 57.34 204.81 57.64 215.51 60.66 C 219.05 50.74 228.80 44.94 237.91 40.81 M 239.18 48.05 C 234.67 55.18 230.75 63.36 231.49 72.02 C 238.72 75.02 245.13 79.79 250.75 85.18 C 251.16 85.31 251.96 85.58 252.36 85.72 C 255.49 78.77 255.52 68.81 248.59 64.13 C 248.76 57.55 246.42 51.05 242.20 46.02 C 243.90 44.10 245.57 42.14 246.83 39.89 C 243.74 42.04 241.73 45.34 239.18 48.05 M 149.20 44.49 C 149.02 44.70 148.65 45.12 148.47 45.33 C 150.61 46.73 152.15 48.78 153.70 50.76 C 149.39 55.96 148.91 62.97 149.36 69.43 C 144.44 73.06 144.94 79.59 145.54 84.98 C 145.95 87.16 146.70 90.92 149.78 89.86 C 155.03 84.67 160.14 78.97 166.75 75.48 C 167.50 62.70 158.14 52.39 149.20 44.49 M 168.74 87.70 C 168.53 89.94 166.96 92.40 168.28 94.53 C 169.35 96.81 171.43 98.30 173.56 99.51 C 172.98 105.59 178.73 112.02 185.03 110.37 C 188.44 108.76 188.40 104.31 186.75 101.44 C 184.75 98.68 190.19 96.82 188.14 93.91 C 184.96 87.12 175.28 84.06 168.74 87.70 Z" />
<path fill="#fd3229" opacity="1.00" d=" M 198.90 129.11 C 203.28 127.92 207.83 127.50 212.35 127.11 C 213.18 132.26 213.82 137.44 214.80 142.57 C 209.44 143.65 204.03 144.57 198.57 144.87 C 198.00 140.81 197.33 136.77 196.66 132.73 C 196.68 132.16 196.74 131.02 196.76 130.46 C 197.30 130.12 198.37 129.45 198.90 129.11 M 205.90 134.39 C 205.39 134.33 204.38 134.22 203.87 134.17 C 204.19 136.10 204.20 138.04 203.03 139.72 C 200.35 138.90 200.92 135.71 199.37 133.91 C 199.15 136.19 199.08 139.14 201.50 140.31 C 203.40 141.20 204.60 139.06 205.82 138.04 C 207.04 138.80 208.53 140.03 210.06 139.27 C 211.17 138.50 211.63 137.22 212.18 136.05 C 210.75 136.90 209.54 138.28 207.77 138.38 C 208.44 136.92 209.68 135.90 210.76 134.77 C 211.17 131.78 206.71 132.18 205.90 134.39 Z" />
<path fill="#fd3229" opacity="1.00" d=" M 250.36 137.63 C 246.46 136.53 247.17 130.54 250.96 129.74 C 253.91 128.77 255.55 131.86 256.50 134.07 C 255.45 136.53 253.23 138.61 250.36 137.63 Z" />
<path fill="#fd3229" opacity="1.00" d=" M 206.99 136.03 C 206.74 134.66 207.32 134.06 208.72 134.25 C 208.96 135.63 208.38 136.23 206.99 136.03 Z" />
<path fill="#fd3229" opacity="1.00" d=" M 262.26 144.28 C 262.26 141.71 264.44 139.67 267.03 140.25 C 269.93 140.09 270.69 143.35 270.71 145.63 C 267.87 145.32 265.06 144.80 262.26 144.28 Z" />
<path fill="#fd3229" opacity="1.00" d=" M 236.35 143.40 C 238.31 141.51 241.73 142.82 242.65 145.17 C 243.02 147.09 243.20 150.05 240.78 150.64 C 238.82 150.86 235.90 151.28 235.08 148.91 C 233.90 147.06 234.81 144.72 236.35 143.40 Z" />
<path fill="#fd3229" opacity="1.00" d=" M 159.55 147.67 C 162.16 147.40 165.13 145.72 167.59 147.35 C 168.78 149.42 168.22 152.09 168.58 154.42 C 171.51 154.40 174.44 154.19 177.32 153.59 C 178.08 155.87 178.58 158.24 178.65 160.65 C 178.08 160.62 176.94 160.55 176.38 160.52 C 176.40 159.50 176.50 158.48 176.43 157.47 C 175.56 156.10 173.79 155.72 172.46 154.95 C 172.39 155.70 172.26 157.20 172.19 157.95 C 168.22 156.73 164.13 155.75 159.96 155.59 C 156.58 155.73 153.28 156.62 149.90 156.82 C 150.03 156.46 150.29 155.75 150.42 155.40 C 153.50 155.21 156.62 155.40 159.64 154.60 C 159.62 152.29 159.58 149.98 159.55 147.67 M 161.05 152.80 C 163.02 153.64 165.09 152.94 167.06 152.49 C 166.42 151.15 165.91 149.11 164.04 149.21 C 162.01 148.98 161.38 151.24 161.05 152.80 Z" />
<path fill="#fd3229" opacity="1.00" d=" M 208.27 159.14 C 210.92 156.25 213.58 153.06 217.16 151.33 C 219.86 151.94 218.15 154.75 216.77 155.73 C 214.17 157.88 212.40 161.76 208.62 161.76 C 208.53 161.10 208.36 159.79 208.27 159.14 Z" />
<path fill="#fd3229" opacity="1.00" d=" M 195.62 158.55 C 197.81 156.80 199.57 153.60 202.82 154.30 C 203.26 157.81 199.63 159.49 197.69 161.80 C 196.36 162.87 194.87 165.30 192.93 163.85 C 191.24 161.71 194.45 160.04 195.62 158.55 Z" />
<path fill="#fd3229" opacity="1.00" d=" M 174.03 157.33 C 177.51 157.55 172.37 160.15 174.03 157.33 Z" />
</g>
</svg>
