<?xml version="1.0" encoding="utf-8"?>
<!-- Generator: Adobe Illustrator 24.1.1, SVG Export Plug-In . SVG Version: 6.00 Build 0)  -->
<svg version="1.1" id="Capa_1" xmlns="http://www.w3.org/2000/svg" xmlns:xlink="http://www.w3.org/1999/xlink" x="0px" y="0px"
	 viewBox="0 0 400 225" style="enable-background:new 0 0 400 225;" xml:space="preserve">
<style type="text/css">
	.st0{fill:#FFFFFF;}
	.st1{fill:#0C425A;}
	.st2{fill:#14000E;}
	.st3{fill:#FFF8FF;}
	.st4{fill:#2D8498;}
	.st5{fill:#DA9ACD;}
	.st6{fill:#05B9DA;}
	.st7{fill:#46F1F1;}
	.st8{fill:#D9A1CE;}
	.st9{fill:#03B7E3;}
	.st10{fill:#D8A0CE;}
	.st11{fill:#D99CCB;}
	.st12{fill:#A49D96;}
	.st13{fill:#F9F7FA;}
	.st14{fill:#D4DFD4;}
	.st15{fill:#F0E8CA;}
	.st16{fill:#0346A8;}
	.st17{fill:#259CB4;}
	.st18{fill:#BEBFC2;}
	.st19{fill:#5D52A4;}
	.st20{fill:#F5E3F3;}
	.st21{fill:#FDF7FB;}
	.st22{fill:#05B7E3;}
	.st23{fill:#CBBEC3;}
	.st24{fill:#61E7E8;}
	.st25{fill:#F3F4CD;}
	.st26{fill:#0947AE;}
	.st27{fill:#969FCC;}
	.st28{fill:#C8EFFA;}
	.st29{fill:#FFF6C3;}
	.st30{fill:#B3A5B9;}
	.st31{fill:#F9F5D2;}
	.st32{fill:#5E5654;}
	.st33{fill:#F0E5DD;}
	.st34{fill:#00B7E3;}
	.st35{fill:#6C6A63;}
	.st36{fill:#0046B1;}
	.st37{fill:#F0FFFD;}
	.st38{fill:#004AAA;}
	.st39{fill:#F4FFD8;}
	.st40{fill:#F2FFE5;}
	.st41{fill:#56EDE9;}
	.st42{fill:#58B2BE;}
	.st43{fill:#283DA6;}
	.st44{fill:#43A6C2;}
	.st45{fill:#6562BA;}
	.st46{fill:#FDF4D1;}
	.st47{fill:#BFB8A0;}
	.st48{fill:#8FACA8;}
	.st49{fill:#3DFBF8;}
	.st50{fill:#2DF2F1;}
	.st51{fill:#0055B5;}
	.st52{fill:#0049AF;}
	.st53{fill:#243298;}
	.st54{fill:#74DBDB;}
	.st55{fill:#4BA0DF;}
	.st56{fill:#7B5BA9;}
	.st57{fill:#6A63AB;}
	.st58{fill:#C6C1A6;}
	.st59{fill:#FCFAC5;}
	.st60{fill:#CEC4B6;}
	.st61{fill:#27FBFE;}
	.st62{fill:#D4FFF2;}
	.st63{fill:#243AA6;}
	.st64{fill:#75B9F3;}
	.st65{fill:#0A0409;}
	.st66{fill:#EEAA76;}
	.st67{fill:#F78121;}
	.st68{fill:#5DD2F5;}
	.st69{fill:#093FA9;}
	.st70{fill:#3BF1F8;}
	.st71{fill:#F8C9AF;}
	.st72{fill:#F6F4FD;}
	.st73{fill:#998575;}
	.st74{fill:#C5C5A8;}
	.st75{fill:#8C9D96;}
	.st76{fill:#8BB4EA;}
	.st77{fill:#D3F3EF;}
	.st78{fill:#F3B813;}
	.st79{fill:#FAFEC2;}
	.st80{fill:#AE8331;}
	.st81{fill:#FCB514;}
	.st82{fill:#8F6003;}
	.st83{fill:#6F6866;}
	.st84{fill:#302223;}
</style>
<g id="_x23_ffffffff">
	<path class="st0" d="M232.2,132c0.4-0.1,1.2-0.4,1.6-0.5c0.2,0.3,0.5,0.9,0.7,1.2c-0.4,0.1-1.3,0.4-1.7,0.5
		C232.6,132.8,232.3,132.3,232.2,132z"/>
</g>
<g id="_x23_0c425aff">
	<path class="st1" d="M185,49.9c3.6-0.9,7.7-1.9,11.2-0.3c-3.6,0.4-7.3,0.5-10.7,2c0,0.9,0,2.6,0,3.5c-0.2,0.9-0.4,1.9-0.6,2.8
		c0.9,0,2.8-0.1,3.8-0.1c-6.1,3.1-9.9,9.4-10.8,16.1c0.8-0.2,2.6-0.6,3.4-0.8c-1.7,1.5-4.2,2.6-4.7,5c-1,4.6-1.6,9.3-2.2,14
		c-0.5,0.2-1.4,0.7-1.8,0.9c0.3-2.9,0.2-5.8,0-8.7c-5.2-0.8-10.7,3.3-10.9,8.6c-0.1,1.4-0.2,2.7-0.2,4.1l-1.2,0.2
		c-2.5,0.2-5.1,0.2-7.6,0.3c-0.3,0.6-1,1.7-1.3,2.2c-0.3,0.1-0.9,0.3-1.2,0.3c0.2-1.9,0.4-3.7,0.6-5.6c2.4,0.6,4.8,1.4,7.3,0.8
		c2.4-2.1,1.8-6,4-8.3c1.7-1.8,3.9-3.1,6.1-4.4c-0.5-2.2-1.7-4-3-5.8c-1.3-0.1-2.7-0.1-4-0.2c1.6-1.2,3.2-2.7,4.1-4.5
		c1.4,4.2,3.7,9.2,8,11c1.8-6.9,3.6-13.9,6.6-20.5c-2-0.4-4-0.5-5.9,0.2c-3.2,1.1-6.8,0.9-10,2c-3.6,1.2-5.6,4.7-9.2,6
		c-3.3,1.3-5.8,4-6.9,7.4c2.4-0.4,3.7-2.5,5.5-3.9c3.4-2.6,6.9-5.5,11.2-6.4c3.4-0.7,6.9-1.1,10.4-1.7c-0.9,1.1-1.9,2.3-2.8,3.4
		c-3-0.4-6.2-0.5-9,0.6c-4.2,1.6-7.4,4.8-10.9,7.4c-0.3,2.5,1.1,4.8,3.8,4.9c2.8,0.7,3.2-2.8,4.6-4.5c0.2,3.8-1.6,7.2-3.4,10.4
		c-0.2-1.3-0.3-2.7-0.4-4c-2.6-1.2-5-3-7.7-4c-4.7-0.8-9.9,4.1-7.8,8.8c1.1-0.2,3.2-0.6,4.2-0.8c0-1.7-0.1-3.5-0.1-5.2
		c1.4,2.6,3.2,4.9,5.6,6.7c-2.1-0.1-4.9-1.4-6.3,0.7c-0.4,1.8-0.5,3.7-0.7,5.5c-1-0.7-2-1.4-3.1-2.1c-0.7,2.9-0.3,5.8,2.2,7.8
		c-2.6,0.8-5,1.8-7.5,2.8c1.3-1.5,2.5-3.1,3.6-4.7c-3.3,0.5-5.9,2.5-6.3,6c-0.4,0.1-1.2,0.4-1.5,0.5c-0.9-5.1-2.3-11,1.5-15.4
		c2.7-2.7,1.9-6.8,3.9-9.9c1.4-2.1,2.4-4.4,3.3-6.8c2.4-4.2,5.8-7.7,9.9-10.2c5.8-7.5,15.8-8.5,23.8-12.2
		C177.3,50,181.3,50.9,185,49.9 M172.1,55.9c4-2.1,8.2-3.7,12.7-3l0-0.8C180.6,52,173.8,50.6,172.1,55.9 M171.9,58.2
		c-4.9,1.1-9.3,3.6-13.9,5.4c-4.3,2-8.8,4.7-11.1,9c-0.5,1.6-2.4,1.5-3.6,2.1c-1.7,1.6-2.1,3.9-2.3,6.1c0.9-0.4,1.9-0.8,2.8-1.3
		c0-0.3-0.1-1.1-0.1-1.4c-2.4-2.6,4.2-3.1,2.2-0.2c1.1-3.2,3-6.1,6.1-7.8c4.5-2.4,8.7-5.5,12.7-8.7c2.7,1.3,5.6,0.3,8.3-0.3
		c2.8-0.8,5.8-0.3,8.6-0.4c0.1-0.7,0.2-2,0.3-2.7c-1-0.5-1.9-1-2.9-1.5c1.7,0,3.4,0,5-0.7c-0.9-0.7-1.8-1.6-3-1.4
		C177.4,54.1,175.4,57.9,171.9,58.2 M161.9,58.3c-3.8,0.8-7.5,3.3-9.9,6.3c2.5-2.4,6.3-2.8,8.1-5.8c0.5,0.2,1.4,0.5,1.9,0.7
		c2.6-1.6,5.5-2.5,7.9-4.4C167.1,55.8,164.3,56.6,161.9,58.3 M136.2,89.8c0.9-0.2,1.8-0.5,2.7-0.7c0.3-2.8,0.4-5.6-0.1-8.3
		C136.7,83.3,136.1,86.6,136.2,89.8 M136.5,92.6c-1.4,1.6-1.7,3.7-1.9,5.7c4,0.6,3.9-3.8,6.5-5.5c0.8-0.7,0.9-1.6,0.4-2.6
		C139.8,90.9,138,91.5,136.5,92.6z"/>
	<path class="st1" d="M169.3,89.2c0,1.6,0.1,3.2,0.1,4.8c-1.1,0.3-2.1,0.6-3.2,1C167.3,93.1,168.3,91.1,169.3,89.2z"/>
	<path class="st1" d="M213.1,107.3l1.3,0.6c1.5,0.5,3.1,0.4,4.7,0.5c-1.4,0.1-2.9,0.1-4.3,0.2c-0.8,0.7-1.7,1.4-2.5,2.1
		c-0.3-0.4-1-1.2-1.3-1.6C211.7,108.4,212.4,107.9,213.1,107.3z"/>
</g>
<g id="_x23_14000eff">
	<path class="st2" d="M196.4,49.5c2.8,0.3,5.7,0.3,8.5,0.4c3.7,0.3,6.6,2.7,10.1,3.5c2.6,0.6,4.9,2,7.5,2.7c-0.6,0.5-1.1,1-1.7,1.5
		c-1.4-1.3-3.2-2.1-5.1-2.5c1.3,2.4,4.4,2.6,6.6,3.8c0.5-0.5,1-1,1.5-1.5c3.9,1.7,8.5,2.9,11.2,6.6c2,2.9,5.4,4.2,7.6,6.9
		c-0.3-0.1-1-0.2-1.4-0.3c-1.8-1.2-3.6-2.5-5.5-3.6c0.7,1.3,1.3,2.6,1.9,3.9c-1.9-0.8-3.5-2.1-5.4-2.8c-0.3,2.4,0.4,5.4-2.2,6.7
		c-0.1-1.8,0.3-3.7-0.3-5.5c-3.2-1.2-6.6-0.6-9.9,0.2c0.5,2.7,1.2,5.3,1.9,7.9c-1.2-2.6-2.4-5.2-3.5-7.9c-4.1-1.4-9-0.3-11.8,3.1
		c-1.2,4.3-3,8.6-6.7,11.5c-1.2,0.4-2.4,0.7-3.5,1.1c2.1-3.3,7.1-4.7,7-9.1c-0.2-4.8-4.6-8.2-5.2-13c0.6,1.1,1.2,2.2,1.9,3.4
		c3.4-2.1,7.1-3.6,10.6-5.7c1-2.1-1.6-3.3-2.5-4.8c2.5,1.6,5.1,4,8.2,2.2c-3.5-5-10.2-3-15.3-4.1c0.2,1.4,0.4,2.7,0.6,4.1
		c-6.5,2.1-11.8,8.8-9.7,15.8c1.3,1.2,2.8,2,4.3,3c-1.7-0.4-3.4-0.9-5.1-1.2c-4.3,2.9-6.8,8.1-7.4,13.1c-0.2,0-0.6,0.1-0.8,0.1
		c-0.8-3-1.6-5.9-2.6-8.8c0.7,1.3,1.4,2.5,2,3.7c2-2.5,3.6-5.4,5.7-7.8c2.4-2.4,1.4-6,2.3-9c1-4.4,4.9-7.1,8.5-9.3
		c0.1-1.3,0.2-2.6,0.3-3.9c-4.5-0.8-9.5-1.4-13.4,1.3c0-0.9,0-2.6,0-3.5c3.8,0.5,7.3-1.5,11.1-1L196.4,49.5 M198.8,51.4
		c3.3,1.3,6.9,1.1,10.4,1.3C206.2,50.7,202.2,51.5,198.8,51.4 M213.1,60.1l0.6,1.2c3.8,1,8.1,2,10.7,5.3c2.1,0.4,4.1,0.6,6.2,0.8
		c-0.1-1.9-1.5-3.2-3-4.2C223.4,60.3,218.2,57.8,213.1,60.1 M225.6,60c3.2,1.7,5.9,4,8,6.9C234.6,62.6,229.1,60.3,225.6,60
		 M203.3,66.4c-2.5,1.7,0,4.4,1.6,5.6c3.4-3.8,9.3-6.3,14.1-3.8c1.4-0.5,2.7-1,4.1-1.5c-1.9-1.5-4-2.8-6.3-3.5
		C212.2,61.4,207.2,63.9,203.3,66.4z"/>
	<path class="st2" d="M212.4,75.2c1.8,0.5,2.7,2.8,1.7,4.4l-0.7,0.2C212.1,78.7,212.2,76.8,212.4,75.2z"/>
	<path class="st2" d="M241.9,116.4c3.4,0.6,6.4-1,8.3-3.7l1.4-0.2c-1.3,1.9-2.6,4.3-5,5c-2.9,0.7-6,0-8.9-0.2c0.4-0.3,1.1-0.8,1.5-1
		C239.9,116.3,241.2,116.4,241.9,116.4z"/>
	<path class="st2" d="M176.4,114.3c0.5,0.4,1,0.9,1.5,1.3l-1.3-0.5c-0.4,0.5-1.1,1.5-1.5,2c-0.3,1.3-0.5,2.7-0.9,4
		c0.1-1.6,0.2-3.2,0.1-4.8l0.7-0.3C175.4,115.6,176.1,114.7,176.4,114.3z"/>
</g>
<g id="_x23_fff8ffff">
	<path class="st3" d="M198.8,51.4c3.4,0.1,7.4-0.7,10.4,1.3C205.7,52.5,202.1,52.7,198.8,51.4z"/>
	<path class="st3" d="M225.6,60c3.5,0.3,9,2.6,8,6.9C231.6,64,228.8,61.7,225.6,60z"/>
	<path class="st3" d="M235.9,81.1c0.5-2.8,2.3-4.8,5.1-5.6c0.6,2.1,1.2,4.2,1.7,6.4L242,82c-2.4,0.6-4.7,1.4-7.1,2.1
		C235.2,83.4,235.7,81.9,235.9,81.1z"/>
</g>
<g id="_x23_2d8498ff">
	<path class="st4" d="M172.1,55.9c1.7-5.3,8.5-3.9,12.8-3.9l0,0.8C180.3,52.2,176.1,53.8,172.1,55.9z"/>
</g>
<g id="_x23_da9acdff">
	<path class="st5" d="M185.6,55.1c4-2.8,9-2.1,13.4-1.3c-0.1,1.3-0.2,2.6-0.3,3.9c-3.6,2.2-7.5,4.9-8.5,9.3c-0.9,3,0,6.6-2.3,9
		c-2.1,2.5-3.7,5.3-5.7,7.8c-0.7-1.3-1.3-2.5-2-3.7c1.1,2.9,1.8,5.8,2.6,8.8c0.2,0,0.6-0.1,0.8-0.1c0.7-5,3.1-10.3,7.4-13.1
		c1.7,0.2,3.4,0.7,5.1,1.2c-1.4-0.9-3-1.8-4.3-3c-2-7,3.2-13.7,9.7-15.8c-0.2-1.4-0.4-2.7-0.6-4.1c5.1,1.2,11.9-0.9,15.3,4.1
		c-3.1,1.7-5.7-0.7-8.2-2.2c1,1.5,3.5,2.7,2.5,4.8c-3.4,2.1-7.2,3.6-10.6,5.7c-0.6-1.1-1.2-2.3-1.9-3.4c0.5,4.8,4.9,8.1,5.2,13
		c0.1,4.4-4.9,5.8-7,9.1c-7.1,2.9-14.6,4.9-21.9,7c0.6-4.7,1.2-9.4,2.2-14c0.5-2.4,3-3.5,4.7-5c-0.9,0.2-2.6,0.6-3.4,0.8
		c0.9-6.7,4.7-13,10.8-16.1c-0.9,0-2.8,0.1-3.8,0.1C185.2,56.9,185.4,56,185.6,55.1z"/>
	<path class="st5" d="M209,91.6c0.5,1.2,1,2.4,1.5,3.6c0.3,0.3,1,0.8,1.4,1.1c-0.4,0.4-1.1,1.1-1.5,1.5c0.6,2.9-1,7.2,1.9,9.1
		c0.2,0.1,0.6,0.3,0.9,0.4c-0.7,0.6-1.4,1.1-2.1,1.7c-0.3-0.4-0.9-1.2-1.2-1.5C209.7,102.2,209.7,96.9,209,91.6z"/>
</g>
<g id="_x23_05b9daff">
	<path class="st6" d="M171.9,58.2c3.4-0.3,5.5-4.1,9.1-3.8c1.3-0.2,2.1,0.7,3,1.4c-1.6,0.7-3.3,0.7-5,0.7c1,0.5,1.9,1,2.9,1.5
		c-0.1,0.7-0.2,2-0.3,2.7c-2.9,0.1-5.8-0.3-8.6,0.4c-2.7,0.6-5.6,1.6-8.3,0.3c-4,3.2-8.1,6.3-12.7,8.7c-3,1.6-4.9,4.6-6.1,7.8
		c2-2.8-4.6-2.4-2.2,0.2c0,0.4,0.1,1.1,0.1,1.4c-0.9,0.4-1.9,0.8-2.8,1.3c0.2-2.2,0.6-4.5,2.3-6.1c1.3-0.5,3.2-0.4,3.6-2.1
		c2.3-4.3,6.8-7,11.1-9C162.6,61.8,167,59.3,171.9,58.2z"/>
</g>
<g id="_x23_46f1f1ff">
	<path class="st7" d="M161.9,58.3c2.3-1.7,5.2-2.5,8-3.1c-2.4,1.9-5.4,2.8-7.9,4.4c-0.5-0.2-1.4-0.5-1.9-0.7c-1.8,3-5.6,3.5-8.1,5.8
		C154.4,61.6,158.1,59.1,161.9,58.3z"/>
	<path class="st7" d="M155.3,109.3c2-1,4.1-2,6.4-1.8c-0.1,0.5-0.2,1.6-0.3,2.1c-2.1,2.2-4,4.7-6.6,6.2
		C155.1,113.6,155.3,111.5,155.3,109.3L155.3,109.3z"/>
</g>
<g id="_x23_d9a1ceff">
	<path class="st8" d="M213.1,60.1c5.1-2.3,10.3,0.2,14.5,3c1.5,1,2.9,2.4,3,4.2c-2.1-0.2-4.2-0.4-6.2-0.8c-2.6-3.2-6.9-4.3-10.7-5.3
		L213.1,60.1z"/>
</g>
<g id="_x23_03b7e3ff">
	<path class="st9" d="M173.8,62.8c1.9-0.7,3.9-0.6,5.9-0.2c-2.9,6.6-4.8,13.5-6.6,20.5c-4.3-1.9-6.6-6.8-8-11
		c-0.9,1.9-2.5,3.3-4.1,4.5c1.3,0.1,2.7,0.1,4,0.2c1.3,1.8,2.5,3.6,3,5.8c-2.1,1.3-4.3,2.6-6.1,4.4c-2.2,2.3-1.6,6.1-4,8.3
		c-2.4,0.6-4.9-0.2-7.3-0.8c-0.1,1.9-0.4,3.7-0.6,5.6c-4.1,1.3-8.3,2.5-12,4.6c-1.7,0.4-3.5,0.7-5.2,1c0.3-3.4,3-5.5,6.3-6
		c-1.1,1.6-2.4,3.2-3.6,4.7c2.5-0.9,4.9-2,7.5-2.8c-2.5-1.9-2.9-4.9-2.2-7.8c1,0.7,2.1,1.4,3.1,2.1c0.2-1.8,0.2-3.7,0.7-5.5
		c1.5-2,4.3-0.8,6.3-0.7c-2.4-1.8-4.2-4.1-5.6-6.7c0.1,1.7,0.1,3.5,0.1,5.2c-1,0.2-3.1,0.6-4.2,0.8c-2.2-4.8,3.1-9.7,7.8-8.8
		c2.7,1.1,5.1,2.8,7.7,4c0.1,1.3,0.3,2.7,0.4,4c1.8-3.2,3.6-6.6,3.4-10.4c-1.4,1.7-1.8,5.2-4.6,4.5c-2.7-0.1-4.1-2.4-3.8-4.9
		c3.5-2.6,6.8-5.8,10.9-7.4c2.9-1.1,6-1,9-0.6c0.9-1.1,1.9-2.3,2.8-3.4c-3.4,0.6-6.9,1-10.4,1.7c-4.3,0.9-7.8,3.8-11.2,6.4
		c-1.8,1.4-3.1,3.5-5.5,3.9c1-3.4,3.6-6.1,6.9-7.4c3.6-1.2,5.6-4.8,9.2-6C167.1,63.7,170.6,63.9,173.8,62.8z"/>
</g>
<g id="_x23_d8a0ceff">
	<path class="st10" d="M203.3,66.4c3.9-2.5,8.9-5,13.5-3.1c2.3,0.7,4.4,2,6.3,3.5c-1.4,0.5-2.7,1-4.1,1.5
		c-4.8-2.5-10.7-0.1-14.1,3.8C203.3,70.8,200.8,68.1,203.3,66.4z"/>
</g>
<g id="_x23_000000ff">
	<path d="M245.2,73.3c7.6-2.3,15.2-4.3,22.8-6.5c1.5-0.5,2.9,0.4,4.3,0.8c0.1,1.6,0.2,3.5,2,4.2c1.4,0.7-0.7,2.3-0.8,3.2
		c1.9,0.6,1.1,2.2,0.8,3.6c0.5,0,1.6-0.2,2.2-0.2c-1.1,3.1,1.8,5.3,1.5,8.2c0.4-0.1,1.3-0.2,1.7-0.3c0.1,0.6,0.2,1.7,0.3,2.3
		c-0.4-0.3-1.2-0.9-1.5-1.3c-2.7,0.5-5.8,0.4-8.1,2.1c2,0,4,0,6.1-0.2c0.3,0.4,1,1.2,1.4,1.6c1.8,0.8,3.5,1.7,5.1,2.7
		c-2.2,0.9-1,2,0.2,3.1c-7.7,3.9-16.5,5.2-24.3,8.8c-1.9-2.8-0.3-6.1-0.3-9.1c-0.5-3.6-2.6-6.6-4.4-9.6c-1.1-2.1-2.1-4.3-3.6-6.2
		C248.3,78.4,246,76.3,245.2,73.3z"/>
	<path d="M110.2,118c6.6-2.6,13.2-5.1,19.9-7.4c0.8-0.1,2.4-0.2,3.2-0.2c-0.8,6.2,0.6,12.9,5.7,16.8c2.8,0.7,5.6,1,8.4,1.5
		c0,1.1,0.1,2.3,0.1,3.4c1.6-0.7,3.3-1.5,4.8-2.5c0.3-0.2,0.8-0.6,1.1-0.7c2.6-0.5,5.1-1.3,7.5-2.2c0.5,3,2.3,5.5,5,6.9
		c-0.5,0.4-1.5,1.1-2,1.5c-13.3,4-26.5,8.5-39.8,12.5c-2,0.7-4.3,0.6-6,2c0.6-0.9,1.3-1.8,1.9-2.7c-2.4-3.6-6.6-4.6-10.5-5.8
		c0.6-1.7,2-2.8,3.3-4c-0.2-1.9-1.5-3.4-2.4-5.1c0.8-2.5,6.9-1.9,5.2-5.5c-0.7,0-2.2-0.1-3-0.1c-0.6-3.1,1.8-5.5,3.3-8
		C113.9,118.1,111.9,118.7,110.2,118z"/>
	<path d="M215.4,134.5c0-0.1,0.1-0.2,0.2-0.2L215.4,134.5z"/>
</g>
<g id="_x23_d99ccbff">
	<path class="st11" d="M232.4,68c1.9,0.8,3.6,2,5.4,2.8c-0.6-1.3-1.2-2.7-1.9-3.9c1.8,1.2,3.6,2.4,5.5,3.6
		c-6.4,3.3-13.8,4.4-20.4,7.3c-2.3,0.6-4.6,1.2-7,1.8c1-1.6,0.1-3.9-1.7-4.4c-0.1,1.5-0.3,3.4,1,4.6c-4.6,1.1-8.9,3.1-13.5,4.2
		c3.6-2.9,5.4-7.2,6.7-11.5c2.8-3.4,7.7-4.5,11.8-3.1c1.2,2.6,2.3,5.3,3.5,7.9c-0.7-2.6-1.4-5.2-1.9-7.9c3.2-0.8,6.7-1.4,9.9-0.2
		c0.6,1.8,0.2,3.7,0.3,5.5C232.8,73.4,232.1,70.4,232.4,68z"/>
</g>
<g id="_x23_a49d96ff">
	<path class="st12" d="M243.7,73.8c0.4-0.1,1.1-0.4,1.5-0.5c0.8,3,3.1,5.1,5,7.4c-1.8-1.1-3.8-1.7-5.9-2.1c2.5,3.1,4.5,6.9,7.7,9.4
		c0.4-0.3,1.3-0.8,1.8-1.1c1.8,3.1,3.9,6.1,4.4,9.6c0,3-1.6,6.3,0.3,9.1c-0.8,0.1-1.6,0.1-2.4,0.2c-0.1-0.5-0.2-1.4-0.3-1.9
		c-0.5,0.7-1.1,1.3-1.6,2c0-1.6-0.1-3.3-0.1-4.9c0.7,0.8,1.4,1.5,2.1,2.3c-0.2-1.5-0.2-3.1-1.1-4.5c-1.8-2.8-2.7-6.1-3.7-9.3
		c-0.5-0.1-1.4-0.3-1.8-0.4c-0.8,2.3-2,4.3-3.3,6.3c-0.1-0.4-0.2-1.1-0.3-1.5c0.2-0.5,0.7-1.4,1-1.8c1.6-2.4,1.7-5.5,0.1-8
		c-0.8-1-1.8-1.9-3.1-2c-0.3,0-0.9-0.1-1.2-0.2c-0.5-2.2-1.1-4.3-1.7-6.4l-0.4-1.3c1.7,1.1,2.6,3,4.4,3.8
		C245,76.6,244.4,75.2,243.7,73.8 M253.5,89.4c0.4,2.6,1,5.2,1.6,7.7c0.5,0.2,1.6,0.5,2.1,0.7C256.7,94.9,256.4,91,253.5,89.4z"/>
</g>
<g id="_x23_f9f7faff">
	<path class="st13" d="M231.1,78.5c0.7-1.3,2-2,3.1-2.9c0.9,1.2,1.5,2.5,1.6,4c-0.5,1.7-1,3.4-1.5,5l-1.3,0.5
		c-0.6,0.2-1.8,0.7-2.4,0.9c0.1,1.6,0,3.3,0.8,4.7c-0.6,0.3-2,0.9-2.6,1.2c-0.1-1.8-0.3-3.6-0.4-5.4c-0.8,0.3-2.4,0.8-3.2,1.1
		c-0.6-1.6-0.4-3.8-2.1-4.7c-2.8-2.2-6.7-0.9-9.5,0.7c-1,3.9-0.4,8.3-3.1,11.7c-0.5-1.2-1-2.4-1.5-3.6c-1.3-0.3-2.4,0.1-3.3,1.3
		c-0.4,0.4-1.3,1.1-1.7,1.5c-2.6-1.8-3.1-4.9-5-7.1c0,2,0.1,4,0.1,6c-2.9-0.8-5,1.3-6.7,3.3c0.2,3.9-2.7,7.3-1.7,11.2
		c0.6,2.6,0.8,5.5,2.7,7.6c2.1,1.5,4.7,0.4,6.9-0.2c0.3-0.4,1-1.1,1.3-1.5c0,0.6-0.1,1.7-0.1,2.3c-3.2,1.5-6.9,1.8-10.2,0.3
		c-0.7,1.2-1.3,2.4-2,3.5c0.1-1.7,0.1-3.4,0.2-5.1c0.2-0.5,0.6-1.3,0.8-1.8c-0.3-0.5-0.9-1.6-1.1-2.1c0.7-2.5,0.4-5-1-7.2
		c-0.4-2.1-0.1-4.1,0.4-6.1c-0.9,0-1.9,0.1-2.8,0.1c-0.7,0.8-1.3,1.6-1.9,2.4c-1.1-0.3-2.2-0.6-3.3-1c-0.2,2,1.2,3.9,3.3,4.1
		c0,0.8,0,2.4-0.1,3.2c-0.9,2.6,0.3,5.1,0.5,7.6c0.1,2-0.4,3.9-0.7,5.8l1.1,0.1c-1.4,1.5-2.6,3.9-5.1,3.3c1-1.4,2.4-2.4,3.9-3.2
		c-0.5-0.5-1-1-1.5-1.5c-1.8,1.7-3.7,3.3-5.8,4.7c0.9,0.7,1.7,1.5,2.6,2.2c1.5-0.4,3-0.7,4.5-1.1c-1.7,1.6-3.9,1.9-6.1,1.9
		c-1.1-1.4-2.2-2.7-3.2-4.1c0.1-0.3,0.2-0.8,0.3-1.1c0.3-1.3,0.5-2.7,0.9-4c0.4-0.5,1.1-1.5,1.5-2l1.3,0.5c2.7,1.5,7.1-1.6,5.3-4.7
		c-0.4-0.2-1.1-0.7-1.5-0.9c-0.1-2.3,0.8-5.1-1-6.9l-0.6-0.2c-3.6-0.1-5.3-3.5-5.8-6.6c-0.3,0.1-0.8,0.2-1,0.2
		c-0.4-0.8-1-2.4-1.4-3.2c0.2-0.1,0.6-0.3,0.8-0.4c0.5-0.2,1.4-0.6,1.8-0.9c7.4-2.1,14.8-4.1,21.9-7c1.2-0.3,2.4-0.7,3.5-1.1
		c4.6-1.1,8.9-3.1,13.5-4.2l0.7-0.2c2.3-0.6,4.6-1.2,7-1.8c-0.2,1.1-0.4,2.2-0.6,3.2c1.9-1.1,3.8-2.2,5.6-3.2c0.3,0.4,1,1.1,1.3,1.5
		C228.4,81.7,231.1,81.1,231.1,78.5 M205.3,85.5c0.7,1.4,1.4,2.8,2.1,4.2c0.8-0.4,1.7-0.8,2.5-1.1C208.6,87.5,207.5,84.9,205.3,85.5
		 M183.5,93.1c-0.1,0.7-0.3,2.1-0.3,2.8c0.5-1.5,2.2-2.2,2.4-0.1c-0.7-1.8,0-3.7,2.2-3.4C186.3,92.2,184.9,92.8,183.5,93.1z"/>
</g>
<g id="_x23_d4dfd4ff">
	<path class="st14" d="M227.3,79.3c0.8-1,2.6-1.7,3.7-0.9C231.1,81.1,228.4,81.7,227.3,79.3z"/>
</g>
<g id="_x23_f0e8caff">
	<path class="st15" d="M244.4,78.6c2,0.4,4.1,1,5.9,2.1c1.5,1.8,2.6,4,3.6,6.2c-0.4,0.3-1.3,0.8-1.8,1.1
		C248.9,85.4,246.9,81.7,244.4,78.6z"/>
</g>
<g id="_x23_0346a8ff">
	<path class="st16" d="M235.8,79.6c0,0.4,0.1,1.2,0.1,1.6c-0.3,0.8-0.7,2.2-1,3c2.3-0.7,4.7-1.5,7.1-2.1c1.1,1.8,1.8,3.9,2.3,5.9
		c-1.1,1.2-2.3,2.4-3.5,3.6c0.8,0,2.5,0.1,3.3,0.2c0.5,0.6,1.4,1.7,1.9,2.3c0.1,0.4,0.2,1.1,0.3,1.5c-0.3,0.9-0.6,1.8-0.9,2.7
		c-2.4,3.2-6.1,4.7-9.4,6.7c-0.5,0.5-0.9,1-1.4,1.6c-0.9,0.2-2.8,0.6-3.8,0.8l-0.6-0.3c-0.9-1.2-1.2-2.5-0.9-4
		c1.4-0.6,2.8-1.1,4.2-1.7c0.1-1.8-0.3-3.6-1-5.3c1-1.8,1.8-3.7,2.1-5.8c-0.8-0.2-2.5-0.7-3.4-0.9c0.3-1.5,0.4-3.2,1.8-4.1l1.3-0.5
		C234.8,82.9,235.3,81.2,235.8,79.6 M236.9,87.8c-1.3,1.4-1,3.6-1.1,5.3c0.6-0.3,1.7-1,2.3-1.4l-0.4-0.1c1.6-1,3.1-2.2,4.4-3.5
		c1.4-0.9,1-3.5-0.9-2C239.7,86.7,238.2,87.1,236.9,87.8 M240.2,94.5c-1.5,0.7-3,1.4-4.3,2.4c-0.5,1.2-0.2,2.6-0.3,3.8
		c2.3-0.9,4.5-1.9,6.6-3.2c0.4-0.2,1.4-0.7,1.8-0.9C244.1,94.3,242.1,93.9,240.2,94.5z"/>
</g>
<g id="_x23_259cb4ff">
	<path class="st17" d="M136.2,89.8c-0.1-3.2,0.6-6.6,2.7-9.1c0.5,2.8,0.4,5.6,0.1,8.3C138,89.3,137.1,89.6,136.2,89.8z"/>
</g>
<g id="_x23_bebfc2ff">
	<path class="st18" d="M213.6,83.6c2.8-1.6,6.7-2.8,9.5-0.7c1.7,0.9,1.6,3.1,2.1,4.7c-1.1-0.3-2.1-0.6-3.2-0.9
		c-0.4-0.1-1.3-0.4-1.7-0.5c-0.4-0.1-1.1-0.4-1.4-0.5c1-0.1,2.9-0.4,3.9-0.5c-2-2.3-4.9-2-7.5-1.1c-0.5,2.6-1.1,5.2-1.5,7.7
		c-0.2,1.4-0.4,2.8-0.4,4.2l-1.5,0.3c-0.3-0.3-1-0.8-1.4-1.1C213.2,91.9,212.7,87.5,213.6,83.6z"/>
</g>
<g id="_x23_5d52a4ff">
	<path class="st19" d="M242.7,81.9c0.3,0,0.9,0.1,1.2,0.2c1.1,1.8,1.4,3.9,0.3,5.8c-0.5-2.1-1.2-4.1-2.3-5.9L242.7,81.9z"/>
</g>
<g id="_x23_f5e3f3ff">
	<path class="st20" d="M243.9,82.1c1.4,0.1,2.3,1,3.1,2c-0.7,2.1-1.3,4.3-1.8,6.5c0.4,0.4,1.3,1.1,1.7,1.5c-0.2,0.5-0.7,1.4-1,1.8
		c-0.5-0.6-1.4-1.7-1.9-2.3c-0.8,0-2.5-0.1-3.3-0.2c1.1-1.2,2.3-2.4,3.5-3.6C245.3,86,245.1,83.9,243.9,82.1z"/>
</g>
<g id="_x23_fdf7fbff">
	<path class="st21" d="M215.4,84.1c2.6-1,5.5-1.3,7.5,1.1c-1,0.1-2.9,0.4-3.9,0.5c0.4,0.1,1.1,0.4,1.4,0.5c0.4,0.1,1.3,0.4,1.7,0.5
		c0.7,0.3,2.1,0.8,2.8,1.1c-0.1,6.1-0.6,12.5-4.5,17.4c-0.3-4.1-0.3-8.2-0.2-12.3c-0.8-2.4-3.7-0.9-5.4-1.1l-0.9,0.1
		C214.3,89.2,214.9,86.6,215.4,84.1z"/>
	<path class="st21" d="M224.9,129.9c4-0.8,8.2-2,12.3-0.9c-3,0.7-6,0.4-9,0.5c0,0.3,0,1,0,1.3c1.3,0.6,2.6,0.7,4,0.4
		c0.4,0.1,1.2,0.2,1.5,0.3c-0.4,0.1-1.2,0.4-1.6,0.5C229.7,131.7,226.7,132.2,224.9,129.9z"/>
	<path class="st21" d="M212.3,134.4c2.4-1.6,4.9-3.2,7.5-4.4l1.5,0.1c-2,1.3-4.9,1.7-5.7,4.2c0,0.1-0.1,0.2-0.2,0.2l0.2-0.2l0.8,0
		c1-0.2,2.1-0.4,3.1-0.6c-3,1.9-5.8,4.2-9.5,4.5c1.4,0.7,2.9,1.3,4.4,1.9c0.5-0.4,1.4-1.1,1.8-1.5l-0.4,0.9l-0.2,0.5
		c0.6,0.1,1.8,0.4,2.4,0.5c-1.2,0-2.5,0-3.7-0.1c-0.2,0.7-0.6,2.1-0.8,2.8c-1.1-0.5-2.8-0.5-3.2-1.8c1.2-0.4,2.5-0.6,3.7-0.9
		c-2.3-0.8-4.6-1.7-7.1-1.6c0.5,0.6,1.5,1.8,2,2.4c-1.8-0.4-2.9-1.8-4.4-2.8c1.7-0.1,4.4,0.6,5.4-1.2c-0.9-0.2-2.6-0.6-3.5-0.8
		c1-0.3,2.1-0.5,3.1-0.6c0.1-2.5,3-3.4,4.7-4.6c-1.2,1.5-2.7,2.7-4.3,3.8l2.7,0.1c-0.5,0.5-1.5,1.6-2,2.2c1.1-0.2,3.2-0.7,4.3-1
		C214.1,135.5,213.2,134.9,212.3,134.4z"/>
</g>
<g id="_x23_05b7e3ff">
	<path class="st22" d="M161.7,92.9c0.2-5.3,5.8-9.5,10.9-8.6c0.2,2.9,0.3,5.8,0,8.7c-0.2,0.1-0.6,0.3-0.8,0.4
		c-0.6,0.2-1.8,0.5-2.3,0.6c-0.1-1.6-0.1-3.2-0.1-4.8c-1,1.9-2,3.9-3.1,5.8c-1.5,0.6-3,1.2-4.6,1.7
		C161.7,95.7,161.7,93.8,161.7,92.9z"/>
</g>
<g id="_x23_cbbec3ff">
	<path class="st23" d="M205.3,85.5c2.2-0.7,3.2,1.9,4.6,3.1c-0.8,0.4-1.7,0.7-2.5,1.1C206.7,88.4,206,87,205.3,85.5z"/>
</g>
<g id="_x23_61e7e8ff">
	<path class="st24" d="M230.6,86c0.6-0.2,1.8-0.7,2.4-0.9c-1.4,0.9-1.5,2.6-1.8,4.1c0.9,0.2,2.5,0.7,3.4,0.9c-0.3,2.1-1.1,4-2.1,5.8
		c0.7,1.7,1.1,3.5,1,5.3c-1.4,0.6-2.8,1.1-4.2,1.7c-0.3,1.5,0,2.8,0.9,4l0.6,0.3c-2.2,1-4.6-0.2-6.9-0.1c-0.4-0.4-1.3-1.2-1.7-1.6
		c0.3-0.5,0.9-1.4,1.2-1.8c0.7,1.4,1.8,2.4,3.2,3c0.6-0.6,1.7-1.8,2.3-2.4c-0.2-0.4-0.5-1.3-0.7-1.7c1.6-0.7,3.1-1.4,4.6-2.2
		c-0.9-2.5-1.5-5.1-0.1-7.5c-0.3-0.5-0.9-1.6-1.1-2.2C230.6,89.3,230.6,87.6,230.6,86z"/>
	<path class="st24" d="M213.4,96c0.1-1.4,0.2-2.8,0.4-4.2l0.9-0.1c-0.8,5.4-0.1,10.8-0.4,16.1l-1.3-0.6c-0.2-0.1-0.6-0.3-0.9-0.4
		l1.2-0.7C213.9,102.8,213.4,99.4,213.4,96z"/>
	<path class="st24" d="M204.1,94.4c0.4-0.4,1.3-1.2,1.7-1.5c0,7.6-0.4,15.2,0.1,22.8c-0.3,0-1,0-1.4,0c0.1-2.8,0-5.5-0.2-8.3l0-0.1
		c0.4-4.2,0.5-8.3,0-12.5L204.1,94.4z"/>
	<path class="st24" d="M240.2,94.5c1.9-0.6,3.9-0.2,3.8,2.2c-0.4,0.2-1.4,0.7-1.8,0.9C242.8,95.9,242.1,94.5,240.2,94.5z"/>
	<path class="st24" d="M165.2,115.2c0.7,0.1,2.2,0.3,3,0.5c1.5,0.5,3,1,4.3,1.8c0.7,1.8-1.3,2.7-2.5,3.4c0.3-1.2,0.6-2.4,0.9-3.6
		c-1.7-0.5-3.5-0.9-5.3-1c-0.1,0.6-0.4,1.9-0.5,2.5l1-0.3c-0.7,2.2-0.9,4.4-0.8,6.7c1.3,0,2.7,0,4.1,0c1.2,1.4,2.3,2.8,3.6,4.2
		c-1.4-1.1-2.8-2.3-4.1-3.5c-1.9-0.3-3.8-0.6-5.6-0.9c0.8-1.1,1.1-2.4,0.9-3.8c0-0.8,0.1-2.5,0.1-3.3c-1.6,1.3-3.3,2.6-4.9,3.9
		c0.6,0.3,1.8,1.1,2.4,1.4c-1.2,1.5-2.6,2.8-4.5,3.4c-0.8-0.1-2.3-0.3-3.1-0.3c-0.1-1.3-0.2-2.5-0.2-3.8
		C158.4,121.4,161.6,117.8,165.2,115.2z"/>
</g>
<g id="_x23_f3f4cdff">
	<path class="st25" d="M245.3,90.7c0.5-2.2,1.1-4.4,1.8-6.5c1.6,2.5,1.5,5.6-0.1,8C246.5,91.8,245.7,91.1,245.3,90.7z"/>
</g>
<g id="_x23_0947aeff">
	<path class="st26" d="M222,86.7c1.1,0.3,2.1,0.6,3.2,0.9c0.8-0.3,2.4-0.8,3.2-1.1c-0.3,5.4-1.7,10.8-0.4,16.1
		c0.2,0.4,0.5,1.3,0.7,1.7c-0.6,0.6-1.7,1.8-2.3,2.4c-1.4-0.6-2.5-1.6-3.2-3c-0.3,0.4-0.9,1.3-1.2,1.8c-0.9,1-1.9,2.1-3.1,2.9
		c-1.6-0.1-3.2,0-4.7-0.5c0.3-5.4-0.4-10.8,0.4-16.1c1.8,0.3,4.7-1.3,5.4,1.1c-0.2,4.1-0.1,8.2,0.2,12.3c3.9-5,4.3-11.4,4.5-17.4
		C224.1,87.5,222.7,86.9,222,86.7z"/>
</g>
<g id="_x23_969fccff">
	<path class="st27" d="M236.9,87.8c1.3-0.7,2.8-1.1,4.2-1.6c-1.9,1.5-3.5,3.3-5,5.1l1.6,0.4l0.4,0.1c-0.6,0.3-1.7,1-2.3,1.4
		C235.9,91.4,235.6,89.2,236.9,87.8z"/>
</g>
<g id="_x23_c8effaff">
	<path class="st28" d="M241.1,86.2c1.9-1.6,2.4,1.1,0.9,2c-1.3,1.3-2.8,2.5-4.4,3.5l-1.6-0.4C237.6,89.4,239.2,87.7,241.1,86.2z"/>
</g>
<g id="_x23_fff6c3ff">
	<path class="st29" d="M228.4,86.5c0.1,1.8,0.2,3.6,0.4,5.4c0.6-0.3,2-0.9,2.6-1.2c0.3,0.5,0.9,1.6,1.1,2.2
		c-1.4,2.4-0.8,5.1,0.1,7.5c-1.5,0.8-3,1.6-4.6,2.2C226.7,97.3,228.1,91.9,228.4,86.5z"/>
</g>
<g id="_x23_b3a5b9ff">
	<path class="st30" d="M199.1,87.3c1.9,2.2,2.4,5.4,5,7.1l0.3,0.4c-1.4,0.3-2.2,1-2.6,2.3c-0.8-1.3-1.7-2.6-2.5-3.9
		C199.1,91.3,199.1,89.3,199.1,87.3z"/>
</g>
<g id="_x23_f9f5d2ff">
	<path class="st31" d="M249.6,89.1c0.5,0.1,1.4,0.3,1.8,0.4c1,3.2,1.8,6.5,3.7,9.3c0.9,1.3,0.9,2.9,1.1,4.5
		c-0.7-0.8-1.4-1.5-2.1-2.3c0,1.6,0.1,3.2,0.1,4.9c0.5-0.7,1.1-1.4,1.6-2c0.1,0.5,0.2,1.4,0.3,1.9c0,0.5-0.1,1.3-0.2,1.8
		c-1.7-0.2-3.4-0.3-5,0.3c0.3-3.5,0.8-6.9,0.7-10.4c-1.6,1.9-1.6,4.4-2,6.7c-3.7-0.2-0.9-5.3-3.7-6.5l-0.7,0.4
		c0.3-0.9,0.6-1.8,0.9-2.7C247.6,93.5,248.8,91.4,249.6,89.1z"/>
</g>
<g id="_x23_5e5654ff">
	<path class="st32" d="M277.5,91c2-0.6,4.1-1.3,6.1-1.9c-0.4,1.2,0.7,5-1,4.6C281,92.7,279.3,91.8,277.5,91z"/>
	<path class="st32" d="M228.2,130.8c0-0.3,0-0.9,0-1.3c3-0.1,6.1,0.2,9-0.5c0.2,0.1,0.7,0.1,0.9,0.2c0.7,0.3,2.2,0.9,2.9,1.2
		c-0.5,2.7-2.8,4.1-4.9,5.5c-0.5-0.2-1.6-0.5-2.1-0.7c-0.3-0.5-1-1.6-1.3-2.1c0.4-0.1,1.3-0.4,1.7-0.5c-0.2-0.3-0.5-0.9-0.7-1.2
		c-0.4-0.1-1.1-0.2-1.5-0.3C230.8,131.5,229.5,131.4,228.2,130.8z"/>
</g>
<g id="_x23_f0e5ddff">
	<path class="st33" d="M253.5,89.4c2.8,1.6,3.2,5.5,3.7,8.5c-0.5-0.2-1.6-0.6-2.1-0.7C254.5,94.6,253.9,92,253.5,89.4z"/>
</g>
<g id="_x23_00b7e3ff">
	<path class="st34" d="M136.5,92.6c1.5-1.1,3.3-1.7,5-2.5c0.5,1.1,0.4,1.9-0.4,2.6c-2.6,1.8-2.5,6.2-6.5,5.5
		C134.7,96.3,135.1,94.2,136.5,92.6z"/>
</g>
<g id="_x23_6c6a63ff">
	<path class="st35" d="M183.5,93.1c1.4-0.4,2.8-0.9,4.2-0.7c-2.2-0.3-2.8,1.6-2.2,3.4c-0.3-2.1-1.9-1.4-2.4,0.1
		C183.3,95.3,183.4,93.8,183.5,93.1z"/>
	<path class="st35" d="M219.7,130c1.4-0.7,2.9-1.3,4.4-1.8c-0.4,0.7-1.4,2.1-1.8,2.8c0.9-0.4,1.8-0.7,2.6-1.1
		c1.8,2.3,4.8,1.7,7.3,2.1c0.1,0.3,0.4,0.9,0.5,1.2c0.3,0.5,1,1.6,1.3,2.1c-0.4,0.3-1,0.9-1.4,1.2c-0.5,0.1-1.4,0.2-1.8,0.3
		c0.8,1.1,5.1,3.4,1.9,3.9c-5.2,0.3-11-1.2-15.5,2.3c4.6,1.3,9-1.3,13.7-1.4c-2.1,1.7-4.7,2.6-6.8,4.2c0.2,0.2,0.7,0.7,0.9,0.9
		c-0.4,0-1.3,0-1.8,0l-0.2-0.6c-0.7-0.2-2.1-0.5-2.8-0.7c-2.2-1.1-4.5-1.7-6.8-2.4c0.2-0.7,0.6-2.1,0.8-2.8c1.2,0.1,2.4,0.1,3.7,0.1
		c0.5-0.3,1.4-0.7,1.9-1c-1.4-0.5-2.8-0.5-4.1,0l0.4-0.9c2.7-2,6.3-3,8-6.2c-1.6,0.4-3.1,0.8-4.7,1.3c-1,0.3-2,0.5-3.1,0.6l-0.8,0
		c0.8-2.5,3.7-3,5.7-4.2L219.7,130z"/>
</g>
<g id="_x23_0046b1ff">
	<path class="st36" d="M205.8,92.9c0.9-1.1,2-1.6,3.3-1.3c0.6,5.3,0.6,10.5,0.7,15.8c0.3,0.4,0.9,1.2,1.2,1.5c0.3,0.4,1,1.2,1.3,1.6
		c-2.2,1.6-3.4,5.3-6.4,5.1C205.4,108.1,205.8,100.5,205.8,92.9z"/>
</g>
<g id="_x23_f0fffdff">
	<path class="st37" d="M161.4,97c0.1-1.4,0.1-2.7,0.2-4.1c0,1,0,2.9,0.1,3.8c1.5-0.5,3.1-1.1,4.6-1.7c1.1-0.4,2.1-0.7,3.2-1
		c0.6-0.2,1.8-0.5,2.3-0.6c0.3,0.8,1,2.4,1.4,3.2c-2.8,0.8-5.4,1.9-8.1,2.9c-4.7,1.6-9.5,3-14.3,4.3c-4.9,1.4-9.8,2.8-14.5,4.5
		c0.7-1.2,1.3-2.4,1.9-3.6c3.8-2.1,7.9-3.3,12-4.6c0.3-0.1,0.9-0.3,1.2-0.3c3.1-0.3,6-1.5,8.9-2.5L161.4,97z"/>
	<path class="st37" d="M197.8,107.9c1.2,0.9,1,2.6,0.7,3.9c-0.4,0-1.2,0-1.5-0.1C196.1,110.4,196.3,108.5,197.8,107.9z"/>
</g>
<g id="_x23_004aaaff">
	<path class="st38" d="M192.5,96.6c1.7-2.1,3.8-4.1,6.7-3.3c0.8,1.3,1.7,2.6,2.5,3.9c0.6,1.7,1.6,3.9-0.1,5.3c-1,0.2-2,0.3-3.1,0.5
		c-0.5-2.4-1.1-4.8-1.5-7.2c-0.3,0.5-0.9,1.4-1.3,1.9c-0.3,0.3-0.8,0.9-1.1,1.2c-0.1,4.3-1.3,9.5,2.2,12.8c0.4,0,1.1,0.1,1.5,0.1
		c0.4-1.3,0.5-3-0.7-3.9l-0.4-0.4c0.7-0.5,2.2-1.4,3-1.9c0.4,3.2,0.4,6.5,0,9.7c-2.2,0.6-4.8,1.6-6.9,0.2c-1.9-2.1-2.1-5-2.7-7.6
		C189.7,103.9,192.7,100.5,192.5,96.6z"/>
</g>
<g id="_x23_f4ffd8ff">
	<path class="st39" d="M201.7,97.2c0.4-1.3,1.3-2.1,2.6-2.3c0.5,4.2,0.4,8.3,0,12.5c-1.1-0.7-2.3-1.3-3.4-1.9
		c-0.1,0-0.4,0.1-0.5,0.1c-0.7,0.5-2.2,1.5-3,1.9c-3.2-2.2-1.6-6.6-1.5-9.8c0.3-0.5,0.9-1.4,1.3-1.9c0.4,2.4,1,4.8,1.5,7.2
		c1-0.1,2.1-0.3,3.1-0.5C203.4,101,202.3,98.8,201.7,97.2z"/>
	<path class="st39" d="M211.9,96.3l1.5-0.3c0,3.4,0.5,6.8,0,10.2l-1.2,0.7c-2.9-1.9-1.3-6.2-1.9-9.1
		C210.8,97.4,211.5,96.7,211.9,96.3z"/>
</g>
<g id="_x23_f2ffe5ff">
	<path class="st40" d="M235.9,96.9c1.3-1,2.8-1.7,4.3-2.4c1.9,0,2.6,1.4,2,3c-2.1,1.3-4.3,2.3-6.6,3.2
		C235.7,99.4,235.4,98.1,235.9,96.9z"/>
</g>
<g id="_x23_56ede9ff">
	<path class="st41" d="M173.2,96.5c0.3-0.1,0.8-0.2,1-0.2c0.5,3.1,2.2,6.5,5.8,6.6c-0.5-0.1-1.5-0.1-2.1-0.2
		c-0.9,0.8-1.9,1.6-2.8,2.5c-0.1-0.8-0.4-2.3-0.6-3.1c-1.8,0.2-3.7,0.4-5.5,0.9c-0.4-0.9-0.8-1.8-1.3-2.8c-0.7-0.2-2.1-0.6-2.8-0.8
		C167.8,98.4,170.4,97.3,173.2,96.5z"/>
</g>
<g id="_x23_58b2beff">
	<path class="st42" d="M152.6,97.5c2.5-0.2,5.1-0.2,7.6-0.3c-2.9,1.1-5.8,2.2-8.9,2.5C151.6,99.1,152.3,98,152.6,97.5z"/>
</g>
<g id="_x23_283da6ff">
	<path class="st43" d="M185.7,97.6c0.9-0.1,1.9-0.1,2.8-0.1c-0.4,2-0.8,4.1-0.4,6.1c0.1,3.7-0.1,7.6,1.3,11.1
		c-0.1,1.7-0.1,3.4-0.2,5.1c-1.2,1-2.5,1.9-3.7,2.8c2.4-7.2,2.1-14.8,0.2-22.1C185.8,99.9,185.7,98.4,185.7,97.6z"/>
</g>
<g id="_x23_43a6c2ff">
	<path class="st44" d="M183.8,100.1c0.6-0.8,1.3-1.6,1.9-2.4c0,0.7,0,2.2,0,3c-0.4,2-1.2,3.9-2,5.8c0-0.8,0.1-2.4,0.1-3.2
		C183.8,102.4,183.8,100.8,183.8,100.1z"/>
</g>
<g id="_x23_6562baff">
	<path class="st45" d="M194.7,98.9c0.3-0.3,0.8-0.9,1.1-1.2c0,3.2-1.7,7.6,1.5,9.8l0.4,0.4c-1.5,0.6-1.7,2.6-0.9,3.8
		C193.4,108.3,194.6,103.2,194.7,98.9z"/>
</g>
<g id="_x23_fdf4d1ff">
	<path class="st46" d="M245.3,98.1l0.7-0.4c0,1.4-0.1,2.8-0.1,4.3c-0.6,0.5-1.1,1-1.7,1.6c1.9,0.7,3.6,1.8,4.9,3.3
		c-1.1,1-2.4,1.9-3.7,2.7c-1.7-1.4-3.9-1.8-6-2.2c-0.8,1.6-1.6,3.3-2.5,4.9c-1.8,0.5-3.8,2-5.7,0.8c2.7-2,4.8-4.7,4.6-8.2
		C239.2,102.8,242.9,101.3,245.3,98.1z"/>
</g>
<g id="_x23_bfb8a0ff">
	<path class="st47" d="M246,97.7c2.8,1.2,0,6.4,3.7,6.5c0.4-2.3,0.4-4.8,2-6.7c0.1,3.5-0.4,7-0.7,10.4c-0.4-0.3-1.3-0.8-1.8-1.1
		c-1.4-1.5-3.1-2.6-4.9-3.3c0.6-0.5,1.1-1,1.7-1.6C245.9,100.5,246,99.1,246,97.7z"/>
</g>
<g id="_x23_8faca8ff">
	<path class="st48" d="M180.5,99.1c1.1,0.3,2.2,0.6,3.3,1c0,0.8,0,2.4,0,3.1C181.7,103,180.3,101.1,180.5,99.1z"/>
</g>
<g id="_x23_3dfbf8ff">
	<path class="st49" d="M150.8,103.8c4.8-1.3,9.6-2.7,14.3-4.3c-1.2,1.2-2.5,2.3-3.9,3.2c2.2,0,4.4,0.3,6.4,1.1
		c-0.4,0.3-1.1,0.8-1.4,1c-2.7-0.4-5.6-1.2-8.3-0.1c-2,0.7-3.9,1.7-5.9,2.6C151.6,106.1,151.2,104.9,150.8,103.8z"/>
</g>
<g id="_x23_2df2f1ff">
	<path class="st50" d="M165.1,99.4c0.7,0.2,2.1,0.6,2.8,0.8c0.4,0.9,0.8,1.8,1.3,2.8c-0.4,0.2-1.2,0.6-1.6,0.8
		c-2-0.9-4.2-1.1-6.4-1.1C162.6,101.7,163.9,100.6,165.1,99.4z"/>
</g>
<g id="_x23_0055b5ff">
	<path class="st51" d="M183.8,106.3c0.8-1.9,1.6-3.8,2-5.8c1.9,7.3,2.2,14.9-0.2,22.1c-0.8,0.5-1.5,1.1-2.3,1.6
		c-1.5,0.4-3,0.7-4.5,1.1c-0.9-0.7-1.7-1.5-2.6-2.2c2.1-1.4,4-2.9,5.8-4.7c0.5,0.5,1,1,1.5,1.5c-1.5,0.8-2.9,1.7-3.9,3.2
		c2.5,0.6,3.7-1.7,5.1-3.3l-1.1-0.1c0.3-1.9,0.7-3.9,0.7-5.8C184.1,111.4,182.8,108.9,183.8,106.3z"/>
</g>
<g id="_x23_0049afff">
	<path class="st52" d="M169.1,102.9c1.8-0.5,3.7-0.7,5.5-0.9c0.1,0.8,0.4,2.3,0.6,3.1c0.9-0.8,1.8-1.7,2.8-2.5
		c1.3,2.1,2,4.5,2.7,6.9l0.9,0.4c0.4,0.2,1.1,0.7,1.5,0.9c1.8,3.1-2.6,6.2-5.3,4.7c-0.5-0.4-1-0.9-1.5-1.3c-0.1-0.8-0.2-2.5-0.3-3.4
		c-1-0.9-1.9-1.8-2.9-2.7c-1.8,1.2-3.5,2.5-5.1,3.9c0.9-1.1,1.8-2.2,2.7-3.3c-1.8,0.4-3.6,1-5.2,1.8c0.1,0.3,0.2,1,0.2,1.4
		c0.6,1.3,1.4,2.5,2.4,3.6c-0.7-0.1-2.2-0.4-3-0.5c-0.5-0.4-1.6-1.2-2.1-1.6c-0.3-0.2-0.8-0.6-1.1-0.8c-2.2,1.6-4.2,3.5-6.3,5.2
		c-0.5,0.2-1.5,0.6-2.1,0.8c-0.3,0.1-0.9,0.4-1.2,0.6c-0.7,3.4-0.5,6.8-0.1,10.3c-1.5,1-3.1,1.7-4.8,2.5c-0.1-1.1-0.1-2.3-0.1-3.4
		c0.3-4.9,1.2-9.8,1.4-14.7c-2.1-0.3-2.7-2.3-3.3-4c2.2-0.8,4.4-1.7,6.5-2.8c1.9-0.9,3.9-1.9,5.9-2.6c2.4-0.1,4.6,0.6,6.9,1.2
		c0.4-0.3,1.1-0.8,1.4-1c0.3-0.3,1.1-0.8,1.4-1C168,103.6,168.8,103.2,169.1,102.9 M155.3,109.3c-0.8-0.1-2.4-0.3-3.2-0.5
		c-0.3,3-0.5,5.9-0.8,8.8c0.3,0,0.9,0.1,1.3,0.1l0-0.4c1.3-0.1,2-0.6,2.2-1.6c2.7-1.5,4.5-4,6.6-6.2c0.1-0.5,0.2-1.6,0.3-2.1
		C159.4,107.3,157.3,108.2,155.3,109.3z"/>
</g>
<g id="_x23_243298ff">
	<path class="st53" d="M178,102.7c0.5,0,1.5,0.1,2.1,0.2l0.6,0.2c1.8,1.9,0.9,4.6,1,6.9l-0.9-0.4C180,107.2,179.3,104.8,178,102.7z"
		/>
</g>
<g id="_x23_74dbdbff">
	<path class="st54" d="M136.2,108.3c4.8-1.8,9.7-3.1,14.5-4.5c0.4,1.2,0.8,2.3,1.3,3.5c-2.1,1.1-4.3,2-6.5,2.8
		c-1.5-0.7-3-1.5-4.6-1.9c-2.2,0.5-1.1,3.1-1.4,4.7c-1.6-0.3-3.9-2.2-4.7,0.2c0.9,4.6,2,10.6,7.1,12.3c1.3,0.3,3.3,1.1,4.3-0.3
		c-1.5-1.9-4.1-2.5-5.6-4.4c-0.9-1.5-0.2-3.2-0.1-4.8c4.3,2.1,8,6.5,6.2,11.6c-2.5-0.4-5-0.5-7.5-0.3c-5.2-3.9-6.5-10.7-5.7-16.8
		c-0.8,0.1-2.4,0.2-3.2,0.2C132.1,109.8,134.1,109,136.2,108.3z"/>
</g>
<g id="_x23_4ba0dfff">
	<path class="st55" d="M157.9,104.6c2.7-1.1,5.5-0.3,8.3,0.1c-0.4,0.3-1.1,0.8-1.4,1C162.5,105.3,160.2,104.5,157.9,104.6z"/>
</g>
<g id="_x23_7b5ba9ff">
	<path class="st56" d="M188.2,103.7c1.4,2.2,1.7,4.7,1,7.2c0.3,0.5,0.9,1.6,1.1,2.1c-0.2,0.5-0.6,1.3-0.8,1.8
		C188.1,111.2,188.3,107.4,188.2,103.7z"/>
</g>
<g id="_x23_6a63abff">
	<path class="st57" d="M200.3,105.5c0.1,0,0.4-0.1,0.5-0.1c1.2,0.6,2.3,1.3,3.4,1.9l0,0.1c-3.1,0.5-2.2,4.1-2.7,6.3
		c-0.3,0.4-1,1.1-1.3,1.5C200.7,112,200.8,108.8,200.3,105.5z"/>
</g>
<g id="_x23_c6c1a6ff">
	<path class="st58" d="M234.6,106.4c0.4-0.5,0.9-1.1,1.4-1.6c0.2,3.5-1.9,6.3-4.6,8.2c-0.8,0.6-1.6,1.2-2.4,1.8l-0.8-1
		c-0.3-0.8-0.7-1.5-1-2.3C230.7,111.7,233.6,109.8,234.6,106.4z"/>
</g>
<g id="_x23_fcfac5ff">
	<path class="st59" d="M219.1,108.4c1.1-0.8,2.1-1.8,3.1-2.9c0.4,0.4,1.3,1.2,1.7,1.6c2.3-0.1,4.7,1,6.9,0.1
		c0.9-0.2,2.8-0.6,3.8-0.8c-1,3.5-3.9,5.3-7.4,5.3c0.3,0.8,0.6,1.5,1,2.3c-2.6,3.6-7.6,2.9-11.5,4c-3.2-0.2-6.4-0.6-9.5-0.8
		c0.4,0.9,0.7,1.8,1.1,2.6c-6.3,2.5-13.3,4.8-20,2.6c-0.1,1.7-0.2,3.4-0.3,5.2l0,0.6c-1.7,0.2-3.5,0.4-5.2,0.6
		c-0.9,1.6-2.5,2.1-4.3,1.8c-1.8-0.3-3.6-0.5-5.3-1.1c-1.3-1.4-2.4-2.8-3.6-4.2c1.5-1,3.1-1.9,4.6-2.9c1.1,1.3,2.2,2.7,3.2,4.1
		c2.2,0,4.4-0.4,6.1-1.9c0.8-0.5,1.5-1.1,2.3-1.6c1.2-0.9,2.5-1.8,3.7-2.8c0.7-1.1,1.4-2.3,2-3.5c3.3,1.5,7,1.2,10.2-0.3
		c0-0.6,0.1-1.7,0.1-2.3c0.5-2.3-0.4-5.8,2.7-6.3c0.1,2.8,0.2,5.5,0.2,8.3c0.3,0,1,0,1.4,0c3.1,0.2,4.3-3.4,6.4-5.1
		c0.8-0.7,1.6-1.4,2.5-2.1C216.2,108.5,217.6,108.5,219.1,108.4z"/>
</g>
<g id="_x23_cec4b6ff">
	<path class="st60" d="M239.5,107.3c2.1,0.4,4.3,0.8,6,2.2c-2.9,0.6-5.9,1.3-8.5,2.7C237.8,110.6,238.6,108.9,239.5,107.3z"/>
</g>
<g id="_x23_27fbfeff">
	<path class="st61" d="M139.6,112.8c0.3-1.6-0.9-4.2,1.4-4.7c1.6,0.4,3.1,1.2,4.6,1.9c0.6,1.7,1.2,3.6,3.3,4
		c-0.3,4.9-1.1,9.8-1.4,14.7c-2.8-0.5-5.6-0.8-8.4-1.5c2.5-0.2,5-0.1,7.5,0.3c1.8-5.1-1.8-9.5-6.2-11.6c-0.1,1.6-0.8,3.3,0.1,4.8
		c1.6,1.8,4.2,2.4,5.6,4.4c-1,1.4-2.9,0.5-4.3,0.3c-5-1.7-6.1-7.8-7.1-12.3C135.7,110.6,137.9,112.5,139.6,112.8z"/>
</g>
<g id="_x23_d4fff2ff">
	<path class="st62" d="M168.1,112.2c1.6-1.4,3.4-2.7,5.1-3.9c0.9,0.9,1.9,1.8,2.9,2.7c0.1,0.8,0.2,2.5,0.3,3.4
		c-0.3,0.4-1,1.3-1.4,1.7l-0.7,0.3c-2.4-2.2-5.6-3.1-8.7-4.2c-0.1-0.3-0.2-1-0.2-1.4c1.6-0.9,3.4-1.4,5.2-1.8
		C169.9,110,169,111.1,168.1,112.2z"/>
</g>
<g id="_x23_243aa6ff">
	<path class="st63" d="M152.1,108.8c0.8,0.1,2.4,0.4,3.2,0.5v0.1c-2.4,2-2.2,5.3-2.7,8l0,0.4c-0.3,0-1-0.1-1.3-0.1
		C151.6,114.7,151.9,111.8,152.1,108.8z"/>
</g>
<g id="_x23_75b9f3ff">
	<path class="st64" d="M152.6,117.4c0.5-2.8,0.3-6,2.7-8c0,2.1-0.3,4.3-0.5,6.4C154.6,116.8,153.9,117.3,152.6,117.4z"/>
</g>
<g id="_x23_0a0409ff">
	<path class="st65" d="M255.3,111.4c0.4-0.3,1.1-0.9,1.5-1.2c-0.5,2.9-2.1,5.5-3.9,7.7c-2,2.6-5.9,3.4-7.3,6.5
		c-1.9,5-3.2,10.6-6.9,14.6c-4.1,3.2-8.8,6.1-13.8,7.6c-0.2-0.2-0.7-0.7-0.9-0.9c2.1-1.6,4.7-2.5,6.8-4.2c-4.6,0.1-9,2.7-13.7,1.4
		c4.6-3.6,10.3-2,15.5-2.3c3.2-0.5-1.1-2.8-1.9-3.9c0.4-0.1,1.3-0.2,1.8-0.3c1,1.4,2.5,0.4,3.5-0.5c2.1-1.4,4.4-2.8,4.9-5.5
		c-0.7-0.3-2.2-0.9-2.9-1.2c-0.2-0.1-0.7-0.2-0.9-0.2c-4.1-1.1-8.3,0.1-12.3,0.9c-0.9,0.3-1.8,0.7-2.6,1.1c0.4-0.7,1.4-2.1,1.8-2.8
		c-1.5,0.5-2.9,1.1-4.4,1.8c-2.6,1.2-5,2.9-7.5,4.4c0.9,0.5,1.9,1.1,2.8,1.6c-1.1,0.2-3.2,0.7-4.3,1c0.5-0.5,1.5-1.6,2-2.2l-2.7-0.1
		c1.5-1.1,3.1-2.3,4.3-3.8c-1.7,1.3-4.6,2.1-4.7,4.6c-1,0.1-2.1,0.3-3.1,0.6c0.9,0.2,2.6,0.6,3.5,0.8c-1.1,1.9-3.7,1.1-5.4,1.2
		c1.4,1,2.6,2.4,4.4,2.8c-0.5-0.6-1.5-1.8-2-2.4c2.5,0,4.8,0.8,7.1,1.6c-1.2,0.3-2.5,0.5-3.7,0.9c0.4,1.3,2.1,1.3,3.2,1.8
		c2.3,0.7,4.6,1.4,6.8,2.4c0.7,0.2,2.1,0.5,2.8,0.7l0.2,0.6c-3.8,1.5-8.2,0.4-12.1-0.7c2,2.6,3.6,5.5,4.7,8.6
		c-0.7-0.1-2.1-0.3-2.7-0.3c-1.3-4.9-5.3-8.2-8.4-11.9c-1.3-1.6-3-2.5-4.7-3.5c1-0.5,1.9-1.1,2.9-1.6c-0.6-0.3-1.9-0.8-2.6-1.1
		c-0.4,0.5-0.8,1.1-1.1,1.6l-1.1-1.4c-0.4-0.1-1.3-0.1-1.7-0.2c3,6.6,10.3,11,10.4,18.8c-1.1-0.2-1.7-0.9-1.9-2
		c-1.7-6.3-6.9-10.6-10.2-16c-6,1.5-12.6,3.4-18.6,0.7c0.2-0.3,0.5-1,0.7-1.3c3,0.4,6.1,1.5,9.1,0.6c4.1-1.1,8.4-1.7,12.4-3.1
		c1-0.8,1.8-1.7,2.6-2.6c3.1-0.1,6.3,0,9.3-1c3.5-1.3,6.9-2.9,10.2-4.6c2.9-1.8,6.4-1.2,9.6-1.8c3.7-0.4,7.1-1.8,10.3-3.7
		c0.6,0.6,1.1,1.1,1.7,1.7c5.5-0.9,10.3-4.5,12.5-9.6C254.8,112.1,255.1,111.7,255.3,111.4z"/>
	<path class="st65" d="M219.4,133.6c1.5-0.5,3.1-1,4.7-1.3c-1.7,3.1-5.3,4.2-8,6.2c-0.5,0.4-1.4,1.1-1.8,1.5
		c-1.5-0.6-2.9-1.2-4.4-1.9C213.5,137.8,216.4,135.5,219.4,133.6z"/>
</g>
<g id="_x23_eeaa76ff">
	<path class="st66" d="M246,112.4c3.2,0.4,6.1-1.7,9.3-1c-0.2,0.2-0.6,0.6-0.8,0.9c-1,0.1-2,0.1-3,0.2l-1.4,0.2
		c-1.9,2.7-4.9,4.3-8.3,3.7c-0.1-1.8-2.5-1.9-2.7-0.1c-0.4,0.3-1.1,0.8-1.5,1c-0.4,0.1-1.3,0.3-1.8,0.4l-0.4-0.9
		c-0.4-0.3-1.2-0.8-1.6-1.1C238,114.9,241.7,112.1,246,112.4z"/>
</g>
<g id="_x23_f78121ff">
	<path class="st67" d="M251.6,112.5c1-0.1,2-0.2,3-0.2c-2.2,5.1-7,8.8-12.5,9.6c-0.6-0.6-1.1-1.1-1.7-1.7c-3.2,1.9-6.7,3.3-10.3,3.7
		c-3.2,0.6-6.7,0-9.6,1.8c0-3.4-4.3-2.1-6.4-1.9c0.4-0.3,1.3-1,1.8-1.3c7.1,0.6,13.2-3.8,20.1-4.7c0.4-0.1,1.3-0.3,1.8-0.4
		c3,0.2,6,0.8,8.9,0.2C249,116.8,250.2,114.4,251.6,112.5z"/>
</g>
<g id="_x23_5dd2f5ff">
	<path class="st68" d="M155.7,118c2.1-1.7,4.2-3.5,6.3-5.2c0.3,0.2,0.8,0.6,1.1,0.8C161,115.6,158.6,117.4,155.7,118z"/>
</g>
<g id="_x23_093fa9ff">
	<path class="st69" d="M165.7,112.1c3,1.1,6.2,2,8.7,4.2c0,1.6,0,3.2-0.1,4.8c-0.1,0.3-0.2,0.8-0.3,1.1c-1.5,1-3.1,1.9-4.6,2.9
		c-1.4,0-2.7,0-4.1,0c-0.1-2.3,0.1-4.5,0.8-6.7l1.9-0.7c-0.2,1.1-0.5,3.2-0.6,4.3c0.9-0.4,1.7-0.8,2.6-1.2c1.3-0.7,3.2-1.5,2.5-3.4
		c-1.3-0.8-2.8-1.3-4.3-1.8C167.1,114.6,166.3,113.4,165.7,112.1z"/>
</g>
<g id="_x23_3bf1f8ff">
	<path class="st70" d="M155.7,118c2.9-0.6,5.3-2.4,7.4-4.4c0.5,0.4,1.6,1.2,2.1,1.6c-3.6,2.7-6.7,6.2-11.3,7.1
		c-0.1-0.9-0.2-2.6-0.3-3.5C154.1,118.6,155.2,118.2,155.7,118z"/>
</g>
<g id="_x23_f8c9afff">
	<path class="st71" d="M239.2,116.3c0.1-1.9,2.6-1.8,2.7,0.1C241.2,116.4,239.9,116.3,239.2,116.3z"/>
</g>
<g id="_x23_f6f4fdff">
	<path class="st72" d="M165.6,116.3c1.8,0.2,3.5,0.5,5.3,1c-0.3,1.2-0.6,2.4-0.9,3.6c-0.8,0.4-1.7,0.8-2.6,1.2
		c0.1-1.1,0.5-3.2,0.6-4.3l-1.9,0.7l-1,0.3C165.2,118.2,165.4,116.9,165.6,116.3z"/>
</g>
<g id="_x23_998575ff">
	<path class="st73" d="M233.2,116.9c0.2-0.3,0.6-0.9,0.8-1.2c0.4,0.3,1.2,0.8,1.6,1.1C235,116.8,233.8,116.9,233.2,116.9z"/>
</g>
<g id="_x23_c5c5a8ff">
	<path class="st74" d="M207.1,117.1c3.2,0.3,6.4,0.6,9.5,0.8c-8.2,3.5-17,6.9-26.1,7.5c-0.9,0.7-1.8,1.4-2.7,2
		c0.1-1.7,0.2-3.4,0.3-5.2c6.7,2.2,13.7-0.1,20-2.6C207.8,118.8,207.4,118,207.1,117.1z"/>
</g>
<g id="_x23_8c9d96ff">
	<path class="st75" d="M159.3,121.6c1.7-1.3,3.3-2.6,4.9-3.9c0,0.8-0.1,2.5-0.1,3.3c-1.4,0.6-1.7,2.3-1.5,3.7
		c0.1,1.8-0.2,3.9,1.1,5.4c1.4,2.4,4.3,2.4,6.7,2.5c-2,1.3-4.2,2.4-6.6,2.4c0.5-0.4,1.5-1.1,2-1.5c-2.7-1.4-4.4-3.9-5-6.9
		c-2.4,0.9-4.9,1.6-7.5,2.2c1.2-0.9,2.5-1.8,3.8-2.5c1.8-0.6,3.3-1.9,4.5-3.4C161.1,122.7,159.9,122,159.3,121.6z"/>
</g>
<g id="_x23_8bb4eaff">
	<path class="st76" d="M152.4,119.4c0.3-0.1,0.9-0.4,1.2-0.6c0.1,0.9,0.2,2.6,0.3,3.5c0.1,1.3,0.1,2.5,0.2,3.8
		c0.8,0.1,2.3,0.3,3.1,0.3c-1.4,0.7-2.6,1.6-3.8,2.5c-0.3,0.2-0.8,0.6-1.1,0.7C151.9,126.2,151.7,122.8,152.4,119.4z"/>
</g>
<g id="_x23_d3f3efff">
	<path class="st77" d="M162.6,124.8c-0.2-1.4,0.2-3,1.5-3.7c0.2,1.4-0.1,2.7-0.9,3.8L162.6,124.8z"/>
</g>
<g id="_x23_f3b813ff">
	<path class="st78" d="M202.9,128.2c3.8-1.4,7.5-2.8,11.2-4.5c2.2-0.1,6.4-1.4,6.4,1.9c-3.3,1.8-6.7,3.4-10.2,4.6
		c-3,0.2-5.9,0.1-8.9-0.1C201.8,129.8,202.5,128.7,202.9,128.2z"/>
</g>
<g id="_x23_fafec2ff">
	<path class="st79" d="M162.6,124.8l0.7,0.1c1.9,0.3,3.7,0.7,5.6,0.9c1.3,1.2,2.6,2.4,4.1,3.5c1.7,0.6,3.5,0.8,5.3,1.1
		c-2.5,1.1-5.3,1.2-7.8,2.3c-2.4-0.2-5.3-0.2-6.7-2.5C162.4,128.7,162.6,126.6,162.6,124.8z"/>
</g>
<g id="_x23_ae8331ff">
	<path class="st80" d="M197.8,129.7c1.8-0.3,3.4-0.9,5.1-1.4c-0.4,0.5-1.1,1.5-1.5,2c3,0.2,5.9,0.3,8.9,0.1c-3,1-6.2,0.9-9.3,1
		c-0.8,0.9-1.7,1.8-2.6,2.6c0-0.6-0.1-1.8-0.1-2.4c0.1-0.4,0.2-1.1,0.3-1.5L197.8,129.7z"/>
</g>
<g id="_x23_fcb514ff">
	<path class="st81" d="M193,130.7c1.4-0.2,2.8-0.4,4.1-0.5c0.3,0.4,0.8,1,1.1,1.4c0,0.6,0.1,1.8,0.1,2.4c-4,1.4-8.3,2-12.4,3.1
		c-3,0.9-6.1-0.2-9.1-0.6c0.6,0,1.7-0.1,2.3-0.1c3.2-2,6.9-2.9,10.5-3.9c-0.1-0.3-0.2-0.8-0.3-1.1
		C190.6,131.5,191.9,131.3,193,130.7z"/>
</g>
<g id="_x23_8f6003ff">
	<path class="st82" d="M197.1,130.2l0.6-0.5l0.7,0.4c-0.1,0.4-0.2,1.1-0.3,1.5C198,131.2,197.4,130.6,197.1,130.2z"/>
</g>
<g id="_x23_6f6866ff">
	<path class="st83" d="M234,135.2c0.5,0.2,1.6,0.5,2.1,0.7c-0.9,0.9-2.5,1.9-3.5,0.5C233,136.1,233.7,135.5,234,135.2z"/>
</g>
<g id="_x23_302223ff">
	<path class="st84" d="M215.7,139.3c1.4-0.5,2.7-0.5,4.1,0c-0.5,0.3-1.4,0.7-1.9,1c-0.6-0.1-1.8-0.4-2.4-0.5L215.7,139.3z"/>
</g>
</svg>
