<?xml version="1.0" encoding="UTF-8" ?>
<!DOCTYPE svg PUBLIC "-//W3C//DTD SVG 1.1//EN" "http://www.w3.org/Graphics/SVG/1.1/DTD/svg11.dtd">
<svg width="400pt" height="225pt" viewBox="0 0 400 225" version="1.1" xmlns="http://www.w3.org/2000/svg">
<g id="#ffffffff">
<path fill="#ffffff" opacity="1.00" d=" M 214.63 93.59 C 218.10 91.76 221.68 90.12 225.13 88.23 C 226.78 90.03 228.42 91.85 230.08 93.65 C 224.93 93.65 219.77 93.80 214.63 93.59 Z" />
<path fill="#ffffff" opacity="1.00" d=" M 182.93 117.49 C 184.63 120.82 185.69 124.42 187.16 127.85 C 188.07 129.88 190.56 130.20 192.35 131.07 C 192.81 131.30 193.73 131.75 194.19 131.97 C 193.69 132.50 192.70 133.54 192.20 134.07 C 188.92 133.88 185.51 133.73 182.43 132.44 C 179.52 131.24 178.42 128.04 177.24 125.40 C 177.90 124.40 178.56 123.41 179.21 122.41 C 180.95 121.13 184.30 120.34 182.93 117.49 Z" />
<path fill="#ffffff" opacity="1.00" d=" M 171.63 138.39 C 172.02 138.52 172.78 138.79 173.16 138.92 C 173.15 140.54 173.13 142.15 173.14 143.76 L 175.21 143.90 C 175.29 141.92 175.43 139.95 175.65 137.98 C 177.33 139.87 176.53 142.53 176.06 144.73 C 174.64 144.62 173.22 144.49 171.81 144.34 C 171.72 142.35 171.67 140.37 171.63 138.39 Z" />
<path fill="#ffffff" opacity="1.00" d=" M 177.77 138.56 C 179.56 138.59 181.35 138.64 183.14 138.66 C 183.71 140.15 184.27 141.64 184.85 143.14 C 185.65 141.33 186.20 139.30 187.71 137.93 C 187.30 140.63 186.09 143.11 184.90 145.53 C 183.01 142.88 183.09 137.36 178.35 139.40 C 178.93 139.92 180.11 140.95 180.69 141.46 C 180.10 141.86 178.92 142.67 178.33 143.07 C 179.33 143.51 181.34 144.37 182.34 144.80 C 180.80 144.72 179.26 144.65 177.72 144.60 C 177.75 142.59 177.76 140.57 177.77 138.56 Z" />
<path fill="#ffffff" opacity="1.00" d=" M 196.69 137.86 C 198.73 139.53 196.29 144.50 199.70 143.93 C 200.10 141.91 200.19 139.85 200.51 137.82 C 201.34 139.50 201.42 141.39 201.18 143.23 C 200.84 145.55 196.34 145.26 196.40 142.79 C 196.23 141.14 196.48 139.49 196.69 137.86 Z" />
<path fill="#ffffff" opacity="1.00" d=" M 202.75 137.92 C 203.99 139.38 205.09 140.95 206.22 142.49 C 206.41 141.28 206.78 138.85 206.96 137.63 C 207.96 140.13 207.59 142.84 207.35 145.44 C 205.98 144.00 204.87 142.34 203.73 140.72 C 203.55 142.34 203.76 144.14 202.66 145.50 C 202.36 142.98 202.44 140.43 202.75 137.92 Z" />
<path fill="#ffffff" opacity="1.00" d=" M 212.58 142.44 C 212.82 140.84 213.07 139.25 213.55 137.70 C 214.03 140.26 213.90 142.88 213.74 145.47 C 212.37 143.95 211.18 142.29 209.91 140.69 C 209.87 141.87 209.78 144.24 209.73 145.42 C 208.17 143.24 209.00 140.49 208.97 138.05 C 210.44 139.28 211.51 140.87 212.58 142.44 Z" />
<path fill="#ffffff" opacity="1.00" d=" M 216.46 145.30 C 214.37 143.54 214.96 139.92 216.27 137.79 C 216.65 140.27 216.64 142.79 216.46 145.30 Z" />
<path fill="#ffffff" opacity="1.00" d=" M 222.41 137.70 C 222.54 138.39 222.78 139.79 222.91 140.48 C 223.21 140.35 223.82 140.08 224.12 139.94 C 225.20 138.61 226.90 138.56 228.45 138.34 C 228.73 138.67 229.31 139.33 229.59 139.66 C 228.22 139.55 226.86 139.47 225.49 139.41 C 224.64 141.81 225.32 143.52 227.55 144.56 C 227.72 143.80 228.06 142.27 228.23 141.51 C 228.98 142.28 229.68 143.17 229.35 144.33 C 227.25 145.24 224.01 145.04 223.78 142.04 C 223.27 143.14 222.76 144.24 222.26 145.34 C 221.16 143.76 220.08 142.16 218.96 140.60 C 218.86 141.81 218.65 144.24 218.55 145.45 C 217.31 143.13 217.92 140.48 218.06 138.00 C 219.34 139.33 220.45 140.82 221.56 142.30 C 221.78 140.75 222.07 139.22 222.41 137.70 Z" />
<path fill="#ffffff" opacity="1.00" d=" M 190.76 144.61 C 191.30 142.41 189.45 138.59 192.78 138.00 C 192.51 138.85 191.97 140.57 191.70 141.43 C 192.23 141.35 193.30 141.18 193.83 141.10 C 193.65 140.35 193.29 138.86 193.11 138.11 C 193.51 138.42 194.31 139.05 194.71 139.36 C 194.24 141.49 194.82 143.48 195.63 145.44 C 194.35 144.40 193.31 143.12 192.26 141.87 C 192.22 142.58 192.13 144.01 192.08 144.72 L 190.76 144.61 Z" />
</g>
<g id="#ef9391ff">
<path fill="#ef9391" opacity="1.00" d=" M 167.13 51.41 C 180.67 44.03 196.83 41.90 211.93 44.71 C 220.68 46.64 229.12 49.99 236.74 54.73 C 236.18 55.72 235.59 56.71 235.12 57.75 C 238.92 61.57 244.82 63.92 246.51 69.42 C 243.58 67.41 241.15 64.81 238.46 62.51 C 224.34 51.29 205.30 46.10 187.52 49.74 C 184.21 50.46 180.80 50.26 177.47 50.79 C 172.16 52.50 167.32 55.40 162.66 58.44 C 162.55 59.01 162.33 60.17 162.22 60.75 C 154.28 66.23 147.81 73.76 143.34 82.30 C 141.54 85.60 140.59 89.37 138.19 92.34 C 138.62 85.59 142.90 80.03 146.05 74.31 C 145.13 73.64 144.21 72.98 143.29 72.31 C 149.51 63.64 157.65 56.35 167.13 51.41 Z" />
<path fill="#ef9391" opacity="1.00" d=" M 226.34 80.24 C 228.02 80.97 225.67 84.17 224.23 83.84 C 223.73 82.44 225.07 80.78 226.34 80.24 Z" />
<path fill="#ef9391" opacity="1.00" d=" M 212.45 81.10 C 213.97 80.47 216.50 82.05 216.53 83.66 C 215.03 84.04 212.25 82.87 212.45 81.10 Z" />
<path fill="#ef9391" opacity="1.00" d=" M 219.26 84.25 C 219.95 83.08 222.54 83.88 221.18 85.20 C 220.48 86.36 217.91 85.59 219.26 84.25 Z" />
<path fill="#ef9391" opacity="1.00" d=" M 177.96 111.96 C 177.92 112.43 177.83 113.37 177.79 113.84 C 178.95 113.10 180.11 112.37 181.31 111.69 C 180.73 113.24 179.99 114.72 179.16 116.15 C 180.98 115.56 182.82 114.99 184.70 114.62 C 186.55 115.17 188.40 115.70 190.27 116.21 C 187.84 116.73 185.37 117.01 182.93 117.49 C 182.47 117.28 181.54 116.88 181.07 116.68 C 180.58 116.70 179.59 116.75 179.09 116.77 C 177.77 116.11 176.51 115.14 174.97 115.09 C 168.62 114.30 162.21 114.83 155.84 114.56 C 162.67 113.55 169.60 113.85 176.44 113.42 C 176.82 113.06 177.58 112.33 177.96 111.96 Z" />
<path fill="#ef9391" opacity="1.00" d=" M 161.56 136.13 C 162.78 133.22 165.42 131.42 168.37 130.57 C 166.38 132.75 164.05 134.56 161.56 136.13 Z" />
<path fill="#ef9391" opacity="1.00" d=" M 150.41 142.48 C 151.81 142.69 152.03 143.37 151.08 144.52 C 149.69 144.32 149.47 143.64 150.41 142.48 Z" />
</g>
<g id="#c84949ff">
<path fill="#c84949" opacity="1.00" d=" M 241.97 52.98 C 250.30 58.96 257.04 67.01 262.11 75.89 C 263.39 78.10 264.63 80.40 264.99 82.96 C 263.59 82.35 263.19 80.77 262.48 79.56 C 258.49 71.37 252.83 63.99 245.96 57.99 C 244.39 56.53 242.43 55.23 241.97 52.98 Z" />
<path fill="#c84949" opacity="1.00" d=" M 174.38 62.10 C 184.73 61.29 195.40 62.59 205.50 59.55 C 205.69 59.76 206.07 60.17 206.26 60.38 C 207.42 58.30 209.00 60.22 210.41 60.88 C 210.26 62.27 210.13 63.67 210.03 65.07 C 210.46 64.12 210.89 63.17 211.32 62.22 C 212.10 62.89 212.56 63.86 213.22 64.64 C 212.82 65.10 212.03 66.02 211.64 66.48 C 210.49 66.49 209.33 66.51 208.18 66.54 C 202.23 66.83 196.28 66.54 190.34 66.65 C 189.10 67.59 187.87 68.51 186.63 69.43 C 186.54 68.84 186.36 67.64 186.27 67.04 C 185.68 67.37 184.50 68.05 183.91 68.39 C 182.63 67.94 181.35 67.51 180.06 67.11 C 181.05 65.68 182.05 64.26 183.03 62.83 C 180.13 62.78 177.17 63.04 174.38 62.10 Z" />
<path fill="#c84949" opacity="1.00" d=" M 236.62 68.23 L 236.70 68.22 C 238.88 70.33 240.28 72.98 240.20 76.08 L 238.94 75.49 C 236.20 74.15 233.28 73.22 230.37 72.30 C 230.40 71.38 230.47 69.53 230.50 68.60 C 232.54 68.50 234.58 68.40 236.62 68.23 Z" />
<path fill="#c84949" opacity="1.00" d=" M 209.96 73.75 C 210.17 72.71 210.38 71.67 210.60 70.62 C 210.92 71.33 211.56 72.75 211.88 73.46 C 212.02 72.68 212.31 71.12 212.45 70.34 C 213.64 70.41 214.83 70.50 216.02 70.61 C 216.43 72.55 218.25 73.13 219.92 73.59 C 221.00 73.97 222.09 74.34 223.18 74.71 C 223.46 75.05 224.01 75.75 224.29 76.10 C 226.15 76.96 228.86 77.40 228.57 80.03 C 228.59 80.37 228.64 81.05 228.66 81.39 C 231.32 81.34 231.97 84.19 232.90 86.08 C 233.93 87.43 236.05 88.32 236.21 90.10 C 236.43 90.57 236.88 91.53 237.10 92.00 C 237.58 93.22 237.96 94.49 238.35 95.74 C 238.27 95.32 238.10 94.46 238.02 94.03 C 238.42 93.57 239.22 92.66 239.62 92.20 C 239.98 94.10 240.36 95.99 240.63 97.91 C 240.41 98.13 239.97 98.56 239.76 98.77 C 230.57 98.56 221.39 98.68 212.21 98.54 C 212.15 98.27 212.04 97.72 211.99 97.45 C 219.53 97.52 227.08 97.35 234.63 97.33 C 233.79 96.84 232.11 95.84 231.27 95.34 C 226.18 95.10 221.09 95.25 216.01 95.22 C 213.92 95.03 212.05 96.07 210.21 96.90 C 210.23 96.42 210.26 95.46 210.27 94.97 C 209.58 95.61 208.88 96.25 208.19 96.89 C 209.17 97.13 210.16 97.37 211.15 97.62 C 211.91 99.91 213.43 101.79 215.46 103.10 C 214.69 103.76 213.89 104.39 213.10 105.02 C 214.41 104.88 215.73 104.73 217.05 104.60 C 219.22 107.35 221.29 110.20 223.08 113.23 C 221.36 112.53 219.69 111.75 218.01 110.96 C 218.26 111.41 218.75 112.30 218.99 112.75 C 218.33 112.89 217.01 113.16 216.35 113.30 L 219.05 114.05 C 217.82 114.66 216.54 115.14 215.28 115.66 C 217.36 115.86 219.44 115.65 221.52 115.47 C 221.19 114.68 220.54 113.11 220.21 112.32 C 221.16 112.76 223.05 113.64 223.99 114.08 C 224.69 116.24 222.56 118.66 220.89 119.98 C 212.52 120.81 204.06 120.72 195.67 121.44 C 195.27 121.07 194.46 120.33 194.06 119.96 C 193.12 120.62 192.18 121.29 191.23 121.95 C 191.53 124.39 191.80 126.83 192.12 129.27 C 192.17 129.72 192.29 130.62 192.35 131.07 C 190.56 130.20 188.07 129.88 187.16 127.85 C 185.69 124.42 184.63 120.82 182.93 117.49 C 185.37 117.01 187.84 116.73 190.27 116.21 C 194.36 114.90 198.79 113.13 203.11 114.37 C 204.33 113.35 205.56 112.34 206.80 111.34 C 207.73 111.85 208.66 112.36 209.60 112.88 C 209.65 112.57 209.75 111.94 209.80 111.63 C 204.71 110.80 201.24 106.74 197.56 103.52 C 198.09 102.21 198.58 100.88 199.04 99.54 C 197.77 100.63 197.29 102.21 196.92 103.77 C 194.94 102.21 192.82 100.80 191.06 99.00 C 191.57 97.72 192.24 96.53 192.88 95.32 C 189.70 95.01 186.51 94.78 183.37 94.20 C 187.02 93.74 190.72 93.96 194.36 93.42 C 186.15 92.97 177.86 93.60 169.73 92.26 C 175.95 89.79 182.54 92.06 188.95 90.89 C 193.06 90.26 197.69 91.86 201.41 89.52 C 195.93 89.05 190.42 89.66 184.94 89.18 C 178.62 88.37 172.24 88.46 165.88 88.27 C 178.23 86.94 190.72 87.37 203.13 87.17 C 205.08 86.89 206.83 85.87 208.62 85.10 C 208.62 83.84 208.64 82.59 208.66 81.33 C 201.20 81.46 193.73 81.36 186.27 81.42 L 186.30 79.35 C 193.99 79.28 201.67 79.38 209.35 79.40 C 210.01 77.84 210.66 76.27 211.31 74.69 C 204.21 74.34 197.11 75.08 190.02 74.65 C 185.39 74.40 180.76 74.19 176.13 74.20 C 187.38 73.41 198.68 73.78 209.96 73.75 M 226.34 80.24 C 225.07 80.78 223.73 82.44 224.23 83.84 C 225.67 84.17 228.02 80.97 226.34 80.24 M 212.45 81.10 C 212.25 82.87 215.03 84.04 216.53 83.66 C 216.50 82.05 213.97 80.47 212.45 81.10 M 219.26 84.25 C 217.91 85.59 220.48 86.36 221.18 85.20 C 222.54 83.88 219.95 83.08 219.26 84.25 M 214.63 93.59 C 219.77 93.80 224.93 93.65 230.08 93.65 C 228.42 91.85 226.78 90.03 225.13 88.23 C 221.68 90.12 218.10 91.76 214.63 93.59 Z" />
<path fill="#c84949" opacity="1.00" d=" M 244.68 75.25 C 245.64 74.22 246.61 73.20 247.57 72.17 C 248.56 74.18 249.54 76.19 250.47 78.24 C 249.95 77.96 248.93 77.42 248.41 77.15 C 247.64 78.35 246.95 79.93 248.62 80.74 C 247.81 82.62 245.36 82.10 243.80 82.80 C 243.35 81.05 242.94 79.29 242.55 77.53 C 244.36 77.26 246.18 76.95 248.02 77.05 C 247.19 76.60 245.52 75.70 244.68 75.25 Z" />
<path fill="#c84949" opacity="1.00" d=" M 130.66 84.68 C 131.23 83.17 132.14 81.82 133.22 80.63 C 132.63 83.40 131.56 86.03 130.65 88.70 C 126.45 100.91 125.98 114.26 128.55 126.87 C 129.43 131.71 131.80 136.16 132.45 141.05 C 129.75 137.26 128.64 132.66 127.54 128.21 C 124.12 113.83 125.22 98.43 130.66 84.68 Z" />
<path fill="#c84949" opacity="1.00" d=" M 254.91 80.77 C 262.82 92.73 263.78 107.93 262.27 121.83 C 261.11 128.55 259.26 135.38 255.46 141.11 C 256.96 135.39 260.05 130.16 260.61 124.18 L 260.73 123.83 C 260.88 123.43 261.17 122.62 261.31 122.21 C 262.82 111.83 262.21 101.10 258.80 91.13 C 257.65 87.62 255.81 84.37 254.91 80.77 Z" />
<path fill="#c84949" opacity="1.00" d=" M 183.05 110.26 C 185.78 107.44 188.22 104.33 191.13 101.68 C 193.59 101.68 195.70 103.94 197.98 104.93 C 198.46 105.98 198.94 107.02 199.44 108.06 C 194.76 110.76 190.61 115.52 184.70 114.62 C 182.82 114.99 180.98 115.56 179.16 116.15 C 179.99 114.72 180.73 113.24 181.31 111.69 C 180.11 112.37 178.95 113.10 177.79 113.84 C 177.83 113.37 177.92 112.43 177.96 111.96 C 172.53 111.47 167.07 111.72 161.64 111.37 C 168.61 109.76 175.93 110.81 183.05 110.26 Z" />
<path fill="#c84949" opacity="1.00" d=" M 269.81 112.92 C 270.03 110.08 269.21 106.95 270.89 104.42 C 271.52 109.46 271.54 114.59 270.91 119.63 C 270.73 119.70 270.35 119.82 270.16 119.88 C 269.23 117.67 269.92 115.23 269.81 112.92 Z" />
<path fill="#c84949" opacity="1.00" d=" M 169.68 122.54 C 172.40 119.92 174.77 116.48 179.09 116.77 C 179.59 116.75 180.58 116.70 181.07 116.68 C 181.54 116.88 182.47 117.28 182.93 117.49 C 184.30 120.34 180.95 121.13 179.21 122.41 C 177.58 123.36 175.96 124.31 174.33 125.25 C 174.85 125.35 175.90 125.56 176.42 125.67 C 175.24 126.53 174.05 127.39 172.87 128.25 C 172.83 127.72 172.74 126.67 172.70 126.14 C 169.81 128.08 166.81 129.88 163.73 131.52 C 165.16 129.18 166.64 126.89 168.12 124.59 C 162.62 124.59 157.10 124.54 151.63 123.91 C 155.74 123.40 159.88 123.57 164.01 123.36 C 165.74 122.25 167.74 122.51 169.68 122.54 Z" />
<path fill="#c84949" opacity="1.00" d=" M 269.02 122.58 C 269.22 122.39 269.63 121.99 269.83 121.79 L 270.42 121.64 C 269.28 133.01 264.54 143.81 258.21 153.24 C 256.99 155.16 255.45 156.84 253.74 158.33 C 254.69 155.08 257.09 152.61 258.85 149.81 C 261.54 145.74 263.58 141.29 265.25 136.72 C 267.25 132.23 268.25 127.41 269.02 122.58 Z" />
<path fill="#c84949" opacity="1.00" d=" M 159.66 129.82 C 161.90 128.28 164.19 126.84 166.58 125.55 C 164.88 129.06 162.38 132.05 159.76 134.90 C 159.74 133.20 159.70 131.51 159.66 129.82 Z" />
<path fill="#c84949" opacity="1.00" d=" M 133.22 128.32 C 134.47 128.28 135.73 128.24 136.98 128.21 C 138.11 132.32 138.97 136.92 142.32 139.89 C 147.17 148.27 153.04 156.26 161.00 161.95 C 165.41 165.61 170.70 167.83 175.66 170.60 C 180.47 173.92 186.48 174.36 192.07 175.36 C 196.09 176.11 200.02 174.60 204.02 174.47 C 208.61 174.27 213.05 173.03 217.57 172.37 C 212.81 175.07 207.16 175.08 201.87 175.75 C 200.97 176.97 200.08 178.18 199.20 179.40 C 181.98 179.30 164.67 172.73 152.30 160.64 C 143.03 151.94 136.64 140.51 133.22 128.32 Z" />
<path fill="#c84949" opacity="1.00" d=" M 152.18 128.36 C 153.46 129.03 153.45 129.73 152.14 130.43 C 150.87 129.75 150.88 129.06 152.18 128.36 Z" />
<path fill="#c84949" opacity="1.00" d=" M 158.08 128.48 C 161.44 128.69 156.45 131.42 158.08 128.48 Z" />
<path fill="#c84949" opacity="1.00" d=" M 153.83 132.99 C 155.49 132.42 157.14 131.85 158.81 131.29 C 157.86 132.57 156.92 133.86 155.97 135.15 C 157.54 135.40 159.10 135.66 160.66 135.92 C 159.51 137.81 158.37 139.70 157.21 141.58 C 157.09 140.89 156.83 139.51 156.70 138.82 C 156.13 140.29 155.56 141.75 154.98 143.21 C 154.55 145.20 154.07 147.18 153.55 149.15 C 158.30 148.90 163.12 147.41 167.83 148.63 C 162.90 149.30 157.87 149.12 152.91 149.14 C 152.37 148.21 151.89 147.26 151.49 146.27 C 152.53 145.34 153.52 144.36 154.38 143.26 C 150.88 142.84 152.93 139.07 152.06 136.84 C 152.53 136.77 153.47 136.62 153.94 136.55 C 153.90 135.36 153.86 134.18 153.83 132.99 Z" />
<path fill="#c84949" opacity="1.00" d=" M 247.47 153.63 C 248.20 154.43 249.44 154.92 249.72 156.04 C 245.24 161.66 239.49 166.28 233.23 169.79 C 231.00 168.24 228.32 168.29 225.74 168.58 C 231.14 166.44 235.70 162.84 240.32 159.42 C 242.95 157.81 245.44 155.97 247.47 153.63 Z" />
<path fill="#c84949" opacity="1.00" d=" M 226.40 177.38 C 230.52 175.78 234.12 173.05 238.34 171.67 C 236.47 174.12 233.62 175.44 230.93 176.78 C 222.84 180.78 214.02 183.15 205.10 184.34 C 195.64 185.45 186.16 183.78 177.06 181.27 C 175.47 180.80 174.03 179.95 172.65 179.05 C 177.87 179.60 182.77 181.70 187.98 182.29 C 200.91 184.53 214.33 182.31 226.40 177.38 Z" />
</g>
<g id="#020101ff">
<path fill="#020101" opacity="1.00" d=" M 218.31 72.99 C 216.81 68.55 213.79 64.78 212.52 60.26 C 216.59 62.22 218.10 66.95 221.94 69.17 C 223.07 69.28 224.20 69.40 225.33 69.52 C 225.91 71.75 226.16 74.17 227.63 76.05 C 227.61 74.96 227.58 72.78 227.56 71.69 C 228.68 70.36 229.80 69.03 230.90 67.68 C 232.82 67.59 234.86 67.15 236.62 68.23 C 234.58 68.40 232.54 68.50 230.50 68.60 C 230.47 69.53 230.40 71.38 230.37 72.30 C 233.28 73.22 236.20 74.15 238.94 75.49 C 239.51 78.71 237.22 80.94 235.17 83.01 C 233.26 81.44 230.95 80.59 228.57 80.03 C 228.86 77.40 226.15 76.96 224.29 76.10 C 224.01 75.75 223.46 75.05 223.18 74.71 C 222.09 74.34 221.00 73.97 219.92 73.59 L 219.20 73.34 C 219.37 72.45 219.72 70.65 219.89 69.75 C 219.36 70.83 218.83 71.91 218.31 72.99 Z" />
<path fill="#020101" opacity="1.00" d=" M 211.64 66.48 C 212.03 66.02 212.82 65.10 213.22 64.64 C 213.98 66.71 215.01 68.66 216.02 70.61 C 214.83 70.50 213.64 70.41 212.45 70.34 L 212.06 70.32 C 210.83 68.99 209.51 67.76 208.18 66.54 C 209.33 66.51 210.49 66.49 211.64 66.48 Z" />
<path fill="#020101" opacity="1.00" d=" M 244.07 82.94 C 245.33 82.85 246.59 82.76 247.86 82.66 C 245.69 88.51 244.02 94.79 240.10 99.76 C 239.81 99.72 239.21 99.64 238.91 99.59 L 239.76 98.77 C 239.97 98.56 240.41 98.13 240.63 97.91 C 240.36 95.99 239.98 94.10 239.62 92.20 C 241.91 89.55 243.02 86.21 244.07 82.94 Z" />
<path fill="#020101" opacity="1.00" d=" M 236.21 90.10 L 237.11 90.23 L 237.57 91.21 L 237.10 92.00 C 236.88 91.53 236.43 90.57 236.21 90.10 Z" />
<path fill="#020101" opacity="1.00" d=" M 174.33 125.25 C 175.96 124.31 177.58 123.36 179.21 122.41 C 178.56 123.41 177.90 124.40 177.24 125.40 C 178.42 128.04 179.52 131.24 182.43 132.44 C 185.51 133.73 188.92 133.88 192.20 134.07 C 192.70 133.54 193.69 132.50 194.19 131.97 C 193.73 131.75 192.81 131.30 192.35 131.07 C 192.29 130.62 192.17 129.72 192.12 129.27 L 192.58 130.40 C 192.97 130.34 193.76 130.22 194.16 130.16 C 194.26 129.06 194.46 126.87 194.56 125.78 C 195.02 127.23 195.45 128.69 195.86 130.17 C 197.55 130.18 199.24 130.20 200.93 130.22 C 201.36 128.77 201.79 127.33 202.27 125.90 C 202.65 128.55 202.92 131.21 203.38 133.84 C 207.30 133.92 211.48 133.98 215.05 132.10 C 217.85 130.37 218.95 127.08 219.74 124.07 C 233.40 123.58 247.07 124.06 260.73 123.83 L 260.61 124.18 C 255.09 127.22 248.86 129.84 245.35 135.39 C 242.42 139.38 242.36 144.50 242.82 149.21 C 231.94 148.24 220.36 148.51 210.40 153.49 C 204.53 156.36 200.47 161.89 198.39 167.98 C 196.33 161.68 191.98 156.08 185.91 153.24 C 180.34 150.18 173.93 149.81 167.83 148.63 C 163.12 147.41 158.30 148.90 153.55 149.15 C 154.07 147.18 154.55 145.20 154.98 143.21 C 155.56 141.75 156.13 140.29 156.70 138.82 C 156.83 139.51 157.09 140.89 157.21 141.58 C 158.37 139.70 159.51 137.81 160.66 135.92 C 159.10 135.66 157.54 135.40 155.97 135.15 C 156.92 133.86 157.86 132.57 158.81 131.29 C 157.14 131.85 155.49 132.42 153.83 132.99 C 153.86 134.18 153.90 135.36 153.94 136.55 C 153.47 136.62 152.53 136.77 152.06 136.84 C 151.70 137.03 150.98 137.43 150.61 137.62 C 149.50 137.01 151.49 135.77 151.65 134.97 C 147.26 130.02 141.49 126.75 135.60 123.93 C 139.40 123.81 143.21 123.91 147.01 123.84 C 148.55 123.84 150.09 123.80 151.63 123.91 C 157.10 124.54 162.62 124.59 168.12 124.59 C 166.64 126.89 165.16 129.18 163.73 131.52 C 166.81 129.88 169.81 128.08 172.70 126.14 C 172.74 126.67 172.83 127.72 172.87 128.25 C 174.05 127.39 175.24 126.53 176.42 125.67 C 175.90 125.56 174.85 125.35 174.33 125.25 M 159.66 129.82 C 159.70 131.51 159.74 133.20 159.76 134.90 C 162.38 132.05 164.88 129.06 166.58 125.55 C 164.19 126.84 161.90 128.28 159.66 129.82 M 152.18 128.36 C 150.88 129.06 150.87 129.75 152.14 130.43 C 153.45 129.73 153.46 129.03 152.18 128.36 M 158.08 128.48 C 156.45 131.42 161.44 128.69 158.08 128.48 M 161.56 136.13 C 164.05 134.56 166.38 132.75 168.37 130.57 C 165.42 131.42 162.78 133.22 161.56 136.13 M 171.63 138.39 C 171.67 140.37 171.72 142.35 171.81 144.34 C 173.22 144.49 174.64 144.62 176.06 144.73 C 176.53 142.53 177.33 139.87 175.65 137.98 C 175.43 139.95 175.29 141.92 175.21 143.90 L 173.14 143.76 C 173.13 142.15 173.15 140.54 173.16 138.92 C 172.78 138.79 172.02 138.52 171.63 138.39 M 177.77 138.56 C 177.76 140.57 177.75 142.59 177.72 144.60 C 179.26 144.65 180.80 144.72 182.34 144.80 C 181.34 144.37 179.33 143.51 178.33 143.07 C 178.92 142.67 180.10 141.86 180.69 141.46 C 180.11 140.95 178.93 139.92 178.35 139.40 C 183.09 137.36 183.01 142.88 184.90 145.53 C 186.09 143.11 187.30 140.63 187.71 137.93 C 186.20 139.30 185.65 141.33 184.85 143.14 C 184.27 141.64 183.71 140.15 183.14 138.66 C 181.35 138.64 179.56 138.59 177.77 138.56 M 196.69 137.86 C 196.48 139.49 196.23 141.14 196.40 142.79 C 196.34 145.26 200.84 145.55 201.18 143.23 C 201.42 141.39 201.34 139.50 200.51 137.82 C 200.19 139.85 200.10 141.91 199.70 143.93 C 196.29 144.50 198.73 139.53 196.69 137.86 M 202.75 137.92 C 202.44 140.43 202.36 142.98 202.66 145.50 C 203.76 144.14 203.55 142.34 203.73 140.72 C 204.87 142.34 205.98 144.00 207.35 145.44 C 207.59 142.84 207.96 140.13 206.96 137.63 C 206.78 138.85 206.41 141.28 206.22 142.49 C 205.09 140.95 203.99 139.38 202.75 137.92 M 212.58 142.44 C 211.51 140.87 210.44 139.28 208.97 138.05 C 209.00 140.49 208.17 143.24 209.73 145.42 C 209.78 144.24 209.87 141.87 209.91 140.69 C 211.18 142.29 212.37 143.95 213.74 145.47 C 213.90 142.88 214.03 140.26 213.55 137.70 C 213.07 139.25 212.82 140.84 212.58 142.44 M 216.46 145.30 C 216.64 142.79 216.65 140.27 216.27 137.79 C 214.96 139.92 214.37 143.54 216.46 145.30 M 222.41 137.70 C 222.07 139.22 221.78 140.75 221.56 142.30 C 220.45 140.82 219.34 139.33 218.06 138.00 C 217.92 140.48 217.31 143.13 218.55 145.45 C 218.65 144.24 218.86 141.81 218.96 140.60 C 220.08 142.16 221.16 143.76 222.26 145.34 C 222.76 144.24 223.27 143.14 223.78 142.04 C 224.01 145.04 227.25 145.24 229.35 144.33 C 229.68 143.17 228.98 142.28 228.23 141.51 C 228.06 142.27 227.72 143.80 227.55 144.56 C 225.32 143.52 224.64 141.81 225.49 139.41 C 226.86 139.47 228.22 139.55 229.59 139.66 C 229.31 139.33 228.73 138.67 228.45 138.34 C 226.90 138.56 225.20 138.61 224.12 139.94 C 223.82 140.08 223.21 140.35 222.91 140.48 C 222.78 139.79 222.54 138.39 222.41 137.70 M 190.76 144.61 L 192.08 144.72 C 192.13 144.01 192.22 142.58 192.26 141.87 C 193.31 143.12 194.35 144.40 195.63 145.44 C 194.82 143.48 194.24 141.49 194.71 139.36 C 194.31 139.05 193.51 138.42 193.11 138.11 C 193.29 138.86 193.65 140.35 193.83 141.10 C 193.30 141.18 192.23 141.35 191.70 141.43 C 191.97 140.57 192.51 138.85 192.78 138.00 C 189.45 138.59 191.30 142.41 190.76 144.61 Z" />
</g>
</svg>
