<svg xmlns="http://www.w3.org/2000/svg" viewBox="0 0 984 800"><defs><style>.cls-1{fill:#fc2b22;}.cls-2{fill:#fff;}</style></defs><g id="Capa_1" data-name="Capa 1"><text x="-121" y="32"/><rect class="cls-1" width="984" height="800"/><rect class="cls-1" y="248" width="104" height="126"/></g><g id="Capa_2" data-name="Capa 2"><path class="cls-2" d="M307.27,449q-18.19,18.42-46,18.42T215.36,449q-18.2-18.42-18.19-46.41V300.78h27.54V402.56q0,16.41,10.5,27.36a34.66,34.66,0,0,0,26.1,11q15.72,0,26.22-11T298,402.56V300.78h27.43V402.56Q325.46,430.55,307.27,449Z" transform="translate(-121 32)"/><path class="cls-2" d="M427.14,370.48a61.21,61.21,0,0,1,5,10.26l-75.37,44.33q9,11,20.75,13.22t23.75-4.78A40.44,40.44,0,0,0,414.66,421a28,28,0,0,0,5.1-15.32l24.75.89q.4,13.35-8,25.93t-23.7,21.59a59.19,59.19,0,0,1-29.9,8.47,57.79,57.79,0,0,1-29.67-7.78,60.65,60.65,0,0,1-22.46-22.46,58.86,58.86,0,0,1-8.44-29.85A57.28,57.28,0,0,1,330,373.17a58.85,58.85,0,0,1,21.81-21.88,55.34,55.34,0,0,1,27.74-7.94,53.07,53.07,0,0,1,27.25,6.94A54.32,54.32,0,0,1,427.14,370.48Zm-79.79,36.81L399,376.93a25.25,25.25,0,0,0-16.84-10.53q-10.49-1.75-20.67,4.24-10,5.87-13.63,15.53T347.35,407.29Z" transform="translate(-121 32)"/><path class="cls-2" d="M640.2,436.18a51,51,0,0,1-20.76,22.89,61.18,61.18,0,0,1-32.13,8.55q-25.59,0-42.86-17.1T527.18,408a60.83,60.83,0,0,1,7.8-30.52,56.32,56.32,0,0,1,21.57-21.58,60.87,60.87,0,0,1,30.53-7.8A59.17,59.17,0,0,1,617,355.63a47.94,47.94,0,0,1,19.68,20.42L614.5,388.44a26.51,26.51,0,0,0-10.84-11.13,33.09,33.09,0,0,0-16.58-4.13q-14.7,0-24.39,9.93T553,408q0,14.69,9.81,24.61t24.5,9.93a35.29,35.29,0,0,0,17.9-4.48,28.55,28.55,0,0,0,11.7-12.39Z" transform="translate(-121 32)"/><path class="cls-2" d="M669.41,303.78V468.32h-26V303.78Z" transform="translate(-121 32)"/><path class="cls-2" d="M765.11,350.46h26.28V465.32H765.11V449.83a35.5,35.5,0,0,1-14.63,13A45,45,0,0,1,730,467.62q-21.69,0-34.31-13.94t-12.62-37.93V350.46h26v61.28q0,13.77,7.45,21.8t19.85,8a33.09,33.09,0,0,0,16.47-4.42,32.23,32.23,0,0,0,12.22-11.76Z" transform="translate(-121 32)"/><path class="cls-2" d="M865.58,352.05q23.17,0,39.18,17.33t16,42.34q0,25.25-16,42.57t-39.18,17.33a49.56,49.56,0,0,1-21.8-5q-10.34-5-14.92-12.8v15.49H802.81V304.78h26.05V370q4.59-7.8,14.92-12.85A49.07,49.07,0,0,1,865.58,352.05Zm-5.39,94.67q14.79,0,24.78-10t10-25q0-14.91-10-24.84T860.19,377a37,37,0,0,0-18.42,4.88,32.43,32.43,0,0,0-12.91,12.56v35.23a32.54,32.54,0,0,0,13,12.28A37.43,37.43,0,0,0,860.19,446.72Z" transform="translate(-121 32)"/><rect class="cls-1" x="5" y="291" width="287" height="83"/><path class="cls-2" d="M999.14,463.9a87.44,87.44,0,0,1-27.28,7q-14.45,1.32-25.16-2.25l1.53-22.22q8.53,3.15,20.39,2.34a62.15,62.15,0,0,0,20.89-4.78q7.79-3.4,11.16-8.83t1.17-10.48a8.57,8.57,0,0,0-5.1-4.78,18.41,18.41,0,0,0-8.25-.83q-4.68.48-10.55,1.37T966,422.49a60.24,60.24,0,0,1-12.34,1.14,52.5,52.5,0,0,1-11.74-1.36,24.17,24.17,0,0,1-10.33-5.56,31.19,31.19,0,0,1-7.92-11.19,32,32,0,0,1,1-28.85q7.35-14.25,25.42-22.17a81.29,81.29,0,0,1,23.45-6.4A49.53,49.53,0,0,1,995,349.94l-1.35,22.64q-8.15-2.56-19-1.4a62.43,62.43,0,0,0-18.18,4.4q-6.62,2.91-9.3,7.65a10.51,10.51,0,0,0-.42,9.9,8,8,0,0,0,5.9,4.61,29.15,29.15,0,0,0,10.24.34q5.89-.7,12.86-1.95a116.63,116.63,0,0,1,14.27-1.61,67.91,67.91,0,0,1,13.94.65,27.24,27.24,0,0,1,12.51,5.54,31,31,0,0,1,9.32,12.39q6.21,14.19-1.27,28.56T999.14,463.9Z" transform="translate(-121 32)"/></g></svg>